G04 #@! TF.GenerationSoftware,KiCad,Pcbnew,9.0.2*
G04 #@! TF.CreationDate,2025-06-16T10:28:11-04:00*
G04 #@! TF.ProjectId,avionicsboard,6176696f-6e69-4637-9362-6f6172642e6b,rev?*
G04 #@! TF.SameCoordinates,Original*
G04 #@! TF.FileFunction,Copper,L2,Inr*
G04 #@! TF.FilePolarity,Positive*
%FSLAX46Y46*%
G04 Gerber Fmt 4.6, Leading zero omitted, Abs format (unit mm)*
G04 Created by KiCad (PCBNEW 9.0.2) date 2025-06-16 10:28:11*
%MOMM*%
%LPD*%
G01*
G04 APERTURE LIST*
G04 #@! TA.AperFunction,ComponentPad*
%ADD10R,0.800000X1.300000*%
G04 #@! TD*
G04 #@! TA.AperFunction,ComponentPad*
%ADD11O,0.800000X1.300000*%
G04 #@! TD*
G04 #@! TA.AperFunction,ComponentPad*
%ADD12R,1.300000X0.800000*%
G04 #@! TD*
G04 #@! TA.AperFunction,ComponentPad*
%ADD13O,1.300000X0.800000*%
G04 #@! TD*
G04 #@! TA.AperFunction,ComponentPad*
%ADD14R,1.000000X1.000000*%
G04 #@! TD*
G04 #@! TA.AperFunction,ComponentPad*
%ADD15O,1.000000X1.000000*%
G04 #@! TD*
G04 #@! TA.AperFunction,ComponentPad*
%ADD16R,1.700000X1.700000*%
G04 #@! TD*
G04 #@! TA.AperFunction,ComponentPad*
%ADD17O,1.700000X1.700000*%
G04 #@! TD*
G04 #@! TA.AperFunction,ComponentPad*
%ADD18C,0.800000*%
G04 #@! TD*
G04 #@! TA.AperFunction,ComponentPad*
%ADD19C,6.400000*%
G04 #@! TD*
G04 #@! TA.AperFunction,ComponentPad*
%ADD20R,2.400000X2.400000*%
G04 #@! TD*
G04 #@! TA.AperFunction,ComponentPad*
%ADD21C,2.400000*%
G04 #@! TD*
G04 #@! TA.AperFunction,ComponentPad*
%ADD22C,1.800000*%
G04 #@! TD*
G04 #@! TA.AperFunction,ComponentPad*
%ADD23C,2.000000*%
G04 #@! TD*
G04 #@! TA.AperFunction,ViaPad*
%ADD24C,0.800000*%
G04 #@! TD*
G04 #@! TA.AperFunction,ViaPad*
%ADD25C,0.600000*%
G04 #@! TD*
G04 #@! TA.AperFunction,Conductor*
%ADD26C,0.350000*%
G04 #@! TD*
G04 APERTURE END LIST*
D10*
X46482000Y-64770000D03*
D11*
X47732000Y-64770000D03*
X48982000Y-64770000D03*
X50232000Y-64770000D03*
D10*
X55753000Y-64770000D03*
D11*
X57003000Y-64770000D03*
X58253000Y-64770000D03*
X59503000Y-64770000D03*
D12*
X64770000Y-58674000D03*
D13*
X64770000Y-57424000D03*
X64770000Y-56174000D03*
X64770000Y-54924000D03*
D14*
X31369000Y-54292500D03*
D15*
X31369000Y-53022500D03*
D16*
X25000000Y-48000000D03*
D17*
X22460000Y-48000000D03*
X25000000Y-45460000D03*
X22460000Y-45460000D03*
X25000000Y-42920000D03*
X22460000Y-42920000D03*
X25000000Y-40380000D03*
X22460000Y-40380000D03*
X25000000Y-37840000D03*
X22460000Y-37840000D03*
X25000000Y-35300000D03*
X22460000Y-35300000D03*
X25000000Y-32760000D03*
X22460000Y-32760000D03*
X25000000Y-30220000D03*
X22460000Y-30220000D03*
D16*
X27541220Y-30251400D03*
D17*
X27541220Y-32791400D03*
X27541220Y-35331400D03*
X27541220Y-37871400D03*
X27541220Y-40411400D03*
X27541220Y-42951400D03*
X27541220Y-45491400D03*
X27541220Y-48031400D03*
D10*
X50292000Y-25146000D03*
D11*
X49042000Y-25146000D03*
X47792000Y-25146000D03*
X46542000Y-25146000D03*
D10*
X31623000Y-25146000D03*
D11*
X30373000Y-25146000D03*
D18*
X21600000Y-66000000D03*
X22302944Y-64302944D03*
X22302944Y-67697056D03*
X24000000Y-63600000D03*
D19*
X24000000Y-66000000D03*
D18*
X24000000Y-68400000D03*
X25697056Y-64302944D03*
X25697056Y-67697056D03*
X26400000Y-66000000D03*
X63600000Y-66000000D03*
X64302944Y-64302944D03*
X64302944Y-67697056D03*
X66000000Y-63600000D03*
D19*
X66000000Y-66000000D03*
D18*
X66000000Y-68400000D03*
X67697056Y-64302944D03*
X67697056Y-67697056D03*
X68400000Y-66000000D03*
X63600000Y-24000000D03*
X64302944Y-22302944D03*
X64302944Y-25697056D03*
X66000000Y-21600000D03*
D19*
X66000000Y-24000000D03*
D18*
X66000000Y-26400000D03*
X67697056Y-22302944D03*
X67697056Y-25697056D03*
X68400000Y-24000000D03*
X21600000Y-24000000D03*
X22302944Y-22302944D03*
X22302944Y-25697056D03*
X24000000Y-21600000D03*
D19*
X24000000Y-24000000D03*
D18*
X24000000Y-26400000D03*
X25697056Y-22302944D03*
X25697056Y-25697056D03*
X26400000Y-24000000D03*
D10*
X59436000Y-25146000D03*
D11*
X58186000Y-25146000D03*
X56936000Y-25146000D03*
X55686000Y-25146000D03*
D20*
X25463500Y-55181500D03*
D21*
X25463500Y-58681500D03*
D22*
X68117000Y-38038000D03*
D23*
X64317000Y-37888000D03*
X64317000Y-30438000D03*
D22*
X68117000Y-30288000D03*
D24*
X41579800Y-24536400D03*
X38785800Y-26136600D03*
X41579800Y-25501600D03*
X41579800Y-26517600D03*
X42595800Y-24536400D03*
X42595800Y-25501600D03*
X42595800Y-26517600D03*
X35814000Y-42316400D03*
X50723800Y-33934400D03*
X34112200Y-44119800D03*
X33883600Y-32435800D03*
X44577000Y-35306000D03*
X48158400Y-37744400D03*
X67206000Y-51077000D03*
X42545000Y-69215000D03*
X34036000Y-54356000D03*
X39141400Y-29286200D03*
X55245000Y-45847000D03*
X27668500Y-62720500D03*
X30988000Y-68961000D03*
X37966400Y-68929000D03*
X50038000Y-31216600D03*
X45466000Y-60452000D03*
X52578000Y-57150000D03*
X46228000Y-28854400D03*
X51181000Y-40005000D03*
X39598600Y-44348400D03*
X41910000Y-59182000D03*
X42926000Y-31369000D03*
D25*
X36033900Y-44796900D03*
D24*
X33598800Y-31018800D03*
X44196000Y-48031400D03*
X48133000Y-36449000D03*
X38100000Y-33020000D03*
X37515800Y-21463000D03*
X36499800Y-21463000D03*
X39547800Y-21463000D03*
X54610000Y-29210000D03*
X46990000Y-21488400D03*
X48260000Y-52070000D03*
X66040000Y-40640000D03*
X45720000Y-35306000D03*
X36957000Y-58801000D03*
X43942000Y-69215000D03*
X57150000Y-30480000D03*
X57150000Y-29210000D03*
X68580000Y-57150000D03*
X38811200Y-47117000D03*
X22860000Y-62230000D03*
X48260000Y-68580000D03*
X55880000Y-21488400D03*
X29235400Y-25146000D03*
X48260000Y-21488400D03*
X60960000Y-60960000D03*
X27940000Y-52070000D03*
X52578000Y-59944000D03*
X66264000Y-32863000D03*
X63500000Y-62230000D03*
X45720000Y-54610000D03*
X40005000Y-42082000D03*
X55880000Y-29210000D03*
D25*
X29464000Y-62484000D03*
D24*
X38100000Y-67310000D03*
X40640000Y-21590000D03*
X50800000Y-54610000D03*
X60960000Y-59690000D03*
X67310000Y-40640000D03*
X30480000Y-67310000D03*
X50800000Y-55880000D03*
X46990000Y-52070000D03*
X41910000Y-60452000D03*
X50800000Y-21488400D03*
X59690000Y-43180000D03*
X57150000Y-68580000D03*
X53340000Y-62230000D03*
X43180000Y-21590000D03*
X55880000Y-30480000D03*
X58420000Y-68580000D03*
X62230000Y-40640000D03*
X68580000Y-40640000D03*
X26670000Y-52070000D03*
X57150000Y-21488400D03*
X43840400Y-26517600D03*
X52070000Y-60960000D03*
X59690000Y-30480000D03*
X46990000Y-53340000D03*
X60960000Y-41910000D03*
X44704000Y-44704000D03*
X68580000Y-34290000D03*
X58420000Y-43180000D03*
X33528000Y-45720000D03*
X68580000Y-32893000D03*
X52959000Y-37084000D03*
D25*
X34340800Y-52832000D03*
D24*
X68580000Y-55880000D03*
X44450000Y-54610000D03*
X36957000Y-60071000D03*
X68580000Y-54610000D03*
X29210000Y-52070000D03*
X62230000Y-60960000D03*
X59690000Y-29210000D03*
X58420000Y-30480000D03*
X33020000Y-67310000D03*
X59690000Y-68580000D03*
D25*
X37287200Y-46990000D03*
D24*
X52070000Y-62230000D03*
X49530000Y-68580000D03*
X68580000Y-50927000D03*
X49555400Y-21488400D03*
X53340000Y-60960000D03*
X62230000Y-59690000D03*
X50800000Y-68580000D03*
X36957000Y-57531000D03*
X60960000Y-62230000D03*
X59690000Y-41910000D03*
X68580000Y-35560000D03*
X55880000Y-68580000D03*
X64770000Y-40640000D03*
X58674000Y-48895000D03*
X62230000Y-62230000D03*
X68580000Y-58420000D03*
X58420000Y-21488400D03*
X58420000Y-29210000D03*
D25*
X58039000Y-34493200D03*
D24*
X21590000Y-62230000D03*
X29235400Y-24130000D03*
X29235400Y-23114000D03*
X46990000Y-54610000D03*
X45720000Y-21488400D03*
X31750000Y-67310000D03*
X58420000Y-41910000D03*
X63500000Y-40640000D03*
X55880000Y-31750000D03*
X41910000Y-21590000D03*
X42672000Y-54356000D03*
X57150000Y-31750000D03*
X38531800Y-21463000D03*
X41910000Y-57912000D03*
X48260000Y-53340000D03*
D25*
X37846000Y-45974000D03*
D24*
X37846000Y-31877000D03*
X42926000Y-48920400D03*
X48641000Y-40259000D03*
X46064001Y-52795001D03*
X39497000Y-43053202D03*
X32419000Y-47083000D03*
X32419000Y-48107600D03*
X32419000Y-49115000D03*
X58928000Y-50165000D03*
X51181000Y-50038000D03*
X48133000Y-55245000D03*
X48133000Y-56388000D03*
X62661800Y-53873400D03*
X39624000Y-56261000D03*
X40386000Y-66929000D03*
X46990000Y-49911000D03*
X42037000Y-38481000D03*
X48006000Y-49911000D03*
X44323000Y-41021000D03*
X49022000Y-49911000D03*
X47371000Y-33939000D03*
X38862000Y-55499000D03*
X49276000Y-51562000D03*
X49911000Y-28194000D03*
X51689000Y-29337000D03*
X50292000Y-52451000D03*
X56896000Y-41021000D03*
X43053000Y-35560000D03*
X42291000Y-34798000D03*
X43561000Y-34036000D03*
X37592000Y-55626000D03*
X45339000Y-48031400D03*
D26*
X37033200Y-46990000D02*
X36880800Y-46837600D01*
X36880800Y-45872400D02*
X36728400Y-45720000D01*
X36728400Y-45720000D02*
X33528000Y-45720000D01*
X36880800Y-46837600D02*
X36880800Y-45872400D01*
X37287200Y-46990000D02*
X37033200Y-46990000D01*
G04 #@! TA.AperFunction,Conductor*
G36*
X22714000Y-47569297D02*
G01*
X22652993Y-47534075D01*
X22525826Y-47500000D01*
X22394174Y-47500000D01*
X22267007Y-47534075D01*
X22206000Y-47569297D01*
X22206000Y-45890702D01*
X22267007Y-45925925D01*
X22394174Y-45960000D01*
X22525826Y-45960000D01*
X22652993Y-45925925D01*
X22714000Y-45890702D01*
X22714000Y-47569297D01*
G37*
G04 #@! TD.AperFunction*
G04 #@! TA.AperFunction,Conductor*
G36*
X22714000Y-45029297D02*
G01*
X22652993Y-44994075D01*
X22525826Y-44960000D01*
X22394174Y-44960000D01*
X22267007Y-44994075D01*
X22206000Y-45029297D01*
X22206000Y-43350702D01*
X22267007Y-43385925D01*
X22394174Y-43420000D01*
X22525826Y-43420000D01*
X22652993Y-43385925D01*
X22714000Y-43350702D01*
X22714000Y-45029297D01*
G37*
G04 #@! TD.AperFunction*
G04 #@! TA.AperFunction,Conductor*
G36*
X22714000Y-42489297D02*
G01*
X22652993Y-42454075D01*
X22525826Y-42420000D01*
X22394174Y-42420000D01*
X22267007Y-42454075D01*
X22206000Y-42489297D01*
X22206000Y-40810702D01*
X22267007Y-40845925D01*
X22394174Y-40880000D01*
X22525826Y-40880000D01*
X22652993Y-40845925D01*
X22714000Y-40810702D01*
X22714000Y-42489297D01*
G37*
G04 #@! TD.AperFunction*
G04 #@! TA.AperFunction,Conductor*
G36*
X22714000Y-39949297D02*
G01*
X22652993Y-39914075D01*
X22525826Y-39880000D01*
X22394174Y-39880000D01*
X22267007Y-39914075D01*
X22206000Y-39949297D01*
X22206000Y-38270702D01*
X22267007Y-38305925D01*
X22394174Y-38340000D01*
X22525826Y-38340000D01*
X22652993Y-38305925D01*
X22714000Y-38270702D01*
X22714000Y-39949297D01*
G37*
G04 #@! TD.AperFunction*
G04 #@! TA.AperFunction,Conductor*
G36*
X22714000Y-37409297D02*
G01*
X22652993Y-37374075D01*
X22525826Y-37340000D01*
X22394174Y-37340000D01*
X22267007Y-37374075D01*
X22206000Y-37409297D01*
X22206000Y-35730702D01*
X22267007Y-35765925D01*
X22394174Y-35800000D01*
X22525826Y-35800000D01*
X22652993Y-35765925D01*
X22714000Y-35730702D01*
X22714000Y-37409297D01*
G37*
G04 #@! TD.AperFunction*
G04 #@! TA.AperFunction,Conductor*
G36*
X22714000Y-34869297D02*
G01*
X22652993Y-34834075D01*
X22525826Y-34800000D01*
X22394174Y-34800000D01*
X22267007Y-34834075D01*
X22206000Y-34869297D01*
X22206000Y-33190702D01*
X22267007Y-33225925D01*
X22394174Y-33260000D01*
X22525826Y-33260000D01*
X22652993Y-33225925D01*
X22714000Y-33190702D01*
X22714000Y-34869297D01*
G37*
G04 #@! TD.AperFunction*
G04 #@! TA.AperFunction,Conductor*
G36*
X22714000Y-32329297D02*
G01*
X22652993Y-32294075D01*
X22525826Y-32260000D01*
X22394174Y-32260000D01*
X22267007Y-32294075D01*
X22206000Y-32329297D01*
X22206000Y-30650702D01*
X22267007Y-30685925D01*
X22394174Y-30720000D01*
X22525826Y-30720000D01*
X22652993Y-30685925D01*
X22714000Y-30650702D01*
X22714000Y-32329297D01*
G37*
G04 #@! TD.AperFunction*
G04 #@! TA.AperFunction,Conductor*
G36*
X64183101Y-20501969D02*
G01*
X64188208Y-20500906D01*
X64216818Y-20511869D01*
X64246219Y-20520502D01*
X64249634Y-20524444D01*
X64254504Y-20526310D01*
X64272643Y-20550998D01*
X64292712Y-20574158D01*
X64293454Y-20579320D01*
X64296542Y-20583523D01*
X64298455Y-20614101D01*
X64302816Y-20644432D01*
X64300649Y-20649176D01*
X64300975Y-20654381D01*
X64286048Y-20681145D01*
X64273322Y-20709012D01*
X64268248Y-20713063D01*
X64266395Y-20716387D01*
X64237494Y-20737622D01*
X64091405Y-20815708D01*
X63788481Y-21018115D01*
X63562655Y-21203445D01*
X63562655Y-21203446D01*
X65062577Y-22703368D01*
X64957670Y-22779588D01*
X64779588Y-22957670D01*
X64703368Y-23062577D01*
X63894007Y-22253216D01*
X64052944Y-22253216D01*
X64052944Y-22352672D01*
X64091004Y-22444558D01*
X64161330Y-22514884D01*
X64253216Y-22552944D01*
X64352672Y-22552944D01*
X64444558Y-22514884D01*
X64514884Y-22444558D01*
X64552944Y-22352672D01*
X64552944Y-22253216D01*
X64514884Y-22161330D01*
X64444558Y-22091004D01*
X64352672Y-22052944D01*
X64253216Y-22052944D01*
X64161330Y-22091004D01*
X64091004Y-22161330D01*
X64052944Y-22253216D01*
X63894007Y-22253216D01*
X63203446Y-21562655D01*
X63203445Y-21562655D01*
X63018115Y-21788481D01*
X62815708Y-22091405D01*
X62643965Y-22412713D01*
X62504545Y-22749301D01*
X62504544Y-22749305D01*
X62398782Y-23097956D01*
X62327711Y-23455261D01*
X62327708Y-23455281D01*
X62292000Y-23817831D01*
X62292000Y-24182168D01*
X62327708Y-24544718D01*
X62327711Y-24544738D01*
X62398782Y-24902043D01*
X62504544Y-25250694D01*
X62504545Y-25250698D01*
X62643965Y-25587286D01*
X62815708Y-25908594D01*
X63018110Y-26211510D01*
X63018121Y-26211525D01*
X63203445Y-26437342D01*
X63395508Y-26245280D01*
X63457821Y-26211255D01*
X63528636Y-26216319D01*
X63585472Y-26258866D01*
X63589368Y-26264372D01*
X63593973Y-26271263D01*
X63597266Y-26276191D01*
X63723809Y-26402734D01*
X63735624Y-26410629D01*
X63781152Y-26465104D01*
X63790001Y-26535547D01*
X63759361Y-26599592D01*
X63754719Y-26604489D01*
X63562655Y-26796552D01*
X63788485Y-26981886D01*
X63788491Y-26981891D01*
X64091405Y-27184291D01*
X64412713Y-27356034D01*
X64749301Y-27495454D01*
X64749305Y-27495455D01*
X65097956Y-27601217D01*
X65455261Y-27672288D01*
X65455281Y-27672291D01*
X65817831Y-27707999D01*
X65817847Y-27708000D01*
X66182153Y-27708000D01*
X66182168Y-27707999D01*
X66544718Y-27672291D01*
X66544738Y-27672288D01*
X66902043Y-27601217D01*
X67250694Y-27495455D01*
X67250698Y-27495454D01*
X67587286Y-27356034D01*
X67908594Y-27184291D01*
X68211508Y-26981891D01*
X68211514Y-26981886D01*
X68437343Y-26796552D01*
X68245280Y-26604489D01*
X68211254Y-26542177D01*
X68216319Y-26471362D01*
X68258866Y-26414526D01*
X68264330Y-26410658D01*
X68276191Y-26402734D01*
X68402734Y-26276191D01*
X68410630Y-26264373D01*
X68465101Y-26218847D01*
X68535544Y-26209997D01*
X68599589Y-26240635D01*
X68604489Y-26245280D01*
X68796552Y-26437343D01*
X68981886Y-26211514D01*
X68981891Y-26211508D01*
X69184291Y-25908594D01*
X69262378Y-25762505D01*
X69312130Y-25711857D01*
X69381367Y-25696147D01*
X69448106Y-25720363D01*
X69491158Y-25776816D01*
X69499500Y-25821901D01*
X69499500Y-29407627D01*
X69479498Y-29475748D01*
X69425842Y-29522241D01*
X69355568Y-29532345D01*
X69290988Y-29502851D01*
X69277483Y-29488138D01*
X69276173Y-29488035D01*
X68682807Y-30081401D01*
X68676111Y-30056409D01*
X68597119Y-29919592D01*
X68485408Y-29807881D01*
X68348591Y-29728889D01*
X68323596Y-29722191D01*
X68916963Y-29128824D01*
X68854952Y-29083770D01*
X68657485Y-28983156D01*
X68657483Y-28983155D01*
X68446710Y-28914670D01*
X68227809Y-28880000D01*
X68006191Y-28880000D01*
X67787289Y-28914670D01*
X67576516Y-28983155D01*
X67576514Y-28983156D01*
X67379043Y-29083772D01*
X67317035Y-29128823D01*
X67317035Y-29128825D01*
X67910402Y-29722192D01*
X67885409Y-29728889D01*
X67748592Y-29807881D01*
X67636881Y-29919592D01*
X67557889Y-30056409D01*
X67551192Y-30081402D01*
X66957825Y-29488035D01*
X66957823Y-29488035D01*
X66912772Y-29550043D01*
X66812156Y-29747514D01*
X66812155Y-29747516D01*
X66743670Y-29958289D01*
X66709000Y-30177191D01*
X66709000Y-30398808D01*
X66743670Y-30617710D01*
X66812155Y-30828483D01*
X66812156Y-30828485D01*
X66912770Y-31025952D01*
X66957824Y-31087963D01*
X67551191Y-30494596D01*
X67557889Y-30519591D01*
X67636881Y-30656408D01*
X67748592Y-30768119D01*
X67885409Y-30847111D01*
X67910401Y-30853807D01*
X67317035Y-31447173D01*
X67317035Y-31447174D01*
X67379047Y-31492229D01*
X67576514Y-31592843D01*
X67576516Y-31592844D01*
X67787289Y-31661329D01*
X68006191Y-31696000D01*
X68227809Y-31696000D01*
X68446710Y-31661329D01*
X68657483Y-31592844D01*
X68657485Y-31592843D01*
X68854954Y-31492228D01*
X68854956Y-31492227D01*
X68916963Y-31447175D01*
X68916964Y-31447174D01*
X68323597Y-30853807D01*
X68348591Y-30847111D01*
X68485408Y-30768119D01*
X68597119Y-30656408D01*
X68676111Y-30519591D01*
X68682808Y-30494597D01*
X69276174Y-31087964D01*
X69280203Y-31087646D01*
X69327787Y-31050956D01*
X69398523Y-31044881D01*
X69461315Y-31078013D01*
X69496226Y-31139833D01*
X69499500Y-31168371D01*
X69499500Y-37157627D01*
X69479498Y-37225748D01*
X69425842Y-37272241D01*
X69355568Y-37282345D01*
X69290988Y-37252851D01*
X69277483Y-37238138D01*
X69276173Y-37238035D01*
X68682807Y-37831401D01*
X68676111Y-37806409D01*
X68597119Y-37669592D01*
X68485408Y-37557881D01*
X68348591Y-37478889D01*
X68323596Y-37472191D01*
X68916963Y-36878824D01*
X68854952Y-36833770D01*
X68657485Y-36733156D01*
X68657483Y-36733155D01*
X68446710Y-36664670D01*
X68227809Y-36630000D01*
X68006191Y-36630000D01*
X67787289Y-36664670D01*
X67576516Y-36733155D01*
X67576514Y-36733156D01*
X67379043Y-36833772D01*
X67317035Y-36878823D01*
X67317035Y-36878825D01*
X67910402Y-37472192D01*
X67885409Y-37478889D01*
X67748592Y-37557881D01*
X67636881Y-37669592D01*
X67557889Y-37806409D01*
X67551192Y-37831402D01*
X66957825Y-37238035D01*
X66957823Y-37238035D01*
X66912772Y-37300043D01*
X66812156Y-37497514D01*
X66812155Y-37497516D01*
X66743670Y-37708289D01*
X66709000Y-37927191D01*
X66709000Y-38148808D01*
X66743670Y-38367710D01*
X66812155Y-38578483D01*
X66812156Y-38578485D01*
X66912770Y-38775952D01*
X66957824Y-38837963D01*
X67551191Y-38244596D01*
X67557889Y-38269591D01*
X67636881Y-38406408D01*
X67748592Y-38518119D01*
X67885409Y-38597111D01*
X67910401Y-38603807D01*
X67317035Y-39197173D01*
X67317035Y-39197174D01*
X67379047Y-39242229D01*
X67576514Y-39342843D01*
X67576516Y-39342844D01*
X67787289Y-39411329D01*
X68006191Y-39446000D01*
X68227809Y-39446000D01*
X68446710Y-39411329D01*
X68657483Y-39342844D01*
X68657485Y-39342843D01*
X68854954Y-39242228D01*
X68854956Y-39242227D01*
X68916963Y-39197175D01*
X68916964Y-39197174D01*
X68323597Y-38603807D01*
X68348591Y-38597111D01*
X68485408Y-38518119D01*
X68597119Y-38406408D01*
X68676111Y-38269591D01*
X68682808Y-38244597D01*
X69276174Y-38837964D01*
X69280203Y-38837646D01*
X69327787Y-38800956D01*
X69398523Y-38794881D01*
X69461315Y-38828013D01*
X69496226Y-38889833D01*
X69499500Y-38918371D01*
X69499500Y-64178098D01*
X69479498Y-64246219D01*
X69425842Y-64292712D01*
X69355568Y-64302816D01*
X69290988Y-64273322D01*
X69262378Y-64237494D01*
X69184291Y-64091405D01*
X68981891Y-63788491D01*
X68981886Y-63788485D01*
X68796552Y-63562655D01*
X68604489Y-63754719D01*
X68542177Y-63788744D01*
X68471361Y-63783679D01*
X68414526Y-63741132D01*
X68410637Y-63735636D01*
X68402734Y-63723809D01*
X68276191Y-63597266D01*
X68276184Y-63597261D01*
X68264372Y-63589368D01*
X68218845Y-63534891D01*
X68209998Y-63464447D01*
X68240640Y-63400404D01*
X68245280Y-63395508D01*
X68437343Y-63203445D01*
X68211525Y-63018121D01*
X68211510Y-63018110D01*
X67908594Y-62815708D01*
X67587286Y-62643965D01*
X67250698Y-62504545D01*
X67250694Y-62504544D01*
X66902043Y-62398782D01*
X66544738Y-62327711D01*
X66544718Y-62327708D01*
X66182168Y-62292000D01*
X65817831Y-62292000D01*
X65455281Y-62327708D01*
X65455261Y-62327711D01*
X65097956Y-62398782D01*
X64749305Y-62504544D01*
X64749301Y-62504545D01*
X64412713Y-62643965D01*
X64091405Y-62815708D01*
X63788481Y-63018115D01*
X63562655Y-63203445D01*
X63562655Y-63203446D01*
X65062577Y-64703368D01*
X64957670Y-64779588D01*
X64779588Y-64957670D01*
X64703368Y-65062577D01*
X63894007Y-64253216D01*
X64052944Y-64253216D01*
X64052944Y-64352672D01*
X64091004Y-64444558D01*
X64161330Y-64514884D01*
X64253216Y-64552944D01*
X64352672Y-64552944D01*
X64444558Y-64514884D01*
X64514884Y-64444558D01*
X64552944Y-64352672D01*
X64552944Y-64253216D01*
X64514884Y-64161330D01*
X64444558Y-64091004D01*
X64352672Y-64052944D01*
X64253216Y-64052944D01*
X64161330Y-64091004D01*
X64091004Y-64161330D01*
X64052944Y-64253216D01*
X63894007Y-64253216D01*
X63203446Y-63562655D01*
X63203445Y-63562655D01*
X63018115Y-63788481D01*
X62815708Y-64091405D01*
X62643965Y-64412713D01*
X62504545Y-64749301D01*
X62504544Y-64749305D01*
X62398782Y-65097956D01*
X62327711Y-65455261D01*
X62327708Y-65455281D01*
X62292000Y-65817831D01*
X62292000Y-66182168D01*
X62327708Y-66544718D01*
X62327711Y-66544738D01*
X62398782Y-66902043D01*
X62504544Y-67250694D01*
X62504545Y-67250698D01*
X62643965Y-67587286D01*
X62815708Y-67908594D01*
X63018110Y-68211510D01*
X63018121Y-68211525D01*
X63203445Y-68437342D01*
X63395508Y-68245280D01*
X63457821Y-68211255D01*
X63528636Y-68216319D01*
X63585472Y-68258866D01*
X63589368Y-68264372D01*
X63597263Y-68276187D01*
X63597266Y-68276191D01*
X63723809Y-68402734D01*
X63735624Y-68410629D01*
X63781152Y-68465104D01*
X63790001Y-68535547D01*
X63759361Y-68599592D01*
X63754719Y-68604489D01*
X63562655Y-68796552D01*
X63788485Y-68981886D01*
X63788491Y-68981891D01*
X64091405Y-69184291D01*
X64237494Y-69262378D01*
X64288142Y-69312130D01*
X64303852Y-69381367D01*
X64279636Y-69448106D01*
X64223182Y-69491158D01*
X64178098Y-69499500D01*
X43568240Y-69499500D01*
X43500119Y-69479498D01*
X43453626Y-69425842D01*
X43443522Y-69355568D01*
X43444661Y-69348919D01*
X43453499Y-69304484D01*
X43453500Y-69304477D01*
X43453500Y-69125522D01*
X43453499Y-69125518D01*
X43445695Y-69086283D01*
X43418587Y-68950000D01*
X43350102Y-68784664D01*
X43250678Y-68635865D01*
X43124135Y-68509322D01*
X42975336Y-68409898D01*
X42858429Y-68361473D01*
X42810003Y-68341414D01*
X42810001Y-68341413D01*
X42810000Y-68341413D01*
X42721645Y-68323838D01*
X42634481Y-68306500D01*
X42634479Y-68306500D01*
X42455521Y-68306500D01*
X42455518Y-68306500D01*
X42324771Y-68332507D01*
X42280000Y-68341413D01*
X42279999Y-68341413D01*
X42279996Y-68341414D01*
X42114662Y-68409899D01*
X41965869Y-68509319D01*
X41965862Y-68509324D01*
X41839324Y-68635862D01*
X41839319Y-68635869D01*
X41739899Y-68784662D01*
X41671414Y-68949996D01*
X41636500Y-69125518D01*
X41636500Y-69304484D01*
X41645339Y-69348919D01*
X41639011Y-69419633D01*
X41595456Y-69475700D01*
X41528503Y-69499319D01*
X41521760Y-69499500D01*
X38902017Y-69499500D01*
X38833896Y-69479498D01*
X38787403Y-69425842D01*
X38777299Y-69355568D01*
X38785608Y-69325281D01*
X38787266Y-69321278D01*
X38839987Y-69194000D01*
X38874900Y-69018479D01*
X38874900Y-68839521D01*
X38839987Y-68664000D01*
X38771502Y-68498664D01*
X38672078Y-68349865D01*
X38545535Y-68223322D01*
X38396736Y-68123898D01*
X38279829Y-68075473D01*
X38231403Y-68055414D01*
X38231401Y-68055413D01*
X38231400Y-68055413D01*
X38143045Y-68037838D01*
X38055881Y-68020500D01*
X38055879Y-68020500D01*
X37876921Y-68020500D01*
X37876918Y-68020500D01*
X37746171Y-68046507D01*
X37701400Y-68055413D01*
X37701399Y-68055413D01*
X37701396Y-68055414D01*
X37536062Y-68123899D01*
X37387269Y-68223319D01*
X37387262Y-68223324D01*
X37260724Y-68349862D01*
X37260719Y-68349869D01*
X37179541Y-68471362D01*
X37161298Y-68498664D01*
X37148044Y-68530662D01*
X37092814Y-68663996D01*
X37057900Y-68839518D01*
X37057900Y-69018481D01*
X37092814Y-69194003D01*
X37121136Y-69262378D01*
X37141744Y-69312130D01*
X37147192Y-69325281D01*
X37154781Y-69395871D01*
X37123002Y-69459358D01*
X37061944Y-69495586D01*
X37030783Y-69499500D01*
X31936872Y-69499500D01*
X31868751Y-69479498D01*
X31822258Y-69425842D01*
X31812154Y-69355568D01*
X31820463Y-69325281D01*
X31827414Y-69308500D01*
X31861587Y-69226000D01*
X31896500Y-69050479D01*
X31896500Y-68871521D01*
X31861587Y-68696000D01*
X31793102Y-68530664D01*
X31693678Y-68381865D01*
X31567135Y-68255322D01*
X31418336Y-68155898D01*
X31301429Y-68107473D01*
X31253003Y-68087414D01*
X31253001Y-68087413D01*
X31253000Y-68087413D01*
X31164645Y-68069838D01*
X31077481Y-68052500D01*
X31077479Y-68052500D01*
X30898521Y-68052500D01*
X30898518Y-68052500D01*
X30767771Y-68078507D01*
X30723000Y-68087413D01*
X30722999Y-68087413D01*
X30722996Y-68087414D01*
X30557662Y-68155899D01*
X30408869Y-68255319D01*
X30408862Y-68255324D01*
X30282324Y-68381862D01*
X30282319Y-68381869D01*
X30204280Y-68498664D01*
X30182898Y-68530664D01*
X30178129Y-68542177D01*
X30114414Y-68695996D01*
X30079500Y-68871518D01*
X30079500Y-68871521D01*
X30079500Y-69050479D01*
X30108048Y-69194003D01*
X30114414Y-69226003D01*
X30155537Y-69325281D01*
X30163126Y-69395871D01*
X30131347Y-69459358D01*
X30070289Y-69495586D01*
X30039128Y-69499500D01*
X25821902Y-69499500D01*
X25753781Y-69479498D01*
X25707288Y-69425842D01*
X25697184Y-69355568D01*
X25726678Y-69290988D01*
X25762506Y-69262378D01*
X25908594Y-69184291D01*
X26211508Y-68981891D01*
X26211514Y-68981886D01*
X26437343Y-68796552D01*
X26245280Y-68604489D01*
X26211254Y-68542177D01*
X26216319Y-68471362D01*
X26258866Y-68414526D01*
X26264330Y-68410658D01*
X26276191Y-68402734D01*
X26402734Y-68276191D01*
X26410630Y-68264373D01*
X26465101Y-68218847D01*
X26535544Y-68209997D01*
X26599589Y-68240635D01*
X26604489Y-68245280D01*
X26796552Y-68437343D01*
X26981886Y-68211514D01*
X26981891Y-68211508D01*
X27184291Y-67908594D01*
X27356034Y-67587286D01*
X27495454Y-67250698D01*
X27495455Y-67250694D01*
X27601217Y-66902043D01*
X27613654Y-66839518D01*
X39477500Y-66839518D01*
X39477500Y-66839521D01*
X39477500Y-67018479D01*
X39512413Y-67194000D01*
X39580898Y-67359336D01*
X39680322Y-67508135D01*
X39806865Y-67634678D01*
X39955664Y-67734102D01*
X40121000Y-67802587D01*
X40296521Y-67837500D01*
X40296522Y-67837500D01*
X40475478Y-67837500D01*
X40475479Y-67837500D01*
X40651000Y-67802587D01*
X40816336Y-67734102D01*
X40965135Y-67634678D01*
X41091678Y-67508135D01*
X41191102Y-67359336D01*
X41259587Y-67194000D01*
X41294500Y-67018479D01*
X41294500Y-66839521D01*
X41259587Y-66664000D01*
X41191102Y-66498664D01*
X41091678Y-66349865D01*
X40965135Y-66223322D01*
X40816336Y-66123898D01*
X40699429Y-66075473D01*
X40651003Y-66055414D01*
X40651001Y-66055413D01*
X40651000Y-66055413D01*
X40562645Y-66037838D01*
X40475481Y-66020500D01*
X40475479Y-66020500D01*
X40296521Y-66020500D01*
X40296518Y-66020500D01*
X40165771Y-66046507D01*
X40121000Y-66055413D01*
X40120999Y-66055413D01*
X40120996Y-66055414D01*
X39955662Y-66123899D01*
X39806869Y-66223319D01*
X39806862Y-66223324D01*
X39680324Y-66349862D01*
X39680319Y-66349869D01*
X39580899Y-66498662D01*
X39512414Y-66663996D01*
X39477500Y-66839518D01*
X27613654Y-66839518D01*
X27619774Y-66808750D01*
X27672288Y-66544738D01*
X27672291Y-66544718D01*
X27707999Y-66182168D01*
X27708000Y-66182152D01*
X27708000Y-65817847D01*
X27707999Y-65817831D01*
X27672291Y-65455281D01*
X27672288Y-65455261D01*
X27601217Y-65097956D01*
X27495455Y-64749305D01*
X27495454Y-64749301D01*
X27356034Y-64412713D01*
X27203524Y-64127386D01*
X27203523Y-64127385D01*
X27184289Y-64091401D01*
X27170891Y-64071350D01*
X45573500Y-64071350D01*
X45573500Y-65468649D01*
X45580009Y-65529196D01*
X45580011Y-65529204D01*
X45631110Y-65666202D01*
X45631112Y-65666207D01*
X45718738Y-65783261D01*
X45835792Y-65870887D01*
X45835794Y-65870888D01*
X45835796Y-65870889D01*
X45894875Y-65892924D01*
X45972795Y-65921988D01*
X45972803Y-65921990D01*
X46033350Y-65928499D01*
X46033355Y-65928499D01*
X46033362Y-65928500D01*
X46033368Y-65928500D01*
X46930632Y-65928500D01*
X46930638Y-65928500D01*
X46930645Y-65928499D01*
X46930649Y-65928499D01*
X46991196Y-65921990D01*
X46991197Y-65921989D01*
X46991201Y-65921989D01*
X47128204Y-65870889D01*
X47172401Y-65837803D01*
X47238918Y-65812991D01*
X47295059Y-65824999D01*
X47296182Y-65822290D01*
X47467142Y-65893104D01*
X47467141Y-65893104D01*
X47478000Y-65895263D01*
X47478000Y-64720272D01*
X47482000Y-64720272D01*
X47482000Y-64819728D01*
X47520060Y-64911614D01*
X47590386Y-64981940D01*
X47682272Y-65020000D01*
X47781728Y-65020000D01*
X47873614Y-64981940D01*
X47943940Y-64911614D01*
X47982000Y-64819728D01*
X47982000Y-64720272D01*
X47943940Y-64628386D01*
X47873614Y-64558060D01*
X47781728Y-64520000D01*
X47682272Y-64520000D01*
X47590386Y-64558060D01*
X47520060Y-64628386D01*
X47482000Y-64720272D01*
X47478000Y-64720272D01*
X47478000Y-63644735D01*
X47986000Y-63644735D01*
X47986000Y-65895262D01*
X47996857Y-65893104D01*
X48162096Y-65824660D01*
X48286546Y-65741504D01*
X48354299Y-65720289D01*
X48422766Y-65739072D01*
X48426534Y-65741493D01*
X48551664Y-65825102D01*
X48717000Y-65893587D01*
X48892521Y-65928500D01*
X48892522Y-65928500D01*
X49071478Y-65928500D01*
X49071479Y-65928500D01*
X49247000Y-65893587D01*
X49412336Y-65825102D01*
X49537000Y-65741804D01*
X49604751Y-65720590D01*
X49673218Y-65739373D01*
X49676971Y-65741785D01*
X49801664Y-65825102D01*
X49967000Y-65893587D01*
X50142521Y-65928500D01*
X50142522Y-65928500D01*
X50321478Y-65928500D01*
X50321479Y-65928500D01*
X50497000Y-65893587D01*
X50662336Y-65825102D01*
X50811135Y-65725678D01*
X50937678Y-65599135D01*
X51037102Y-65450336D01*
X51105587Y-65285000D01*
X51140500Y-65109479D01*
X51140500Y-64430521D01*
X51105587Y-64255000D01*
X51098336Y-64237494D01*
X51048108Y-64116233D01*
X51048096Y-64116206D01*
X51037821Y-64091401D01*
X51037102Y-64089664D01*
X51024865Y-64071350D01*
X54844500Y-64071350D01*
X54844500Y-65468649D01*
X54851009Y-65529196D01*
X54851011Y-65529204D01*
X54902110Y-65666202D01*
X54902112Y-65666207D01*
X54989738Y-65783261D01*
X55106792Y-65870887D01*
X55106794Y-65870888D01*
X55106796Y-65870889D01*
X55165875Y-65892924D01*
X55243795Y-65921988D01*
X55243803Y-65921990D01*
X55304350Y-65928499D01*
X55304355Y-65928499D01*
X55304362Y-65928500D01*
X55304368Y-65928500D01*
X56201632Y-65928500D01*
X56201638Y-65928500D01*
X56201645Y-65928499D01*
X56201649Y-65928499D01*
X56262196Y-65921990D01*
X56262197Y-65921989D01*
X56262201Y-65921989D01*
X56399204Y-65870889D01*
X56443401Y-65837803D01*
X56509918Y-65812991D01*
X56566059Y-65824999D01*
X56567182Y-65822290D01*
X56738142Y-65893104D01*
X56738141Y-65893104D01*
X56749000Y-65895263D01*
X56749000Y-64720272D01*
X56753000Y-64720272D01*
X56753000Y-64819728D01*
X56791060Y-64911614D01*
X56861386Y-64981940D01*
X56953272Y-65020000D01*
X57052728Y-65020000D01*
X57144614Y-64981940D01*
X57214940Y-64911614D01*
X57253000Y-64819728D01*
X57253000Y-64720272D01*
X57214940Y-64628386D01*
X57144614Y-64558060D01*
X57052728Y-64520000D01*
X56953272Y-64520000D01*
X56861386Y-64558060D01*
X56791060Y-64628386D01*
X56753000Y-64720272D01*
X56749000Y-64720272D01*
X56749000Y-63644735D01*
X57257000Y-63644735D01*
X57257000Y-65895262D01*
X57267857Y-65893104D01*
X57433096Y-65824660D01*
X57557546Y-65741504D01*
X57625299Y-65720289D01*
X57693766Y-65739072D01*
X57697534Y-65741493D01*
X57822664Y-65825102D01*
X57988000Y-65893587D01*
X58163521Y-65928500D01*
X58163522Y-65928500D01*
X58342478Y-65928500D01*
X58342479Y-65928500D01*
X58518000Y-65893587D01*
X58683336Y-65825102D01*
X58808000Y-65741804D01*
X58875751Y-65720590D01*
X58944218Y-65739373D01*
X58947971Y-65741785D01*
X59072664Y-65825102D01*
X59238000Y-65893587D01*
X59413521Y-65928500D01*
X59413522Y-65928500D01*
X59592478Y-65928500D01*
X59592479Y-65928500D01*
X59768000Y-65893587D01*
X59933336Y-65825102D01*
X60082135Y-65725678D01*
X60208678Y-65599135D01*
X60308102Y-65450336D01*
X60376587Y-65285000D01*
X60411500Y-65109479D01*
X60411500Y-64430521D01*
X60376587Y-64255000D01*
X60308102Y-64089664D01*
X60208678Y-63940865D01*
X60082135Y-63814322D01*
X59933336Y-63714898D01*
X59816429Y-63666473D01*
X59768003Y-63646414D01*
X59768001Y-63646413D01*
X59768000Y-63646413D01*
X59679645Y-63628838D01*
X59592481Y-63611500D01*
X59592479Y-63611500D01*
X59413521Y-63611500D01*
X59413518Y-63611500D01*
X59282771Y-63637507D01*
X59238000Y-63646413D01*
X59237999Y-63646413D01*
X59237996Y-63646414D01*
X59072662Y-63714899D01*
X58948002Y-63798194D01*
X58880249Y-63819409D01*
X58811782Y-63800626D01*
X58807998Y-63798194D01*
X58745954Y-63756738D01*
X58683336Y-63714898D01*
X58566429Y-63666473D01*
X58518003Y-63646414D01*
X58518001Y-63646413D01*
X58518000Y-63646413D01*
X58429645Y-63628838D01*
X58342481Y-63611500D01*
X58342479Y-63611500D01*
X58163521Y-63611500D01*
X58163518Y-63611500D01*
X58032771Y-63637507D01*
X57988000Y-63646413D01*
X57987999Y-63646413D01*
X57987996Y-63646414D01*
X57822663Y-63714898D01*
X57697550Y-63798496D01*
X57629797Y-63819710D01*
X57561331Y-63800927D01*
X57557547Y-63798495D01*
X57433098Y-63715341D01*
X57267857Y-63646895D01*
X57267854Y-63646894D01*
X57257000Y-63644735D01*
X56749000Y-63644735D01*
X56738145Y-63646894D01*
X56738142Y-63646895D01*
X56567182Y-63717710D01*
X56566175Y-63715281D01*
X56507228Y-63726786D01*
X56443402Y-63702197D01*
X56399204Y-63669111D01*
X56399202Y-63669110D01*
X56399201Y-63669109D01*
X56262204Y-63618011D01*
X56262196Y-63618009D01*
X56201649Y-63611500D01*
X56201638Y-63611500D01*
X55304362Y-63611500D01*
X55304350Y-63611500D01*
X55243803Y-63618009D01*
X55243795Y-63618011D01*
X55106797Y-63669110D01*
X55106792Y-63669112D01*
X54989738Y-63756738D01*
X54902112Y-63873792D01*
X54902110Y-63873797D01*
X54851011Y-64010795D01*
X54851009Y-64010803D01*
X54844500Y-64071350D01*
X51024865Y-64071350D01*
X50937678Y-63940865D01*
X50811135Y-63814322D01*
X50662336Y-63714898D01*
X50545429Y-63666473D01*
X50497003Y-63646414D01*
X50497001Y-63646413D01*
X50497000Y-63646413D01*
X50408645Y-63628838D01*
X50321481Y-63611500D01*
X50321479Y-63611500D01*
X50142521Y-63611500D01*
X50142518Y-63611500D01*
X50011771Y-63637507D01*
X49967000Y-63646413D01*
X49966999Y-63646413D01*
X49966996Y-63646414D01*
X49801662Y-63714899D01*
X49677002Y-63798194D01*
X49609249Y-63819409D01*
X49540782Y-63800626D01*
X49536998Y-63798194D01*
X49474954Y-63756738D01*
X49412336Y-63714898D01*
X49295429Y-63666473D01*
X49247003Y-63646414D01*
X49247001Y-63646413D01*
X49247000Y-63646413D01*
X49158645Y-63628838D01*
X49071481Y-63611500D01*
X49071479Y-63611500D01*
X48892521Y-63611500D01*
X48892518Y-63611500D01*
X48761771Y-63637507D01*
X48717000Y-63646413D01*
X48716999Y-63646413D01*
X48716996Y-63646414D01*
X48551663Y-63714898D01*
X48426550Y-63798496D01*
X48358797Y-63819710D01*
X48290331Y-63800927D01*
X48286547Y-63798495D01*
X48162098Y-63715341D01*
X47996857Y-63646895D01*
X47996854Y-63646894D01*
X47986000Y-63644735D01*
X47478000Y-63644735D01*
X47467145Y-63646894D01*
X47467142Y-63646895D01*
X47296182Y-63717710D01*
X47295175Y-63715281D01*
X47236228Y-63726786D01*
X47172402Y-63702197D01*
X47128204Y-63669111D01*
X47128202Y-63669110D01*
X47128201Y-63669109D01*
X46991204Y-63618011D01*
X46991196Y-63618009D01*
X46930649Y-63611500D01*
X46930638Y-63611500D01*
X46033362Y-63611500D01*
X46033350Y-63611500D01*
X45972803Y-63618009D01*
X45972795Y-63618011D01*
X45835797Y-63669110D01*
X45835792Y-63669112D01*
X45718738Y-63756738D01*
X45631112Y-63873792D01*
X45631110Y-63873797D01*
X45580011Y-64010795D01*
X45580009Y-64010803D01*
X45573500Y-64071350D01*
X27170891Y-64071350D01*
X26981891Y-63788491D01*
X26981886Y-63788485D01*
X26796552Y-63562655D01*
X26604489Y-63754719D01*
X26542177Y-63788744D01*
X26471361Y-63783679D01*
X26414526Y-63741132D01*
X26410637Y-63735636D01*
X26402734Y-63723809D01*
X26276191Y-63597266D01*
X26276184Y-63597261D01*
X26264372Y-63589368D01*
X26218845Y-63534891D01*
X26209998Y-63464447D01*
X26240640Y-63400404D01*
X26245280Y-63395508D01*
X26437343Y-63203445D01*
X26211525Y-63018121D01*
X26211510Y-63018110D01*
X25908594Y-62815708D01*
X25759383Y-62735953D01*
X25587286Y-62643965D01*
X25556029Y-62631018D01*
X26760000Y-62631018D01*
X26760000Y-62809981D01*
X26776777Y-62894322D01*
X26794913Y-62985500D01*
X26863398Y-63150836D01*
X26962822Y-63299635D01*
X27089365Y-63426178D01*
X27238164Y-63525602D01*
X27403500Y-63594087D01*
X27579021Y-63629000D01*
X27579022Y-63629000D01*
X27757978Y-63629000D01*
X27757979Y-63629000D01*
X27933500Y-63594087D01*
X28098836Y-63525602D01*
X28247635Y-63426178D01*
X28374178Y-63299635D01*
X28473602Y-63150836D01*
X28542087Y-62985500D01*
X28577000Y-62809979D01*
X28577000Y-62631021D01*
X28542087Y-62455500D01*
X28473602Y-62290164D01*
X28374178Y-62141365D01*
X28247635Y-62014822D01*
X28098836Y-61915398D01*
X27981929Y-61866973D01*
X27933503Y-61846914D01*
X27933501Y-61846913D01*
X27933500Y-61846913D01*
X27845145Y-61829338D01*
X27757981Y-61812000D01*
X27757979Y-61812000D01*
X27579021Y-61812000D01*
X27579018Y-61812000D01*
X27448271Y-61838007D01*
X27403500Y-61846913D01*
X27403499Y-61846913D01*
X27403496Y-61846914D01*
X27238162Y-61915399D01*
X27089369Y-62014819D01*
X27089362Y-62014824D01*
X26962824Y-62141362D01*
X26962822Y-62141365D01*
X26863398Y-62290164D01*
X26849216Y-62324402D01*
X26794914Y-62455496D01*
X26760000Y-62631018D01*
X25556029Y-62631018D01*
X25250698Y-62504545D01*
X25250694Y-62504544D01*
X24902043Y-62398782D01*
X24544738Y-62327711D01*
X24544718Y-62327708D01*
X24182168Y-62292000D01*
X23817831Y-62292000D01*
X23455281Y-62327708D01*
X23455261Y-62327711D01*
X23097956Y-62398782D01*
X22749305Y-62504544D01*
X22749301Y-62504545D01*
X22412713Y-62643965D01*
X22091405Y-62815708D01*
X21788481Y-63018115D01*
X21562655Y-63203445D01*
X21754719Y-63395508D01*
X21788744Y-63457821D01*
X21783680Y-63528636D01*
X21741133Y-63585472D01*
X21735630Y-63589366D01*
X21723813Y-63597261D01*
X21723803Y-63597270D01*
X21597270Y-63723803D01*
X21597261Y-63723813D01*
X21589366Y-63735630D01*
X21534887Y-63781156D01*
X21464444Y-63790001D01*
X21400401Y-63759357D01*
X21395508Y-63754719D01*
X21203445Y-63562655D01*
X21018115Y-63788481D01*
X20815708Y-64091405D01*
X20737622Y-64237494D01*
X20687870Y-64288142D01*
X20618633Y-64303852D01*
X20551894Y-64279636D01*
X20508842Y-64223182D01*
X20500500Y-64178098D01*
X20500500Y-53932850D01*
X23755000Y-53932850D01*
X23755000Y-56430149D01*
X23761509Y-56490696D01*
X23761511Y-56490704D01*
X23812610Y-56627702D01*
X23812612Y-56627707D01*
X23900238Y-56744761D01*
X24017292Y-56832387D01*
X24017294Y-56832388D01*
X24017296Y-56832389D01*
X24076375Y-56854424D01*
X24154295Y-56883488D01*
X24154303Y-56883490D01*
X24214850Y-56889999D01*
X24214855Y-56889999D01*
X24214862Y-56890000D01*
X24214868Y-56890000D01*
X24691899Y-56890000D01*
X24760020Y-56910002D01*
X24806513Y-56963658D01*
X24816617Y-57033932D01*
X24787123Y-57098512D01*
X24740117Y-57132409D01*
X24706453Y-57146352D01*
X24706444Y-57146357D01*
X24512553Y-57258300D01*
X24448590Y-57307380D01*
X25256902Y-58115692D01*
X25231909Y-58122389D01*
X25095092Y-58201381D01*
X24983381Y-58313092D01*
X24904389Y-58449909D01*
X24897692Y-58474902D01*
X24089380Y-57666590D01*
X24040300Y-57730553D01*
X23928357Y-57924444D01*
X23928352Y-57924453D01*
X23842673Y-58131303D01*
X23784722Y-58347577D01*
X23755500Y-58569549D01*
X23755500Y-58793450D01*
X23784722Y-59015422D01*
X23842673Y-59231696D01*
X23928352Y-59438546D01*
X23928357Y-59438555D01*
X24040300Y-59632446D01*
X24089379Y-59696407D01*
X24089381Y-59696408D01*
X24897691Y-58888097D01*
X24904389Y-58913091D01*
X24983381Y-59049908D01*
X25095092Y-59161619D01*
X25231909Y-59240611D01*
X25256901Y-59247307D01*
X24448590Y-60055618D01*
X24448590Y-60055619D01*
X24512552Y-60104699D01*
X24706444Y-60216642D01*
X24706453Y-60216647D01*
X24913303Y-60302326D01*
X25129577Y-60360277D01*
X25351549Y-60389499D01*
X25351559Y-60389500D01*
X25575441Y-60389500D01*
X25575450Y-60389499D01*
X25780399Y-60362518D01*
X44557500Y-60362518D01*
X44557500Y-60362521D01*
X44557500Y-60541479D01*
X44592413Y-60717000D01*
X44660898Y-60882336D01*
X44760322Y-61031135D01*
X44886865Y-61157678D01*
X45035664Y-61257102D01*
X45201000Y-61325587D01*
X45376521Y-61360500D01*
X45376522Y-61360500D01*
X45555478Y-61360500D01*
X45555479Y-61360500D01*
X45731000Y-61325587D01*
X45896336Y-61257102D01*
X46045135Y-61157678D01*
X46171678Y-61031135D01*
X46271102Y-60882336D01*
X46339587Y-60717000D01*
X46374500Y-60541479D01*
X46374500Y-60362521D01*
X46339587Y-60187000D01*
X46271102Y-60021664D01*
X46171678Y-59872865D01*
X46045135Y-59746322D01*
X45896336Y-59646898D01*
X45740867Y-59582500D01*
X45731003Y-59578414D01*
X45731001Y-59578413D01*
X45731000Y-59578413D01*
X45642645Y-59560838D01*
X45555481Y-59543500D01*
X45555479Y-59543500D01*
X45376521Y-59543500D01*
X45376518Y-59543500D01*
X45245771Y-59569507D01*
X45201000Y-59578413D01*
X45200999Y-59578413D01*
X45200996Y-59578414D01*
X45035662Y-59646899D01*
X44886869Y-59746319D01*
X44886862Y-59746324D01*
X44760324Y-59872862D01*
X44760319Y-59872869D01*
X44660899Y-60021662D01*
X44592414Y-60186996D01*
X44557500Y-60362518D01*
X25780399Y-60362518D01*
X25797422Y-60360277D01*
X26013696Y-60302326D01*
X26164355Y-60239922D01*
X26220546Y-60216647D01*
X26220555Y-60216642D01*
X26414453Y-60104695D01*
X26478408Y-60055618D01*
X25670098Y-59247307D01*
X25695091Y-59240611D01*
X25831908Y-59161619D01*
X25943619Y-59049908D01*
X26022611Y-58913091D01*
X26029307Y-58888097D01*
X26837618Y-59696408D01*
X26886695Y-59632453D01*
X26998642Y-59438555D01*
X26998647Y-59438546D01*
X27084326Y-59231696D01*
X27121619Y-59092518D01*
X41001500Y-59092518D01*
X41001500Y-59271481D01*
X41018838Y-59358645D01*
X41036413Y-59447000D01*
X41104898Y-59612336D01*
X41204322Y-59761135D01*
X41330865Y-59887678D01*
X41479664Y-59987102D01*
X41645000Y-60055587D01*
X41820521Y-60090500D01*
X41820522Y-60090500D01*
X41999478Y-60090500D01*
X41999479Y-60090500D01*
X42175000Y-60055587D01*
X42340336Y-59987102D01*
X42489135Y-59887678D01*
X42615678Y-59761135D01*
X42715102Y-59612336D01*
X42783587Y-59447000D01*
X42818500Y-59271479D01*
X42818500Y-59092521D01*
X42783587Y-58917000D01*
X42715102Y-58751664D01*
X42615678Y-58602865D01*
X42489135Y-58476322D01*
X42413730Y-58425938D01*
X42340335Y-58376897D01*
X42340331Y-58376895D01*
X42247391Y-58338397D01*
X42247387Y-58338397D01*
X42175003Y-58308414D01*
X42175001Y-58308413D01*
X42175000Y-58308413D01*
X42086645Y-58290838D01*
X41999481Y-58273500D01*
X41999479Y-58273500D01*
X41820521Y-58273500D01*
X41820518Y-58273500D01*
X41689771Y-58299507D01*
X41645000Y-58308413D01*
X41644999Y-58308413D01*
X41644996Y-58308414D01*
X41513902Y-58362716D01*
X41479667Y-58376897D01*
X41479662Y-58376899D01*
X41330869Y-58476319D01*
X41330862Y-58476324D01*
X41204324Y-58602862D01*
X41204319Y-58602869D01*
X41104899Y-58751662D01*
X41036414Y-58916996D01*
X41001500Y-59092518D01*
X27121619Y-59092518D01*
X27132015Y-59053720D01*
X27132016Y-59053717D01*
X27142276Y-59015427D01*
X27171499Y-58793450D01*
X27171500Y-58793441D01*
X27171500Y-58569559D01*
X27171499Y-58569549D01*
X27142277Y-58347577D01*
X27109526Y-58225350D01*
X63611500Y-58225350D01*
X63611500Y-59122649D01*
X63618009Y-59183196D01*
X63618011Y-59183204D01*
X63669110Y-59320202D01*
X63669112Y-59320207D01*
X63756738Y-59437261D01*
X63873792Y-59524887D01*
X63873794Y-59524888D01*
X63873796Y-59524889D01*
X63923694Y-59543500D01*
X64010795Y-59575988D01*
X64010803Y-59575990D01*
X64071350Y-59582499D01*
X64071355Y-59582499D01*
X64071362Y-59582500D01*
X64071368Y-59582500D01*
X65468632Y-59582500D01*
X65468638Y-59582500D01*
X65468645Y-59582499D01*
X65468649Y-59582499D01*
X65529196Y-59575990D01*
X65529199Y-59575989D01*
X65529201Y-59575989D01*
X65666204Y-59524889D01*
X65783261Y-59437261D01*
X65870889Y-59320204D01*
X65921989Y-59183201D01*
X65924310Y-59161619D01*
X65928499Y-59122649D01*
X65928500Y-59122632D01*
X65928500Y-58225367D01*
X65928499Y-58225350D01*
X65921990Y-58164803D01*
X65921988Y-58164795D01*
X65870890Y-58027799D01*
X65870889Y-58027797D01*
X65870889Y-58027796D01*
X65837800Y-57983595D01*
X65812991Y-57917078D01*
X65825185Y-57861017D01*
X65822290Y-57859818D01*
X65893104Y-57688857D01*
X65893105Y-57688854D01*
X65895265Y-57678000D01*
X63644735Y-57678000D01*
X63646894Y-57688854D01*
X63646895Y-57688857D01*
X63717710Y-57859818D01*
X63714935Y-57860967D01*
X63726953Y-57917813D01*
X63702197Y-57983597D01*
X63669113Y-58027792D01*
X63669110Y-58027797D01*
X63618011Y-58164795D01*
X63618009Y-58164803D01*
X63611500Y-58225350D01*
X27109526Y-58225350D01*
X27084326Y-58131303D01*
X26998647Y-57924453D01*
X26998642Y-57924444D01*
X26886699Y-57730552D01*
X26837618Y-57666590D01*
X26029307Y-58474901D01*
X26022611Y-58449909D01*
X25943619Y-58313092D01*
X25831908Y-58201381D01*
X25695091Y-58122389D01*
X25670097Y-58115692D01*
X26478408Y-57307381D01*
X26478407Y-57307379D01*
X26414446Y-57258300D01*
X26220555Y-57146357D01*
X26220546Y-57146352D01*
X26186883Y-57132409D01*
X26131602Y-57087860D01*
X26109181Y-57020497D01*
X26126739Y-56951706D01*
X26178701Y-56903327D01*
X26235101Y-56890000D01*
X26712132Y-56890000D01*
X26712138Y-56890000D01*
X26712145Y-56889999D01*
X26712149Y-56889999D01*
X26772696Y-56883490D01*
X26772699Y-56883489D01*
X26772701Y-56883489D01*
X26909704Y-56832389D01*
X26928476Y-56818337D01*
X27026761Y-56744761D01*
X27114387Y-56627707D01*
X27114387Y-56627706D01*
X27114389Y-56627704D01*
X27165489Y-56490701D01*
X27166911Y-56477481D01*
X27171999Y-56430149D01*
X27172000Y-56430132D01*
X27172000Y-55536518D01*
X36683500Y-55536518D01*
X36683500Y-55536521D01*
X36683500Y-55715479D01*
X36718413Y-55891000D01*
X36786898Y-56056336D01*
X36886322Y-56205135D01*
X37012865Y-56331678D01*
X37161664Y-56431102D01*
X37327000Y-56499587D01*
X37502521Y-56534500D01*
X37502522Y-56534500D01*
X37681478Y-56534500D01*
X37681479Y-56534500D01*
X37857000Y-56499587D01*
X38022336Y-56431102D01*
X38171135Y-56331678D01*
X38218900Y-56283912D01*
X38281211Y-56249888D01*
X38352026Y-56254952D01*
X38377996Y-56268242D01*
X38431664Y-56304102D01*
X38597000Y-56372587D01*
X38642386Y-56381614D01*
X38705295Y-56414521D01*
X38740428Y-56476215D01*
X38741383Y-56480609D01*
X38750411Y-56525994D01*
X38750412Y-56525998D01*
X38750413Y-56526000D01*
X38818898Y-56691336D01*
X38918322Y-56840135D01*
X39044865Y-56966678D01*
X39193664Y-57066102D01*
X39359000Y-57134587D01*
X39534521Y-57169500D01*
X39534522Y-57169500D01*
X39713478Y-57169500D01*
X39713479Y-57169500D01*
X39889000Y-57134587D01*
X40054336Y-57066102D01*
X40203135Y-56966678D01*
X40329678Y-56840135D01*
X40429102Y-56691336D01*
X40497587Y-56526000D01*
X40532500Y-56350479D01*
X40532500Y-56171521D01*
X40497587Y-55996000D01*
X40429102Y-55830664D01*
X40329678Y-55681865D01*
X40203135Y-55555322D01*
X40054336Y-55455898D01*
X39889000Y-55387413D01*
X39888998Y-55387412D01*
X39888994Y-55387411D01*
X39843609Y-55378383D01*
X39830654Y-55371606D01*
X39816177Y-55369567D01*
X39799825Y-55355479D01*
X39780700Y-55345475D01*
X39772453Y-55331897D01*
X39762389Y-55323227D01*
X39752757Y-55299470D01*
X39747398Y-55290647D01*
X39745749Y-55285089D01*
X39735587Y-55234000D01*
X39703078Y-55155518D01*
X47224500Y-55155518D01*
X47224500Y-55334481D01*
X47229775Y-55361000D01*
X47258047Y-55503135D01*
X47259414Y-55510003D01*
X47327898Y-55675336D01*
X47375447Y-55746499D01*
X47396661Y-55814252D01*
X47377877Y-55882719D01*
X47375447Y-55886501D01*
X47327898Y-55957663D01*
X47259414Y-56122996D01*
X47224500Y-56298518D01*
X47224500Y-56477481D01*
X47234150Y-56525994D01*
X47259413Y-56653000D01*
X47327898Y-56818336D01*
X47427322Y-56967135D01*
X47553865Y-57093678D01*
X47702664Y-57193102D01*
X47868000Y-57261587D01*
X48043521Y-57296500D01*
X48043522Y-57296500D01*
X48222478Y-57296500D01*
X48222479Y-57296500D01*
X48398000Y-57261587D01*
X48563336Y-57193102D01*
X48712135Y-57093678D01*
X48745295Y-57060518D01*
X51669500Y-57060518D01*
X51669500Y-57239481D01*
X51680842Y-57296499D01*
X51704413Y-57415000D01*
X51772898Y-57580336D01*
X51872322Y-57729135D01*
X51998865Y-57855678D01*
X52147664Y-57955102D01*
X52313000Y-58023587D01*
X52488521Y-58058500D01*
X52488522Y-58058500D01*
X52667478Y-58058500D01*
X52667479Y-58058500D01*
X52843000Y-58023587D01*
X53008336Y-57955102D01*
X53157135Y-57855678D01*
X53283678Y-57729135D01*
X53383102Y-57580336D01*
X53451587Y-57415000D01*
X53459688Y-57374272D01*
X64520000Y-57374272D01*
X64520000Y-57473728D01*
X64558060Y-57565614D01*
X64628386Y-57635940D01*
X64720272Y-57674000D01*
X64819728Y-57674000D01*
X64911614Y-57635940D01*
X64981940Y-57565614D01*
X65020000Y-57473728D01*
X65020000Y-57374272D01*
X64981940Y-57282386D01*
X64911614Y-57212060D01*
X64819728Y-57174000D01*
X64720272Y-57174000D01*
X64628386Y-57212060D01*
X64558060Y-57282386D01*
X64520000Y-57374272D01*
X53459688Y-57374272D01*
X53486500Y-57239479D01*
X53486500Y-57060521D01*
X53451587Y-56885000D01*
X53383102Y-56719664D01*
X53283678Y-56570865D01*
X53157135Y-56444322D01*
X53008336Y-56344898D01*
X52891429Y-56296473D01*
X52843003Y-56276414D01*
X52843001Y-56276413D01*
X52843000Y-56276413D01*
X52754645Y-56258838D01*
X52667481Y-56241500D01*
X52667479Y-56241500D01*
X52488521Y-56241500D01*
X52488518Y-56241500D01*
X52378034Y-56263477D01*
X52313000Y-56276413D01*
X52312999Y-56276413D01*
X52312996Y-56276414D01*
X52147662Y-56344899D01*
X51998869Y-56444319D01*
X51998862Y-56444324D01*
X51872324Y-56570862D01*
X51872319Y-56570869D01*
X51772899Y-56719662D01*
X51704414Y-56884996D01*
X51704413Y-56884999D01*
X51704413Y-56885000D01*
X51700768Y-56903327D01*
X51669500Y-57060518D01*
X48745295Y-57060518D01*
X48838678Y-56967135D01*
X48938102Y-56818336D01*
X49006587Y-56653000D01*
X49041500Y-56477479D01*
X49041500Y-56298521D01*
X49006587Y-56123000D01*
X48938102Y-55957664D01*
X48890550Y-55886498D01*
X48869337Y-55818750D01*
X48888119Y-55750283D01*
X48890511Y-55746560D01*
X48938102Y-55675336D01*
X49006587Y-55510000D01*
X49041500Y-55334479D01*
X49041500Y-55155521D01*
X49006587Y-54980000D01*
X48946326Y-54834518D01*
X63611500Y-54834518D01*
X63611500Y-55013481D01*
X63621087Y-55061675D01*
X63640863Y-55161100D01*
X63646414Y-55189003D01*
X63649173Y-55195664D01*
X63714898Y-55354336D01*
X63730966Y-55378383D01*
X63798194Y-55478998D01*
X63819409Y-55546751D01*
X63800626Y-55615218D01*
X63798194Y-55619002D01*
X63714899Y-55743662D01*
X63646414Y-55908996D01*
X63611500Y-56084518D01*
X63611500Y-56263481D01*
X63625066Y-56331680D01*
X63646413Y-56439000D01*
X63714898Y-56604336D01*
X63798495Y-56729448D01*
X63819710Y-56797201D01*
X63800927Y-56865668D01*
X63798495Y-56869452D01*
X63715341Y-56993901D01*
X63646895Y-57159142D01*
X63646894Y-57159145D01*
X63644735Y-57170000D01*
X65895264Y-57170000D01*
X65893105Y-57159145D01*
X65893104Y-57159142D01*
X65824658Y-56993901D01*
X65741504Y-56869452D01*
X65720289Y-56801699D01*
X65739072Y-56733232D01*
X65741476Y-56729491D01*
X65825102Y-56604336D01*
X65893587Y-56439000D01*
X65928500Y-56263479D01*
X65928500Y-56084521D01*
X65893587Y-55909000D01*
X65825102Y-55743664D01*
X65741804Y-55618999D01*
X65720590Y-55551249D01*
X65739373Y-55482782D01*
X65741785Y-55479028D01*
X65825102Y-55354336D01*
X65893587Y-55189000D01*
X65928500Y-55013479D01*
X65928500Y-54834521D01*
X65893587Y-54659000D01*
X65825102Y-54493664D01*
X65725678Y-54344865D01*
X65599135Y-54218322D01*
X65450336Y-54118898D01*
X65333429Y-54070473D01*
X65285003Y-54050414D01*
X65285001Y-54050413D01*
X65285000Y-54050413D01*
X65196645Y-54032838D01*
X65109481Y-54015500D01*
X65109479Y-54015500D01*
X64430521Y-54015500D01*
X64430518Y-54015500D01*
X64299771Y-54041507D01*
X64255000Y-54050413D01*
X64254999Y-54050413D01*
X64254996Y-54050414D01*
X64089662Y-54118899D01*
X63940869Y-54218319D01*
X63940862Y-54218324D01*
X63814324Y-54344862D01*
X63814319Y-54344869D01*
X63714899Y-54493662D01*
X63646414Y-54658996D01*
X63646413Y-54658999D01*
X63646413Y-54659000D01*
X63645047Y-54665869D01*
X63611500Y-54834518D01*
X48946326Y-54834518D01*
X48938102Y-54814664D01*
X48838678Y-54665865D01*
X48712135Y-54539322D01*
X48563336Y-54439898D01*
X48446429Y-54391473D01*
X48398003Y-54371414D01*
X48398001Y-54371413D01*
X48398000Y-54371413D01*
X48309645Y-54353838D01*
X48222481Y-54336500D01*
X48222479Y-54336500D01*
X48043521Y-54336500D01*
X48043518Y-54336500D01*
X47912771Y-54362507D01*
X47868000Y-54371413D01*
X47867999Y-54371413D01*
X47867996Y-54371414D01*
X47702662Y-54439899D01*
X47553869Y-54539319D01*
X47553862Y-54539324D01*
X47427324Y-54665862D01*
X47427319Y-54665869D01*
X47342158Y-54793323D01*
X47327898Y-54814664D01*
X47316953Y-54841087D01*
X47259414Y-54979996D01*
X47224500Y-55155518D01*
X39703078Y-55155518D01*
X39667102Y-55068664D01*
X39567678Y-54919865D01*
X39441135Y-54793322D01*
X39292336Y-54693898D01*
X39175429Y-54645473D01*
X39127003Y-54625414D01*
X39127001Y-54625413D01*
X39127000Y-54625413D01*
X39038645Y-54607838D01*
X38951481Y-54590500D01*
X38951479Y-54590500D01*
X38772521Y-54590500D01*
X38772518Y-54590500D01*
X38641771Y-54616507D01*
X38597000Y-54625413D01*
X38596999Y-54625413D01*
X38596996Y-54625414D01*
X38431662Y-54693899D01*
X38404689Y-54711922D01*
X38282870Y-54793319D01*
X38282864Y-54793323D01*
X38282862Y-54793324D01*
X38235099Y-54841087D01*
X38172786Y-54875112D01*
X38101970Y-54870046D01*
X38076003Y-54856757D01*
X38052627Y-54841138D01*
X38022336Y-54820898D01*
X37938897Y-54786336D01*
X37857003Y-54752414D01*
X37857001Y-54752413D01*
X37857000Y-54752413D01*
X37768645Y-54734838D01*
X37681481Y-54717500D01*
X37681479Y-54717500D01*
X37502521Y-54717500D01*
X37502518Y-54717500D01*
X37371771Y-54743507D01*
X37327000Y-54752413D01*
X37326999Y-54752413D01*
X37326996Y-54752414D01*
X37161662Y-54820899D01*
X37012869Y-54920319D01*
X37012862Y-54920324D01*
X36886324Y-55046862D01*
X36886319Y-55046869D01*
X36786899Y-55195662D01*
X36718414Y-55360996D01*
X36718413Y-55360999D01*
X36718413Y-55361000D01*
X36714955Y-55378383D01*
X36683500Y-55536518D01*
X27172000Y-55536518D01*
X27172000Y-53932867D01*
X27171999Y-53932850D01*
X27165490Y-53872303D01*
X27165488Y-53872295D01*
X27129895Y-53776869D01*
X27114389Y-53735296D01*
X27114388Y-53735294D01*
X27114387Y-53735292D01*
X27026761Y-53618238D01*
X26909707Y-53530612D01*
X26909702Y-53530610D01*
X26772704Y-53479511D01*
X26772696Y-53479509D01*
X26712149Y-53473000D01*
X26712138Y-53473000D01*
X24214862Y-53473000D01*
X24214850Y-53473000D01*
X24154303Y-53479509D01*
X24154295Y-53479511D01*
X24017297Y-53530610D01*
X24017292Y-53530612D01*
X23900238Y-53618238D01*
X23812612Y-53735292D01*
X23812610Y-53735297D01*
X23761511Y-53872295D01*
X23761509Y-53872303D01*
X23755000Y-53932850D01*
X20500500Y-53932850D01*
X20500500Y-52923168D01*
X30360500Y-52923168D01*
X30360500Y-53121831D01*
X30399256Y-53316669D01*
X30399259Y-53316678D01*
X30439747Y-53414426D01*
X30447336Y-53485015D01*
X30424211Y-53538145D01*
X30418113Y-53546291D01*
X30418110Y-53546296D01*
X30367011Y-53683295D01*
X30367009Y-53683303D01*
X30360500Y-53743850D01*
X30360500Y-54841149D01*
X30367009Y-54901696D01*
X30367011Y-54901704D01*
X30418110Y-55038702D01*
X30418112Y-55038707D01*
X30505738Y-55155761D01*
X30622792Y-55243387D01*
X30622794Y-55243388D01*
X30622796Y-55243389D01*
X30679394Y-55264499D01*
X30759795Y-55294488D01*
X30759803Y-55294490D01*
X30820350Y-55300999D01*
X30820355Y-55300999D01*
X30820362Y-55301000D01*
X30820368Y-55301000D01*
X31917632Y-55301000D01*
X31917638Y-55301000D01*
X31917645Y-55300999D01*
X31917649Y-55300999D01*
X31978196Y-55294490D01*
X31978199Y-55294489D01*
X31978201Y-55294489D01*
X32115204Y-55243389D01*
X32133642Y-55229587D01*
X32232261Y-55155761D01*
X32319887Y-55038707D01*
X32319887Y-55038706D01*
X32319889Y-55038704D01*
X32370989Y-54901701D01*
X32377500Y-54841138D01*
X32377500Y-54266518D01*
X33127500Y-54266518D01*
X33127500Y-54445481D01*
X33162414Y-54621003D01*
X33182473Y-54669429D01*
X33230898Y-54786336D01*
X33330322Y-54935135D01*
X33456865Y-55061678D01*
X33605664Y-55161102D01*
X33771000Y-55229587D01*
X33946521Y-55264500D01*
X33946522Y-55264500D01*
X34125478Y-55264500D01*
X34125479Y-55264500D01*
X34301000Y-55229587D01*
X34466336Y-55161102D01*
X34615135Y-55061678D01*
X34741678Y-54935135D01*
X34841102Y-54786336D01*
X34909587Y-54621000D01*
X34944500Y-54445479D01*
X34944500Y-54266521D01*
X34909587Y-54091000D01*
X34841102Y-53925664D01*
X34750456Y-53790002D01*
X34748551Y-53783918D01*
X61753300Y-53783918D01*
X61753300Y-53783921D01*
X61753300Y-53962879D01*
X61788213Y-54138400D01*
X61856698Y-54303736D01*
X61956122Y-54452535D01*
X62082665Y-54579078D01*
X62231464Y-54678502D01*
X62396800Y-54746987D01*
X62572321Y-54781900D01*
X62572322Y-54781900D01*
X62751278Y-54781900D01*
X62751279Y-54781900D01*
X62926800Y-54746987D01*
X63092136Y-54678502D01*
X63240935Y-54579078D01*
X63367478Y-54452535D01*
X63466902Y-54303736D01*
X63535387Y-54138400D01*
X63570300Y-53962879D01*
X63570300Y-53783921D01*
X63535387Y-53608400D01*
X63466902Y-53443064D01*
X63367478Y-53294265D01*
X63240935Y-53167722D01*
X63092136Y-53068298D01*
X62975229Y-53019873D01*
X62926803Y-52999814D01*
X62926801Y-52999813D01*
X62926800Y-52999813D01*
X62838445Y-52982238D01*
X62751281Y-52964900D01*
X62751279Y-52964900D01*
X62572321Y-52964900D01*
X62572318Y-52964900D01*
X62441571Y-52990907D01*
X62396800Y-52999813D01*
X62396799Y-52999813D01*
X62396796Y-52999814D01*
X62231462Y-53068299D01*
X62082669Y-53167719D01*
X62082662Y-53167724D01*
X61956124Y-53294262D01*
X61956119Y-53294269D01*
X61856699Y-53443062D01*
X61788214Y-53608396D01*
X61753300Y-53783918D01*
X34748551Y-53783918D01*
X34729241Y-53722249D01*
X34748024Y-53653782D01*
X34800842Y-53606339D01*
X34855221Y-53594000D01*
X37846000Y-53594000D01*
X37846000Y-52959000D01*
X37846000Y-52705519D01*
X45155501Y-52705519D01*
X45155501Y-52705522D01*
X45155501Y-52884480D01*
X45190414Y-53060001D01*
X45258899Y-53225337D01*
X45358323Y-53374136D01*
X45484866Y-53500679D01*
X45633665Y-53600103D01*
X45799001Y-53668588D01*
X45974522Y-53703501D01*
X45974523Y-53703501D01*
X46153479Y-53703501D01*
X46153480Y-53703501D01*
X46329001Y-53668588D01*
X46329006Y-53668586D01*
X46346544Y-53661322D01*
X46346546Y-53661321D01*
X46494332Y-53600105D01*
X46494331Y-53600105D01*
X46494337Y-53600103D01*
X46643136Y-53500679D01*
X46769679Y-53374136D01*
X46869103Y-53225337D01*
X46937588Y-53060001D01*
X46972501Y-52884480D01*
X46972501Y-52705522D01*
X46937588Y-52530001D01*
X46869103Y-52364665D01*
X46769679Y-52215866D01*
X46643136Y-52089323D01*
X46494337Y-51989899D01*
X46377430Y-51941474D01*
X46329004Y-51921415D01*
X46329002Y-51921414D01*
X46329001Y-51921414D01*
X46240646Y-51903839D01*
X46153482Y-51886501D01*
X46153480Y-51886501D01*
X45974522Y-51886501D01*
X45974519Y-51886501D01*
X45843772Y-51912508D01*
X45799001Y-51921414D01*
X45799000Y-51921414D01*
X45798997Y-51921415D01*
X45667903Y-51975717D01*
X45644288Y-51985499D01*
X45633663Y-51989900D01*
X45484870Y-52089320D01*
X45484863Y-52089325D01*
X45358325Y-52215863D01*
X45358320Y-52215870D01*
X45261000Y-52361521D01*
X45258899Y-52364665D01*
X45257890Y-52367102D01*
X45190415Y-52529997D01*
X45190414Y-52530000D01*
X45190414Y-52530001D01*
X45187598Y-52544158D01*
X45155501Y-52705519D01*
X37846000Y-52705519D01*
X37846000Y-51815000D01*
X37866002Y-51746879D01*
X37919658Y-51700386D01*
X37972000Y-51689000D01*
X42164000Y-51689000D01*
X42164000Y-49739620D01*
X42184002Y-49671499D01*
X42237658Y-49625006D01*
X42307932Y-49614902D01*
X42359999Y-49634853D01*
X42495664Y-49725502D01*
X42661000Y-49793987D01*
X42836521Y-49828900D01*
X42836522Y-49828900D01*
X43015478Y-49828900D01*
X43015479Y-49828900D01*
X43052591Y-49821518D01*
X46081500Y-49821518D01*
X46081500Y-49821521D01*
X46081500Y-50000479D01*
X46116413Y-50176000D01*
X46184898Y-50341336D01*
X46284322Y-50490135D01*
X46410865Y-50616678D01*
X46559664Y-50716102D01*
X46725000Y-50784587D01*
X46900521Y-50819500D01*
X46900522Y-50819500D01*
X47079478Y-50819500D01*
X47079479Y-50819500D01*
X47255000Y-50784587D01*
X47420336Y-50716102D01*
X47427994Y-50710984D01*
X47495744Y-50689767D01*
X47564212Y-50708547D01*
X47567979Y-50710967D01*
X47570459Y-50712624D01*
X47575662Y-50716101D01*
X47575663Y-50716101D01*
X47575664Y-50716102D01*
X47741000Y-50784587D01*
X47916521Y-50819500D01*
X47916522Y-50819500D01*
X48095478Y-50819500D01*
X48095479Y-50819500D01*
X48271000Y-50784587D01*
X48436336Y-50716102D01*
X48443994Y-50710984D01*
X48459334Y-50706180D01*
X48472398Y-50696813D01*
X48492517Y-50695788D01*
X48511744Y-50689767D01*
X48528138Y-50693974D01*
X48543302Y-50693202D01*
X48569175Y-50704505D01*
X48576640Y-50706421D01*
X48580397Y-50708574D01*
X48591664Y-50716102D01*
X48598421Y-50718900D01*
X48605406Y-50722903D01*
X48624635Y-50742937D01*
X48646262Y-50760364D01*
X48648863Y-50768179D01*
X48654569Y-50774124D01*
X48659914Y-50801376D01*
X48668686Y-50827727D01*
X48666648Y-50835710D01*
X48668234Y-50843793D01*
X48657997Y-50869608D01*
X48651130Y-50896519D01*
X48643361Y-50906519D01*
X48642065Y-50909790D01*
X48639257Y-50911802D01*
X48631863Y-50921323D01*
X48570320Y-50982866D01*
X48570319Y-50982869D01*
X48470899Y-51131662D01*
X48402414Y-51296996D01*
X48367500Y-51472518D01*
X48367500Y-51651481D01*
X48402414Y-51827003D01*
X48422473Y-51875429D01*
X48470898Y-51992336D01*
X48570322Y-52141135D01*
X48696865Y-52267678D01*
X48845664Y-52367102D01*
X49011000Y-52435587D01*
X49186521Y-52470500D01*
X49186522Y-52470500D01*
X49266175Y-52470500D01*
X49334296Y-52490502D01*
X49380789Y-52544158D01*
X49389754Y-52571919D01*
X49418413Y-52716002D01*
X49458531Y-52812853D01*
X49486898Y-52881336D01*
X49586322Y-53030135D01*
X49712865Y-53156678D01*
X49861664Y-53256102D01*
X50027000Y-53324587D01*
X50202521Y-53359500D01*
X50202522Y-53359500D01*
X50381478Y-53359500D01*
X50381479Y-53359500D01*
X50557000Y-53324587D01*
X50722336Y-53256102D01*
X50871135Y-53156678D01*
X50997678Y-53030135D01*
X51097102Y-52881336D01*
X51165587Y-52716000D01*
X51200500Y-52540479D01*
X51200500Y-52361521D01*
X51165587Y-52186000D01*
X51097102Y-52020664D01*
X50997678Y-51871865D01*
X50871135Y-51745322D01*
X50722336Y-51645898D01*
X50605429Y-51597473D01*
X50557003Y-51577414D01*
X50557001Y-51577413D01*
X50557000Y-51577413D01*
X50468645Y-51559838D01*
X50381481Y-51542500D01*
X50381479Y-51542500D01*
X50301825Y-51542500D01*
X50233704Y-51522498D01*
X50187211Y-51468842D01*
X50178246Y-51441081D01*
X50149587Y-51297000D01*
X50149585Y-51296996D01*
X50137835Y-51268628D01*
X50081102Y-51131664D01*
X49981678Y-50982865D01*
X49855135Y-50856322D01*
X49732117Y-50774124D01*
X49706335Y-50756897D01*
X49700875Y-50753979D01*
X49701527Y-50752758D01*
X49651730Y-50712624D01*
X49629313Y-50645259D01*
X49646875Y-50576469D01*
X49666138Y-50551675D01*
X49727678Y-50490135D01*
X49827102Y-50341336D01*
X49895587Y-50176000D01*
X49930500Y-50000479D01*
X49930500Y-49948518D01*
X50272500Y-49948518D01*
X50272500Y-50127481D01*
X50282151Y-50176000D01*
X50307413Y-50303000D01*
X50375898Y-50468336D01*
X50475322Y-50617135D01*
X50601865Y-50743678D01*
X50750664Y-50843102D01*
X50916000Y-50911587D01*
X51091521Y-50946500D01*
X51091522Y-50946500D01*
X51270478Y-50946500D01*
X51270479Y-50946500D01*
X51446000Y-50911587D01*
X51611336Y-50843102D01*
X51760135Y-50743678D01*
X51886678Y-50617135D01*
X51986102Y-50468336D01*
X52054587Y-50303000D01*
X52089500Y-50127479D01*
X52089500Y-50075518D01*
X58019500Y-50075518D01*
X58019500Y-50075521D01*
X58019500Y-50254479D01*
X58054413Y-50430000D01*
X58122898Y-50595336D01*
X58222322Y-50744135D01*
X58348865Y-50870678D01*
X58497664Y-50970102D01*
X58663000Y-51038587D01*
X58838521Y-51073500D01*
X58838522Y-51073500D01*
X59017478Y-51073500D01*
X59017479Y-51073500D01*
X59193000Y-51038587D01*
X59316290Y-50987518D01*
X66297500Y-50987518D01*
X66297500Y-50987521D01*
X66297500Y-51166479D01*
X66332413Y-51342000D01*
X66400898Y-51507336D01*
X66500322Y-51656135D01*
X66626865Y-51782678D01*
X66775664Y-51882102D01*
X66941000Y-51950587D01*
X67116521Y-51985500D01*
X67116522Y-51985500D01*
X67295478Y-51985500D01*
X67295479Y-51985500D01*
X67471000Y-51950587D01*
X67636336Y-51882102D01*
X67785135Y-51782678D01*
X67911678Y-51656135D01*
X68011102Y-51507336D01*
X68079587Y-51342000D01*
X68114500Y-51166479D01*
X68114500Y-50987521D01*
X68079587Y-50812000D01*
X68011102Y-50646664D01*
X67911678Y-50497865D01*
X67785135Y-50371322D01*
X67636336Y-50271898D01*
X67519429Y-50223473D01*
X67471003Y-50203414D01*
X67471001Y-50203413D01*
X67471000Y-50203413D01*
X67382645Y-50185838D01*
X67295481Y-50168500D01*
X67295479Y-50168500D01*
X67116521Y-50168500D01*
X67116518Y-50168500D01*
X66985771Y-50194507D01*
X66941000Y-50203413D01*
X66940999Y-50203413D01*
X66940996Y-50203414D01*
X66775662Y-50271899D01*
X66626869Y-50371319D01*
X66626862Y-50371324D01*
X66500324Y-50497862D01*
X66500319Y-50497869D01*
X66400899Y-50646662D01*
X66332414Y-50811996D01*
X66332413Y-50811999D01*
X66332413Y-50812000D01*
X66326089Y-50843793D01*
X66297500Y-50987518D01*
X59316290Y-50987518D01*
X59358336Y-50970102D01*
X59507135Y-50870678D01*
X59633678Y-50744135D01*
X59733102Y-50595336D01*
X59801587Y-50430000D01*
X59836500Y-50254479D01*
X59836500Y-50075521D01*
X59801587Y-49900000D01*
X59733102Y-49734664D01*
X59633678Y-49585865D01*
X59507135Y-49459322D01*
X59358336Y-49359898D01*
X59215872Y-49300887D01*
X59193003Y-49291414D01*
X59193001Y-49291413D01*
X59193000Y-49291413D01*
X59104645Y-49273838D01*
X59017481Y-49256500D01*
X59017479Y-49256500D01*
X58838521Y-49256500D01*
X58838518Y-49256500D01*
X58707771Y-49282507D01*
X58663000Y-49291413D01*
X58662999Y-49291413D01*
X58662996Y-49291414D01*
X58564233Y-49332324D01*
X58501042Y-49358499D01*
X58497662Y-49359899D01*
X58348869Y-49459319D01*
X58348862Y-49459324D01*
X58222324Y-49585862D01*
X58222319Y-49585869D01*
X58122899Y-49734662D01*
X58054414Y-49899996D01*
X58054413Y-49899999D01*
X58054413Y-49900000D01*
X58045507Y-49944771D01*
X58019500Y-50075518D01*
X52089500Y-50075518D01*
X52089500Y-49948521D01*
X52054587Y-49773000D01*
X51986102Y-49607664D01*
X51886678Y-49458865D01*
X51760135Y-49332322D01*
X51611336Y-49232898D01*
X51494429Y-49184473D01*
X51446003Y-49164414D01*
X51446001Y-49164413D01*
X51446000Y-49164413D01*
X51357645Y-49146838D01*
X51270481Y-49129500D01*
X51270479Y-49129500D01*
X51091521Y-49129500D01*
X51091518Y-49129500D01*
X50960771Y-49155507D01*
X50916000Y-49164413D01*
X50915999Y-49164413D01*
X50915996Y-49164414D01*
X50750662Y-49232899D01*
X50601869Y-49332319D01*
X50601862Y-49332324D01*
X50475324Y-49458862D01*
X50475319Y-49458869D01*
X50375899Y-49607662D01*
X50307414Y-49772996D01*
X50307413Y-49772999D01*
X50307413Y-49773000D01*
X50298507Y-49817771D01*
X50272500Y-49948518D01*
X49930500Y-49948518D01*
X49930500Y-49821521D01*
X49895587Y-49646000D01*
X49827102Y-49480664D01*
X49727678Y-49331865D01*
X49601135Y-49205322D01*
X49452336Y-49105898D01*
X49335429Y-49057473D01*
X49287003Y-49037414D01*
X49287001Y-49037413D01*
X49287000Y-49037413D01*
X49198645Y-49019838D01*
X49111481Y-49002500D01*
X49111479Y-49002500D01*
X48932521Y-49002500D01*
X48932518Y-49002500D01*
X48801771Y-49028507D01*
X48757000Y-49037413D01*
X48756999Y-49037413D01*
X48756996Y-49037414D01*
X48591662Y-49105899D01*
X48583998Y-49111020D01*
X48516244Y-49132232D01*
X48447778Y-49113446D01*
X48444002Y-49111020D01*
X48436337Y-49105899D01*
X48436338Y-49105899D01*
X48436336Y-49105898D01*
X48319429Y-49057473D01*
X48271003Y-49037414D01*
X48271001Y-49037413D01*
X48271000Y-49037413D01*
X48182645Y-49019838D01*
X48095481Y-49002500D01*
X48095479Y-49002500D01*
X47916521Y-49002500D01*
X47916518Y-49002500D01*
X47785771Y-49028507D01*
X47741000Y-49037413D01*
X47740999Y-49037413D01*
X47740996Y-49037414D01*
X47575662Y-49105899D01*
X47567998Y-49111020D01*
X47500244Y-49132232D01*
X47431778Y-49113446D01*
X47428002Y-49111020D01*
X47420337Y-49105899D01*
X47420338Y-49105899D01*
X47420336Y-49105898D01*
X47303429Y-49057473D01*
X47255003Y-49037414D01*
X47255001Y-49037413D01*
X47255000Y-49037413D01*
X47166645Y-49019838D01*
X47079481Y-49002500D01*
X47079479Y-49002500D01*
X46900521Y-49002500D01*
X46900518Y-49002500D01*
X46769771Y-49028507D01*
X46725000Y-49037413D01*
X46724999Y-49037413D01*
X46724996Y-49037414D01*
X46559662Y-49105899D01*
X46410869Y-49205319D01*
X46410862Y-49205324D01*
X46284324Y-49331862D01*
X46284319Y-49331869D01*
X46199464Y-49458865D01*
X46184898Y-49480664D01*
X46172747Y-49509998D01*
X46116414Y-49645996D01*
X46081500Y-49821518D01*
X43052591Y-49821518D01*
X43191000Y-49793987D01*
X43356336Y-49725502D01*
X43505135Y-49626078D01*
X43631678Y-49499535D01*
X43731102Y-49350736D01*
X43799587Y-49185400D01*
X43833662Y-49014090D01*
X43866568Y-48951183D01*
X43928263Y-48916051D01*
X43981817Y-48915095D01*
X44106521Y-48939900D01*
X44106522Y-48939900D01*
X44285478Y-48939900D01*
X44285479Y-48939900D01*
X44461000Y-48904987D01*
X44626336Y-48836502D01*
X44697501Y-48788950D01*
X44765250Y-48767737D01*
X44833717Y-48786519D01*
X44837439Y-48788911D01*
X44908664Y-48836502D01*
X45074000Y-48904987D01*
X45249521Y-48939900D01*
X45249522Y-48939900D01*
X45428478Y-48939900D01*
X45428479Y-48939900D01*
X45604000Y-48904987D01*
X45769336Y-48836502D01*
X45918135Y-48737078D01*
X46044678Y-48610535D01*
X46144102Y-48461736D01*
X46212587Y-48296400D01*
X46247500Y-48120879D01*
X46247500Y-47941921D01*
X46212587Y-47766400D01*
X46144102Y-47601064D01*
X46044678Y-47452265D01*
X45918135Y-47325722D01*
X45769336Y-47226298D01*
X45652429Y-47177873D01*
X45604003Y-47157814D01*
X45604001Y-47157813D01*
X45604000Y-47157813D01*
X45515645Y-47140238D01*
X45428481Y-47122900D01*
X45428479Y-47122900D01*
X45249521Y-47122900D01*
X45249518Y-47122900D01*
X45118771Y-47148907D01*
X45074000Y-47157813D01*
X45073999Y-47157813D01*
X45073996Y-47157814D01*
X44908663Y-47226298D01*
X44837501Y-47273847D01*
X44769748Y-47295061D01*
X44701281Y-47276277D01*
X44697499Y-47273847D01*
X44626336Y-47226298D01*
X44461003Y-47157814D01*
X44461001Y-47157813D01*
X44461000Y-47157813D01*
X44372645Y-47140238D01*
X44285481Y-47122900D01*
X44285479Y-47122900D01*
X44106521Y-47122900D01*
X44106518Y-47122900D01*
X43975771Y-47148907D01*
X43931000Y-47157813D01*
X43930999Y-47157813D01*
X43930996Y-47157814D01*
X43765662Y-47226299D01*
X43616869Y-47325719D01*
X43616862Y-47325724D01*
X43490324Y-47452262D01*
X43490319Y-47452269D01*
X43390899Y-47601062D01*
X43322414Y-47766396D01*
X43288338Y-47937707D01*
X43255430Y-48000616D01*
X43193735Y-48035748D01*
X43140178Y-48036703D01*
X43093615Y-48027442D01*
X43015481Y-48011900D01*
X43015479Y-48011900D01*
X42836521Y-48011900D01*
X42836518Y-48011900D01*
X42716628Y-48035748D01*
X42661000Y-48046813D01*
X42660999Y-48046813D01*
X42660996Y-48046814D01*
X42495662Y-48115299D01*
X42346869Y-48214719D01*
X42346862Y-48214724D01*
X42220324Y-48341262D01*
X42220319Y-48341269D01*
X42120899Y-48490062D01*
X42052414Y-48655396D01*
X42052413Y-48655399D01*
X42052413Y-48655400D01*
X42047680Y-48679193D01*
X42017500Y-48830918D01*
X42017500Y-49009881D01*
X42034671Y-49096202D01*
X42048238Y-49164413D01*
X42052414Y-49185403D01*
X42072087Y-49232898D01*
X42113271Y-49332324D01*
X42122988Y-49355781D01*
X42130577Y-49426371D01*
X42098798Y-49489858D01*
X42037740Y-49526086D01*
X42006579Y-49530000D01*
X37972000Y-49530000D01*
X37903879Y-49509998D01*
X37857386Y-49456342D01*
X37846000Y-49404000D01*
X37846000Y-46901745D01*
X37866002Y-46833624D01*
X37919658Y-46787131D01*
X37947416Y-46778166D01*
X38081831Y-46751430D01*
X38228968Y-46690483D01*
X38361389Y-46602003D01*
X38474003Y-46489389D01*
X38562483Y-46356968D01*
X38623430Y-46209831D01*
X38654500Y-46053630D01*
X38654500Y-45894370D01*
X38627279Y-45757518D01*
X54336500Y-45757518D01*
X54336500Y-45936481D01*
X54345414Y-45981292D01*
X54371413Y-46112000D01*
X54439898Y-46277336D01*
X54539322Y-46426135D01*
X54665865Y-46552678D01*
X54814664Y-46652102D01*
X54980000Y-46720587D01*
X55155521Y-46755500D01*
X55155522Y-46755500D01*
X55334478Y-46755500D01*
X55334479Y-46755500D01*
X55510000Y-46720587D01*
X55675336Y-46652102D01*
X55824135Y-46552678D01*
X55950678Y-46426135D01*
X56050102Y-46277336D01*
X56118587Y-46112000D01*
X56153500Y-45936479D01*
X56153500Y-45757521D01*
X56118587Y-45582000D01*
X56050102Y-45416664D01*
X55950678Y-45267865D01*
X55824135Y-45141322D01*
X55675336Y-45041898D01*
X55550129Y-44990035D01*
X55510003Y-44973414D01*
X55510001Y-44973413D01*
X55510000Y-44973413D01*
X55421645Y-44955838D01*
X55334481Y-44938500D01*
X55334479Y-44938500D01*
X55155521Y-44938500D01*
X55155518Y-44938500D01*
X55047432Y-44960000D01*
X54980000Y-44973413D01*
X54979999Y-44973413D01*
X54979996Y-44973414D01*
X54848902Y-45027716D01*
X54836793Y-45032732D01*
X54814662Y-45041899D01*
X54665869Y-45141319D01*
X54665862Y-45141324D01*
X54539324Y-45267862D01*
X54539319Y-45267869D01*
X54439899Y-45416662D01*
X54371414Y-45581996D01*
X54371413Y-45581999D01*
X54371413Y-45582000D01*
X54362507Y-45626771D01*
X54336500Y-45757518D01*
X38627279Y-45757518D01*
X38623430Y-45738169D01*
X38562483Y-45591032D01*
X38474003Y-45458611D01*
X38474001Y-45458609D01*
X38473996Y-45458603D01*
X38361396Y-45346003D01*
X38361390Y-45345998D01*
X38310942Y-45312290D01*
X38228968Y-45257517D01*
X38081831Y-45196570D01*
X37997859Y-45179867D01*
X37925632Y-45165500D01*
X37925630Y-45165500D01*
X37766370Y-45165500D01*
X37766367Y-45165500D01*
X37649219Y-45188802D01*
X37610169Y-45196570D01*
X37548813Y-45221985D01*
X37463032Y-45257517D01*
X37330609Y-45345998D01*
X37330603Y-45346003D01*
X37218003Y-45458603D01*
X37217998Y-45458609D01*
X37181400Y-45513383D01*
X37129517Y-45591032D01*
X37068570Y-45738169D01*
X37062834Y-45767007D01*
X37037500Y-45894367D01*
X37037500Y-45894370D01*
X37037500Y-46053630D01*
X37042231Y-46077418D01*
X37035905Y-46148131D01*
X36992351Y-46204199D01*
X36925399Y-46227819D01*
X36918653Y-46228000D01*
X33782000Y-46228000D01*
X33782000Y-53393666D01*
X33761998Y-53461787D01*
X33708342Y-53508280D01*
X33704226Y-53510071D01*
X33616775Y-53546296D01*
X33605662Y-53550899D01*
X33456869Y-53650319D01*
X33456862Y-53650324D01*
X33330324Y-53776862D01*
X33330319Y-53776869D01*
X33266553Y-53872303D01*
X33230898Y-53925664D01*
X33216716Y-53959902D01*
X33162414Y-54090996D01*
X33127500Y-54266518D01*
X32377500Y-54266518D01*
X32377500Y-53743862D01*
X32377499Y-53743850D01*
X32370990Y-53683303D01*
X32370988Y-53683295D01*
X32319889Y-53546297D01*
X32319889Y-53546296D01*
X32313793Y-53538153D01*
X32288982Y-53471632D01*
X32298252Y-53414424D01*
X32314942Y-53374131D01*
X32338744Y-53316669D01*
X32377500Y-53121829D01*
X32377500Y-52923171D01*
X32338744Y-52728331D01*
X32262721Y-52544796D01*
X32152353Y-52379619D01*
X32011881Y-52239147D01*
X31846704Y-52128779D01*
X31663169Y-52052756D01*
X31468331Y-52014000D01*
X31468329Y-52014000D01*
X31269671Y-52014000D01*
X31269668Y-52014000D01*
X31074830Y-52052756D01*
X31074825Y-52052758D01*
X30891296Y-52128779D01*
X30726123Y-52239144D01*
X30726116Y-52239149D01*
X30585649Y-52379616D01*
X30585644Y-52379623D01*
X30475279Y-52544796D01*
X30399258Y-52728325D01*
X30399256Y-52728330D01*
X30360500Y-52923168D01*
X20500500Y-52923168D01*
X20500500Y-29966000D01*
X21125302Y-29966000D01*
X22029297Y-29966000D01*
X21994075Y-30027007D01*
X21960000Y-30154174D01*
X21960000Y-30285826D01*
X21994075Y-30412993D01*
X22029297Y-30474000D01*
X21125302Y-30474000D01*
X21135440Y-30538004D01*
X21201490Y-30741286D01*
X21201493Y-30741292D01*
X21298536Y-30931750D01*
X21424177Y-31104679D01*
X21575320Y-31255822D01*
X21748256Y-31381468D01*
X21750052Y-31382569D01*
X21750591Y-31383164D01*
X21752258Y-31384376D01*
X21752003Y-31384726D01*
X21797682Y-31435217D01*
X21809288Y-31505259D01*
X21781183Y-31570456D01*
X21752211Y-31595559D01*
X21752258Y-31595624D01*
X21751511Y-31596166D01*
X21750052Y-31597431D01*
X21748256Y-31598531D01*
X21575320Y-31724177D01*
X21424177Y-31875320D01*
X21298536Y-32048249D01*
X21201493Y-32238707D01*
X21201490Y-32238713D01*
X21135440Y-32441995D01*
X21125302Y-32506000D01*
X22029297Y-32506000D01*
X21994075Y-32567007D01*
X21960000Y-32694174D01*
X21960000Y-32825826D01*
X21994075Y-32952993D01*
X22029297Y-33014000D01*
X21125302Y-33014000D01*
X21135440Y-33078004D01*
X21201490Y-33281286D01*
X21201493Y-33281292D01*
X21298536Y-33471750D01*
X21424177Y-33644679D01*
X21575320Y-33795822D01*
X21748256Y-33921468D01*
X21750052Y-33922569D01*
X21750591Y-33923164D01*
X21752258Y-33924376D01*
X21752003Y-33924726D01*
X21797682Y-33975217D01*
X21809288Y-34045259D01*
X21781183Y-34110456D01*
X21752211Y-34135559D01*
X21752258Y-34135624D01*
X21751511Y-34136166D01*
X21750052Y-34137431D01*
X21748256Y-34138531D01*
X21575320Y-34264177D01*
X21424177Y-34415320D01*
X21298536Y-34588249D01*
X21201493Y-34778707D01*
X21201490Y-34778713D01*
X21135440Y-34981995D01*
X21125302Y-35046000D01*
X22029297Y-35046000D01*
X21994075Y-35107007D01*
X21960000Y-35234174D01*
X21960000Y-35365826D01*
X21994075Y-35492993D01*
X22029297Y-35554000D01*
X21125302Y-35554000D01*
X21135440Y-35618004D01*
X21201490Y-35821286D01*
X21201493Y-35821292D01*
X21298536Y-36011750D01*
X21424177Y-36184679D01*
X21575320Y-36335822D01*
X21748256Y-36461468D01*
X21750052Y-36462569D01*
X21750591Y-36463164D01*
X21752258Y-36464376D01*
X21752003Y-36464726D01*
X21797682Y-36515217D01*
X21809288Y-36585259D01*
X21781183Y-36650456D01*
X21752211Y-36675559D01*
X21752258Y-36675624D01*
X21751511Y-36676166D01*
X21750052Y-36677431D01*
X21748256Y-36678531D01*
X21575320Y-36804177D01*
X21424177Y-36955320D01*
X21298536Y-37128249D01*
X21201493Y-37318707D01*
X21201490Y-37318713D01*
X21135440Y-37521995D01*
X21125302Y-37586000D01*
X22029297Y-37586000D01*
X21994075Y-37647007D01*
X21960000Y-37774174D01*
X21960000Y-37905826D01*
X21994075Y-38032993D01*
X22029297Y-38094000D01*
X21125302Y-38094000D01*
X21135440Y-38158004D01*
X21201490Y-38361286D01*
X21201493Y-38361292D01*
X21298536Y-38551750D01*
X21424177Y-38724679D01*
X21575320Y-38875822D01*
X21748256Y-39001468D01*
X21750052Y-39002569D01*
X21750591Y-39003164D01*
X21752258Y-39004376D01*
X21752003Y-39004726D01*
X21797682Y-39055217D01*
X21809288Y-39125259D01*
X21781183Y-39190456D01*
X21752211Y-39215559D01*
X21752258Y-39215624D01*
X21751511Y-39216166D01*
X21750052Y-39217431D01*
X21748256Y-39218531D01*
X21575320Y-39344177D01*
X21424177Y-39495320D01*
X21298536Y-39668249D01*
X21201493Y-39858707D01*
X21201490Y-39858713D01*
X21135440Y-40061995D01*
X21125302Y-40126000D01*
X22029297Y-40126000D01*
X21994075Y-40187007D01*
X21960000Y-40314174D01*
X21960000Y-40445826D01*
X21994075Y-40572993D01*
X22029297Y-40634000D01*
X21125302Y-40634000D01*
X21135440Y-40698004D01*
X21201490Y-40901286D01*
X21201493Y-40901292D01*
X21298536Y-41091750D01*
X21424177Y-41264679D01*
X21575320Y-41415822D01*
X21748256Y-41541468D01*
X21750052Y-41542569D01*
X21750591Y-41543164D01*
X21752258Y-41544376D01*
X21752003Y-41544726D01*
X21797682Y-41595217D01*
X21809288Y-41665259D01*
X21781183Y-41730456D01*
X21752211Y-41755559D01*
X21752258Y-41755624D01*
X21751511Y-41756166D01*
X21750052Y-41757431D01*
X21748256Y-41758531D01*
X21575320Y-41884177D01*
X21424177Y-42035320D01*
X21298536Y-42208249D01*
X21201493Y-42398707D01*
X21201490Y-42398713D01*
X21135440Y-42601995D01*
X21125302Y-42666000D01*
X22029297Y-42666000D01*
X21994075Y-42727007D01*
X21960000Y-42854174D01*
X21960000Y-42985826D01*
X21994075Y-43112993D01*
X22029297Y-43174000D01*
X21125302Y-43174000D01*
X21135440Y-43238004D01*
X21201490Y-43441286D01*
X21201493Y-43441292D01*
X21298536Y-43631750D01*
X21424177Y-43804679D01*
X21575320Y-43955822D01*
X21748256Y-44081468D01*
X21750052Y-44082569D01*
X21750591Y-44083164D01*
X21752258Y-44084376D01*
X21752003Y-44084726D01*
X21797682Y-44135217D01*
X21809288Y-44205259D01*
X21781183Y-44270456D01*
X21752211Y-44295559D01*
X21752258Y-44295624D01*
X21751511Y-44296166D01*
X21750052Y-44297431D01*
X21748256Y-44298531D01*
X21575320Y-44424177D01*
X21424177Y-44575320D01*
X21298536Y-44748249D01*
X21201493Y-44938707D01*
X21201490Y-44938713D01*
X21135440Y-45141995D01*
X21125302Y-45206000D01*
X22029297Y-45206000D01*
X21994075Y-45267007D01*
X21960000Y-45394174D01*
X21960000Y-45525826D01*
X21994075Y-45652993D01*
X22029297Y-45714000D01*
X21125302Y-45714000D01*
X21135440Y-45778004D01*
X21201490Y-45981286D01*
X21201493Y-45981292D01*
X21298536Y-46171750D01*
X21424177Y-46344679D01*
X21575320Y-46495822D01*
X21748256Y-46621468D01*
X21750052Y-46622569D01*
X21750591Y-46623164D01*
X21752258Y-46624376D01*
X21752003Y-46624726D01*
X21797682Y-46675217D01*
X21809288Y-46745259D01*
X21781183Y-46810456D01*
X21752211Y-46835559D01*
X21752258Y-46835624D01*
X21751511Y-46836166D01*
X21750052Y-46837431D01*
X21748256Y-46838531D01*
X21575320Y-46964177D01*
X21424177Y-47115320D01*
X21298536Y-47288249D01*
X21201493Y-47478707D01*
X21201490Y-47478713D01*
X21135440Y-47681995D01*
X21125302Y-47746000D01*
X22029297Y-47746000D01*
X21994075Y-47807007D01*
X21960000Y-47934174D01*
X21960000Y-48065826D01*
X21994075Y-48192993D01*
X22029297Y-48254000D01*
X21125302Y-48254000D01*
X21135440Y-48318004D01*
X21201490Y-48521286D01*
X21201493Y-48521292D01*
X21298536Y-48711750D01*
X21424177Y-48884679D01*
X21575320Y-49035822D01*
X21748249Y-49161463D01*
X21938707Y-49258506D01*
X21938713Y-49258509D01*
X22141998Y-49324560D01*
X22206000Y-49334696D01*
X22206000Y-48430702D01*
X22267007Y-48465925D01*
X22394174Y-48500000D01*
X22525826Y-48500000D01*
X22652993Y-48465925D01*
X22714000Y-48430702D01*
X22714000Y-49334696D01*
X22778001Y-49324560D01*
X22981286Y-49258509D01*
X22981292Y-49258506D01*
X23171750Y-49161463D01*
X23344677Y-49035823D01*
X23447787Y-48932713D01*
X23510099Y-48898688D01*
X23580915Y-48903752D01*
X23637751Y-48946299D01*
X23654938Y-48977775D01*
X23699110Y-49096202D01*
X23699112Y-49096207D01*
X23786738Y-49213261D01*
X23903792Y-49300887D01*
X23903794Y-49300888D01*
X23903796Y-49300889D01*
X23962875Y-49322924D01*
X24040795Y-49351988D01*
X24040803Y-49351990D01*
X24101350Y-49358499D01*
X24101355Y-49358499D01*
X24101362Y-49358500D01*
X24101368Y-49358500D01*
X25898632Y-49358500D01*
X25898638Y-49358500D01*
X25898645Y-49358499D01*
X25898649Y-49358499D01*
X25959196Y-49351990D01*
X25959199Y-49351989D01*
X25959201Y-49351989D01*
X25962561Y-49350736D01*
X25978045Y-49344960D01*
X26096204Y-49300889D01*
X26108863Y-49291413D01*
X26213261Y-49213261D01*
X26300887Y-49096207D01*
X26300889Y-49096203D01*
X26300890Y-49096202D01*
X26336670Y-49000273D01*
X26379216Y-48943437D01*
X26445737Y-48918627D01*
X26515111Y-48933719D01*
X26543820Y-48955211D01*
X26656210Y-49067601D01*
X26656213Y-49067603D01*
X26656216Y-49067606D01*
X26829211Y-49193294D01*
X27019737Y-49290372D01*
X27223098Y-49356447D01*
X27223099Y-49356447D01*
X27223104Y-49356449D01*
X27434304Y-49389900D01*
X27434307Y-49389900D01*
X27648133Y-49389900D01*
X27648136Y-49389900D01*
X27859336Y-49356449D01*
X28062703Y-49290372D01*
X28253229Y-49193294D01*
X28426224Y-49067606D01*
X28577426Y-48916404D01*
X28703114Y-48743409D01*
X28800192Y-48552883D01*
X28866269Y-48349516D01*
X28899720Y-48138316D01*
X28899720Y-47924484D01*
X28866269Y-47713284D01*
X28800192Y-47509917D01*
X28703114Y-47319391D01*
X28577426Y-47146396D01*
X28577423Y-47146393D01*
X28577421Y-47146390D01*
X28426229Y-46995198D01*
X28426226Y-46995196D01*
X28426224Y-46995194D01*
X28423917Y-46993518D01*
X31510500Y-46993518D01*
X31510500Y-46993521D01*
X31510500Y-47172479D01*
X31539722Y-47319391D01*
X31545414Y-47348003D01*
X31613898Y-47513337D01*
X31621893Y-47525302D01*
X31643105Y-47593055D01*
X31624320Y-47661522D01*
X31621893Y-47665298D01*
X31613898Y-47677262D01*
X31545414Y-47842596D01*
X31510500Y-48018118D01*
X31510500Y-48197081D01*
X31521822Y-48254000D01*
X31540822Y-48349521D01*
X31545414Y-48372603D01*
X31613899Y-48537939D01*
X31613900Y-48537940D01*
X31616147Y-48541303D01*
X31616782Y-48543331D01*
X31616815Y-48543393D01*
X31616803Y-48543399D01*
X31637359Y-48609056D01*
X31618573Y-48677523D01*
X31616147Y-48681297D01*
X31613900Y-48684659D01*
X31613899Y-48684660D01*
X31545414Y-48849996D01*
X31510500Y-49025518D01*
X31510500Y-49204481D01*
X31521247Y-49258509D01*
X31545413Y-49380000D01*
X31613898Y-49545336D01*
X31713322Y-49694135D01*
X31839865Y-49820678D01*
X31988664Y-49920102D01*
X32154000Y-49988587D01*
X32329521Y-50023500D01*
X32329522Y-50023500D01*
X32508478Y-50023500D01*
X32508479Y-50023500D01*
X32684000Y-49988587D01*
X32849336Y-49920102D01*
X32998135Y-49820678D01*
X33124678Y-49694135D01*
X33224102Y-49545336D01*
X33292587Y-49380000D01*
X33327500Y-49204479D01*
X33327500Y-49025521D01*
X33292587Y-48850000D01*
X33224102Y-48684664D01*
X33224100Y-48684661D01*
X33224099Y-48684658D01*
X33221857Y-48681303D01*
X33221221Y-48679272D01*
X33221183Y-48679201D01*
X33221196Y-48679193D01*
X33200641Y-48613550D01*
X33219423Y-48545083D01*
X33221857Y-48541297D01*
X33224099Y-48537941D01*
X33224099Y-48537939D01*
X33224102Y-48537936D01*
X33292587Y-48372600D01*
X33327500Y-48197079D01*
X33327500Y-48018121D01*
X33292587Y-47842600D01*
X33224102Y-47677264D01*
X33216108Y-47665301D01*
X33194894Y-47597550D01*
X33213677Y-47529083D01*
X33216104Y-47525305D01*
X33224102Y-47513336D01*
X33292587Y-47348000D01*
X33327500Y-47172479D01*
X33327500Y-46993521D01*
X33292587Y-46818000D01*
X33224102Y-46652664D01*
X33124678Y-46503865D01*
X32998135Y-46377322D01*
X32849336Y-46277898D01*
X32685012Y-46209832D01*
X32684003Y-46209414D01*
X32684001Y-46209413D01*
X32684000Y-46209413D01*
X32595645Y-46191838D01*
X32508481Y-46174500D01*
X32508479Y-46174500D01*
X32329521Y-46174500D01*
X32329518Y-46174500D01*
X32198771Y-46200507D01*
X32154000Y-46209413D01*
X32153999Y-46209413D01*
X32153996Y-46209414D01*
X32022902Y-46263716D01*
X31990019Y-46277337D01*
X31988662Y-46277899D01*
X31839869Y-46377319D01*
X31839862Y-46377324D01*
X31713324Y-46503862D01*
X31713319Y-46503869D01*
X31613899Y-46652662D01*
X31545414Y-46817996D01*
X31545413Y-46817999D01*
X31545413Y-46818000D01*
X31541800Y-46836166D01*
X31510500Y-46993518D01*
X28423917Y-46993518D01*
X28253229Y-46869506D01*
X28253227Y-46869505D01*
X28252140Y-46868839D01*
X28251811Y-46868475D01*
X28249224Y-46866596D01*
X28249618Y-46866052D01*
X28204503Y-46816196D01*
X28192890Y-46746156D01*
X28220986Y-46680955D01*
X28249350Y-46656378D01*
X28249224Y-46656204D01*
X28251250Y-46654731D01*
X28252140Y-46653961D01*
X28253217Y-46653299D01*
X28253229Y-46653294D01*
X28426224Y-46527606D01*
X28577426Y-46376404D01*
X28703114Y-46203409D01*
X28800192Y-46012883D01*
X28866269Y-45809516D01*
X28899720Y-45598316D01*
X28899720Y-45384484D01*
X28866269Y-45173284D01*
X28800192Y-44969917D01*
X28703114Y-44779391D01*
X28577426Y-44606396D01*
X28577423Y-44606393D01*
X28577421Y-44606390D01*
X28426229Y-44455198D01*
X28426226Y-44455196D01*
X28426224Y-44455194D01*
X28253229Y-44329506D01*
X28253227Y-44329505D01*
X28252140Y-44328839D01*
X28251811Y-44328475D01*
X28249224Y-44326596D01*
X28249618Y-44326052D01*
X28204503Y-44276196D01*
X28192890Y-44206156D01*
X28220986Y-44140955D01*
X28249350Y-44116378D01*
X28249224Y-44116204D01*
X28251250Y-44114731D01*
X28252140Y-44113961D01*
X28253217Y-44113299D01*
X28253229Y-44113294D01*
X28367436Y-44030318D01*
X33203700Y-44030318D01*
X33203700Y-44209281D01*
X33218066Y-44281503D01*
X33238613Y-44384800D01*
X33307098Y-44550136D01*
X33406522Y-44698935D01*
X33533065Y-44825478D01*
X33681864Y-44924902D01*
X33847200Y-44993387D01*
X34022721Y-45028300D01*
X34022722Y-45028300D01*
X34201678Y-45028300D01*
X34201679Y-45028300D01*
X34377200Y-44993387D01*
X34542536Y-44924902D01*
X34691335Y-44825478D01*
X34799546Y-44717267D01*
X35225400Y-44717267D01*
X35225400Y-44717270D01*
X35225400Y-44876530D01*
X35256470Y-45032731D01*
X35317417Y-45179868D01*
X35376217Y-45267869D01*
X35405898Y-45312290D01*
X35405903Y-45312296D01*
X35518503Y-45424896D01*
X35518509Y-45424901D01*
X35518511Y-45424903D01*
X35650932Y-45513383D01*
X35798069Y-45574330D01*
X35954270Y-45605400D01*
X35954271Y-45605400D01*
X36113529Y-45605400D01*
X36113530Y-45605400D01*
X36269731Y-45574330D01*
X36416868Y-45513383D01*
X36549289Y-45424903D01*
X36661903Y-45312289D01*
X36750383Y-45179868D01*
X36811330Y-45032731D01*
X36842400Y-44876530D01*
X36842400Y-44717270D01*
X36811330Y-44561069D01*
X36750383Y-44413932D01*
X36661903Y-44281511D01*
X36661901Y-44281509D01*
X36661896Y-44281503D01*
X36549296Y-44168903D01*
X36549290Y-44168898D01*
X36549289Y-44168897D01*
X36416868Y-44080417D01*
X36269731Y-44019470D01*
X36191630Y-44003935D01*
X36113532Y-43988400D01*
X36113530Y-43988400D01*
X35954270Y-43988400D01*
X35954267Y-43988400D01*
X35837119Y-44011702D01*
X35798069Y-44019470D01*
X35650932Y-44080417D01*
X35518509Y-44168898D01*
X35518503Y-44168903D01*
X35405903Y-44281503D01*
X35405898Y-44281509D01*
X35374517Y-44328475D01*
X35317417Y-44413932D01*
X35260998Y-44550139D01*
X35256471Y-44561067D01*
X35256470Y-44561070D01*
X35225400Y-44717267D01*
X34799546Y-44717267D01*
X34817878Y-44698935D01*
X34917302Y-44550136D01*
X34985787Y-44384800D01*
X35020700Y-44209279D01*
X35020700Y-44030321D01*
X34985787Y-43854800D01*
X34917302Y-43689464D01*
X34817878Y-43540665D01*
X34691335Y-43414122D01*
X34542536Y-43314698D01*
X34425629Y-43266273D01*
X34377203Y-43246214D01*
X34377201Y-43246213D01*
X34377200Y-43246213D01*
X34280644Y-43227007D01*
X34201681Y-43211300D01*
X34201679Y-43211300D01*
X34022721Y-43211300D01*
X34022718Y-43211300D01*
X33891971Y-43237307D01*
X33847200Y-43246213D01*
X33847199Y-43246213D01*
X33847196Y-43246214D01*
X33681862Y-43314699D01*
X33533069Y-43414119D01*
X33533062Y-43414124D01*
X33406524Y-43540662D01*
X33406519Y-43540669D01*
X33307099Y-43689462D01*
X33238614Y-43854796D01*
X33203700Y-44030318D01*
X28367436Y-44030318D01*
X28426224Y-43987606D01*
X28426229Y-43987601D01*
X28478795Y-43935036D01*
X28577421Y-43836409D01*
X28577426Y-43836404D01*
X28703114Y-43663409D01*
X28800192Y-43472883D01*
X28866269Y-43269516D01*
X28899720Y-43058316D01*
X28899720Y-42844484D01*
X28866269Y-42633284D01*
X28800192Y-42429917D01*
X28703114Y-42239391D01*
X28694052Y-42226918D01*
X34905500Y-42226918D01*
X34905500Y-42405881D01*
X34910281Y-42429915D01*
X34940413Y-42581400D01*
X35008898Y-42746736D01*
X35108322Y-42895535D01*
X35234865Y-43022078D01*
X35383664Y-43121502D01*
X35549000Y-43189987D01*
X35724521Y-43224900D01*
X35724522Y-43224900D01*
X35903478Y-43224900D01*
X35903479Y-43224900D01*
X36079000Y-43189987D01*
X36244336Y-43121502D01*
X36393135Y-43022078D01*
X36451493Y-42963720D01*
X38588500Y-42963720D01*
X38588500Y-43142683D01*
X38602149Y-43211300D01*
X38623413Y-43318202D01*
X38691898Y-43483538D01*
X38791322Y-43632337D01*
X38791324Y-43632339D01*
X38833953Y-43674968D01*
X38867979Y-43737280D01*
X38862914Y-43808095D01*
X38849624Y-43834064D01*
X38793498Y-43918063D01*
X38725014Y-44083396D01*
X38725013Y-44083399D01*
X38725013Y-44083400D01*
X38718781Y-44114731D01*
X38690100Y-44258918D01*
X38690100Y-44437881D01*
X38693545Y-44455198D01*
X38725013Y-44613400D01*
X38793498Y-44778736D01*
X38892922Y-44927535D01*
X39019465Y-45054078D01*
X39168264Y-45153502D01*
X39333600Y-45221987D01*
X39509121Y-45256900D01*
X39509122Y-45256900D01*
X39688078Y-45256900D01*
X39688079Y-45256900D01*
X39863600Y-45221987D01*
X40028936Y-45153502D01*
X40177735Y-45054078D01*
X40304278Y-44927535D01*
X40403702Y-44778736D01*
X40472187Y-44613400D01*
X40507100Y-44437879D01*
X40507100Y-44258921D01*
X40472187Y-44083400D01*
X40403702Y-43918064D01*
X40304278Y-43769265D01*
X40261646Y-43726633D01*
X40227620Y-43664321D01*
X40232685Y-43593506D01*
X40245974Y-43567539D01*
X40302102Y-43483538D01*
X40370587Y-43318202D01*
X40405500Y-43142681D01*
X40405500Y-42963723D01*
X40370587Y-42788202D01*
X40302102Y-42622866D01*
X40202678Y-42474067D01*
X40076135Y-42347524D01*
X39927336Y-42248100D01*
X39810429Y-42199675D01*
X39762003Y-42179616D01*
X39762001Y-42179615D01*
X39762000Y-42179615D01*
X39673645Y-42162040D01*
X39586481Y-42144702D01*
X39586479Y-42144702D01*
X39407521Y-42144702D01*
X39407518Y-42144702D01*
X39276771Y-42170709D01*
X39232000Y-42179615D01*
X39231999Y-42179615D01*
X39231996Y-42179616D01*
X39066662Y-42248101D01*
X38917869Y-42347521D01*
X38917862Y-42347526D01*
X38791324Y-42474064D01*
X38791319Y-42474071D01*
X38691899Y-42622864D01*
X38623414Y-42788198D01*
X38588500Y-42963720D01*
X36451493Y-42963720D01*
X36519678Y-42895535D01*
X36619102Y-42746736D01*
X36687587Y-42581400D01*
X36722500Y-42405879D01*
X36722500Y-42226921D01*
X36687587Y-42051400D01*
X36619102Y-41886064D01*
X36519678Y-41737265D01*
X36393135Y-41610722D01*
X36244336Y-41511298D01*
X36099579Y-41451337D01*
X36079003Y-41442814D01*
X36079001Y-41442813D01*
X36079000Y-41442813D01*
X35990645Y-41425238D01*
X35903481Y-41407900D01*
X35903479Y-41407900D01*
X35724521Y-41407900D01*
X35724518Y-41407900D01*
X35593771Y-41433907D01*
X35549000Y-41442813D01*
X35548999Y-41442813D01*
X35548996Y-41442814D01*
X35383662Y-41511299D01*
X35234869Y-41610719D01*
X35234862Y-41610724D01*
X35108324Y-41737262D01*
X35108319Y-41737269D01*
X35010415Y-41883794D01*
X35008898Y-41886064D01*
X35005368Y-41894587D01*
X34940414Y-42051396D01*
X34905500Y-42226918D01*
X28694052Y-42226918D01*
X28577426Y-42066396D01*
X28577423Y-42066393D01*
X28577421Y-42066390D01*
X28426229Y-41915198D01*
X28426226Y-41915196D01*
X28426224Y-41915194D01*
X28253229Y-41789506D01*
X28253227Y-41789505D01*
X28252140Y-41788839D01*
X28251811Y-41788475D01*
X28249224Y-41786596D01*
X28249618Y-41786052D01*
X28204503Y-41736196D01*
X28192890Y-41666156D01*
X28220986Y-41600955D01*
X28249350Y-41576378D01*
X28249224Y-41576204D01*
X28251250Y-41574731D01*
X28252140Y-41573961D01*
X28253217Y-41573299D01*
X28253229Y-41573294D01*
X28426224Y-41447606D01*
X28577426Y-41296404D01*
X28703114Y-41123409D01*
X28800192Y-40932883D01*
X28800636Y-40931518D01*
X43414500Y-40931518D01*
X43414500Y-41110481D01*
X43449414Y-41286003D01*
X43469473Y-41334429D01*
X43517898Y-41451336D01*
X43617322Y-41600135D01*
X43743865Y-41726678D01*
X43892664Y-41826102D01*
X44058000Y-41894587D01*
X44233521Y-41929500D01*
X44233522Y-41929500D01*
X44412478Y-41929500D01*
X44412479Y-41929500D01*
X44588000Y-41894587D01*
X44753336Y-41826102D01*
X44902135Y-41726678D01*
X45028678Y-41600135D01*
X45128102Y-41451336D01*
X45196587Y-41286000D01*
X45231500Y-41110479D01*
X45231500Y-40931521D01*
X45196587Y-40756000D01*
X45128102Y-40590664D01*
X45028678Y-40441865D01*
X44902135Y-40315322D01*
X44885919Y-40304487D01*
X44831456Y-40268096D01*
X44753337Y-40215899D01*
X44753338Y-40215899D01*
X44753336Y-40215898D01*
X44641366Y-40169518D01*
X47732500Y-40169518D01*
X47732500Y-40169521D01*
X47732500Y-40348479D01*
X47767413Y-40524000D01*
X47835898Y-40689336D01*
X47935322Y-40838135D01*
X48061865Y-40964678D01*
X48210664Y-41064102D01*
X48376000Y-41132587D01*
X48551521Y-41167500D01*
X48551522Y-41167500D01*
X48730478Y-41167500D01*
X48730479Y-41167500D01*
X48906000Y-41132587D01*
X49071336Y-41064102D01*
X49220135Y-40964678D01*
X49253295Y-40931518D01*
X55987500Y-40931518D01*
X55987500Y-41110481D01*
X56022414Y-41286003D01*
X56042473Y-41334429D01*
X56090898Y-41451336D01*
X56190322Y-41600135D01*
X56316865Y-41726678D01*
X56465664Y-41826102D01*
X56631000Y-41894587D01*
X56806521Y-41929500D01*
X56806522Y-41929500D01*
X56985478Y-41929500D01*
X56985479Y-41929500D01*
X57161000Y-41894587D01*
X57326336Y-41826102D01*
X57475135Y-41726678D01*
X57601678Y-41600135D01*
X57701102Y-41451336D01*
X57769587Y-41286000D01*
X57804500Y-41110479D01*
X57804500Y-40931521D01*
X57769587Y-40756000D01*
X57701102Y-40590664D01*
X57601678Y-40441865D01*
X57475135Y-40315322D01*
X57326336Y-40215898D01*
X57209429Y-40167473D01*
X57161003Y-40147414D01*
X57161001Y-40147413D01*
X57161000Y-40147413D01*
X57053349Y-40126000D01*
X56985481Y-40112500D01*
X56985479Y-40112500D01*
X56806521Y-40112500D01*
X56806518Y-40112500D01*
X56675771Y-40138507D01*
X56631000Y-40147413D01*
X56630999Y-40147413D01*
X56630996Y-40147414D01*
X56465662Y-40215899D01*
X56316869Y-40315319D01*
X56316862Y-40315324D01*
X56190324Y-40441862D01*
X56190319Y-40441869D01*
X56090899Y-40590662D01*
X56022414Y-40755996D01*
X56022413Y-40755999D01*
X56022413Y-40756000D01*
X56013507Y-40800771D01*
X55987500Y-40931518D01*
X49253295Y-40931518D01*
X49346678Y-40838135D01*
X49446102Y-40689336D01*
X49514587Y-40524000D01*
X49549500Y-40348479D01*
X49549500Y-40169521D01*
X49514587Y-39994000D01*
X49508747Y-39979901D01*
X49499489Y-39957549D01*
X49499488Y-39957547D01*
X49482079Y-39915518D01*
X50272500Y-39915518D01*
X50272500Y-40094481D01*
X50278770Y-40126000D01*
X50307413Y-40270000D01*
X50375898Y-40435336D01*
X50475322Y-40584135D01*
X50601865Y-40710678D01*
X50750664Y-40810102D01*
X50916000Y-40878587D01*
X51091521Y-40913500D01*
X51091522Y-40913500D01*
X51270478Y-40913500D01*
X51270479Y-40913500D01*
X51446000Y-40878587D01*
X51611336Y-40810102D01*
X51760135Y-40710678D01*
X51886678Y-40584135D01*
X51986102Y-40435336D01*
X52054587Y-40270000D01*
X52089500Y-40094479D01*
X52089500Y-39915521D01*
X52054587Y-39740000D01*
X51986102Y-39574664D01*
X51886678Y-39425865D01*
X51760135Y-39299322D01*
X51639227Y-39218534D01*
X51611335Y-39199897D01*
X51611330Y-39199895D01*
X51580573Y-39187154D01*
X51580570Y-39187154D01*
X51470111Y-39141400D01*
X51446003Y-39131414D01*
X51446001Y-39131413D01*
X51446000Y-39131413D01*
X51338349Y-39110000D01*
X51270481Y-39096500D01*
X51270479Y-39096500D01*
X51091521Y-39096500D01*
X51091518Y-39096500D01*
X50979586Y-39118765D01*
X50916000Y-39131413D01*
X50915999Y-39131413D01*
X50915996Y-39131414D01*
X50784902Y-39185716D01*
X50750667Y-39199897D01*
X50750662Y-39199899D01*
X50601869Y-39299319D01*
X50601862Y-39299324D01*
X50475324Y-39425862D01*
X50475319Y-39425869D01*
X50375899Y-39574662D01*
X50307414Y-39739996D01*
X50307413Y-39739999D01*
X50307413Y-39740000D01*
X50298507Y-39784771D01*
X50272500Y-39915518D01*
X49482079Y-39915518D01*
X49446104Y-39828668D01*
X49446102Y-39828664D01*
X49390492Y-39745438D01*
X49346678Y-39679865D01*
X49220135Y-39553322D01*
X49071336Y-39453898D01*
X48915867Y-39389500D01*
X48906003Y-39385414D01*
X48906001Y-39385413D01*
X48906000Y-39385413D01*
X48817645Y-39367838D01*
X48730481Y-39350500D01*
X48730479Y-39350500D01*
X48551521Y-39350500D01*
X48551518Y-39350500D01*
X48427375Y-39375194D01*
X48376000Y-39385413D01*
X48375999Y-39385413D01*
X48375996Y-39385414D01*
X48210662Y-39453899D01*
X48061869Y-39553319D01*
X48061862Y-39553324D01*
X47935324Y-39679862D01*
X47935319Y-39679869D01*
X47891508Y-39745438D01*
X47835898Y-39828664D01*
X47823532Y-39858517D01*
X47767414Y-39993996D01*
X47732500Y-40169518D01*
X44641366Y-40169518D01*
X44636429Y-40167473D01*
X44588003Y-40147414D01*
X44588001Y-40147413D01*
X44588000Y-40147413D01*
X44480349Y-40126000D01*
X44412481Y-40112500D01*
X44412479Y-40112500D01*
X44233521Y-40112500D01*
X44233518Y-40112500D01*
X44102771Y-40138507D01*
X44058000Y-40147413D01*
X44057999Y-40147413D01*
X44057996Y-40147414D01*
X43892662Y-40215899D01*
X43743869Y-40315319D01*
X43743862Y-40315324D01*
X43617324Y-40441862D01*
X43617319Y-40441869D01*
X43517899Y-40590662D01*
X43449414Y-40755996D01*
X43449413Y-40755999D01*
X43449413Y-40756000D01*
X43440507Y-40800771D01*
X43414500Y-40931518D01*
X28800636Y-40931518D01*
X28866269Y-40729516D01*
X28899720Y-40518316D01*
X28899720Y-40304484D01*
X28866269Y-40093284D01*
X28800192Y-39889917D01*
X28703114Y-39699391D01*
X28577426Y-39526396D01*
X28577423Y-39526393D01*
X28577421Y-39526390D01*
X28426229Y-39375198D01*
X28426226Y-39375196D01*
X28426224Y-39375194D01*
X28253229Y-39249506D01*
X28253227Y-39249505D01*
X28252140Y-39248839D01*
X28251811Y-39248475D01*
X28249224Y-39246596D01*
X28249618Y-39246052D01*
X28204503Y-39196196D01*
X28192890Y-39126156D01*
X28220986Y-39060955D01*
X28249350Y-39036378D01*
X28249224Y-39036204D01*
X28251250Y-39034731D01*
X28252140Y-39033961D01*
X28253217Y-39033299D01*
X28253229Y-39033294D01*
X28426224Y-38907606D01*
X28577426Y-38756404D01*
X28703114Y-38583409D01*
X28800192Y-38392883D01*
X28800636Y-38391518D01*
X41128500Y-38391518D01*
X41128500Y-38570481D01*
X41163414Y-38746003D01*
X41169028Y-38759556D01*
X41231898Y-38911336D01*
X41331322Y-39060135D01*
X41457865Y-39186678D01*
X41606664Y-39286102D01*
X41772000Y-39354587D01*
X41947521Y-39389500D01*
X41947522Y-39389500D01*
X42126478Y-39389500D01*
X42126479Y-39389500D01*
X42302000Y-39354587D01*
X42467336Y-39286102D01*
X42616135Y-39186678D01*
X42742678Y-39060135D01*
X42842102Y-38911336D01*
X42910587Y-38746000D01*
X42945500Y-38570479D01*
X42945500Y-38391521D01*
X42910587Y-38216000D01*
X42842102Y-38050664D01*
X42742678Y-37901865D01*
X42616135Y-37775322D01*
X42467336Y-37675898D01*
X42350429Y-37627473D01*
X42302003Y-37607414D01*
X42302001Y-37607413D01*
X42302000Y-37607413D01*
X42194349Y-37586000D01*
X42126481Y-37572500D01*
X42126479Y-37572500D01*
X41947521Y-37572500D01*
X41947518Y-37572500D01*
X41816771Y-37598507D01*
X41772000Y-37607413D01*
X41771999Y-37607413D01*
X41771996Y-37607414D01*
X41606662Y-37675899D01*
X41457869Y-37775319D01*
X41457862Y-37775324D01*
X41331324Y-37901862D01*
X41331319Y-37901869D01*
X41231899Y-38050662D01*
X41163414Y-38215996D01*
X41163413Y-38215999D01*
X41163413Y-38216000D01*
X41158415Y-38241129D01*
X41128500Y-38391518D01*
X28800636Y-38391518D01*
X28866269Y-38189516D01*
X28899720Y-37978316D01*
X28899720Y-37764484D01*
X28866269Y-37553284D01*
X28800192Y-37349917D01*
X28703114Y-37159391D01*
X28577426Y-36986396D01*
X28577423Y-36986393D01*
X28577421Y-36986390D01*
X28426229Y-36835198D01*
X28426226Y-36835196D01*
X28426224Y-36835194D01*
X28296001Y-36740582D01*
X28253232Y-36709508D01*
X28252140Y-36708839D01*
X28251811Y-36708475D01*
X28249224Y-36706596D01*
X28249618Y-36706052D01*
X28204503Y-36656196D01*
X28192890Y-36586156D01*
X28220986Y-36520955D01*
X28249350Y-36496378D01*
X28249224Y-36496204D01*
X28251250Y-36494731D01*
X28252140Y-36493961D01*
X28253217Y-36493299D01*
X28253229Y-36493294D01*
X28426224Y-36367606D01*
X28577426Y-36216404D01*
X28703114Y-36043409D01*
X28800192Y-35852883D01*
X28866269Y-35649516D01*
X28899720Y-35438316D01*
X28899720Y-35224484D01*
X28866269Y-35013284D01*
X28800192Y-34809917D01*
X28748527Y-34708518D01*
X41382500Y-34708518D01*
X41382500Y-34708521D01*
X41382500Y-34887479D01*
X41417413Y-35063000D01*
X41485898Y-35228336D01*
X41585322Y-35377135D01*
X41711865Y-35503678D01*
X41860664Y-35603102D01*
X42026000Y-35671587D01*
X42071386Y-35680614D01*
X42134295Y-35713521D01*
X42169428Y-35775215D01*
X42170383Y-35779609D01*
X42179411Y-35824994D01*
X42179412Y-35824998D01*
X42179413Y-35825000D01*
X42247898Y-35990336D01*
X42347322Y-36139135D01*
X42473865Y-36265678D01*
X42622664Y-36365102D01*
X42788000Y-36433587D01*
X42963521Y-36468500D01*
X42963522Y-36468500D01*
X43142478Y-36468500D01*
X43142479Y-36468500D01*
X43318000Y-36433587D01*
X43483336Y-36365102D01*
X43491693Y-36359518D01*
X47224500Y-36359518D01*
X47224500Y-36538481D01*
X47236525Y-36598932D01*
X47258519Y-36709508D01*
X47259414Y-36714003D01*
X47264826Y-36727069D01*
X47327898Y-36879336D01*
X47427322Y-37028135D01*
X47427328Y-37028141D01*
X47431245Y-37032914D01*
X47429408Y-37034421D01*
X47458381Y-37087480D01*
X47453316Y-37158295D01*
X47440026Y-37184264D01*
X47353298Y-37314063D01*
X47284814Y-37479396D01*
X47249900Y-37654918D01*
X47249900Y-37833881D01*
X47263423Y-37901865D01*
X47278629Y-37978312D01*
X47284814Y-38009403D01*
X47296659Y-38037999D01*
X47353298Y-38174736D01*
X47452722Y-38323535D01*
X47579265Y-38450078D01*
X47728064Y-38549502D01*
X47893400Y-38617987D01*
X48068921Y-38652900D01*
X48068922Y-38652900D01*
X48247878Y-38652900D01*
X48247879Y-38652900D01*
X48423400Y-38617987D01*
X48588736Y-38549502D01*
X48737535Y-38450078D01*
X48864078Y-38323535D01*
X48963502Y-38174736D01*
X49031987Y-38009400D01*
X49066900Y-37833879D01*
X49066900Y-37769321D01*
X62809000Y-37769321D01*
X62809000Y-38006678D01*
X62846133Y-38241129D01*
X62919480Y-38466867D01*
X63027246Y-38678368D01*
X63086230Y-38759556D01*
X63086232Y-38759556D01*
X63676032Y-38169755D01*
X63696668Y-38219574D01*
X63773274Y-38334224D01*
X63870776Y-38431726D01*
X63985426Y-38508332D01*
X64035242Y-38528966D01*
X63445442Y-39118766D01*
X63526636Y-39177756D01*
X63526637Y-39177757D01*
X63738132Y-39285519D01*
X63963870Y-39358866D01*
X64198321Y-39396000D01*
X64435679Y-39396000D01*
X64670129Y-39358866D01*
X64895867Y-39285519D01*
X65107367Y-39177754D01*
X65188556Y-39118767D01*
X65188556Y-39118765D01*
X64598757Y-38528966D01*
X64648574Y-38508332D01*
X64763224Y-38431726D01*
X64860726Y-38334224D01*
X64937332Y-38219574D01*
X64957966Y-38169757D01*
X65547765Y-38759556D01*
X65547767Y-38759556D01*
X65606754Y-38678367D01*
X65714519Y-38466867D01*
X65787866Y-38241129D01*
X65825000Y-38006678D01*
X65825000Y-37769321D01*
X65787866Y-37534872D01*
X65718367Y-37320978D01*
X65716339Y-37250010D01*
X65753001Y-37189212D01*
X65768194Y-37177279D01*
X65781669Y-37168276D01*
X65872276Y-37077669D01*
X65943465Y-36971127D01*
X65981778Y-36878632D01*
X65981780Y-36878628D01*
X65987257Y-36865403D01*
X65992501Y-36852744D01*
X66017500Y-36727069D01*
X66017500Y-36598931D01*
X65992501Y-36473256D01*
X65943465Y-36354873D01*
X65872276Y-36248331D01*
X65781669Y-36157724D01*
X65675127Y-36086535D01*
X65556745Y-36037499D01*
X65514852Y-36029166D01*
X65431069Y-36012500D01*
X65302931Y-36012500D01*
X65261039Y-36020833D01*
X65177254Y-36037499D01*
X65177253Y-36037500D01*
X65058871Y-36086536D01*
X64952335Y-36157721D01*
X64952328Y-36157726D01*
X64861726Y-36248328D01*
X64861721Y-36248335D01*
X64787096Y-36360020D01*
X64785018Y-36358631D01*
X64742940Y-36401442D01*
X64673698Y-36417131D01*
X64661893Y-36415828D01*
X64435680Y-36380000D01*
X64198321Y-36380000D01*
X63963870Y-36417133D01*
X63738132Y-36490480D01*
X63526634Y-36598243D01*
X63445442Y-36657231D01*
X63445442Y-36657232D01*
X64035243Y-37247033D01*
X63985426Y-37267668D01*
X63870776Y-37344274D01*
X63773274Y-37441776D01*
X63696668Y-37556426D01*
X63676033Y-37606243D01*
X63086231Y-37016442D01*
X63027243Y-37097634D01*
X62919480Y-37309132D01*
X62846133Y-37534870D01*
X62809000Y-37769321D01*
X49066900Y-37769321D01*
X49066900Y-37654921D01*
X49031987Y-37479400D01*
X48963502Y-37314064D01*
X48864078Y-37165265D01*
X48864070Y-37165257D01*
X48860155Y-37160486D01*
X48861991Y-37158978D01*
X48833018Y-37105919D01*
X48838083Y-37035104D01*
X48851374Y-37009134D01*
X48876770Y-36971126D01*
X48938102Y-36879336D01*
X49006587Y-36714000D01*
X49041500Y-36538479D01*
X49041500Y-36359521D01*
X49006587Y-36184000D01*
X48938102Y-36018664D01*
X48838678Y-35869865D01*
X48712135Y-35743322D01*
X48563336Y-35643898D01*
X48446429Y-35595473D01*
X48398003Y-35575414D01*
X48398001Y-35575413D01*
X48398000Y-35575413D01*
X48290349Y-35554000D01*
X48222481Y-35540500D01*
X48222479Y-35540500D01*
X48043521Y-35540500D01*
X48043518Y-35540500D01*
X47912771Y-35566507D01*
X47868000Y-35575413D01*
X47867999Y-35575413D01*
X47867996Y-35575414D01*
X47702662Y-35643899D01*
X47553869Y-35743319D01*
X47553862Y-35743324D01*
X47427324Y-35869862D01*
X47427319Y-35869869D01*
X47330086Y-36015390D01*
X47327898Y-36018664D01*
X47320096Y-36037499D01*
X47259414Y-36183996D01*
X47259413Y-36183999D01*
X47259413Y-36184000D01*
X47252967Y-36216406D01*
X47224500Y-36359518D01*
X43491693Y-36359518D01*
X43632135Y-36265678D01*
X43758678Y-36139135D01*
X43821382Y-36045291D01*
X43875856Y-35999766D01*
X43946299Y-35990917D01*
X43996147Y-36010530D01*
X43997864Y-36011677D01*
X43997865Y-36011678D01*
X44146664Y-36111102D01*
X44312000Y-36179587D01*
X44487521Y-36214500D01*
X44487522Y-36214500D01*
X44666478Y-36214500D01*
X44666479Y-36214500D01*
X44842000Y-36179587D01*
X45007336Y-36111102D01*
X45156135Y-36011678D01*
X45282678Y-35885135D01*
X45382102Y-35736336D01*
X45450587Y-35571000D01*
X45485500Y-35395479D01*
X45485500Y-35216521D01*
X45450587Y-35041000D01*
X45382102Y-34875664D01*
X45282678Y-34726865D01*
X45156135Y-34600322D01*
X45007336Y-34500898D01*
X44875758Y-34446396D01*
X44842003Y-34432414D01*
X44842001Y-34432413D01*
X44842000Y-34432413D01*
X44753645Y-34414838D01*
X44666481Y-34397500D01*
X44666479Y-34397500D01*
X44568923Y-34397500D01*
X44500802Y-34377498D01*
X44454309Y-34323842D01*
X44444205Y-34253568D01*
X44445344Y-34246918D01*
X44469500Y-34125479D01*
X44469500Y-33946521D01*
X44450205Y-33849518D01*
X46462500Y-33849518D01*
X46462500Y-34028481D01*
X46478806Y-34110456D01*
X46497413Y-34204000D01*
X46565898Y-34369336D01*
X46665322Y-34518135D01*
X46791865Y-34644678D01*
X46940664Y-34744102D01*
X47106000Y-34812587D01*
X47281521Y-34847500D01*
X47281522Y-34847500D01*
X47460478Y-34847500D01*
X47460479Y-34847500D01*
X47636000Y-34812587D01*
X47801336Y-34744102D01*
X47950135Y-34644678D01*
X48076678Y-34518135D01*
X48176102Y-34369336D01*
X48244587Y-34204000D01*
X48279500Y-34028479D01*
X48279500Y-33849521D01*
X48278584Y-33844918D01*
X49815300Y-33844918D01*
X49815300Y-34023881D01*
X49850214Y-34199403D01*
X49858274Y-34218862D01*
X49918698Y-34364736D01*
X50018122Y-34513535D01*
X50144665Y-34640078D01*
X50293464Y-34739502D01*
X50458800Y-34807987D01*
X50634321Y-34842900D01*
X50634322Y-34842900D01*
X50813278Y-34842900D01*
X50813279Y-34842900D01*
X50988800Y-34807987D01*
X51154136Y-34739502D01*
X51302935Y-34640078D01*
X51429478Y-34513535D01*
X51528902Y-34364736D01*
X51597387Y-34199400D01*
X51632300Y-34023879D01*
X51632300Y-33844921D01*
X51597387Y-33669400D01*
X51528902Y-33504064D01*
X51429478Y-33355265D01*
X51302935Y-33228722D01*
X51154136Y-33129298D01*
X50999908Y-33065414D01*
X50988803Y-33060814D01*
X50988801Y-33060813D01*
X50988800Y-33060813D01*
X50900445Y-33043238D01*
X50813281Y-33025900D01*
X50813279Y-33025900D01*
X50634321Y-33025900D01*
X50634318Y-33025900D01*
X50503571Y-33051907D01*
X50458800Y-33060813D01*
X50458799Y-33060813D01*
X50458796Y-33060814D01*
X50293462Y-33129299D01*
X50144669Y-33228719D01*
X50144662Y-33228724D01*
X50018124Y-33355262D01*
X50018119Y-33355269D01*
X49919134Y-33503412D01*
X49918698Y-33504064D01*
X49916793Y-33508664D01*
X49850214Y-33669396D01*
X49850213Y-33669399D01*
X49850213Y-33669400D01*
X49848819Y-33676409D01*
X49815300Y-33844918D01*
X48278584Y-33844918D01*
X48244587Y-33674000D01*
X48176102Y-33508664D01*
X48076678Y-33359865D01*
X47950135Y-33233322D01*
X47801336Y-33133898D01*
X47684429Y-33085473D01*
X47636003Y-33065414D01*
X47636001Y-33065413D01*
X47636000Y-33065413D01*
X47547645Y-33047838D01*
X47460481Y-33030500D01*
X47460479Y-33030500D01*
X47281521Y-33030500D01*
X47281518Y-33030500D01*
X47150771Y-33056507D01*
X47106000Y-33065413D01*
X47105999Y-33065413D01*
X47105996Y-33065414D01*
X46974902Y-33119716D01*
X46951770Y-33129298D01*
X46940662Y-33133899D01*
X46791869Y-33233319D01*
X46791862Y-33233324D01*
X46665324Y-33359862D01*
X46665319Y-33359869D01*
X46565899Y-33508662D01*
X46497414Y-33673996D01*
X46497413Y-33673999D01*
X46497413Y-33674000D01*
X46496934Y-33676409D01*
X46462500Y-33849518D01*
X44450205Y-33849518D01*
X44434587Y-33771000D01*
X44366102Y-33605664D01*
X44266678Y-33456865D01*
X44140135Y-33330322D01*
X43991336Y-33230898D01*
X43874429Y-33182473D01*
X43826003Y-33162414D01*
X43826001Y-33162413D01*
X43826000Y-33162413D01*
X43720737Y-33141475D01*
X43650481Y-33127500D01*
X43650479Y-33127500D01*
X43471521Y-33127500D01*
X43471518Y-33127500D01*
X43340771Y-33153507D01*
X43296000Y-33162413D01*
X43295999Y-33162413D01*
X43295996Y-33162414D01*
X43164902Y-33216716D01*
X43135913Y-33228724D01*
X43130662Y-33230899D01*
X42981869Y-33330319D01*
X42981862Y-33330324D01*
X42855324Y-33456862D01*
X42855319Y-33456869D01*
X42755899Y-33605662D01*
X42687412Y-33771000D01*
X42677637Y-33820142D01*
X42644729Y-33883051D01*
X42583033Y-33918181D01*
X42529478Y-33919137D01*
X42380484Y-33889500D01*
X42380479Y-33889500D01*
X42201521Y-33889500D01*
X42201518Y-33889500D01*
X42070771Y-33915507D01*
X42026000Y-33924413D01*
X42025999Y-33924413D01*
X42025996Y-33924414D01*
X41860662Y-33992899D01*
X41711869Y-34092319D01*
X41711862Y-34092324D01*
X41585324Y-34218862D01*
X41585319Y-34218869D01*
X41487854Y-34364737D01*
X41485898Y-34367664D01*
X41485205Y-34369337D01*
X41417414Y-34532996D01*
X41382500Y-34708518D01*
X28748527Y-34708518D01*
X28703114Y-34619391D01*
X28577426Y-34446396D01*
X28577423Y-34446393D01*
X28577421Y-34446390D01*
X28426229Y-34295198D01*
X28426226Y-34295196D01*
X28426224Y-34295194D01*
X28253229Y-34169506D01*
X28253227Y-34169505D01*
X28252140Y-34168839D01*
X28251811Y-34168475D01*
X28249224Y-34166596D01*
X28249618Y-34166052D01*
X28204503Y-34116196D01*
X28192890Y-34046156D01*
X28220986Y-33980955D01*
X28249350Y-33956378D01*
X28249224Y-33956204D01*
X28251250Y-33954731D01*
X28252140Y-33953961D01*
X28253217Y-33953299D01*
X28253229Y-33953294D01*
X28426224Y-33827606D01*
X28577426Y-33676404D01*
X28703114Y-33503409D01*
X28800192Y-33312883D01*
X28866269Y-33109516D01*
X28899720Y-32898316D01*
X28899720Y-32684484D01*
X28866269Y-32473284D01*
X28800192Y-32269917D01*
X28703114Y-32079391D01*
X28577426Y-31906396D01*
X28577423Y-31906393D01*
X28577421Y-31906390D01*
X28474449Y-31803418D01*
X28440423Y-31741106D01*
X28445488Y-31670291D01*
X28488035Y-31613455D01*
X28519504Y-31596271D01*
X28637424Y-31552289D01*
X28647434Y-31544796D01*
X28754481Y-31464661D01*
X28842107Y-31347607D01*
X28842107Y-31347606D01*
X28842109Y-31347604D01*
X28893209Y-31210601D01*
X28894035Y-31202926D01*
X28899719Y-31150049D01*
X28899720Y-31150032D01*
X28899720Y-30929318D01*
X32690300Y-30929318D01*
X32690300Y-30929321D01*
X32690300Y-31108279D01*
X32724361Y-31279518D01*
X32725214Y-31283803D01*
X32745273Y-31332229D01*
X32793698Y-31449136D01*
X32893122Y-31597935D01*
X33019665Y-31724478D01*
X33044551Y-31741106D01*
X33085372Y-31768382D01*
X33130900Y-31822859D01*
X33139748Y-31893302D01*
X33120136Y-31943148D01*
X33078498Y-32005463D01*
X33010014Y-32170796D01*
X32975100Y-32346318D01*
X32975100Y-32525281D01*
X32983400Y-32567007D01*
X33010013Y-32700800D01*
X33078498Y-32866136D01*
X33177922Y-33014935D01*
X33304465Y-33141478D01*
X33453264Y-33240902D01*
X33618600Y-33309387D01*
X33794121Y-33344300D01*
X33794122Y-33344300D01*
X33973078Y-33344300D01*
X33973079Y-33344300D01*
X34148600Y-33309387D01*
X34313936Y-33240902D01*
X34462735Y-33141478D01*
X34589278Y-33014935D01*
X34688702Y-32866136D01*
X34757187Y-32700800D01*
X34792100Y-32525279D01*
X34792100Y-32346321D01*
X34757187Y-32170800D01*
X34688702Y-32005464D01*
X34589278Y-31856665D01*
X34520131Y-31787518D01*
X36937500Y-31787518D01*
X36937500Y-31966481D01*
X36948484Y-32021700D01*
X36972413Y-32142000D01*
X37040898Y-32307336D01*
X37140322Y-32456135D01*
X37190187Y-32506000D01*
X37229201Y-32545014D01*
X37263226Y-32607326D01*
X37258160Y-32678142D01*
X37256514Y-32682326D01*
X37226416Y-32754989D01*
X37226413Y-32754999D01*
X37191500Y-32930518D01*
X37191500Y-33109481D01*
X37195442Y-33129298D01*
X37225713Y-33281483D01*
X37226414Y-33285003D01*
X37237963Y-33312883D01*
X37294898Y-33450336D01*
X37394322Y-33599135D01*
X37520865Y-33725678D01*
X37669664Y-33825102D01*
X37835000Y-33893587D01*
X38010521Y-33928500D01*
X38010522Y-33928500D01*
X38189478Y-33928500D01*
X38189479Y-33928500D01*
X38365000Y-33893587D01*
X38530336Y-33825102D01*
X38679135Y-33725678D01*
X38805678Y-33599135D01*
X38905102Y-33450336D01*
X38973587Y-33285000D01*
X39008500Y-33109479D01*
X39008500Y-32930521D01*
X38973587Y-32755000D01*
X38905102Y-32589664D01*
X38805678Y-32440865D01*
X38716798Y-32351985D01*
X38682772Y-32289673D01*
X38687837Y-32218858D01*
X38689485Y-32214671D01*
X38719587Y-32142000D01*
X38754500Y-31966479D01*
X38754500Y-31787521D01*
X38719587Y-31612000D01*
X38651102Y-31446664D01*
X38651101Y-31446662D01*
X38651100Y-31446660D01*
X38651099Y-31446659D01*
X38582060Y-31343334D01*
X38582059Y-31343333D01*
X38571674Y-31327792D01*
X38551678Y-31297865D01*
X38533331Y-31279518D01*
X42017500Y-31279518D01*
X42017500Y-31458481D01*
X42022100Y-31481605D01*
X42052413Y-31634000D01*
X42120898Y-31799336D01*
X42220322Y-31948135D01*
X42346865Y-32074678D01*
X42495664Y-32174102D01*
X42661000Y-32242587D01*
X42836521Y-32277500D01*
X42836522Y-32277500D01*
X43015478Y-32277500D01*
X43015479Y-32277500D01*
X43191000Y-32242587D01*
X43356336Y-32174102D01*
X43505135Y-32074678D01*
X43631678Y-31948135D01*
X43731102Y-31799336D01*
X43799587Y-31634000D01*
X43834500Y-31458479D01*
X43834500Y-31279521D01*
X43804185Y-31127118D01*
X49129500Y-31127118D01*
X49129500Y-31306081D01*
X49144495Y-31381465D01*
X49164413Y-31481600D01*
X49232898Y-31646936D01*
X49332322Y-31795735D01*
X49458865Y-31922278D01*
X49607664Y-32021702D01*
X49773000Y-32090187D01*
X49948521Y-32125100D01*
X49948522Y-32125100D01*
X50127478Y-32125100D01*
X50127479Y-32125100D01*
X50303000Y-32090187D01*
X50468336Y-32021702D01*
X50617135Y-31922278D01*
X50743678Y-31795735D01*
X50843102Y-31646936D01*
X50873922Y-31572531D01*
X50873924Y-31572527D01*
X50911585Y-31481605D01*
X50911585Y-31481604D01*
X50911587Y-31481600D01*
X50946500Y-31306079D01*
X50946500Y-31127121D01*
X50911587Y-30951600D01*
X50843102Y-30786264D01*
X50743678Y-30637465D01*
X50617135Y-30510922D01*
X50468336Y-30411498D01*
X50351429Y-30363073D01*
X50303003Y-30343014D01*
X50303001Y-30343013D01*
X50303000Y-30343013D01*
X50214645Y-30325438D01*
X50183893Y-30319321D01*
X62809000Y-30319321D01*
X62809000Y-30556678D01*
X62846133Y-30791129D01*
X62919480Y-31016867D01*
X63027246Y-31228368D01*
X63086230Y-31309556D01*
X63086232Y-31309556D01*
X63676032Y-30719755D01*
X63696668Y-30769574D01*
X63773274Y-30884224D01*
X63870776Y-30981726D01*
X63985426Y-31058332D01*
X64035242Y-31078966D01*
X63445442Y-31668766D01*
X63526636Y-31727756D01*
X63526637Y-31727757D01*
X63738132Y-31835519D01*
X63963870Y-31908866D01*
X64198321Y-31946000D01*
X64435679Y-31946000D01*
X64661892Y-31910171D01*
X64732303Y-31919271D01*
X64786617Y-31964992D01*
X64788135Y-31967535D01*
X64790534Y-31971126D01*
X64790535Y-31971127D01*
X64861724Y-32077669D01*
X64952331Y-32168276D01*
X65058873Y-32239465D01*
X65177256Y-32288501D01*
X65302931Y-32313500D01*
X65302936Y-32313500D01*
X65431064Y-32313500D01*
X65431069Y-32313500D01*
X65556744Y-32288501D01*
X65675127Y-32239465D01*
X65781669Y-32168276D01*
X65872276Y-32077669D01*
X65943465Y-31971127D01*
X65992501Y-31852744D01*
X66017500Y-31727069D01*
X66017500Y-31598931D01*
X65992501Y-31473256D01*
X65986379Y-31458477D01*
X65981780Y-31447373D01*
X65981779Y-31447371D01*
X65981485Y-31446662D01*
X65943465Y-31354873D01*
X65872276Y-31248331D01*
X65781669Y-31157724D01*
X65768198Y-31148723D01*
X65722671Y-31094247D01*
X65713822Y-31023804D01*
X65718367Y-31005021D01*
X65787866Y-30791127D01*
X65825000Y-30556678D01*
X65825000Y-30319321D01*
X65804826Y-30191949D01*
X65787866Y-30084870D01*
X65714519Y-29859132D01*
X65606757Y-29647637D01*
X65606756Y-29647636D01*
X65547766Y-29566442D01*
X64957966Y-30156242D01*
X64937332Y-30106426D01*
X64860726Y-29991776D01*
X64763224Y-29894274D01*
X64648574Y-29817668D01*
X64598755Y-29797032D01*
X65188556Y-29207232D01*
X65188556Y-29207230D01*
X65107368Y-29148246D01*
X64895867Y-29040480D01*
X64670129Y-28967133D01*
X64435679Y-28930000D01*
X64198321Y-28930000D01*
X63963870Y-28967133D01*
X63738132Y-29040480D01*
X63526634Y-29148243D01*
X63445442Y-29207231D01*
X64035243Y-29797033D01*
X63985426Y-29817668D01*
X63870776Y-29894274D01*
X63773274Y-29991776D01*
X63696668Y-30106426D01*
X63676033Y-30156243D01*
X63086231Y-29566442D01*
X63027243Y-29647634D01*
X62919480Y-29859132D01*
X62846133Y-30084870D01*
X62809000Y-30319321D01*
X50183893Y-30319321D01*
X50127481Y-30308100D01*
X50127479Y-30308100D01*
X49948521Y-30308100D01*
X49948518Y-30308100D01*
X49817771Y-30334107D01*
X49773000Y-30343013D01*
X49772999Y-30343013D01*
X49772996Y-30343014D01*
X49607662Y-30411499D01*
X49458869Y-30510919D01*
X49458862Y-30510924D01*
X49332324Y-30637462D01*
X49332319Y-30637469D01*
X49254590Y-30753800D01*
X49232898Y-30786264D01*
X49231405Y-30789869D01*
X49164414Y-30951596D01*
X49164413Y-30951599D01*
X49164413Y-30951600D01*
X49158421Y-30981726D01*
X49129500Y-31127118D01*
X43804185Y-31127118D01*
X43799587Y-31104000D01*
X43731102Y-30938664D01*
X43631678Y-30789865D01*
X43505135Y-30663322D01*
X43356336Y-30563898D01*
X43228442Y-30510922D01*
X43191003Y-30495414D01*
X43191001Y-30495413D01*
X43191000Y-30495413D01*
X43083349Y-30474000D01*
X43015481Y-30460500D01*
X43015479Y-30460500D01*
X42836521Y-30460500D01*
X42836518Y-30460500D01*
X42705771Y-30486507D01*
X42661000Y-30495413D01*
X42660999Y-30495413D01*
X42660996Y-30495414D01*
X42529902Y-30549716D01*
X42513095Y-30556678D01*
X42495662Y-30563899D01*
X42346869Y-30663319D01*
X42346862Y-30663324D01*
X42220324Y-30789862D01*
X42220319Y-30789869D01*
X42120899Y-30938662D01*
X42052414Y-31103996D01*
X42052413Y-31103999D01*
X42052413Y-31104000D01*
X42051001Y-31111099D01*
X42017500Y-31279518D01*
X38533331Y-31279518D01*
X38425135Y-31171322D01*
X38276336Y-31071898D01*
X38132938Y-31012500D01*
X38111003Y-31003414D01*
X38111001Y-31003413D01*
X38111000Y-31003413D01*
X38022645Y-30985838D01*
X37935481Y-30968500D01*
X37935479Y-30968500D01*
X37756521Y-30968500D01*
X37756518Y-30968500D01*
X37625771Y-30994507D01*
X37581000Y-31003413D01*
X37580999Y-31003413D01*
X37580996Y-31003414D01*
X37415662Y-31071899D01*
X37266869Y-31171319D01*
X37266862Y-31171324D01*
X37140324Y-31297862D01*
X37140319Y-31297869D01*
X37040901Y-31446660D01*
X37040898Y-31446664D01*
X37040605Y-31447371D01*
X36972414Y-31611996D01*
X36937500Y-31787518D01*
X34520131Y-31787518D01*
X34462735Y-31730122D01*
X34411668Y-31696000D01*
X34397027Y-31686217D01*
X34351499Y-31631740D01*
X34342651Y-31561297D01*
X34362263Y-31511452D01*
X34403902Y-31449136D01*
X34472387Y-31283800D01*
X34507300Y-31108279D01*
X34507300Y-30929321D01*
X34472387Y-30753800D01*
X34403902Y-30588464D01*
X34304478Y-30439665D01*
X34177935Y-30313122D01*
X34029136Y-30213698D01*
X33912229Y-30165273D01*
X33863803Y-30145214D01*
X33863801Y-30145213D01*
X33863800Y-30145213D01*
X33775445Y-30127638D01*
X33688281Y-30110300D01*
X33688279Y-30110300D01*
X33509321Y-30110300D01*
X33509318Y-30110300D01*
X33378571Y-30136307D01*
X33333800Y-30145213D01*
X33333799Y-30145213D01*
X33333796Y-30145214D01*
X33220970Y-30191949D01*
X33175980Y-30210585D01*
X33168462Y-30213699D01*
X33019669Y-30313119D01*
X33019662Y-30313124D01*
X32893124Y-30439662D01*
X32893119Y-30439669D01*
X32793699Y-30588462D01*
X32725214Y-30753796D01*
X32725213Y-30753799D01*
X32725213Y-30753800D01*
X32717788Y-30791127D01*
X32690300Y-30929318D01*
X28899720Y-30929318D01*
X28899720Y-29352767D01*
X28899719Y-29352750D01*
X28893210Y-29292203D01*
X28893209Y-29292198D01*
X28885226Y-29270796D01*
X28857596Y-29196718D01*
X38232900Y-29196718D01*
X38232900Y-29375681D01*
X38250238Y-29462845D01*
X38267813Y-29551200D01*
X38336298Y-29716536D01*
X38435722Y-29865335D01*
X38562265Y-29991878D01*
X38711064Y-30091302D01*
X38876400Y-30159787D01*
X39051921Y-30194700D01*
X39051922Y-30194700D01*
X39230878Y-30194700D01*
X39230879Y-30194700D01*
X39406400Y-30159787D01*
X39571736Y-30091302D01*
X39720535Y-29991878D01*
X39847078Y-29865335D01*
X39946502Y-29716536D01*
X40014987Y-29551200D01*
X40049900Y-29375679D01*
X40049900Y-29196721D01*
X40014987Y-29021200D01*
X39946502Y-28855864D01*
X39885734Y-28764918D01*
X45319500Y-28764918D01*
X45319500Y-28943881D01*
X45330484Y-28999100D01*
X45351051Y-29102500D01*
X45354414Y-29119403D01*
X45369238Y-29155191D01*
X45422898Y-29284736D01*
X45522322Y-29433535D01*
X45648865Y-29560078D01*
X45797664Y-29659502D01*
X45963000Y-29727987D01*
X46138521Y-29762900D01*
X46138522Y-29762900D01*
X46317478Y-29762900D01*
X46317479Y-29762900D01*
X46493000Y-29727987D01*
X46658336Y-29659502D01*
X46807135Y-29560078D01*
X46933678Y-29433535D01*
X47033102Y-29284736D01*
X47048518Y-29247518D01*
X50780500Y-29247518D01*
X50780500Y-29426481D01*
X50781904Y-29433537D01*
X50815413Y-29602000D01*
X50883898Y-29767336D01*
X50983322Y-29916135D01*
X51109865Y-30042678D01*
X51258664Y-30142102D01*
X51424000Y-30210587D01*
X51599521Y-30245500D01*
X51599522Y-30245500D01*
X51778478Y-30245500D01*
X51778479Y-30245500D01*
X51954000Y-30210587D01*
X52119336Y-30142102D01*
X52268135Y-30042678D01*
X52394678Y-29916135D01*
X52494102Y-29767336D01*
X52562587Y-29602000D01*
X52597500Y-29426479D01*
X52597500Y-29247521D01*
X52562587Y-29072000D01*
X52494102Y-28906664D01*
X52394678Y-28757865D01*
X52268135Y-28631322D01*
X52119336Y-28531898D01*
X51996695Y-28481098D01*
X51954003Y-28463414D01*
X51954001Y-28463413D01*
X51954000Y-28463413D01*
X51865645Y-28445838D01*
X51778481Y-28428500D01*
X51778479Y-28428500D01*
X51599521Y-28428500D01*
X51599518Y-28428500D01*
X51468771Y-28454507D01*
X51424000Y-28463413D01*
X51423999Y-28463413D01*
X51423996Y-28463414D01*
X51258662Y-28531899D01*
X51109869Y-28631319D01*
X51109862Y-28631324D01*
X50983324Y-28757862D01*
X50983319Y-28757869D01*
X50883899Y-28906662D01*
X50815414Y-29071996D01*
X50815413Y-29071999D01*
X50815413Y-29072000D01*
X50809346Y-29102499D01*
X50780500Y-29247518D01*
X47048518Y-29247518D01*
X47101587Y-29119400D01*
X47136500Y-28943879D01*
X47136500Y-28764921D01*
X47101587Y-28589400D01*
X47033102Y-28424064D01*
X46933678Y-28275265D01*
X46807135Y-28148722D01*
X46740979Y-28104518D01*
X49002500Y-28104518D01*
X49002500Y-28104521D01*
X49002500Y-28283479D01*
X49037413Y-28459000D01*
X49105898Y-28624336D01*
X49205322Y-28773135D01*
X49331865Y-28899678D01*
X49480664Y-28999102D01*
X49646000Y-29067587D01*
X49821521Y-29102500D01*
X49821522Y-29102500D01*
X50000478Y-29102500D01*
X50000479Y-29102500D01*
X50176000Y-29067587D01*
X50341336Y-28999102D01*
X50490135Y-28899678D01*
X50616678Y-28773135D01*
X50716102Y-28624336D01*
X50784587Y-28459000D01*
X50819500Y-28283479D01*
X50819500Y-28104521D01*
X50784587Y-27929000D01*
X50716102Y-27763664D01*
X50616678Y-27614865D01*
X50490135Y-27488322D01*
X50341336Y-27388898D01*
X50224429Y-27340473D01*
X50176003Y-27320414D01*
X50176001Y-27320413D01*
X50176000Y-27320413D01*
X50055112Y-27296367D01*
X50000481Y-27285500D01*
X50000479Y-27285500D01*
X49821521Y-27285500D01*
X49821518Y-27285500D01*
X49705891Y-27308500D01*
X49646000Y-27320413D01*
X49645999Y-27320413D01*
X49645996Y-27320414D01*
X49480662Y-27388899D01*
X49331869Y-27488319D01*
X49331862Y-27488324D01*
X49205324Y-27614862D01*
X49205319Y-27614869D01*
X49105899Y-27763662D01*
X49037414Y-27928996D01*
X49037413Y-27928999D01*
X49037413Y-27929000D01*
X49028507Y-27973771D01*
X49002500Y-28104518D01*
X46740979Y-28104518D01*
X46658336Y-28049298D01*
X46541429Y-28000873D01*
X46493003Y-27980814D01*
X46493001Y-27980813D01*
X46493000Y-27980813D01*
X46404645Y-27963238D01*
X46317481Y-27945900D01*
X46317479Y-27945900D01*
X46138521Y-27945900D01*
X46138518Y-27945900D01*
X46007771Y-27971907D01*
X45963000Y-27980813D01*
X45962999Y-27980813D01*
X45962996Y-27980814D01*
X45797662Y-28049299D01*
X45648869Y-28148719D01*
X45648862Y-28148724D01*
X45522324Y-28275262D01*
X45522319Y-28275269D01*
X45422899Y-28424062D01*
X45354414Y-28589396D01*
X45319500Y-28764918D01*
X39885734Y-28764918D01*
X39847078Y-28707065D01*
X39720535Y-28580522D01*
X39571736Y-28481098D01*
X39434040Y-28424062D01*
X39406403Y-28412614D01*
X39406401Y-28412613D01*
X39406400Y-28412613D01*
X39318045Y-28395038D01*
X39230881Y-28377700D01*
X39230879Y-28377700D01*
X39051921Y-28377700D01*
X39051918Y-28377700D01*
X38921171Y-28403707D01*
X38876400Y-28412613D01*
X38876399Y-28412613D01*
X38876396Y-28412614D01*
X38711062Y-28481099D01*
X38562269Y-28580519D01*
X38562262Y-28580524D01*
X38435724Y-28707062D01*
X38435719Y-28707069D01*
X38354428Y-28828731D01*
X38336298Y-28855864D01*
X38324104Y-28885302D01*
X38267814Y-29021196D01*
X38267813Y-29021199D01*
X38267813Y-29021200D01*
X38258907Y-29065971D01*
X38232900Y-29196718D01*
X28857596Y-29196718D01*
X28842109Y-29155196D01*
X28842106Y-29155192D01*
X28842106Y-29155191D01*
X28754481Y-29038138D01*
X28637427Y-28950512D01*
X28637422Y-28950510D01*
X28500424Y-28899411D01*
X28500416Y-28899409D01*
X28439869Y-28892900D01*
X28439858Y-28892900D01*
X26642582Y-28892900D01*
X26642570Y-28892900D01*
X26582023Y-28899409D01*
X26582015Y-28899411D01*
X26445017Y-28950510D01*
X26445012Y-28950512D01*
X26327958Y-29038138D01*
X26240332Y-29155192D01*
X26240331Y-29155195D01*
X26204549Y-29251127D01*
X26162001Y-29307962D01*
X26095481Y-29332772D01*
X26026107Y-29317680D01*
X25997399Y-29296188D01*
X25885009Y-29183798D01*
X25885006Y-29183796D01*
X25885004Y-29183794D01*
X25747333Y-29083770D01*
X25712012Y-29058108D01*
X25712011Y-29058107D01*
X25712009Y-29058106D01*
X25521483Y-28961028D01*
X25521480Y-28961027D01*
X25521478Y-28961026D01*
X25318120Y-28894952D01*
X25318123Y-28894952D01*
X25257195Y-28885302D01*
X25106916Y-28861500D01*
X24893084Y-28861500D01*
X24681884Y-28894951D01*
X24681878Y-28894952D01*
X24478521Y-28961026D01*
X24478515Y-28961029D01*
X24287987Y-29058108D01*
X24114993Y-29183796D01*
X24114990Y-29183798D01*
X23963798Y-29334990D01*
X23963796Y-29334993D01*
X23838100Y-29507998D01*
X23837131Y-29509580D01*
X23836606Y-29510054D01*
X23835196Y-29511996D01*
X23834787Y-29511699D01*
X23784479Y-29557206D01*
X23714437Y-29568807D01*
X23649242Y-29540697D01*
X23624515Y-29512156D01*
X23624376Y-29512258D01*
X23623194Y-29510631D01*
X23622266Y-29509560D01*
X23621460Y-29508244D01*
X23495822Y-29335320D01*
X23344679Y-29184177D01*
X23171750Y-29058536D01*
X22981292Y-28961493D01*
X22981286Y-28961490D01*
X22778004Y-28895440D01*
X22714000Y-28885302D01*
X22714000Y-29789297D01*
X22652993Y-29754075D01*
X22525826Y-29720000D01*
X22394174Y-29720000D01*
X22267007Y-29754075D01*
X22206000Y-29789297D01*
X22206000Y-28885302D01*
X22141995Y-28895440D01*
X21938713Y-28961490D01*
X21938707Y-28961493D01*
X21748249Y-29058536D01*
X21575320Y-29184177D01*
X21424177Y-29335320D01*
X21298536Y-29508249D01*
X21201493Y-29698707D01*
X21201490Y-29698713D01*
X21135440Y-29901995D01*
X21125302Y-29966000D01*
X20500500Y-29966000D01*
X20500500Y-25821901D01*
X20520502Y-25753780D01*
X20574158Y-25707287D01*
X20644432Y-25697183D01*
X20709012Y-25726677D01*
X20737622Y-25762505D01*
X20815708Y-25908594D01*
X21018110Y-26211510D01*
X21018121Y-26211525D01*
X21203445Y-26437342D01*
X21395508Y-26245280D01*
X21457821Y-26211255D01*
X21528636Y-26216319D01*
X21585472Y-26258866D01*
X21589368Y-26264372D01*
X21593973Y-26271263D01*
X21597266Y-26276191D01*
X21723809Y-26402734D01*
X21735624Y-26410629D01*
X21781152Y-26465104D01*
X21790001Y-26535547D01*
X21759361Y-26599592D01*
X21754719Y-26604489D01*
X21562655Y-26796552D01*
X21788485Y-26981886D01*
X21788491Y-26981891D01*
X22091405Y-27184291D01*
X22412713Y-27356034D01*
X22749301Y-27495454D01*
X22749305Y-27495455D01*
X23097956Y-27601217D01*
X23455261Y-27672288D01*
X23455281Y-27672291D01*
X23817831Y-27707999D01*
X23817847Y-27708000D01*
X24182153Y-27708000D01*
X24182168Y-27707999D01*
X24544718Y-27672291D01*
X24544738Y-27672288D01*
X24902043Y-27601217D01*
X25250694Y-27495455D01*
X25250698Y-27495454D01*
X25587286Y-27356034D01*
X25908594Y-27184291D01*
X26211508Y-26981891D01*
X26211514Y-26981886D01*
X26437343Y-26796552D01*
X26245280Y-26604489D01*
X26211254Y-26542177D01*
X26216319Y-26471362D01*
X26258866Y-26414526D01*
X26264330Y-26410658D01*
X26276191Y-26402734D01*
X26402734Y-26276191D01*
X26410630Y-26264373D01*
X26465101Y-26218847D01*
X26535544Y-26209997D01*
X26599589Y-26240635D01*
X26604489Y-26245280D01*
X26796552Y-26437343D01*
X26981886Y-26211514D01*
X26981891Y-26211508D01*
X27184291Y-25908594D01*
X27356034Y-25587286D01*
X27398224Y-25485432D01*
X29465000Y-25485432D01*
X29499894Y-25660854D01*
X29499896Y-25660859D01*
X29568341Y-25826098D01*
X29667710Y-25974815D01*
X29667715Y-25974821D01*
X29794178Y-26101284D01*
X29794184Y-26101289D01*
X29942901Y-26200658D01*
X30108142Y-26269104D01*
X30108141Y-26269104D01*
X30119000Y-26271263D01*
X30119000Y-25400000D01*
X29465000Y-25400000D01*
X29465000Y-25485432D01*
X27398224Y-25485432D01*
X27475202Y-25299591D01*
X27475202Y-25299590D01*
X27495456Y-25250692D01*
X27542299Y-25096272D01*
X30123000Y-25096272D01*
X30123000Y-25195728D01*
X30161060Y-25287614D01*
X30231386Y-25357940D01*
X30323272Y-25396000D01*
X30422728Y-25396000D01*
X30514614Y-25357940D01*
X30584940Y-25287614D01*
X30623000Y-25195728D01*
X30623000Y-25096272D01*
X30584940Y-25004386D01*
X30514614Y-24934060D01*
X30422728Y-24896000D01*
X30323272Y-24896000D01*
X30231386Y-24934060D01*
X30161060Y-25004386D01*
X30123000Y-25096272D01*
X27542299Y-25096272D01*
X27601217Y-24902043D01*
X27620208Y-24806567D01*
X29465000Y-24806567D01*
X29465000Y-24892000D01*
X30119000Y-24892000D01*
X30119000Y-24020735D01*
X30627000Y-24020735D01*
X30627000Y-26271262D01*
X30637857Y-26269104D01*
X30808818Y-26198290D01*
X30810025Y-26201204D01*
X30865969Y-26188983D01*
X30932507Y-26213735D01*
X30976796Y-26246889D01*
X30976799Y-26246890D01*
X31113795Y-26297988D01*
X31113803Y-26297990D01*
X31174350Y-26304499D01*
X31174355Y-26304499D01*
X31174362Y-26304500D01*
X31174368Y-26304500D01*
X32071632Y-26304500D01*
X32071638Y-26304500D01*
X32071645Y-26304499D01*
X32071649Y-26304499D01*
X32132196Y-26297990D01*
X32132199Y-26297989D01*
X32132201Y-26297989D01*
X32269204Y-26246889D01*
X32271354Y-26245280D01*
X32386261Y-26159261D01*
X32470211Y-26047118D01*
X37877300Y-26047118D01*
X37877300Y-26226081D01*
X37912214Y-26401603D01*
X37917567Y-26414526D01*
X37980698Y-26566936D01*
X38080122Y-26715735D01*
X38206665Y-26842278D01*
X38355464Y-26941702D01*
X38520800Y-27010187D01*
X38696321Y-27045100D01*
X38696322Y-27045100D01*
X38875278Y-27045100D01*
X38875279Y-27045100D01*
X39050800Y-27010187D01*
X39216136Y-26941702D01*
X39364935Y-26842278D01*
X39491478Y-26715735D01*
X39590902Y-26566936D01*
X39659387Y-26401600D01*
X39694300Y-26226079D01*
X39694300Y-26047121D01*
X39659387Y-25871600D01*
X39590902Y-25706264D01*
X39491478Y-25557465D01*
X39364935Y-25430922D01*
X39216136Y-25331498D01*
X39099229Y-25283073D01*
X39050803Y-25263014D01*
X39050801Y-25263013D01*
X39050800Y-25263013D01*
X38962445Y-25245438D01*
X38875281Y-25228100D01*
X38875279Y-25228100D01*
X38696321Y-25228100D01*
X38696318Y-25228100D01*
X38582742Y-25250692D01*
X38520800Y-25263013D01*
X38520799Y-25263013D01*
X38520796Y-25263014D01*
X38355462Y-25331499D01*
X38206669Y-25430919D01*
X38206662Y-25430924D01*
X38080124Y-25557462D01*
X38080119Y-25557469D01*
X37980699Y-25706262D01*
X37912214Y-25871596D01*
X37912213Y-25871599D01*
X37912213Y-25871600D01*
X37903307Y-25916371D01*
X37877300Y-26047118D01*
X32470211Y-26047118D01*
X32473887Y-26042207D01*
X32473887Y-26042206D01*
X32473889Y-26042204D01*
X32524989Y-25905201D01*
X32528602Y-25871600D01*
X32531499Y-25844649D01*
X32531500Y-25844632D01*
X32531500Y-24447358D01*
X32531453Y-24446918D01*
X40671300Y-24446918D01*
X40671300Y-24625881D01*
X40672346Y-24631140D01*
X40706213Y-24801400D01*
X40759068Y-24929003D01*
X40776374Y-24970781D01*
X40783963Y-25041371D01*
X40776374Y-25067219D01*
X40774699Y-25071262D01*
X40774698Y-25071264D01*
X40755370Y-25117925D01*
X40706214Y-25236596D01*
X40671300Y-25412118D01*
X40671300Y-25591081D01*
X40685179Y-25660854D01*
X40705398Y-25762505D01*
X40706214Y-25766603D01*
X40714470Y-25786535D01*
X40774698Y-25931936D01*
X40774699Y-25931937D01*
X40779820Y-25939602D01*
X40801032Y-26007356D01*
X40782246Y-26075822D01*
X40779820Y-26079598D01*
X40774698Y-26087264D01*
X40768727Y-26101680D01*
X40706214Y-26252596D01*
X40706213Y-26252599D01*
X40706213Y-26252600D01*
X40701520Y-26276193D01*
X40671300Y-26428118D01*
X40671300Y-26428121D01*
X40671300Y-26607079D01*
X40706213Y-26782600D01*
X40774698Y-26947936D01*
X40874122Y-27096735D01*
X41000665Y-27223278D01*
X41149464Y-27322702D01*
X41314800Y-27391187D01*
X41490321Y-27426100D01*
X41490322Y-27426100D01*
X41669278Y-27426100D01*
X41669279Y-27426100D01*
X41844800Y-27391187D01*
X42010136Y-27322702D01*
X42017794Y-27317584D01*
X42085544Y-27296367D01*
X42154012Y-27315147D01*
X42157779Y-27317567D01*
X42162038Y-27320413D01*
X42165462Y-27322701D01*
X42165463Y-27322701D01*
X42165464Y-27322702D01*
X42330800Y-27391187D01*
X42506321Y-27426100D01*
X42506322Y-27426100D01*
X42685278Y-27426100D01*
X42685279Y-27426100D01*
X42860800Y-27391187D01*
X43026136Y-27322702D01*
X43174935Y-27223278D01*
X43301478Y-27096735D01*
X43400902Y-26947936D01*
X43469387Y-26782600D01*
X43504300Y-26607079D01*
X43504300Y-26428121D01*
X43469387Y-26252600D01*
X43400902Y-26087264D01*
X43395784Y-26079605D01*
X43374567Y-26011856D01*
X43393347Y-25943388D01*
X43395767Y-25939620D01*
X43400902Y-25931936D01*
X43469387Y-25766600D01*
X43504300Y-25591079D01*
X43504300Y-25412121D01*
X43469387Y-25236600D01*
X43400902Y-25071264D01*
X43400900Y-25071262D01*
X43399226Y-25067219D01*
X43396101Y-25038161D01*
X43389987Y-25009571D01*
X43392081Y-25000775D01*
X43391636Y-24996630D01*
X43397733Y-24974554D01*
X43400393Y-24967497D01*
X43400902Y-24966736D01*
X43467267Y-24806518D01*
X45633500Y-24806518D01*
X45633500Y-25485481D01*
X45641642Y-25526413D01*
X45656279Y-25600000D01*
X45668414Y-25661003D01*
X45682971Y-25696147D01*
X45736898Y-25826336D01*
X45836322Y-25975135D01*
X45962865Y-26101678D01*
X46111664Y-26201102D01*
X46277000Y-26269587D01*
X46452521Y-26304500D01*
X46452522Y-26304500D01*
X46631478Y-26304500D01*
X46631479Y-26304500D01*
X46807000Y-26269587D01*
X46972336Y-26201102D01*
X47097000Y-26117804D01*
X47164751Y-26096590D01*
X47233218Y-26115373D01*
X47236971Y-26117785D01*
X47361664Y-26201102D01*
X47527000Y-26269587D01*
X47702521Y-26304500D01*
X47702522Y-26304500D01*
X47881478Y-26304500D01*
X47881479Y-26304500D01*
X48057000Y-26269587D01*
X48222336Y-26201102D01*
X48347000Y-26117804D01*
X48414751Y-26096590D01*
X48483218Y-26115373D01*
X48486971Y-26117785D01*
X48611664Y-26201102D01*
X48777000Y-26269587D01*
X48952521Y-26304500D01*
X48952522Y-26304500D01*
X49131478Y-26304500D01*
X49131479Y-26304500D01*
X49307000Y-26269587D01*
X49472336Y-26201102D01*
X49472336Y-26201101D01*
X49478055Y-26198733D01*
X49479166Y-26201415D01*
X49536431Y-26189392D01*
X49602043Y-26214136D01*
X49645791Y-26246886D01*
X49645793Y-26246887D01*
X49645796Y-26246889D01*
X49692669Y-26264372D01*
X49782795Y-26297988D01*
X49782803Y-26297990D01*
X49843350Y-26304499D01*
X49843355Y-26304499D01*
X49843362Y-26304500D01*
X49843368Y-26304500D01*
X50740632Y-26304500D01*
X50740638Y-26304500D01*
X50740645Y-26304499D01*
X50740649Y-26304499D01*
X50801196Y-26297990D01*
X50801199Y-26297989D01*
X50801201Y-26297989D01*
X50938204Y-26246889D01*
X50940354Y-26245280D01*
X51055261Y-26159261D01*
X51142887Y-26042207D01*
X51142887Y-26042206D01*
X51142889Y-26042204D01*
X51186960Y-25924045D01*
X51193988Y-25905204D01*
X51193990Y-25905196D01*
X51200499Y-25844649D01*
X51200500Y-25844632D01*
X51200500Y-24806518D01*
X54777500Y-24806518D01*
X54777500Y-25485481D01*
X54785642Y-25526413D01*
X54800279Y-25600000D01*
X54812414Y-25661003D01*
X54826971Y-25696147D01*
X54880898Y-25826336D01*
X54980322Y-25975135D01*
X55106865Y-26101678D01*
X55255664Y-26201102D01*
X55421000Y-26269587D01*
X55596521Y-26304500D01*
X55596522Y-26304500D01*
X55775478Y-26304500D01*
X55775479Y-26304500D01*
X55951000Y-26269587D01*
X56116336Y-26201102D01*
X56241000Y-26117804D01*
X56308751Y-26096590D01*
X56377218Y-26115373D01*
X56380971Y-26117785D01*
X56505664Y-26201102D01*
X56671000Y-26269587D01*
X56846521Y-26304500D01*
X56846522Y-26304500D01*
X57025478Y-26304500D01*
X57025479Y-26304500D01*
X57201000Y-26269587D01*
X57366336Y-26201102D01*
X57491451Y-26117503D01*
X57559201Y-26096289D01*
X57627668Y-26115072D01*
X57631452Y-26117504D01*
X57755901Y-26200658D01*
X57921142Y-26269104D01*
X57921141Y-26269104D01*
X57932000Y-26271263D01*
X57932000Y-25096272D01*
X57936000Y-25096272D01*
X57936000Y-25195728D01*
X57974060Y-25287614D01*
X58044386Y-25357940D01*
X58136272Y-25396000D01*
X58235728Y-25396000D01*
X58327614Y-25357940D01*
X58397940Y-25287614D01*
X58436000Y-25195728D01*
X58436000Y-25096272D01*
X58397940Y-25004386D01*
X58327614Y-24934060D01*
X58235728Y-24896000D01*
X58136272Y-24896000D01*
X58044386Y-24934060D01*
X57974060Y-25004386D01*
X57936000Y-25096272D01*
X57932000Y-25096272D01*
X57932000Y-24020735D01*
X58440000Y-24020735D01*
X58440000Y-26271262D01*
X58450857Y-26269104D01*
X58621818Y-26198290D01*
X58623025Y-26201204D01*
X58678969Y-26188983D01*
X58745507Y-26213735D01*
X58789796Y-26246889D01*
X58789799Y-26246890D01*
X58926795Y-26297988D01*
X58926803Y-26297990D01*
X58987350Y-26304499D01*
X58987355Y-26304499D01*
X58987362Y-26304500D01*
X58987368Y-26304500D01*
X59884632Y-26304500D01*
X59884638Y-26304500D01*
X59884645Y-26304499D01*
X59884649Y-26304499D01*
X59945196Y-26297990D01*
X59945199Y-26297989D01*
X59945201Y-26297989D01*
X60082204Y-26246889D01*
X60084354Y-26245280D01*
X60199261Y-26159261D01*
X60286887Y-26042207D01*
X60286887Y-26042206D01*
X60286889Y-26042204D01*
X60330960Y-25924045D01*
X60337988Y-25905204D01*
X60337990Y-25905196D01*
X60344499Y-25844649D01*
X60344500Y-25844632D01*
X60344500Y-24447367D01*
X60344499Y-24447358D01*
X60344453Y-24446921D01*
X60337990Y-24386803D01*
X60337988Y-24386795D01*
X60286889Y-24249797D01*
X60286887Y-24249792D01*
X60199261Y-24132738D01*
X60082207Y-24045112D01*
X60082202Y-24045110D01*
X59945204Y-23994011D01*
X59945196Y-23994009D01*
X59884649Y-23987500D01*
X59884638Y-23987500D01*
X58987362Y-23987500D01*
X58987350Y-23987500D01*
X58926803Y-23994009D01*
X58926795Y-23994011D01*
X58789797Y-24045110D01*
X58789792Y-24045113D01*
X58745597Y-24078197D01*
X58679076Y-24103008D01*
X58622952Y-24090970D01*
X58621818Y-24093710D01*
X58450857Y-24022895D01*
X58450854Y-24022894D01*
X58440000Y-24020735D01*
X57932000Y-24020735D01*
X57921145Y-24022894D01*
X57921142Y-24022895D01*
X57755901Y-24091341D01*
X57631452Y-24174495D01*
X57563699Y-24195710D01*
X57495232Y-24176927D01*
X57491448Y-24174495D01*
X57490998Y-24174194D01*
X57366336Y-24090898D01*
X57202164Y-24022895D01*
X57201003Y-24022414D01*
X57201001Y-24022413D01*
X57201000Y-24022413D01*
X57112645Y-24004838D01*
X57025481Y-23987500D01*
X57025479Y-23987500D01*
X56846521Y-23987500D01*
X56846518Y-23987500D01*
X56715771Y-24013507D01*
X56671000Y-24022413D01*
X56670999Y-24022413D01*
X56670996Y-24022414D01*
X56505662Y-24090899D01*
X56381002Y-24174194D01*
X56313249Y-24195409D01*
X56244782Y-24176626D01*
X56240998Y-24174194D01*
X56168755Y-24125923D01*
X56116336Y-24090898D01*
X55952164Y-24022895D01*
X55951003Y-24022414D01*
X55951001Y-24022413D01*
X55951000Y-24022413D01*
X55862645Y-24004838D01*
X55775481Y-23987500D01*
X55775479Y-23987500D01*
X55596521Y-23987500D01*
X55596518Y-23987500D01*
X55465771Y-24013507D01*
X55421000Y-24022413D01*
X55420999Y-24022413D01*
X55420996Y-24022414D01*
X55255662Y-24090899D01*
X55106869Y-24190319D01*
X55106862Y-24190324D01*
X54980324Y-24316862D01*
X54980319Y-24316869D01*
X54880899Y-24465662D01*
X54812414Y-24630996D01*
X54777500Y-24806518D01*
X51200500Y-24806518D01*
X51200500Y-24447367D01*
X51200499Y-24447358D01*
X51200453Y-24446921D01*
X51193990Y-24386803D01*
X51193988Y-24386795D01*
X51142889Y-24249797D01*
X51142887Y-24249792D01*
X51055261Y-24132738D01*
X50938207Y-24045112D01*
X50938202Y-24045110D01*
X50801204Y-23994011D01*
X50801196Y-23994009D01*
X50740649Y-23987500D01*
X50740638Y-23987500D01*
X49843362Y-23987500D01*
X49843350Y-23987500D01*
X49782803Y-23994009D01*
X49782795Y-23994011D01*
X49645797Y-24045110D01*
X49645793Y-24045112D01*
X49602040Y-24077865D01*
X49535519Y-24102675D01*
X49479114Y-24090706D01*
X49478054Y-24093267D01*
X49472337Y-24090899D01*
X49472336Y-24090898D01*
X49308164Y-24022895D01*
X49307003Y-24022414D01*
X49307001Y-24022413D01*
X49307000Y-24022413D01*
X49218645Y-24004838D01*
X49131481Y-23987500D01*
X49131479Y-23987500D01*
X48952521Y-23987500D01*
X48952518Y-23987500D01*
X48821771Y-24013507D01*
X48777000Y-24022413D01*
X48776999Y-24022413D01*
X48776996Y-24022414D01*
X48611662Y-24090899D01*
X48487002Y-24174194D01*
X48419249Y-24195409D01*
X48350782Y-24176626D01*
X48346998Y-24174194D01*
X48274755Y-24125923D01*
X48222336Y-24090898D01*
X48058164Y-24022895D01*
X48057003Y-24022414D01*
X48057001Y-24022413D01*
X48057000Y-24022413D01*
X47968645Y-24004838D01*
X47881481Y-23987500D01*
X47881479Y-23987500D01*
X47702521Y-23987500D01*
X47702518Y-23987500D01*
X47571771Y-24013507D01*
X47527000Y-24022413D01*
X47526999Y-24022413D01*
X47526996Y-24022414D01*
X47361662Y-24090899D01*
X47237002Y-24174194D01*
X47169249Y-24195409D01*
X47100782Y-24176626D01*
X47096998Y-24174194D01*
X47024755Y-24125923D01*
X46972336Y-24090898D01*
X46808164Y-24022895D01*
X46807003Y-24022414D01*
X46807001Y-24022413D01*
X46807000Y-24022413D01*
X46718645Y-24004838D01*
X46631481Y-23987500D01*
X46631479Y-23987500D01*
X46452521Y-23987500D01*
X46452518Y-23987500D01*
X46321771Y-24013507D01*
X46277000Y-24022413D01*
X46276999Y-24022413D01*
X46276996Y-24022414D01*
X46111662Y-24090899D01*
X45962869Y-24190319D01*
X45962862Y-24190324D01*
X45836324Y-24316862D01*
X45836319Y-24316869D01*
X45736899Y-24465662D01*
X45668414Y-24630996D01*
X45633500Y-24806518D01*
X43467267Y-24806518D01*
X43469387Y-24801400D01*
X43504300Y-24625879D01*
X43504300Y-24446921D01*
X43469387Y-24271400D01*
X43400902Y-24106064D01*
X43301478Y-23957265D01*
X43174935Y-23830722D01*
X43026136Y-23731298D01*
X42909229Y-23682873D01*
X42860803Y-23662814D01*
X42860801Y-23662813D01*
X42860800Y-23662813D01*
X42772445Y-23645238D01*
X42685281Y-23627900D01*
X42685279Y-23627900D01*
X42506321Y-23627900D01*
X42506318Y-23627900D01*
X42375571Y-23653907D01*
X42330800Y-23662813D01*
X42330799Y-23662813D01*
X42330796Y-23662814D01*
X42165462Y-23731299D01*
X42157798Y-23736420D01*
X42090044Y-23757632D01*
X42021578Y-23738846D01*
X42017802Y-23736420D01*
X42010137Y-23731299D01*
X42010138Y-23731299D01*
X42010136Y-23731298D01*
X41893229Y-23682873D01*
X41844803Y-23662814D01*
X41844801Y-23662813D01*
X41844800Y-23662813D01*
X41756445Y-23645238D01*
X41669281Y-23627900D01*
X41669279Y-23627900D01*
X41490321Y-23627900D01*
X41490318Y-23627900D01*
X41359571Y-23653907D01*
X41314800Y-23662813D01*
X41314799Y-23662813D01*
X41314796Y-23662814D01*
X41149462Y-23731299D01*
X41000669Y-23830719D01*
X41000662Y-23830724D01*
X40874124Y-23957262D01*
X40874119Y-23957269D01*
X40774699Y-24106062D01*
X40706214Y-24271396D01*
X40671300Y-24446918D01*
X32531453Y-24446918D01*
X32524990Y-24386803D01*
X32524988Y-24386795D01*
X32473889Y-24249797D01*
X32473887Y-24249792D01*
X32386261Y-24132738D01*
X32269207Y-24045112D01*
X32269202Y-24045110D01*
X32132204Y-23994011D01*
X32132196Y-23994009D01*
X32071649Y-23987500D01*
X32071638Y-23987500D01*
X31174362Y-23987500D01*
X31174350Y-23987500D01*
X31113803Y-23994009D01*
X31113795Y-23994011D01*
X30976797Y-24045110D01*
X30976792Y-24045113D01*
X30932597Y-24078197D01*
X30866076Y-24103008D01*
X30809952Y-24090970D01*
X30808818Y-24093710D01*
X30637857Y-24022895D01*
X30637854Y-24022894D01*
X30627000Y-24020735D01*
X30119000Y-24020735D01*
X30108145Y-24022894D01*
X30108142Y-24022895D01*
X29942901Y-24091341D01*
X29794184Y-24190710D01*
X29794178Y-24190715D01*
X29667715Y-24317178D01*
X29667710Y-24317184D01*
X29568341Y-24465901D01*
X29499896Y-24631140D01*
X29499894Y-24631145D01*
X29465000Y-24806567D01*
X27620208Y-24806567D01*
X27626328Y-24775799D01*
X27672288Y-24544738D01*
X27672291Y-24544718D01*
X27707999Y-24182168D01*
X27708000Y-24182152D01*
X27708000Y-23817847D01*
X27707999Y-23817831D01*
X27672291Y-23455281D01*
X27672288Y-23455261D01*
X27601217Y-23097956D01*
X27495455Y-22749305D01*
X27495454Y-22749301D01*
X27356034Y-22412713D01*
X27184291Y-22091405D01*
X26981891Y-21788491D01*
X26981886Y-21788485D01*
X26796552Y-21562655D01*
X25296631Y-23062576D01*
X25220412Y-22957670D01*
X25042330Y-22779588D01*
X24937421Y-22703367D01*
X25387572Y-22253216D01*
X25447056Y-22253216D01*
X25447056Y-22352672D01*
X25485116Y-22444558D01*
X25555442Y-22514884D01*
X25647328Y-22552944D01*
X25746784Y-22552944D01*
X25838670Y-22514884D01*
X25908996Y-22444558D01*
X25947056Y-22352672D01*
X25947056Y-22253216D01*
X25908996Y-22161330D01*
X25838670Y-22091004D01*
X25746784Y-22052944D01*
X25647328Y-22052944D01*
X25555442Y-22091004D01*
X25485116Y-22161330D01*
X25447056Y-22253216D01*
X25387572Y-22253216D01*
X26437343Y-21203446D01*
X26211525Y-21018121D01*
X26211510Y-21018110D01*
X25908594Y-20815708D01*
X25762506Y-20737622D01*
X25711858Y-20687870D01*
X25696148Y-20618633D01*
X25720364Y-20551894D01*
X25776818Y-20508842D01*
X25821902Y-20500500D01*
X64178098Y-20500500D01*
X64183101Y-20501969D01*
G37*
G04 #@! TD.AperFunction*
G04 #@! TA.AperFunction,Conductor*
G36*
X37226538Y-46502002D02*
G01*
X37247512Y-46518905D01*
X37330603Y-46601996D01*
X37330609Y-46602001D01*
X37330611Y-46602003D01*
X37463032Y-46690483D01*
X37514218Y-46711685D01*
X37569499Y-46756234D01*
X37591920Y-46823597D01*
X37592000Y-46828094D01*
X37592000Y-49784000D01*
X41784000Y-49784000D01*
X41852121Y-49804002D01*
X41898614Y-49857658D01*
X41910000Y-49910000D01*
X41910000Y-51309000D01*
X41889998Y-51377121D01*
X41836342Y-51423614D01*
X41784000Y-51435000D01*
X37592000Y-51435000D01*
X37592000Y-53214000D01*
X37571998Y-53282121D01*
X37518342Y-53328614D01*
X37466000Y-53340000D01*
X37211000Y-53340000D01*
X34162000Y-53340000D01*
X34093879Y-53319998D01*
X34047386Y-53266342D01*
X34036000Y-53214000D01*
X34036000Y-46608000D01*
X34056002Y-46539879D01*
X34109658Y-46493386D01*
X34162000Y-46482000D01*
X37158417Y-46482000D01*
X37226538Y-46502002D01*
G37*
G04 #@! TD.AperFunction*
M02*
