%TF.GenerationSoftware,KiCad,Pcbnew,9.0.2*%
%TF.CreationDate,2025-06-16T10:28:30-04:00*%
%TF.ProjectId,avionicsboard,6176696f-6e69-4637-9362-6f6172642e6b,rev?*%
%TF.SameCoordinates,Original*%
%TF.FileFunction,Drillmap*%
%TF.FilePolarity,Positive*%
%FSLAX45Y45*%
G04 Gerber Fmt 4.5, Leading zero omitted, Abs format (unit mm)*
G04 Created by KiCad (PCBNEW 9.0.2) date 2025-06-16 10:28:30*
%MOMM*%
%LPD*%
G01*
G04 APERTURE LIST*
%ADD10C,0.100000*%
%ADD11C,0.200000*%
G04 APERTURE END LIST*
D10*
X2400000Y-7000000D02*
G75*
G02*
X2000000Y-6600000I0J400000D01*
G01*
X2400000Y-2000000D02*
X6600000Y-2000000D01*
X2000000Y-2400000D02*
G75*
G02*
X2400000Y-2000000I400000J0D01*
G01*
X7000000Y-2400000D02*
X7000000Y-6600000D01*
X6600000Y-7000000D02*
X2400000Y-7000000D01*
X6600000Y-2000000D02*
G75*
G02*
X7000000Y-2400000I0J-400000D01*
G01*
X7000000Y-6600000D02*
G75*
G02*
X6600000Y-7000000I-400000J0D01*
G01*
X2000000Y-6600000D02*
X2000000Y-2400000D01*
D11*
D10*
X6496700Y-3126300D02*
X6576700Y-3206300D01*
X6576700Y-3126300D02*
X6496700Y-3206300D01*
X6496700Y-3626300D02*
X6576700Y-3706300D01*
X6576700Y-3626300D02*
X6496700Y-3706300D01*
D11*
X2255777Y-7316484D02*
X2255777Y-7116484D01*
X2255777Y-7116484D02*
X2303396Y-7116484D01*
X2303396Y-7116484D02*
X2331967Y-7126008D01*
X2331967Y-7126008D02*
X2351015Y-7145055D01*
X2351015Y-7145055D02*
X2360539Y-7164103D01*
X2360539Y-7164103D02*
X2370063Y-7202198D01*
X2370063Y-7202198D02*
X2370063Y-7230769D01*
X2370063Y-7230769D02*
X2360539Y-7268865D01*
X2360539Y-7268865D02*
X2351015Y-7287912D01*
X2351015Y-7287912D02*
X2331967Y-7306960D01*
X2331967Y-7306960D02*
X2303396Y-7316484D01*
X2303396Y-7316484D02*
X2255777Y-7316484D01*
X2455777Y-7316484D02*
X2455777Y-7183150D01*
X2455777Y-7221246D02*
X2465301Y-7202198D01*
X2465301Y-7202198D02*
X2474824Y-7192674D01*
X2474824Y-7192674D02*
X2493872Y-7183150D01*
X2493872Y-7183150D02*
X2512920Y-7183150D01*
X2579586Y-7316484D02*
X2579586Y-7183150D01*
X2579586Y-7116484D02*
X2570063Y-7126008D01*
X2570063Y-7126008D02*
X2579586Y-7135531D01*
X2579586Y-7135531D02*
X2589110Y-7126008D01*
X2589110Y-7126008D02*
X2579586Y-7116484D01*
X2579586Y-7116484D02*
X2579586Y-7135531D01*
X2703396Y-7316484D02*
X2684348Y-7306960D01*
X2684348Y-7306960D02*
X2674824Y-7287912D01*
X2674824Y-7287912D02*
X2674824Y-7116484D01*
X2808158Y-7316484D02*
X2789110Y-7306960D01*
X2789110Y-7306960D02*
X2779586Y-7287912D01*
X2779586Y-7287912D02*
X2779586Y-7116484D01*
X3036729Y-7316484D02*
X3036729Y-7116484D01*
X3036729Y-7116484D02*
X3103396Y-7259341D01*
X3103396Y-7259341D02*
X3170062Y-7116484D01*
X3170062Y-7116484D02*
X3170062Y-7316484D01*
X3351015Y-7316484D02*
X3351015Y-7211722D01*
X3351015Y-7211722D02*
X3341491Y-7192674D01*
X3341491Y-7192674D02*
X3322443Y-7183150D01*
X3322443Y-7183150D02*
X3284348Y-7183150D01*
X3284348Y-7183150D02*
X3265301Y-7192674D01*
X3351015Y-7306960D02*
X3331967Y-7316484D01*
X3331967Y-7316484D02*
X3284348Y-7316484D01*
X3284348Y-7316484D02*
X3265301Y-7306960D01*
X3265301Y-7306960D02*
X3255777Y-7287912D01*
X3255777Y-7287912D02*
X3255777Y-7268865D01*
X3255777Y-7268865D02*
X3265301Y-7249817D01*
X3265301Y-7249817D02*
X3284348Y-7240293D01*
X3284348Y-7240293D02*
X3331967Y-7240293D01*
X3331967Y-7240293D02*
X3351015Y-7230769D01*
X3446253Y-7183150D02*
X3446253Y-7383150D01*
X3446253Y-7192674D02*
X3465301Y-7183150D01*
X3465301Y-7183150D02*
X3503396Y-7183150D01*
X3503396Y-7183150D02*
X3522443Y-7192674D01*
X3522443Y-7192674D02*
X3531967Y-7202198D01*
X3531967Y-7202198D02*
X3541491Y-7221246D01*
X3541491Y-7221246D02*
X3541491Y-7278388D01*
X3541491Y-7278388D02*
X3531967Y-7297436D01*
X3531967Y-7297436D02*
X3522443Y-7306960D01*
X3522443Y-7306960D02*
X3503396Y-7316484D01*
X3503396Y-7316484D02*
X3465301Y-7316484D01*
X3465301Y-7316484D02*
X3446253Y-7306960D01*
X3627205Y-7297436D02*
X3636729Y-7306960D01*
X3636729Y-7306960D02*
X3627205Y-7316484D01*
X3627205Y-7316484D02*
X3617682Y-7306960D01*
X3617682Y-7306960D02*
X3627205Y-7297436D01*
X3627205Y-7297436D02*
X3627205Y-7316484D01*
X3627205Y-7192674D02*
X3636729Y-7202198D01*
X3636729Y-7202198D02*
X3627205Y-7211722D01*
X3627205Y-7211722D02*
X3617682Y-7202198D01*
X3617682Y-7202198D02*
X3627205Y-7192674D01*
X3627205Y-7192674D02*
X3627205Y-7211722D01*
D10*
X1915000Y-7605000D02*
X1995000Y-7685000D01*
X1995000Y-7605000D02*
X1915000Y-7685000D01*
D11*
X2293872Y-7536484D02*
X2312920Y-7536484D01*
X2312920Y-7536484D02*
X2331967Y-7546008D01*
X2331967Y-7546008D02*
X2341491Y-7555531D01*
X2341491Y-7555531D02*
X2351015Y-7574579D01*
X2351015Y-7574579D02*
X2360539Y-7612674D01*
X2360539Y-7612674D02*
X2360539Y-7660293D01*
X2360539Y-7660293D02*
X2351015Y-7698388D01*
X2351015Y-7698388D02*
X2341491Y-7717436D01*
X2341491Y-7717436D02*
X2331967Y-7726960D01*
X2331967Y-7726960D02*
X2312920Y-7736484D01*
X2312920Y-7736484D02*
X2293872Y-7736484D01*
X2293872Y-7736484D02*
X2274824Y-7726960D01*
X2274824Y-7726960D02*
X2265301Y-7717436D01*
X2265301Y-7717436D02*
X2255777Y-7698388D01*
X2255777Y-7698388D02*
X2246253Y-7660293D01*
X2246253Y-7660293D02*
X2246253Y-7612674D01*
X2246253Y-7612674D02*
X2255777Y-7574579D01*
X2255777Y-7574579D02*
X2265301Y-7555531D01*
X2265301Y-7555531D02*
X2274824Y-7546008D01*
X2274824Y-7546008D02*
X2293872Y-7536484D01*
X2446253Y-7717436D02*
X2455777Y-7726960D01*
X2455777Y-7726960D02*
X2446253Y-7736484D01*
X2446253Y-7736484D02*
X2436729Y-7726960D01*
X2436729Y-7726960D02*
X2446253Y-7717436D01*
X2446253Y-7717436D02*
X2446253Y-7736484D01*
X2570063Y-7622198D02*
X2551015Y-7612674D01*
X2551015Y-7612674D02*
X2541491Y-7603150D01*
X2541491Y-7603150D02*
X2531967Y-7584103D01*
X2531967Y-7584103D02*
X2531967Y-7574579D01*
X2531967Y-7574579D02*
X2541491Y-7555531D01*
X2541491Y-7555531D02*
X2551015Y-7546008D01*
X2551015Y-7546008D02*
X2570063Y-7536484D01*
X2570063Y-7536484D02*
X2608158Y-7536484D01*
X2608158Y-7536484D02*
X2627205Y-7546008D01*
X2627205Y-7546008D02*
X2636729Y-7555531D01*
X2636729Y-7555531D02*
X2646253Y-7574579D01*
X2646253Y-7574579D02*
X2646253Y-7584103D01*
X2646253Y-7584103D02*
X2636729Y-7603150D01*
X2636729Y-7603150D02*
X2627205Y-7612674D01*
X2627205Y-7612674D02*
X2608158Y-7622198D01*
X2608158Y-7622198D02*
X2570063Y-7622198D01*
X2570063Y-7622198D02*
X2551015Y-7631722D01*
X2551015Y-7631722D02*
X2541491Y-7641246D01*
X2541491Y-7641246D02*
X2531967Y-7660293D01*
X2531967Y-7660293D02*
X2531967Y-7698388D01*
X2531967Y-7698388D02*
X2541491Y-7717436D01*
X2541491Y-7717436D02*
X2551015Y-7726960D01*
X2551015Y-7726960D02*
X2570063Y-7736484D01*
X2570063Y-7736484D02*
X2608158Y-7736484D01*
X2608158Y-7736484D02*
X2627205Y-7726960D01*
X2627205Y-7726960D02*
X2636729Y-7717436D01*
X2636729Y-7717436D02*
X2646253Y-7698388D01*
X2646253Y-7698388D02*
X2646253Y-7660293D01*
X2646253Y-7660293D02*
X2636729Y-7641246D01*
X2636729Y-7641246D02*
X2627205Y-7631722D01*
X2627205Y-7631722D02*
X2608158Y-7622198D01*
X2770063Y-7536484D02*
X2789110Y-7536484D01*
X2789110Y-7536484D02*
X2808158Y-7546008D01*
X2808158Y-7546008D02*
X2817682Y-7555531D01*
X2817682Y-7555531D02*
X2827205Y-7574579D01*
X2827205Y-7574579D02*
X2836729Y-7612674D01*
X2836729Y-7612674D02*
X2836729Y-7660293D01*
X2836729Y-7660293D02*
X2827205Y-7698388D01*
X2827205Y-7698388D02*
X2817682Y-7717436D01*
X2817682Y-7717436D02*
X2808158Y-7726960D01*
X2808158Y-7726960D02*
X2789110Y-7736484D01*
X2789110Y-7736484D02*
X2770063Y-7736484D01*
X2770063Y-7736484D02*
X2751015Y-7726960D01*
X2751015Y-7726960D02*
X2741491Y-7717436D01*
X2741491Y-7717436D02*
X2731967Y-7698388D01*
X2731967Y-7698388D02*
X2722444Y-7660293D01*
X2722444Y-7660293D02*
X2722444Y-7612674D01*
X2722444Y-7612674D02*
X2731967Y-7574579D01*
X2731967Y-7574579D02*
X2741491Y-7555531D01*
X2741491Y-7555531D02*
X2751015Y-7546008D01*
X2751015Y-7546008D02*
X2770063Y-7536484D01*
X2960539Y-7536484D02*
X2979586Y-7536484D01*
X2979586Y-7536484D02*
X2998634Y-7546008D01*
X2998634Y-7546008D02*
X3008158Y-7555531D01*
X3008158Y-7555531D02*
X3017682Y-7574579D01*
X3017682Y-7574579D02*
X3027205Y-7612674D01*
X3027205Y-7612674D02*
X3027205Y-7660293D01*
X3027205Y-7660293D02*
X3017682Y-7698388D01*
X3017682Y-7698388D02*
X3008158Y-7717436D01*
X3008158Y-7717436D02*
X2998634Y-7726960D01*
X2998634Y-7726960D02*
X2979586Y-7736484D01*
X2979586Y-7736484D02*
X2960539Y-7736484D01*
X2960539Y-7736484D02*
X2941491Y-7726960D01*
X2941491Y-7726960D02*
X2931967Y-7717436D01*
X2931967Y-7717436D02*
X2922443Y-7698388D01*
X2922443Y-7698388D02*
X2912920Y-7660293D01*
X2912920Y-7660293D02*
X2912920Y-7612674D01*
X2912920Y-7612674D02*
X2922443Y-7574579D01*
X2922443Y-7574579D02*
X2931967Y-7555531D01*
X2931967Y-7555531D02*
X2941491Y-7546008D01*
X2941491Y-7546008D02*
X2960539Y-7536484D01*
X3112920Y-7736484D02*
X3112920Y-7603150D01*
X3112920Y-7622198D02*
X3122443Y-7612674D01*
X3122443Y-7612674D02*
X3141491Y-7603150D01*
X3141491Y-7603150D02*
X3170063Y-7603150D01*
X3170063Y-7603150D02*
X3189110Y-7612674D01*
X3189110Y-7612674D02*
X3198634Y-7631722D01*
X3198634Y-7631722D02*
X3198634Y-7736484D01*
X3198634Y-7631722D02*
X3208158Y-7612674D01*
X3208158Y-7612674D02*
X3227205Y-7603150D01*
X3227205Y-7603150D02*
X3255777Y-7603150D01*
X3255777Y-7603150D02*
X3274824Y-7612674D01*
X3274824Y-7612674D02*
X3284348Y-7631722D01*
X3284348Y-7631722D02*
X3284348Y-7736484D01*
X3379586Y-7736484D02*
X3379586Y-7603150D01*
X3379586Y-7622198D02*
X3389110Y-7612674D01*
X3389110Y-7612674D02*
X3408158Y-7603150D01*
X3408158Y-7603150D02*
X3436729Y-7603150D01*
X3436729Y-7603150D02*
X3455777Y-7612674D01*
X3455777Y-7612674D02*
X3465301Y-7631722D01*
X3465301Y-7631722D02*
X3465301Y-7736484D01*
X3465301Y-7631722D02*
X3474824Y-7612674D01*
X3474824Y-7612674D02*
X3493872Y-7603150D01*
X3493872Y-7603150D02*
X3522443Y-7603150D01*
X3522443Y-7603150D02*
X3541491Y-7612674D01*
X3541491Y-7612674D02*
X3551015Y-7631722D01*
X3551015Y-7631722D02*
X3551015Y-7736484D01*
X3941491Y-7526960D02*
X3770063Y-7784103D01*
X4198634Y-7536484D02*
X4217682Y-7536484D01*
X4217682Y-7536484D02*
X4236729Y-7546008D01*
X4236729Y-7546008D02*
X4246253Y-7555531D01*
X4246253Y-7555531D02*
X4255777Y-7574579D01*
X4255777Y-7574579D02*
X4265301Y-7612674D01*
X4265301Y-7612674D02*
X4265301Y-7660293D01*
X4265301Y-7660293D02*
X4255777Y-7698388D01*
X4255777Y-7698388D02*
X4246253Y-7717436D01*
X4246253Y-7717436D02*
X4236729Y-7726960D01*
X4236729Y-7726960D02*
X4217682Y-7736484D01*
X4217682Y-7736484D02*
X4198634Y-7736484D01*
X4198634Y-7736484D02*
X4179586Y-7726960D01*
X4179586Y-7726960D02*
X4170063Y-7717436D01*
X4170063Y-7717436D02*
X4160539Y-7698388D01*
X4160539Y-7698388D02*
X4151015Y-7660293D01*
X4151015Y-7660293D02*
X4151015Y-7612674D01*
X4151015Y-7612674D02*
X4160539Y-7574579D01*
X4160539Y-7574579D02*
X4170063Y-7555531D01*
X4170063Y-7555531D02*
X4179586Y-7546008D01*
X4179586Y-7546008D02*
X4198634Y-7536484D01*
X4351015Y-7717436D02*
X4360539Y-7726960D01*
X4360539Y-7726960D02*
X4351015Y-7736484D01*
X4351015Y-7736484D02*
X4341491Y-7726960D01*
X4341491Y-7726960D02*
X4351015Y-7717436D01*
X4351015Y-7717436D02*
X4351015Y-7736484D01*
X4484348Y-7536484D02*
X4503396Y-7536484D01*
X4503396Y-7536484D02*
X4522444Y-7546008D01*
X4522444Y-7546008D02*
X4531968Y-7555531D01*
X4531968Y-7555531D02*
X4541491Y-7574579D01*
X4541491Y-7574579D02*
X4551015Y-7612674D01*
X4551015Y-7612674D02*
X4551015Y-7660293D01*
X4551015Y-7660293D02*
X4541491Y-7698388D01*
X4541491Y-7698388D02*
X4531968Y-7717436D01*
X4531968Y-7717436D02*
X4522444Y-7726960D01*
X4522444Y-7726960D02*
X4503396Y-7736484D01*
X4503396Y-7736484D02*
X4484348Y-7736484D01*
X4484348Y-7736484D02*
X4465301Y-7726960D01*
X4465301Y-7726960D02*
X4455777Y-7717436D01*
X4455777Y-7717436D02*
X4446253Y-7698388D01*
X4446253Y-7698388D02*
X4436729Y-7660293D01*
X4436729Y-7660293D02*
X4436729Y-7612674D01*
X4436729Y-7612674D02*
X4446253Y-7574579D01*
X4446253Y-7574579D02*
X4455777Y-7555531D01*
X4455777Y-7555531D02*
X4465301Y-7546008D01*
X4465301Y-7546008D02*
X4484348Y-7536484D01*
X4617682Y-7536484D02*
X4741491Y-7536484D01*
X4741491Y-7536484D02*
X4674825Y-7612674D01*
X4674825Y-7612674D02*
X4703396Y-7612674D01*
X4703396Y-7612674D02*
X4722444Y-7622198D01*
X4722444Y-7622198D02*
X4731968Y-7631722D01*
X4731968Y-7631722D02*
X4741491Y-7650769D01*
X4741491Y-7650769D02*
X4741491Y-7698388D01*
X4741491Y-7698388D02*
X4731968Y-7717436D01*
X4731968Y-7717436D02*
X4722444Y-7726960D01*
X4722444Y-7726960D02*
X4703396Y-7736484D01*
X4703396Y-7736484D02*
X4646253Y-7736484D01*
X4646253Y-7736484D02*
X4627206Y-7726960D01*
X4627206Y-7726960D02*
X4617682Y-7717436D01*
X4931968Y-7736484D02*
X4817682Y-7736484D01*
X4874825Y-7736484D02*
X4874825Y-7536484D01*
X4874825Y-7536484D02*
X4855777Y-7565055D01*
X4855777Y-7565055D02*
X4836729Y-7584103D01*
X4836729Y-7584103D02*
X4817682Y-7593627D01*
X5112920Y-7536484D02*
X5017682Y-7536484D01*
X5017682Y-7536484D02*
X5008158Y-7631722D01*
X5008158Y-7631722D02*
X5017682Y-7622198D01*
X5017682Y-7622198D02*
X5036729Y-7612674D01*
X5036729Y-7612674D02*
X5084349Y-7612674D01*
X5084349Y-7612674D02*
X5103396Y-7622198D01*
X5103396Y-7622198D02*
X5112920Y-7631722D01*
X5112920Y-7631722D02*
X5122444Y-7650769D01*
X5122444Y-7650769D02*
X5122444Y-7698388D01*
X5122444Y-7698388D02*
X5112920Y-7717436D01*
X5112920Y-7717436D02*
X5103396Y-7726960D01*
X5103396Y-7726960D02*
X5084349Y-7736484D01*
X5084349Y-7736484D02*
X5036729Y-7736484D01*
X5036729Y-7736484D02*
X5017682Y-7726960D01*
X5017682Y-7726960D02*
X5008158Y-7717436D01*
X5198634Y-7536484D02*
X5198634Y-7574579D01*
X5274825Y-7536484D02*
X5274825Y-7574579D01*
X5570063Y-7812674D02*
X5560539Y-7803150D01*
X5560539Y-7803150D02*
X5541491Y-7774579D01*
X5541491Y-7774579D02*
X5531968Y-7755531D01*
X5531968Y-7755531D02*
X5522444Y-7726960D01*
X5522444Y-7726960D02*
X5512920Y-7679341D01*
X5512920Y-7679341D02*
X5512920Y-7641246D01*
X5512920Y-7641246D02*
X5522444Y-7593627D01*
X5522444Y-7593627D02*
X5531968Y-7565055D01*
X5531968Y-7565055D02*
X5541491Y-7546008D01*
X5541491Y-7546008D02*
X5560539Y-7517436D01*
X5560539Y-7517436D02*
X5570063Y-7507912D01*
X5636729Y-7555531D02*
X5646253Y-7546008D01*
X5646253Y-7546008D02*
X5665301Y-7536484D01*
X5665301Y-7536484D02*
X5712920Y-7536484D01*
X5712920Y-7536484D02*
X5731968Y-7546008D01*
X5731968Y-7546008D02*
X5741491Y-7555531D01*
X5741491Y-7555531D02*
X5751015Y-7574579D01*
X5751015Y-7574579D02*
X5751015Y-7593627D01*
X5751015Y-7593627D02*
X5741491Y-7622198D01*
X5741491Y-7622198D02*
X5627206Y-7736484D01*
X5627206Y-7736484D02*
X5751015Y-7736484D01*
X5989110Y-7736484D02*
X5989110Y-7536484D01*
X6074825Y-7736484D02*
X6074825Y-7631722D01*
X6074825Y-7631722D02*
X6065301Y-7612674D01*
X6065301Y-7612674D02*
X6046253Y-7603150D01*
X6046253Y-7603150D02*
X6017682Y-7603150D01*
X6017682Y-7603150D02*
X5998634Y-7612674D01*
X5998634Y-7612674D02*
X5989110Y-7622198D01*
X6198634Y-7736484D02*
X6179587Y-7726960D01*
X6179587Y-7726960D02*
X6170063Y-7717436D01*
X6170063Y-7717436D02*
X6160539Y-7698388D01*
X6160539Y-7698388D02*
X6160539Y-7641246D01*
X6160539Y-7641246D02*
X6170063Y-7622198D01*
X6170063Y-7622198D02*
X6179587Y-7612674D01*
X6179587Y-7612674D02*
X6198634Y-7603150D01*
X6198634Y-7603150D02*
X6227206Y-7603150D01*
X6227206Y-7603150D02*
X6246253Y-7612674D01*
X6246253Y-7612674D02*
X6255777Y-7622198D01*
X6255777Y-7622198D02*
X6265301Y-7641246D01*
X6265301Y-7641246D02*
X6265301Y-7698388D01*
X6265301Y-7698388D02*
X6255777Y-7717436D01*
X6255777Y-7717436D02*
X6246253Y-7726960D01*
X6246253Y-7726960D02*
X6227206Y-7736484D01*
X6227206Y-7736484D02*
X6198634Y-7736484D01*
X6379587Y-7736484D02*
X6360539Y-7726960D01*
X6360539Y-7726960D02*
X6351015Y-7707912D01*
X6351015Y-7707912D02*
X6351015Y-7536484D01*
X6531968Y-7726960D02*
X6512920Y-7736484D01*
X6512920Y-7736484D02*
X6474825Y-7736484D01*
X6474825Y-7736484D02*
X6455777Y-7726960D01*
X6455777Y-7726960D02*
X6446253Y-7707912D01*
X6446253Y-7707912D02*
X6446253Y-7631722D01*
X6446253Y-7631722D02*
X6455777Y-7612674D01*
X6455777Y-7612674D02*
X6474825Y-7603150D01*
X6474825Y-7603150D02*
X6512920Y-7603150D01*
X6512920Y-7603150D02*
X6531968Y-7612674D01*
X6531968Y-7612674D02*
X6541491Y-7631722D01*
X6541491Y-7631722D02*
X6541491Y-7650769D01*
X6541491Y-7650769D02*
X6446253Y-7669817D01*
X6617682Y-7726960D02*
X6636730Y-7736484D01*
X6636730Y-7736484D02*
X6674825Y-7736484D01*
X6674825Y-7736484D02*
X6693872Y-7726960D01*
X6693872Y-7726960D02*
X6703396Y-7707912D01*
X6703396Y-7707912D02*
X6703396Y-7698388D01*
X6703396Y-7698388D02*
X6693872Y-7679341D01*
X6693872Y-7679341D02*
X6674825Y-7669817D01*
X6674825Y-7669817D02*
X6646253Y-7669817D01*
X6646253Y-7669817D02*
X6627206Y-7660293D01*
X6627206Y-7660293D02*
X6617682Y-7641246D01*
X6617682Y-7641246D02*
X6617682Y-7631722D01*
X6617682Y-7631722D02*
X6627206Y-7612674D01*
X6627206Y-7612674D02*
X6646253Y-7603150D01*
X6646253Y-7603150D02*
X6674825Y-7603150D01*
X6674825Y-7603150D02*
X6693872Y-7612674D01*
X6770063Y-7812674D02*
X6779587Y-7803150D01*
X6779587Y-7803150D02*
X6798634Y-7774579D01*
X6798634Y-7774579D02*
X6808158Y-7755531D01*
X6808158Y-7755531D02*
X6817682Y-7726960D01*
X6817682Y-7726960D02*
X6827206Y-7679341D01*
X6827206Y-7679341D02*
X6827206Y-7641246D01*
X6827206Y-7641246D02*
X6817682Y-7593627D01*
X6817682Y-7593627D02*
X6808158Y-7565055D01*
X6808158Y-7565055D02*
X6798634Y-7546008D01*
X6798634Y-7546008D02*
X6779587Y-7517436D01*
X6779587Y-7517436D02*
X6770063Y-7507912D01*
X7131968Y-7812674D02*
X7122444Y-7803150D01*
X7122444Y-7803150D02*
X7103396Y-7774579D01*
X7103396Y-7774579D02*
X7093872Y-7755531D01*
X7093872Y-7755531D02*
X7084349Y-7726960D01*
X7084349Y-7726960D02*
X7074825Y-7679341D01*
X7074825Y-7679341D02*
X7074825Y-7641246D01*
X7074825Y-7641246D02*
X7084349Y-7593627D01*
X7084349Y-7593627D02*
X7093872Y-7565055D01*
X7093872Y-7565055D02*
X7103396Y-7546008D01*
X7103396Y-7546008D02*
X7122444Y-7517436D01*
X7122444Y-7517436D02*
X7131968Y-7507912D01*
X7208158Y-7603150D02*
X7208158Y-7736484D01*
X7208158Y-7622198D02*
X7217682Y-7612674D01*
X7217682Y-7612674D02*
X7236730Y-7603150D01*
X7236730Y-7603150D02*
X7265301Y-7603150D01*
X7265301Y-7603150D02*
X7284349Y-7612674D01*
X7284349Y-7612674D02*
X7293872Y-7631722D01*
X7293872Y-7631722D02*
X7293872Y-7736484D01*
X7417682Y-7736484D02*
X7398634Y-7726960D01*
X7398634Y-7726960D02*
X7389111Y-7717436D01*
X7389111Y-7717436D02*
X7379587Y-7698388D01*
X7379587Y-7698388D02*
X7379587Y-7641246D01*
X7379587Y-7641246D02*
X7389111Y-7622198D01*
X7389111Y-7622198D02*
X7398634Y-7612674D01*
X7398634Y-7612674D02*
X7417682Y-7603150D01*
X7417682Y-7603150D02*
X7446253Y-7603150D01*
X7446253Y-7603150D02*
X7465301Y-7612674D01*
X7465301Y-7612674D02*
X7474825Y-7622198D01*
X7474825Y-7622198D02*
X7484349Y-7641246D01*
X7484349Y-7641246D02*
X7484349Y-7698388D01*
X7484349Y-7698388D02*
X7474825Y-7717436D01*
X7474825Y-7717436D02*
X7465301Y-7726960D01*
X7465301Y-7726960D02*
X7446253Y-7736484D01*
X7446253Y-7736484D02*
X7417682Y-7736484D01*
X7541492Y-7603150D02*
X7617682Y-7603150D01*
X7570063Y-7536484D02*
X7570063Y-7707912D01*
X7570063Y-7707912D02*
X7579587Y-7726960D01*
X7579587Y-7726960D02*
X7598634Y-7736484D01*
X7598634Y-7736484D02*
X7617682Y-7736484D01*
X7836730Y-7603150D02*
X7836730Y-7803150D01*
X7836730Y-7612674D02*
X7855777Y-7603150D01*
X7855777Y-7603150D02*
X7893873Y-7603150D01*
X7893873Y-7603150D02*
X7912920Y-7612674D01*
X7912920Y-7612674D02*
X7922444Y-7622198D01*
X7922444Y-7622198D02*
X7931968Y-7641246D01*
X7931968Y-7641246D02*
X7931968Y-7698388D01*
X7931968Y-7698388D02*
X7922444Y-7717436D01*
X7922444Y-7717436D02*
X7912920Y-7726960D01*
X7912920Y-7726960D02*
X7893873Y-7736484D01*
X7893873Y-7736484D02*
X7855777Y-7736484D01*
X7855777Y-7736484D02*
X7836730Y-7726960D01*
X8046253Y-7736484D02*
X8027206Y-7726960D01*
X8027206Y-7726960D02*
X8017682Y-7707912D01*
X8017682Y-7707912D02*
X8017682Y-7536484D01*
X8208158Y-7736484D02*
X8208158Y-7631722D01*
X8208158Y-7631722D02*
X8198634Y-7612674D01*
X8198634Y-7612674D02*
X8179587Y-7603150D01*
X8179587Y-7603150D02*
X8141492Y-7603150D01*
X8141492Y-7603150D02*
X8122444Y-7612674D01*
X8208158Y-7726960D02*
X8189111Y-7736484D01*
X8189111Y-7736484D02*
X8141492Y-7736484D01*
X8141492Y-7736484D02*
X8122444Y-7726960D01*
X8122444Y-7726960D02*
X8112920Y-7707912D01*
X8112920Y-7707912D02*
X8112920Y-7688865D01*
X8112920Y-7688865D02*
X8122444Y-7669817D01*
X8122444Y-7669817D02*
X8141492Y-7660293D01*
X8141492Y-7660293D02*
X8189111Y-7660293D01*
X8189111Y-7660293D02*
X8208158Y-7650769D01*
X8274825Y-7603150D02*
X8351015Y-7603150D01*
X8303396Y-7536484D02*
X8303396Y-7707912D01*
X8303396Y-7707912D02*
X8312920Y-7726960D01*
X8312920Y-7726960D02*
X8331968Y-7736484D01*
X8331968Y-7736484D02*
X8351015Y-7736484D01*
X8493873Y-7726960D02*
X8474825Y-7736484D01*
X8474825Y-7736484D02*
X8436730Y-7736484D01*
X8436730Y-7736484D02*
X8417682Y-7726960D01*
X8417682Y-7726960D02*
X8408158Y-7707912D01*
X8408158Y-7707912D02*
X8408158Y-7631722D01*
X8408158Y-7631722D02*
X8417682Y-7612674D01*
X8417682Y-7612674D02*
X8436730Y-7603150D01*
X8436730Y-7603150D02*
X8474825Y-7603150D01*
X8474825Y-7603150D02*
X8493873Y-7612674D01*
X8493873Y-7612674D02*
X8503396Y-7631722D01*
X8503396Y-7631722D02*
X8503396Y-7650769D01*
X8503396Y-7650769D02*
X8408158Y-7669817D01*
X8674825Y-7736484D02*
X8674825Y-7536484D01*
X8674825Y-7726960D02*
X8655777Y-7736484D01*
X8655777Y-7736484D02*
X8617682Y-7736484D01*
X8617682Y-7736484D02*
X8598635Y-7726960D01*
X8598635Y-7726960D02*
X8589111Y-7717436D01*
X8589111Y-7717436D02*
X8579587Y-7698388D01*
X8579587Y-7698388D02*
X8579587Y-7641246D01*
X8579587Y-7641246D02*
X8589111Y-7622198D01*
X8589111Y-7622198D02*
X8598635Y-7612674D01*
X8598635Y-7612674D02*
X8617682Y-7603150D01*
X8617682Y-7603150D02*
X8655777Y-7603150D01*
X8655777Y-7603150D02*
X8674825Y-7612674D01*
X8751016Y-7812674D02*
X8760539Y-7803150D01*
X8760539Y-7803150D02*
X8779587Y-7774579D01*
X8779587Y-7774579D02*
X8789111Y-7755531D01*
X8789111Y-7755531D02*
X8798635Y-7726960D01*
X8798635Y-7726960D02*
X8808158Y-7679341D01*
X8808158Y-7679341D02*
X8808158Y-7641246D01*
X8808158Y-7641246D02*
X8798635Y-7593627D01*
X8798635Y-7593627D02*
X8789111Y-7565055D01*
X8789111Y-7565055D02*
X8779587Y-7546008D01*
X8779587Y-7546008D02*
X8760539Y-7517436D01*
X8760539Y-7517436D02*
X8751016Y-7507912D01*
M02*
