G04 #@! TF.GenerationSoftware,KiCad,Pcbnew,9.0.2*
G04 #@! TF.CreationDate,2025-06-16T10:28:11-04:00*
G04 #@! TF.ProjectId,avionicsboard,6176696f-6e69-4637-9362-6f6172642e6b,rev?*
G04 #@! TF.SameCoordinates,Original*
G04 #@! TF.FileFunction,Copper,L4,Bot*
G04 #@! TF.FilePolarity,Positive*
%FSLAX46Y46*%
G04 Gerber Fmt 4.6, Leading zero omitted, Abs format (unit mm)*
G04 Created by KiCad (PCBNEW 9.0.2) date 2025-06-16 10:28:11*
%MOMM*%
%LPD*%
G01*
G04 APERTURE LIST*
G04 #@! TA.AperFunction,ComponentPad*
%ADD10R,0.800000X1.300000*%
G04 #@! TD*
G04 #@! TA.AperFunction,ComponentPad*
%ADD11O,0.800000X1.300000*%
G04 #@! TD*
G04 #@! TA.AperFunction,ComponentPad*
%ADD12R,1.300000X0.800000*%
G04 #@! TD*
G04 #@! TA.AperFunction,ComponentPad*
%ADD13O,1.300000X0.800000*%
G04 #@! TD*
G04 #@! TA.AperFunction,ComponentPad*
%ADD14R,1.000000X1.000000*%
G04 #@! TD*
G04 #@! TA.AperFunction,ComponentPad*
%ADD15O,1.000000X1.000000*%
G04 #@! TD*
G04 #@! TA.AperFunction,ComponentPad*
%ADD16R,1.700000X1.700000*%
G04 #@! TD*
G04 #@! TA.AperFunction,ComponentPad*
%ADD17O,1.700000X1.700000*%
G04 #@! TD*
G04 #@! TA.AperFunction,ComponentPad*
%ADD18C,0.800000*%
G04 #@! TD*
G04 #@! TA.AperFunction,ComponentPad*
%ADD19C,6.400000*%
G04 #@! TD*
G04 #@! TA.AperFunction,ComponentPad*
%ADD20R,2.400000X2.400000*%
G04 #@! TD*
G04 #@! TA.AperFunction,ComponentPad*
%ADD21C,2.400000*%
G04 #@! TD*
G04 #@! TA.AperFunction,ComponentPad*
%ADD22C,1.800000*%
G04 #@! TD*
G04 #@! TA.AperFunction,ComponentPad*
%ADD23C,2.000000*%
G04 #@! TD*
G04 #@! TA.AperFunction,ViaPad*
%ADD24C,0.800000*%
G04 #@! TD*
G04 #@! TA.AperFunction,ViaPad*
%ADD25C,0.600000*%
G04 #@! TD*
G04 #@! TA.AperFunction,Conductor*
%ADD26C,0.350000*%
G04 #@! TD*
G04 #@! TA.AperFunction,Conductor*
%ADD27C,0.250000*%
G04 #@! TD*
G04 #@! TA.AperFunction,Conductor*
%ADD28C,0.500000*%
G04 #@! TD*
G04 #@! TA.AperFunction,Conductor*
%ADD29C,1.000000*%
G04 #@! TD*
G04 #@! TA.AperFunction,Conductor*
%ADD30C,1.500000*%
G04 #@! TD*
G04 APERTURE END LIST*
D10*
X46482000Y-64770000D03*
D11*
X47732000Y-64770000D03*
X48982000Y-64770000D03*
X50232000Y-64770000D03*
D10*
X55753000Y-64770000D03*
D11*
X57003000Y-64770000D03*
X58253000Y-64770000D03*
X59503000Y-64770000D03*
D12*
X64770000Y-58674000D03*
D13*
X64770000Y-57424000D03*
X64770000Y-56174000D03*
X64770000Y-54924000D03*
D14*
X31369000Y-54292500D03*
D15*
X31369000Y-53022500D03*
D16*
X25000000Y-48000000D03*
D17*
X22460000Y-48000000D03*
X25000000Y-45460000D03*
X22460000Y-45460000D03*
X25000000Y-42920000D03*
X22460000Y-42920000D03*
X25000000Y-40380000D03*
X22460000Y-40380000D03*
X25000000Y-37840000D03*
X22460000Y-37840000D03*
X25000000Y-35300000D03*
X22460000Y-35300000D03*
X25000000Y-32760000D03*
X22460000Y-32760000D03*
X25000000Y-30220000D03*
X22460000Y-30220000D03*
D16*
X27541220Y-30251400D03*
D17*
X27541220Y-32791400D03*
X27541220Y-35331400D03*
X27541220Y-37871400D03*
X27541220Y-40411400D03*
X27541220Y-42951400D03*
X27541220Y-45491400D03*
X27541220Y-48031400D03*
D10*
X50292000Y-25146000D03*
D11*
X49042000Y-25146000D03*
X47792000Y-25146000D03*
X46542000Y-25146000D03*
D10*
X31623000Y-25146000D03*
D11*
X30373000Y-25146000D03*
D18*
X21600000Y-66000000D03*
X22302944Y-64302944D03*
X22302944Y-67697056D03*
X24000000Y-63600000D03*
D19*
X24000000Y-66000000D03*
D18*
X24000000Y-68400000D03*
X25697056Y-64302944D03*
X25697056Y-67697056D03*
X26400000Y-66000000D03*
X63600000Y-66000000D03*
X64302944Y-64302944D03*
X64302944Y-67697056D03*
X66000000Y-63600000D03*
D19*
X66000000Y-66000000D03*
D18*
X66000000Y-68400000D03*
X67697056Y-64302944D03*
X67697056Y-67697056D03*
X68400000Y-66000000D03*
X63600000Y-24000000D03*
X64302944Y-22302944D03*
X64302944Y-25697056D03*
X66000000Y-21600000D03*
D19*
X66000000Y-24000000D03*
D18*
X66000000Y-26400000D03*
X67697056Y-22302944D03*
X67697056Y-25697056D03*
X68400000Y-24000000D03*
X21600000Y-24000000D03*
X22302944Y-22302944D03*
X22302944Y-25697056D03*
X24000000Y-21600000D03*
D19*
X24000000Y-24000000D03*
D18*
X24000000Y-26400000D03*
X25697056Y-22302944D03*
X25697056Y-25697056D03*
X26400000Y-24000000D03*
D10*
X59436000Y-25146000D03*
D11*
X58186000Y-25146000D03*
X56936000Y-25146000D03*
X55686000Y-25146000D03*
D20*
X25463500Y-55181500D03*
D21*
X25463500Y-58681500D03*
D22*
X68117000Y-38038000D03*
D23*
X64317000Y-37888000D03*
X64317000Y-30438000D03*
D22*
X68117000Y-30288000D03*
D24*
X41579800Y-24536400D03*
X38785800Y-26136600D03*
X41579800Y-25501600D03*
X41579800Y-26517600D03*
X42595800Y-24536400D03*
X42595800Y-25501600D03*
X42595800Y-26517600D03*
X35814000Y-42316400D03*
X50723800Y-33934400D03*
X34112200Y-44119800D03*
X33883600Y-32435800D03*
X44577000Y-35306000D03*
X48158400Y-37744400D03*
X67206000Y-51077000D03*
X42545000Y-69215000D03*
X34036000Y-54356000D03*
X39141400Y-29286200D03*
X55245000Y-45847000D03*
X27668500Y-62720500D03*
X30988000Y-68961000D03*
X37966400Y-68929000D03*
X50038000Y-31216600D03*
X45466000Y-60452000D03*
X52578000Y-57150000D03*
X46228000Y-28854400D03*
X51181000Y-40005000D03*
X39598600Y-44348400D03*
X41910000Y-59182000D03*
X42926000Y-31369000D03*
D25*
X36033900Y-44796900D03*
D24*
X33598800Y-31018800D03*
X44196000Y-48031400D03*
X48133000Y-36449000D03*
X38100000Y-33020000D03*
X37515800Y-21463000D03*
X36499800Y-21463000D03*
X39547800Y-21463000D03*
X54610000Y-29210000D03*
X46990000Y-21488400D03*
X48260000Y-52070000D03*
X66040000Y-40640000D03*
X45720000Y-35306000D03*
X36957000Y-58801000D03*
X43942000Y-69215000D03*
X57150000Y-30480000D03*
X57150000Y-29210000D03*
X68580000Y-57150000D03*
X38811200Y-47117000D03*
X22860000Y-62230000D03*
X48260000Y-68580000D03*
X55880000Y-21488400D03*
X29235400Y-25146000D03*
X48260000Y-21488400D03*
X60960000Y-60960000D03*
X27940000Y-52070000D03*
X52578000Y-59944000D03*
X66264000Y-32863000D03*
X63500000Y-62230000D03*
X45720000Y-54610000D03*
X40005000Y-42082000D03*
X55880000Y-29210000D03*
D25*
X29464000Y-62484000D03*
D24*
X38100000Y-67310000D03*
X40640000Y-21590000D03*
X50800000Y-54610000D03*
X60960000Y-59690000D03*
X67310000Y-40640000D03*
X30480000Y-67310000D03*
X50800000Y-55880000D03*
X46990000Y-52070000D03*
X41910000Y-60452000D03*
X50800000Y-21488400D03*
X59690000Y-43180000D03*
X57150000Y-68580000D03*
X53340000Y-62230000D03*
X43180000Y-21590000D03*
X55880000Y-30480000D03*
X58420000Y-68580000D03*
X62230000Y-40640000D03*
X68580000Y-40640000D03*
X26670000Y-52070000D03*
X57150000Y-21488400D03*
X43840400Y-26517600D03*
X52070000Y-60960000D03*
X59690000Y-30480000D03*
X46990000Y-53340000D03*
X60960000Y-41910000D03*
X44704000Y-44704000D03*
X68580000Y-34290000D03*
X58420000Y-43180000D03*
X33528000Y-45720000D03*
X68580000Y-32893000D03*
X52959000Y-37084000D03*
D25*
X34340800Y-52832000D03*
D24*
X68580000Y-55880000D03*
X44450000Y-54610000D03*
X36957000Y-60071000D03*
X68580000Y-54610000D03*
X29210000Y-52070000D03*
X62230000Y-60960000D03*
X59690000Y-29210000D03*
X58420000Y-30480000D03*
X33020000Y-67310000D03*
X59690000Y-68580000D03*
D25*
X37287200Y-46990000D03*
D24*
X52070000Y-62230000D03*
X49530000Y-68580000D03*
X68580000Y-50927000D03*
X49555400Y-21488400D03*
X53340000Y-60960000D03*
X62230000Y-59690000D03*
X50800000Y-68580000D03*
X36957000Y-57531000D03*
X60960000Y-62230000D03*
X59690000Y-41910000D03*
X68580000Y-35560000D03*
X55880000Y-68580000D03*
X64770000Y-40640000D03*
X58674000Y-48895000D03*
X62230000Y-62230000D03*
X68580000Y-58420000D03*
X58420000Y-21488400D03*
X58420000Y-29210000D03*
D25*
X58039000Y-34493200D03*
D24*
X21590000Y-62230000D03*
X29235400Y-24130000D03*
X29235400Y-23114000D03*
X46990000Y-54610000D03*
X45720000Y-21488400D03*
X31750000Y-67310000D03*
X58420000Y-41910000D03*
X63500000Y-40640000D03*
X55880000Y-31750000D03*
X41910000Y-21590000D03*
X42672000Y-54356000D03*
X57150000Y-31750000D03*
X38531800Y-21463000D03*
X41910000Y-57912000D03*
X48260000Y-53340000D03*
D25*
X37846000Y-45974000D03*
D24*
X37846000Y-31877000D03*
X42926000Y-48920400D03*
X48641000Y-40259000D03*
X46064001Y-52795001D03*
X39497000Y-43053202D03*
X32419000Y-47083000D03*
X32419000Y-48107600D03*
X32419000Y-49115000D03*
X58928000Y-50165000D03*
X51181000Y-50038000D03*
X48133000Y-55245000D03*
X48133000Y-56388000D03*
X62661800Y-53873400D03*
X39624000Y-56261000D03*
X40386000Y-66929000D03*
X46990000Y-49911000D03*
X42037000Y-38481000D03*
X48006000Y-49911000D03*
X44323000Y-41021000D03*
X49022000Y-49911000D03*
X47371000Y-33939000D03*
X38862000Y-55499000D03*
X49276000Y-51562000D03*
X49911000Y-28194000D03*
X51689000Y-29337000D03*
X50292000Y-52451000D03*
X56896000Y-41021000D03*
X43053000Y-35560000D03*
X42291000Y-34798000D03*
X43561000Y-34036000D03*
X37592000Y-55626000D03*
X45339000Y-48031400D03*
D26*
X48133000Y-36449000D02*
X48133000Y-36449000D01*
X36848614Y-41002386D02*
X40216990Y-37634010D01*
X38100000Y-33020000D02*
X41275000Y-33020000D01*
X44196000Y-48031400D02*
X42814830Y-48031400D01*
X38735000Y-32385000D02*
X38100000Y-33020000D01*
X36333899Y-45096899D02*
X36033900Y-44796900D01*
X36033900Y-44372636D02*
X36848614Y-43557922D01*
X36033900Y-44796900D02*
X36033900Y-44372636D01*
X40216990Y-37634010D02*
X46508180Y-37634010D01*
X39906831Y-45123401D02*
X36360401Y-45123401D01*
X46833389Y-39721389D02*
X48387000Y-41275000D01*
X36360401Y-45123401D02*
X36333899Y-45096899D01*
X36848614Y-43557922D02*
X36848614Y-41002386D01*
X46508180Y-37634010D02*
X46833389Y-37959219D01*
X38384800Y-31018800D02*
X38735000Y-31369000D01*
X41529000Y-36449000D02*
X48133000Y-36449000D01*
X48387000Y-41275000D02*
X49149000Y-41275000D01*
X49416001Y-37732001D02*
X49403000Y-37719000D01*
X46833389Y-37959219D02*
X46833389Y-39721389D01*
X38735000Y-31369000D02*
X38735000Y-32385000D01*
X41275000Y-33020000D02*
X42926000Y-31369000D01*
X42814830Y-48031400D02*
X39906831Y-45123401D01*
X49416001Y-41007999D02*
X49416001Y-37732001D01*
X38100000Y-33020000D02*
X41529000Y-36449000D01*
X49403000Y-37719000D02*
X48133000Y-36449000D01*
X33598800Y-31018800D02*
X38384800Y-31018800D01*
X49149000Y-41275000D02*
X49416001Y-41007999D01*
D27*
X63488400Y-21488400D02*
X64302944Y-22302944D01*
X58420000Y-21488400D02*
X63488400Y-21488400D01*
X42926000Y-48920400D02*
X42926000Y-48920400D01*
D26*
X48641000Y-40259000D02*
X48641000Y-40259000D01*
X37846000Y-31877000D02*
X37846000Y-31877000D01*
X36470398Y-40513000D02*
X36470398Y-33168398D01*
X39878000Y-37084000D02*
X46736000Y-37084000D01*
X46736000Y-37084000D02*
X47383399Y-37731399D01*
X47383399Y-37731399D02*
X47383399Y-39001399D01*
X47383399Y-39001399D02*
X48241001Y-39859001D01*
X37846000Y-45974000D02*
X39979600Y-45974000D01*
X37846000Y-45974000D02*
X35560000Y-45974000D01*
X36470398Y-40513000D02*
X36470398Y-40491602D01*
X35038999Y-42688401D02*
X35038999Y-41944399D01*
X36470398Y-33168398D02*
X36470398Y-32744602D01*
X39979600Y-45974000D02*
X42926000Y-48920400D01*
X35560000Y-45974000D02*
X35052000Y-45466000D01*
X35052000Y-45466000D02*
X35052000Y-42701402D01*
X36470398Y-32744602D02*
X37338000Y-31877000D01*
X35052000Y-42701402D02*
X35038999Y-42688401D01*
X35038999Y-41944399D02*
X36470398Y-40513000D01*
X37338000Y-31877000D02*
X37846000Y-31877000D01*
X48241001Y-39859001D02*
X48641000Y-40259000D01*
X36470398Y-40491602D02*
X39878000Y-37084000D01*
D27*
X46064001Y-52795001D02*
X46064001Y-52795001D01*
D26*
X43206179Y-47032010D02*
X40373601Y-44199432D01*
X46114001Y-52179316D02*
X46114001Y-47384001D01*
X40373601Y-44199432D02*
X40373601Y-43929803D01*
X46064001Y-52795001D02*
X46064001Y-52229316D01*
X40373601Y-43929803D02*
X39896999Y-43453201D01*
X39896999Y-43453201D02*
X39497000Y-43053202D01*
X45762010Y-47032010D02*
X43206179Y-47032010D01*
X46114001Y-47384001D02*
X45762010Y-47032010D01*
X46064001Y-52229316D02*
X46114001Y-52179316D01*
D28*
X32419000Y-25942000D02*
X31623000Y-25146000D01*
X32419000Y-47083000D02*
X32419000Y-25942000D01*
D29*
X32419000Y-49115000D02*
X32419000Y-48107600D01*
X32419000Y-48107600D02*
X32419000Y-47083000D01*
D26*
X58928000Y-50165000D02*
X58928000Y-50165000D01*
X51580999Y-50437999D02*
X58655001Y-50437999D01*
X51181000Y-50038000D02*
X51580999Y-50437999D01*
X58655001Y-50437999D02*
X58928000Y-50165000D01*
D27*
X49022000Y-60452000D02*
X54737000Y-66167000D01*
X49022000Y-55568315D02*
X49022000Y-60452000D01*
X48133000Y-55245000D02*
X48698685Y-55245000D01*
X57756000Y-66167000D02*
X58253000Y-65670000D01*
X48698685Y-55245000D02*
X49022000Y-55568315D01*
X58253000Y-65670000D02*
X58253000Y-64770000D01*
X54737000Y-66167000D02*
X57756000Y-66167000D01*
X59503000Y-65973000D02*
X59503000Y-64770000D01*
X48133000Y-60325000D02*
X54610000Y-66802000D01*
X54610000Y-66802000D02*
X58674000Y-66802000D01*
X58674000Y-66802000D02*
X59503000Y-65973000D01*
X48133000Y-56388000D02*
X48133000Y-60325000D01*
X64396715Y-56174000D02*
X64770000Y-56174000D01*
X62661800Y-54439085D02*
X64396715Y-56174000D01*
X62661800Y-53873400D02*
X62661800Y-54439085D01*
X40386000Y-66929000D02*
X40386000Y-66929000D01*
X39624000Y-66167000D02*
X40386000Y-66929000D01*
X39624000Y-56261000D02*
X39624000Y-66167000D01*
D26*
X46071520Y-46482000D02*
X43434000Y-46482000D01*
X42037000Y-40889998D02*
X42037000Y-38481000D01*
X46990000Y-49911000D02*
X46990000Y-47400480D01*
X42037000Y-45085000D02*
X42037000Y-40889998D01*
X46990000Y-47400480D02*
X46071520Y-46482000D01*
X43434000Y-46482000D02*
X42037000Y-45085000D01*
X43923001Y-41420999D02*
X44323000Y-41021000D01*
X43923001Y-45320001D02*
X43923001Y-41420999D01*
X48006000Y-47638650D02*
X46299341Y-45931990D01*
X48006000Y-49911000D02*
X48006000Y-47638650D01*
X44534990Y-45931990D02*
X43923001Y-45320001D01*
X46299341Y-45931990D02*
X44534990Y-45931990D01*
D30*
X25000000Y-40380000D02*
X25000000Y-37840000D01*
X25000000Y-42920000D02*
X25000000Y-40380000D01*
X25000000Y-54718000D02*
X25000000Y-48000000D01*
X25000000Y-37840000D02*
X25000000Y-35300000D01*
X25000000Y-32760000D02*
X25000000Y-30220000D01*
X25000000Y-45460000D02*
X25000000Y-42920000D01*
X25463500Y-55181500D02*
X25000000Y-54718000D01*
X25000000Y-35300000D02*
X25000000Y-32760000D01*
X25000000Y-48000000D02*
X25000000Y-45460000D01*
D26*
X49022000Y-42179830D02*
X49966011Y-41235820D01*
X49022000Y-49911000D02*
X49022000Y-42179830D01*
X49966011Y-36534011D02*
X47770999Y-34338999D01*
X47770999Y-34338999D02*
X47371000Y-33939000D01*
X49966011Y-41235820D02*
X49966011Y-36534011D01*
D27*
X47244000Y-67945000D02*
X48982000Y-66207000D01*
X38862000Y-66802000D02*
X40005000Y-67945000D01*
X38862000Y-55499000D02*
X38862000Y-66802000D01*
X48982000Y-66207000D02*
X48982000Y-64770000D01*
X40005000Y-67945000D02*
X47244000Y-67945000D01*
D26*
X49276000Y-50795998D02*
X49797001Y-50274997D01*
X51956001Y-41669001D02*
X51956001Y-31255001D01*
X49911000Y-29210000D02*
X49911000Y-28194000D01*
X49797001Y-50274997D02*
X49797001Y-43828001D01*
X49797001Y-43828001D02*
X51956001Y-41669001D01*
X49276000Y-51562000D02*
X49276000Y-50795998D01*
X51956001Y-31255001D02*
X49911000Y-29210000D01*
X51689000Y-29337000D02*
X51689000Y-29337000D01*
X50405999Y-50443830D02*
X50405999Y-43996833D01*
X50405999Y-43996833D02*
X53848000Y-40554832D01*
X50292000Y-50557829D02*
X50405999Y-50443830D01*
X53848000Y-40554832D02*
X53848000Y-31496000D01*
X53848000Y-31496000D02*
X51689000Y-29337000D01*
X50292000Y-52451000D02*
X50292000Y-50557829D01*
X50292000Y-26416000D02*
X50292000Y-25146000D01*
X54610000Y-38735000D02*
X54610000Y-30734000D01*
X54610000Y-30734000D02*
X50292000Y-26416000D01*
X56896000Y-41021000D02*
X54610000Y-38735000D01*
X43053000Y-35560000D02*
X43175998Y-35560000D01*
X49042000Y-29693998D02*
X49042000Y-26146000D01*
X49042000Y-26146000D02*
X49042000Y-25146000D01*
X43175998Y-35560000D02*
X49042000Y-29693998D01*
X42291000Y-34798000D02*
X42690999Y-34398001D01*
X56115990Y-23325990D02*
X56936000Y-24146000D01*
X42690999Y-32751003D02*
X44615401Y-30826601D01*
X42690999Y-34398001D02*
X42690999Y-32751003D01*
X45492179Y-23325990D02*
X56115990Y-23325990D01*
X56936000Y-24146000D02*
X56936000Y-25146000D01*
X44615401Y-24202768D02*
X45492179Y-23325990D01*
X44615401Y-30826601D02*
X44615401Y-24202768D01*
X43561000Y-33470315D02*
X45165411Y-31865904D01*
X45165411Y-24430589D02*
X45720000Y-23876000D01*
X43561000Y-34036000D02*
X43561000Y-33470315D01*
X55686000Y-24146000D02*
X55686000Y-25146000D01*
X55416000Y-23876000D02*
X55686000Y-24146000D01*
X45165411Y-31865904D02*
X45165411Y-24430589D01*
X45720000Y-23876000D02*
X55416000Y-23876000D01*
D27*
X45339000Y-48031400D02*
X45339000Y-48031400D01*
X37592000Y-55626000D02*
X40970200Y-52247800D01*
X45339000Y-48869600D02*
X45339000Y-48031400D01*
X41960800Y-52247800D02*
X45339000Y-48869600D01*
X40970200Y-52247800D02*
X41960800Y-52247800D01*
G04 #@! TA.AperFunction,Conductor*
G36*
X22714000Y-47569297D02*
G01*
X22652993Y-47534075D01*
X22525826Y-47500000D01*
X22394174Y-47500000D01*
X22267007Y-47534075D01*
X22206000Y-47569297D01*
X22206000Y-45890702D01*
X22267007Y-45925925D01*
X22394174Y-45960000D01*
X22525826Y-45960000D01*
X22652993Y-45925925D01*
X22714000Y-45890702D01*
X22714000Y-47569297D01*
G37*
G04 #@! TD.AperFunction*
G04 #@! TA.AperFunction,Conductor*
G36*
X22714000Y-45029297D02*
G01*
X22652993Y-44994075D01*
X22525826Y-44960000D01*
X22394174Y-44960000D01*
X22267007Y-44994075D01*
X22206000Y-45029297D01*
X22206000Y-43350702D01*
X22267007Y-43385925D01*
X22394174Y-43420000D01*
X22525826Y-43420000D01*
X22652993Y-43385925D01*
X22714000Y-43350702D01*
X22714000Y-45029297D01*
G37*
G04 #@! TD.AperFunction*
G04 #@! TA.AperFunction,Conductor*
G36*
X22714000Y-42489297D02*
G01*
X22652993Y-42454075D01*
X22525826Y-42420000D01*
X22394174Y-42420000D01*
X22267007Y-42454075D01*
X22206000Y-42489297D01*
X22206000Y-40810702D01*
X22267007Y-40845925D01*
X22394174Y-40880000D01*
X22525826Y-40880000D01*
X22652993Y-40845925D01*
X22714000Y-40810702D01*
X22714000Y-42489297D01*
G37*
G04 #@! TD.AperFunction*
G04 #@! TA.AperFunction,Conductor*
G36*
X22714000Y-39949297D02*
G01*
X22652993Y-39914075D01*
X22525826Y-39880000D01*
X22394174Y-39880000D01*
X22267007Y-39914075D01*
X22206000Y-39949297D01*
X22206000Y-38270702D01*
X22267007Y-38305925D01*
X22394174Y-38340000D01*
X22525826Y-38340000D01*
X22652993Y-38305925D01*
X22714000Y-38270702D01*
X22714000Y-39949297D01*
G37*
G04 #@! TD.AperFunction*
G04 #@! TA.AperFunction,Conductor*
G36*
X22714000Y-37409297D02*
G01*
X22652993Y-37374075D01*
X22525826Y-37340000D01*
X22394174Y-37340000D01*
X22267007Y-37374075D01*
X22206000Y-37409297D01*
X22206000Y-35730702D01*
X22267007Y-35765925D01*
X22394174Y-35800000D01*
X22525826Y-35800000D01*
X22652993Y-35765925D01*
X22714000Y-35730702D01*
X22714000Y-37409297D01*
G37*
G04 #@! TD.AperFunction*
G04 #@! TA.AperFunction,Conductor*
G36*
X22714000Y-34869297D02*
G01*
X22652993Y-34834075D01*
X22525826Y-34800000D01*
X22394174Y-34800000D01*
X22267007Y-34834075D01*
X22206000Y-34869297D01*
X22206000Y-33190702D01*
X22267007Y-33225925D01*
X22394174Y-33260000D01*
X22525826Y-33260000D01*
X22652993Y-33225925D01*
X22714000Y-33190702D01*
X22714000Y-34869297D01*
G37*
G04 #@! TD.AperFunction*
G04 #@! TA.AperFunction,Conductor*
G36*
X22714000Y-32329297D02*
G01*
X22652993Y-32294075D01*
X22525826Y-32260000D01*
X22394174Y-32260000D01*
X22267007Y-32294075D01*
X22206000Y-32329297D01*
X22206000Y-30650702D01*
X22267007Y-30685925D01*
X22394174Y-30720000D01*
X22525826Y-30720000D01*
X22652993Y-30685925D01*
X22714000Y-30650702D01*
X22714000Y-32329297D01*
G37*
G04 #@! TD.AperFunction*
G04 #@! TA.AperFunction,Conductor*
G36*
X64183101Y-20501969D02*
G01*
X64188208Y-20500906D01*
X64216818Y-20511869D01*
X64246219Y-20520502D01*
X64249634Y-20524444D01*
X64254504Y-20526310D01*
X64272643Y-20550998D01*
X64292712Y-20574158D01*
X64293454Y-20579320D01*
X64296542Y-20583523D01*
X64298455Y-20614101D01*
X64302816Y-20644432D01*
X64300649Y-20649176D01*
X64300975Y-20654381D01*
X64286048Y-20681145D01*
X64273322Y-20709012D01*
X64268248Y-20713063D01*
X64266395Y-20716387D01*
X64237494Y-20737622D01*
X64091405Y-20815708D01*
X63788481Y-21018115D01*
X63562655Y-21203445D01*
X63562655Y-21203446D01*
X65062577Y-22703368D01*
X64957670Y-22779588D01*
X64779588Y-22957670D01*
X64703368Y-23062577D01*
X63894007Y-22253216D01*
X64052944Y-22253216D01*
X64052944Y-22352672D01*
X64091004Y-22444558D01*
X64161330Y-22514884D01*
X64253216Y-22552944D01*
X64352672Y-22552944D01*
X64444558Y-22514884D01*
X64514884Y-22444558D01*
X64552944Y-22352672D01*
X64552944Y-22253216D01*
X64514884Y-22161330D01*
X64444558Y-22091004D01*
X64352672Y-22052944D01*
X64253216Y-22052944D01*
X64161330Y-22091004D01*
X64091004Y-22161330D01*
X64052944Y-22253216D01*
X63894007Y-22253216D01*
X63203446Y-21562655D01*
X63203445Y-21562655D01*
X63018115Y-21788481D01*
X62815708Y-22091405D01*
X62643965Y-22412713D01*
X62504545Y-22749301D01*
X62504544Y-22749305D01*
X62398782Y-23097956D01*
X62327711Y-23455261D01*
X62327708Y-23455281D01*
X62292000Y-23817831D01*
X62292000Y-24182168D01*
X62327708Y-24544718D01*
X62327711Y-24544738D01*
X62398782Y-24902043D01*
X62504544Y-25250694D01*
X62504545Y-25250698D01*
X62643965Y-25587286D01*
X62815708Y-25908594D01*
X63018110Y-26211510D01*
X63018121Y-26211525D01*
X63203445Y-26437342D01*
X63395508Y-26245280D01*
X63457821Y-26211255D01*
X63528636Y-26216319D01*
X63585472Y-26258866D01*
X63589368Y-26264372D01*
X63593973Y-26271263D01*
X63597266Y-26276191D01*
X63723809Y-26402734D01*
X63735624Y-26410629D01*
X63781152Y-26465104D01*
X63790001Y-26535547D01*
X63759361Y-26599592D01*
X63754719Y-26604489D01*
X63562655Y-26796552D01*
X63788485Y-26981886D01*
X63788491Y-26981891D01*
X64091405Y-27184291D01*
X64412713Y-27356034D01*
X64749301Y-27495454D01*
X64749305Y-27495455D01*
X65097956Y-27601217D01*
X65455261Y-27672288D01*
X65455281Y-27672291D01*
X65817831Y-27707999D01*
X65817847Y-27708000D01*
X66182153Y-27708000D01*
X66182168Y-27707999D01*
X66544718Y-27672291D01*
X66544738Y-27672288D01*
X66902043Y-27601217D01*
X67250694Y-27495455D01*
X67250698Y-27495454D01*
X67587286Y-27356034D01*
X67908594Y-27184291D01*
X68211508Y-26981891D01*
X68211514Y-26981886D01*
X68437343Y-26796552D01*
X68245280Y-26604489D01*
X68211254Y-26542177D01*
X68216319Y-26471362D01*
X68258866Y-26414526D01*
X68264330Y-26410658D01*
X68276191Y-26402734D01*
X68402734Y-26276191D01*
X68410630Y-26264373D01*
X68465101Y-26218847D01*
X68535544Y-26209997D01*
X68599589Y-26240635D01*
X68604489Y-26245280D01*
X68796552Y-26437343D01*
X68981886Y-26211514D01*
X68981891Y-26211508D01*
X69184291Y-25908594D01*
X69262378Y-25762505D01*
X69312130Y-25711857D01*
X69381367Y-25696147D01*
X69448106Y-25720363D01*
X69491158Y-25776816D01*
X69499500Y-25821901D01*
X69499500Y-29407627D01*
X69479498Y-29475748D01*
X69425842Y-29522241D01*
X69355568Y-29532345D01*
X69290988Y-29502851D01*
X69277483Y-29488138D01*
X69276173Y-29488035D01*
X68682807Y-30081401D01*
X68676111Y-30056409D01*
X68597119Y-29919592D01*
X68485408Y-29807881D01*
X68348591Y-29728889D01*
X68323596Y-29722191D01*
X68916963Y-29128824D01*
X68854952Y-29083770D01*
X68657485Y-28983156D01*
X68657483Y-28983155D01*
X68446710Y-28914670D01*
X68227809Y-28880000D01*
X68006191Y-28880000D01*
X67787289Y-28914670D01*
X67576516Y-28983155D01*
X67576514Y-28983156D01*
X67379043Y-29083772D01*
X67317035Y-29128823D01*
X67317035Y-29128825D01*
X67910402Y-29722192D01*
X67885409Y-29728889D01*
X67748592Y-29807881D01*
X67636881Y-29919592D01*
X67557889Y-30056409D01*
X67551192Y-30081402D01*
X66957825Y-29488035D01*
X66957823Y-29488035D01*
X66912772Y-29550043D01*
X66812156Y-29747514D01*
X66812155Y-29747516D01*
X66743670Y-29958289D01*
X66709000Y-30177191D01*
X66709000Y-30398808D01*
X66743670Y-30617710D01*
X66812155Y-30828483D01*
X66812156Y-30828485D01*
X66912770Y-31025952D01*
X66957824Y-31087963D01*
X67551191Y-30494596D01*
X67557889Y-30519591D01*
X67636881Y-30656408D01*
X67748592Y-30768119D01*
X67885409Y-30847111D01*
X67910401Y-30853807D01*
X67317035Y-31447173D01*
X67317035Y-31447174D01*
X67379047Y-31492229D01*
X67576514Y-31592843D01*
X67576516Y-31592844D01*
X67787289Y-31661329D01*
X68006191Y-31696000D01*
X68227809Y-31696000D01*
X68446710Y-31661329D01*
X68657483Y-31592844D01*
X68657485Y-31592843D01*
X68854954Y-31492228D01*
X68854956Y-31492227D01*
X68916963Y-31447175D01*
X68916964Y-31447174D01*
X68323597Y-30853807D01*
X68348591Y-30847111D01*
X68485408Y-30768119D01*
X68597119Y-30656408D01*
X68676111Y-30519591D01*
X68682808Y-30494597D01*
X69276174Y-31087964D01*
X69280203Y-31087646D01*
X69327787Y-31050956D01*
X69398523Y-31044881D01*
X69461315Y-31078013D01*
X69496226Y-31139833D01*
X69499500Y-31168371D01*
X69499500Y-37157627D01*
X69479498Y-37225748D01*
X69425842Y-37272241D01*
X69355568Y-37282345D01*
X69290988Y-37252851D01*
X69277483Y-37238138D01*
X69276173Y-37238035D01*
X68682807Y-37831401D01*
X68676111Y-37806409D01*
X68597119Y-37669592D01*
X68485408Y-37557881D01*
X68348591Y-37478889D01*
X68323596Y-37472191D01*
X68916963Y-36878824D01*
X68854952Y-36833770D01*
X68657485Y-36733156D01*
X68657483Y-36733155D01*
X68446710Y-36664670D01*
X68227809Y-36630000D01*
X68006191Y-36630000D01*
X67787289Y-36664670D01*
X67576516Y-36733155D01*
X67576514Y-36733156D01*
X67379043Y-36833772D01*
X67317035Y-36878823D01*
X67317035Y-36878825D01*
X67910402Y-37472192D01*
X67885409Y-37478889D01*
X67748592Y-37557881D01*
X67636881Y-37669592D01*
X67557889Y-37806409D01*
X67551192Y-37831402D01*
X66957825Y-37238035D01*
X66957823Y-37238035D01*
X66912772Y-37300043D01*
X66812156Y-37497514D01*
X66812155Y-37497516D01*
X66743670Y-37708289D01*
X66709000Y-37927191D01*
X66709000Y-38148808D01*
X66743670Y-38367710D01*
X66812155Y-38578483D01*
X66812156Y-38578485D01*
X66912770Y-38775952D01*
X66957824Y-38837963D01*
X67551191Y-38244596D01*
X67557889Y-38269591D01*
X67636881Y-38406408D01*
X67748592Y-38518119D01*
X67885409Y-38597111D01*
X67910401Y-38603807D01*
X67317035Y-39197173D01*
X67317035Y-39197174D01*
X67379047Y-39242229D01*
X67576514Y-39342843D01*
X67576516Y-39342844D01*
X67787289Y-39411329D01*
X68006191Y-39446000D01*
X68227809Y-39446000D01*
X68446710Y-39411329D01*
X68657483Y-39342844D01*
X68657485Y-39342843D01*
X68854954Y-39242228D01*
X68854956Y-39242227D01*
X68916963Y-39197175D01*
X68916964Y-39197174D01*
X68323597Y-38603807D01*
X68348591Y-38597111D01*
X68485408Y-38518119D01*
X68597119Y-38406408D01*
X68676111Y-38269591D01*
X68682808Y-38244597D01*
X69276174Y-38837964D01*
X69280203Y-38837646D01*
X69327787Y-38800956D01*
X69398523Y-38794881D01*
X69461315Y-38828013D01*
X69496226Y-38889833D01*
X69499500Y-38918371D01*
X69499500Y-64178098D01*
X69479498Y-64246219D01*
X69425842Y-64292712D01*
X69355568Y-64302816D01*
X69290988Y-64273322D01*
X69262378Y-64237494D01*
X69184291Y-64091405D01*
X68981891Y-63788491D01*
X68981886Y-63788485D01*
X68796552Y-63562655D01*
X68604489Y-63754719D01*
X68542177Y-63788744D01*
X68471361Y-63783679D01*
X68414526Y-63741132D01*
X68410637Y-63735636D01*
X68402734Y-63723809D01*
X68276191Y-63597266D01*
X68276184Y-63597261D01*
X68264372Y-63589368D01*
X68218845Y-63534891D01*
X68209998Y-63464447D01*
X68240640Y-63400404D01*
X68245280Y-63395508D01*
X68437343Y-63203445D01*
X68211525Y-63018121D01*
X68211510Y-63018110D01*
X67908594Y-62815708D01*
X67587286Y-62643965D01*
X67250698Y-62504545D01*
X67250694Y-62504544D01*
X66902043Y-62398782D01*
X66544738Y-62327711D01*
X66544718Y-62327708D01*
X66182168Y-62292000D01*
X65817831Y-62292000D01*
X65455281Y-62327708D01*
X65455261Y-62327711D01*
X65097956Y-62398782D01*
X64749305Y-62504544D01*
X64749301Y-62504545D01*
X64412713Y-62643965D01*
X64091405Y-62815708D01*
X63788481Y-63018115D01*
X63562655Y-63203445D01*
X63562655Y-63203446D01*
X65062577Y-64703368D01*
X64957670Y-64779588D01*
X64779588Y-64957670D01*
X64703368Y-65062577D01*
X63894007Y-64253216D01*
X64052944Y-64253216D01*
X64052944Y-64352672D01*
X64091004Y-64444558D01*
X64161330Y-64514884D01*
X64253216Y-64552944D01*
X64352672Y-64552944D01*
X64444558Y-64514884D01*
X64514884Y-64444558D01*
X64552944Y-64352672D01*
X64552944Y-64253216D01*
X64514884Y-64161330D01*
X64444558Y-64091004D01*
X64352672Y-64052944D01*
X64253216Y-64052944D01*
X64161330Y-64091004D01*
X64091004Y-64161330D01*
X64052944Y-64253216D01*
X63894007Y-64253216D01*
X63203446Y-63562655D01*
X63203445Y-63562655D01*
X63018115Y-63788481D01*
X62815708Y-64091405D01*
X62643965Y-64412713D01*
X62504545Y-64749301D01*
X62504544Y-64749305D01*
X62398782Y-65097956D01*
X62327711Y-65455261D01*
X62327708Y-65455281D01*
X62292000Y-65817831D01*
X62292000Y-66182168D01*
X62327708Y-66544718D01*
X62327711Y-66544738D01*
X62398782Y-66902043D01*
X62504544Y-67250694D01*
X62504545Y-67250698D01*
X62643965Y-67587286D01*
X62815708Y-67908594D01*
X63018110Y-68211510D01*
X63018121Y-68211525D01*
X63203445Y-68437342D01*
X63395508Y-68245280D01*
X63457821Y-68211255D01*
X63528636Y-68216319D01*
X63585472Y-68258866D01*
X63589368Y-68264372D01*
X63597263Y-68276187D01*
X63597266Y-68276191D01*
X63723809Y-68402734D01*
X63735624Y-68410629D01*
X63781152Y-68465104D01*
X63790001Y-68535547D01*
X63759361Y-68599592D01*
X63754719Y-68604489D01*
X63562655Y-68796552D01*
X63788485Y-68981886D01*
X63788491Y-68981891D01*
X64091405Y-69184291D01*
X64237494Y-69262378D01*
X64288142Y-69312130D01*
X64303852Y-69381367D01*
X64279636Y-69448106D01*
X64223182Y-69491158D01*
X64178098Y-69499500D01*
X43568240Y-69499500D01*
X43500119Y-69479498D01*
X43453626Y-69425842D01*
X43443522Y-69355568D01*
X43444661Y-69348919D01*
X43453499Y-69304484D01*
X43453500Y-69304477D01*
X43453500Y-69125522D01*
X43453499Y-69125518D01*
X43445695Y-69086283D01*
X43418587Y-68950000D01*
X43350102Y-68784664D01*
X43343310Y-68774500D01*
X43322097Y-68706748D01*
X43340880Y-68638281D01*
X43393698Y-68590839D01*
X43448077Y-68578500D01*
X47306393Y-68578500D01*
X47306394Y-68578500D01*
X47428785Y-68554155D01*
X47544075Y-68506400D01*
X47647833Y-68437071D01*
X49474071Y-66610833D01*
X49543400Y-66507075D01*
X49591155Y-66391785D01*
X49615500Y-66269394D01*
X49615500Y-66144606D01*
X49615500Y-65935813D01*
X49635502Y-65867692D01*
X49689158Y-65821199D01*
X49759432Y-65811095D01*
X49795823Y-65823028D01*
X49795946Y-65822733D01*
X49799841Y-65824346D01*
X49800904Y-65824695D01*
X49801659Y-65825099D01*
X49801664Y-65825102D01*
X49967000Y-65893587D01*
X50142521Y-65928500D01*
X50142522Y-65928500D01*
X50321478Y-65928500D01*
X50321479Y-65928500D01*
X50497000Y-65893587D01*
X50662336Y-65825102D01*
X50811135Y-65725678D01*
X50937678Y-65599135D01*
X51037102Y-65450336D01*
X51105587Y-65285000D01*
X51140500Y-65109479D01*
X51140500Y-64532594D01*
X51160502Y-64464473D01*
X51214158Y-64417980D01*
X51284432Y-64407876D01*
X51349012Y-64437370D01*
X51355595Y-64443499D01*
X54117929Y-67205833D01*
X54206167Y-67294071D01*
X54309925Y-67363400D01*
X54425215Y-67411155D01*
X54547606Y-67435500D01*
X54547607Y-67435500D01*
X58736393Y-67435500D01*
X58736394Y-67435500D01*
X58858785Y-67411155D01*
X58974075Y-67363400D01*
X59077833Y-67294071D01*
X59995071Y-66376833D01*
X60064400Y-66273075D01*
X60112155Y-66157785D01*
X60136500Y-66035394D01*
X60136500Y-65910606D01*
X60136500Y-65723503D01*
X60156502Y-65655382D01*
X60173405Y-65634408D01*
X60182481Y-65625332D01*
X60208678Y-65599135D01*
X60308102Y-65450336D01*
X60376587Y-65285000D01*
X60411500Y-65109479D01*
X60411500Y-64430521D01*
X60376587Y-64255000D01*
X60308102Y-64089664D01*
X60208678Y-63940865D01*
X60082135Y-63814322D01*
X59933336Y-63714898D01*
X59816429Y-63666473D01*
X59768003Y-63646414D01*
X59768001Y-63646413D01*
X59768000Y-63646413D01*
X59679645Y-63628838D01*
X59592481Y-63611500D01*
X59592479Y-63611500D01*
X59413521Y-63611500D01*
X59413518Y-63611500D01*
X59282771Y-63637507D01*
X59238000Y-63646413D01*
X59237999Y-63646413D01*
X59237996Y-63646414D01*
X59072662Y-63714899D01*
X58948002Y-63798194D01*
X58880249Y-63819409D01*
X58811782Y-63800626D01*
X58807998Y-63798194D01*
X58745954Y-63756738D01*
X58683336Y-63714898D01*
X58566429Y-63666473D01*
X58518003Y-63646414D01*
X58518001Y-63646413D01*
X58518000Y-63646413D01*
X58429645Y-63628838D01*
X58342481Y-63611500D01*
X58342479Y-63611500D01*
X58163521Y-63611500D01*
X58163518Y-63611500D01*
X58032771Y-63637507D01*
X57988000Y-63646413D01*
X57987999Y-63646413D01*
X57987996Y-63646414D01*
X57822663Y-63714898D01*
X57697550Y-63798496D01*
X57629797Y-63819710D01*
X57561331Y-63800927D01*
X57557547Y-63798495D01*
X57433098Y-63715341D01*
X57267857Y-63646895D01*
X57267854Y-63646894D01*
X57257000Y-63644735D01*
X57257000Y-64644000D01*
X57242235Y-64694283D01*
X57214940Y-64628386D01*
X57144614Y-64558060D01*
X57052728Y-64520000D01*
X56953272Y-64520000D01*
X56861386Y-64558060D01*
X56791060Y-64628386D01*
X56762095Y-64698314D01*
X56760386Y-64696342D01*
X56749000Y-64644000D01*
X56749000Y-63644735D01*
X56738145Y-63646894D01*
X56738142Y-63646895D01*
X56567182Y-63717710D01*
X56566175Y-63715281D01*
X56507228Y-63726786D01*
X56443402Y-63702197D01*
X56399204Y-63669111D01*
X56399202Y-63669110D01*
X56399201Y-63669109D01*
X56262204Y-63618011D01*
X56262196Y-63618009D01*
X56201649Y-63611500D01*
X56201638Y-63611500D01*
X55304362Y-63611500D01*
X55304350Y-63611500D01*
X55243803Y-63618009D01*
X55243795Y-63618011D01*
X55106797Y-63669110D01*
X55106792Y-63669112D01*
X54989738Y-63756738D01*
X54902112Y-63873792D01*
X54902110Y-63873797D01*
X54851011Y-64010795D01*
X54851009Y-64010803D01*
X54844500Y-64071350D01*
X54844500Y-65074405D01*
X54824498Y-65142526D01*
X54770842Y-65189019D01*
X54700568Y-65199123D01*
X54635988Y-65169629D01*
X54629405Y-65163500D01*
X49692405Y-60226500D01*
X49658379Y-60164188D01*
X49655500Y-60137405D01*
X49655500Y-58225350D01*
X63611500Y-58225350D01*
X63611500Y-59122649D01*
X63618009Y-59183196D01*
X63618011Y-59183204D01*
X63669110Y-59320202D01*
X63669112Y-59320207D01*
X63756738Y-59437261D01*
X63873792Y-59524887D01*
X63873794Y-59524888D01*
X63873796Y-59524889D01*
X63923694Y-59543500D01*
X64010795Y-59575988D01*
X64010803Y-59575990D01*
X64071350Y-59582499D01*
X64071355Y-59582499D01*
X64071362Y-59582500D01*
X64071368Y-59582500D01*
X65468632Y-59582500D01*
X65468638Y-59582500D01*
X65468645Y-59582499D01*
X65468649Y-59582499D01*
X65529196Y-59575990D01*
X65529199Y-59575989D01*
X65529201Y-59575989D01*
X65666204Y-59524889D01*
X65783261Y-59437261D01*
X65870889Y-59320204D01*
X65921989Y-59183201D01*
X65924310Y-59161619D01*
X65928499Y-59122649D01*
X65928500Y-59122632D01*
X65928500Y-58225367D01*
X65928499Y-58225350D01*
X65921990Y-58164803D01*
X65921988Y-58164795D01*
X65870890Y-58027799D01*
X65870889Y-58027797D01*
X65870889Y-58027796D01*
X65837800Y-57983595D01*
X65812991Y-57917078D01*
X65825185Y-57861017D01*
X65822290Y-57859818D01*
X65893104Y-57688857D01*
X65893105Y-57688854D01*
X65895265Y-57678000D01*
X63644735Y-57678000D01*
X63646894Y-57688854D01*
X63646895Y-57688857D01*
X63717710Y-57859818D01*
X63714935Y-57860967D01*
X63726953Y-57917813D01*
X63702197Y-57983597D01*
X63669113Y-58027792D01*
X63669110Y-58027797D01*
X63618011Y-58164795D01*
X63618009Y-58164803D01*
X63611500Y-58225350D01*
X49655500Y-58225350D01*
X49655500Y-57060518D01*
X51669500Y-57060518D01*
X51669500Y-57239481D01*
X51683006Y-57307379D01*
X51704413Y-57415000D01*
X51772898Y-57580336D01*
X51872322Y-57729135D01*
X51998865Y-57855678D01*
X52147664Y-57955102D01*
X52313000Y-58023587D01*
X52488521Y-58058500D01*
X52488522Y-58058500D01*
X52667478Y-58058500D01*
X52667479Y-58058500D01*
X52843000Y-58023587D01*
X53008336Y-57955102D01*
X53157135Y-57855678D01*
X53283678Y-57729135D01*
X53383102Y-57580336D01*
X53451587Y-57415000D01*
X53459688Y-57374272D01*
X64520000Y-57374272D01*
X64520000Y-57473728D01*
X64558060Y-57565614D01*
X64628386Y-57635940D01*
X64720272Y-57674000D01*
X64819728Y-57674000D01*
X64911614Y-57635940D01*
X64981940Y-57565614D01*
X65020000Y-57473728D01*
X65020000Y-57374272D01*
X64981940Y-57282386D01*
X64911614Y-57212060D01*
X64819728Y-57174000D01*
X64720272Y-57174000D01*
X64628386Y-57212060D01*
X64558060Y-57282386D01*
X64520000Y-57374272D01*
X53459688Y-57374272D01*
X53486500Y-57239479D01*
X53486500Y-57060521D01*
X53451587Y-56885000D01*
X53383102Y-56719664D01*
X53283678Y-56570865D01*
X53157135Y-56444322D01*
X53008336Y-56344898D01*
X52875693Y-56289955D01*
X52843003Y-56276414D01*
X52843001Y-56276413D01*
X52843000Y-56276413D01*
X52754645Y-56258838D01*
X52667481Y-56241500D01*
X52667479Y-56241500D01*
X52488521Y-56241500D01*
X52488518Y-56241500D01*
X52380799Y-56262927D01*
X52313000Y-56276413D01*
X52312999Y-56276413D01*
X52312996Y-56276414D01*
X52147662Y-56344899D01*
X51998869Y-56444319D01*
X51998862Y-56444324D01*
X51872324Y-56570862D01*
X51872319Y-56570869D01*
X51772899Y-56719662D01*
X51704414Y-56884996D01*
X51704413Y-56884999D01*
X51704413Y-56885000D01*
X51702149Y-56896382D01*
X51669500Y-57060518D01*
X49655500Y-57060518D01*
X49655500Y-55505922D01*
X49655499Y-55505918D01*
X49631155Y-55383530D01*
X49583400Y-55268240D01*
X49514071Y-55164482D01*
X49425833Y-55076244D01*
X49102518Y-54752929D01*
X48998760Y-54683600D01*
X48903037Y-54643950D01*
X48883473Y-54635846D01*
X48883471Y-54635845D01*
X48883470Y-54635845D01*
X48827566Y-54624725D01*
X48764657Y-54591816D01*
X48763054Y-54590241D01*
X48712137Y-54539324D01*
X48712135Y-54539322D01*
X48563336Y-54439898D01*
X48446429Y-54391473D01*
X48398003Y-54371414D01*
X48398001Y-54371413D01*
X48398000Y-54371413D01*
X48309645Y-54353838D01*
X48222481Y-54336500D01*
X48222479Y-54336500D01*
X48043521Y-54336500D01*
X48043518Y-54336500D01*
X47912771Y-54362507D01*
X47868000Y-54371413D01*
X47867999Y-54371413D01*
X47867996Y-54371414D01*
X47736902Y-54425716D01*
X47732545Y-54427521D01*
X47702662Y-54439899D01*
X47553869Y-54539319D01*
X47553862Y-54539324D01*
X47427324Y-54665862D01*
X47427319Y-54665869D01*
X47369147Y-54752931D01*
X47327898Y-54814664D01*
X47316935Y-54841132D01*
X47259414Y-54979996D01*
X47224500Y-55155518D01*
X47224500Y-55334481D01*
X47229775Y-55361000D01*
X47258047Y-55503135D01*
X47259414Y-55510003D01*
X47327898Y-55675336D01*
X47375447Y-55746499D01*
X47396661Y-55814252D01*
X47377877Y-55882719D01*
X47375447Y-55886501D01*
X47327898Y-55957663D01*
X47259414Y-56122996D01*
X47224500Y-56298518D01*
X47224500Y-56477481D01*
X47234151Y-56526000D01*
X47259413Y-56653000D01*
X47327898Y-56818336D01*
X47427322Y-56967135D01*
X47427324Y-56967137D01*
X47462595Y-57002408D01*
X47496621Y-57064720D01*
X47499500Y-57091503D01*
X47499500Y-60387396D01*
X47499919Y-60389500D01*
X47523845Y-60509785D01*
X47571600Y-60625075D01*
X47640929Y-60728833D01*
X47640931Y-60728835D01*
X50308501Y-63396405D01*
X50342527Y-63458717D01*
X50337462Y-63529532D01*
X50294915Y-63586368D01*
X50228395Y-63611179D01*
X50219406Y-63611500D01*
X50142518Y-63611500D01*
X50011771Y-63637507D01*
X49967000Y-63646413D01*
X49966999Y-63646413D01*
X49966996Y-63646414D01*
X49801662Y-63714899D01*
X49677002Y-63798194D01*
X49609249Y-63819409D01*
X49540782Y-63800626D01*
X49536998Y-63798194D01*
X49474954Y-63756738D01*
X49412336Y-63714898D01*
X49295429Y-63666473D01*
X49247003Y-63646414D01*
X49247001Y-63646413D01*
X49247000Y-63646413D01*
X49158645Y-63628838D01*
X49071481Y-63611500D01*
X49071479Y-63611500D01*
X48892521Y-63611500D01*
X48892518Y-63611500D01*
X48761771Y-63637507D01*
X48717000Y-63646413D01*
X48716999Y-63646413D01*
X48716996Y-63646414D01*
X48551663Y-63714898D01*
X48426550Y-63798496D01*
X48358797Y-63819710D01*
X48290331Y-63800927D01*
X48286547Y-63798495D01*
X48162098Y-63715341D01*
X47996857Y-63646895D01*
X47996854Y-63646894D01*
X47986000Y-63644735D01*
X47986000Y-65895262D01*
X47996858Y-65893104D01*
X47996862Y-65893103D01*
X48099824Y-65850454D01*
X48170413Y-65842864D01*
X48233901Y-65874642D01*
X48270129Y-65935700D01*
X48267595Y-66006652D01*
X48237138Y-66055957D01*
X47018501Y-67274595D01*
X46956189Y-67308620D01*
X46929406Y-67311500D01*
X41389746Y-67311500D01*
X41321625Y-67291498D01*
X41275132Y-67237842D01*
X41265028Y-67167568D01*
X41266167Y-67160918D01*
X41268571Y-67148832D01*
X41294500Y-67018479D01*
X41294500Y-66839521D01*
X41259587Y-66664000D01*
X41191102Y-66498664D01*
X41091678Y-66349865D01*
X40965135Y-66223322D01*
X40816336Y-66123898D01*
X40699429Y-66075473D01*
X40651003Y-66055414D01*
X40651001Y-66055413D01*
X40651000Y-66055413D01*
X40550347Y-66035392D01*
X40475481Y-66020500D01*
X40475479Y-66020500D01*
X40425595Y-66020500D01*
X40395677Y-66011715D01*
X40365208Y-66005087D01*
X40360113Y-66001272D01*
X40357474Y-66000498D01*
X40336498Y-65983594D01*
X40294403Y-65941498D01*
X40260379Y-65879186D01*
X40257500Y-65852404D01*
X40257500Y-64071350D01*
X45573500Y-64071350D01*
X45573500Y-65468649D01*
X45580009Y-65529196D01*
X45580011Y-65529204D01*
X45631110Y-65666202D01*
X45631112Y-65666207D01*
X45718738Y-65783261D01*
X45835792Y-65870887D01*
X45835794Y-65870888D01*
X45835796Y-65870889D01*
X45894875Y-65892924D01*
X45972795Y-65921988D01*
X45972803Y-65921990D01*
X46033350Y-65928499D01*
X46033355Y-65928499D01*
X46033362Y-65928500D01*
X46033368Y-65928500D01*
X46930632Y-65928500D01*
X46930638Y-65928500D01*
X46930645Y-65928499D01*
X46930649Y-65928499D01*
X46991196Y-65921990D01*
X46991197Y-65921989D01*
X46991201Y-65921989D01*
X47128204Y-65870889D01*
X47172401Y-65837803D01*
X47238918Y-65812991D01*
X47295059Y-65824999D01*
X47296182Y-65822290D01*
X47467142Y-65893104D01*
X47467141Y-65893104D01*
X47478000Y-65895263D01*
X47478000Y-64720272D01*
X47482000Y-64720272D01*
X47482000Y-64819728D01*
X47520060Y-64911614D01*
X47590386Y-64981940D01*
X47682272Y-65020000D01*
X47781728Y-65020000D01*
X47873614Y-64981940D01*
X47943940Y-64911614D01*
X47982000Y-64819728D01*
X47982000Y-64720272D01*
X47943940Y-64628386D01*
X47873614Y-64558060D01*
X47781728Y-64520000D01*
X47682272Y-64520000D01*
X47590386Y-64558060D01*
X47520060Y-64628386D01*
X47482000Y-64720272D01*
X47478000Y-64720272D01*
X47478000Y-63644735D01*
X47467145Y-63646894D01*
X47467142Y-63646895D01*
X47296182Y-63717710D01*
X47295175Y-63715281D01*
X47236228Y-63726786D01*
X47172402Y-63702197D01*
X47128204Y-63669111D01*
X47128202Y-63669110D01*
X47128201Y-63669109D01*
X46991204Y-63618011D01*
X46991196Y-63618009D01*
X46930649Y-63611500D01*
X46930638Y-63611500D01*
X46033362Y-63611500D01*
X46033350Y-63611500D01*
X45972803Y-63618009D01*
X45972795Y-63618011D01*
X45835797Y-63669110D01*
X45835792Y-63669112D01*
X45718738Y-63756738D01*
X45631112Y-63873792D01*
X45631110Y-63873797D01*
X45580011Y-64010795D01*
X45580009Y-64010803D01*
X45573500Y-64071350D01*
X40257500Y-64071350D01*
X40257500Y-60362518D01*
X44557500Y-60362518D01*
X44557500Y-60362521D01*
X44557500Y-60541479D01*
X44592413Y-60717000D01*
X44660898Y-60882336D01*
X44760322Y-61031135D01*
X44886865Y-61157678D01*
X45035664Y-61257102D01*
X45201000Y-61325587D01*
X45376521Y-61360500D01*
X45376522Y-61360500D01*
X45555478Y-61360500D01*
X45555479Y-61360500D01*
X45731000Y-61325587D01*
X45896336Y-61257102D01*
X46045135Y-61157678D01*
X46171678Y-61031135D01*
X46271102Y-60882336D01*
X46339587Y-60717000D01*
X46374500Y-60541479D01*
X46374500Y-60362521D01*
X46339587Y-60187000D01*
X46271102Y-60021664D01*
X46171678Y-59872865D01*
X46045135Y-59746322D01*
X45896336Y-59646898D01*
X45740867Y-59582500D01*
X45731003Y-59578414D01*
X45731001Y-59578413D01*
X45731000Y-59578413D01*
X45642645Y-59560838D01*
X45555481Y-59543500D01*
X45555479Y-59543500D01*
X45376521Y-59543500D01*
X45376518Y-59543500D01*
X45245771Y-59569507D01*
X45201000Y-59578413D01*
X45200999Y-59578413D01*
X45200996Y-59578414D01*
X45035662Y-59646899D01*
X44886869Y-59746319D01*
X44886862Y-59746324D01*
X44760324Y-59872862D01*
X44760319Y-59872869D01*
X44660899Y-60021662D01*
X44592414Y-60186996D01*
X44557500Y-60362518D01*
X40257500Y-60362518D01*
X40257500Y-59092518D01*
X41001500Y-59092518D01*
X41001500Y-59271481D01*
X41018838Y-59358645D01*
X41036413Y-59447000D01*
X41104898Y-59612336D01*
X41204322Y-59761135D01*
X41330865Y-59887678D01*
X41479664Y-59987102D01*
X41645000Y-60055587D01*
X41820521Y-60090500D01*
X41820522Y-60090500D01*
X41999478Y-60090500D01*
X41999479Y-60090500D01*
X42175000Y-60055587D01*
X42340336Y-59987102D01*
X42489135Y-59887678D01*
X42615678Y-59761135D01*
X42715102Y-59612336D01*
X42783587Y-59447000D01*
X42818500Y-59271479D01*
X42818500Y-59092521D01*
X42783587Y-58917000D01*
X42715102Y-58751664D01*
X42615678Y-58602865D01*
X42489135Y-58476322D01*
X42340336Y-58376898D01*
X42223429Y-58328473D01*
X42175003Y-58308414D01*
X42175001Y-58308413D01*
X42175000Y-58308413D01*
X42086645Y-58290838D01*
X41999481Y-58273500D01*
X41999479Y-58273500D01*
X41820521Y-58273500D01*
X41820518Y-58273500D01*
X41689771Y-58299507D01*
X41645000Y-58308413D01*
X41644999Y-58308413D01*
X41644996Y-58308414D01*
X41479662Y-58376899D01*
X41330869Y-58476319D01*
X41330862Y-58476324D01*
X41204324Y-58602862D01*
X41204319Y-58602869D01*
X41104899Y-58751662D01*
X41036414Y-58916996D01*
X41001500Y-59092518D01*
X40257500Y-59092518D01*
X40257500Y-56964503D01*
X40277502Y-56896382D01*
X40294405Y-56875408D01*
X40304145Y-56865668D01*
X40329678Y-56840135D01*
X40429102Y-56691336D01*
X40497587Y-56526000D01*
X40532500Y-56350479D01*
X40532500Y-56171521D01*
X40497587Y-55996000D01*
X40429102Y-55830664D01*
X40329678Y-55681865D01*
X40203135Y-55555322D01*
X40054336Y-55455898D01*
X39889000Y-55387413D01*
X39888998Y-55387412D01*
X39888994Y-55387411D01*
X39843609Y-55378383D01*
X39780700Y-55345475D01*
X39745570Y-55283779D01*
X39744614Y-55279385D01*
X39735587Y-55234000D01*
X39667102Y-55068664D01*
X39567678Y-54919865D01*
X39469953Y-54822140D01*
X39435927Y-54759828D01*
X39440992Y-54689013D01*
X39469953Y-54643950D01*
X40323902Y-53790002D01*
X40329986Y-53783918D01*
X61753300Y-53783918D01*
X61753300Y-53783921D01*
X61753300Y-53962879D01*
X61788213Y-54138400D01*
X61856698Y-54303736D01*
X61956122Y-54452535D01*
X61956124Y-54452537D01*
X62007041Y-54503454D01*
X62041067Y-54565766D01*
X62041525Y-54567966D01*
X62052074Y-54621000D01*
X62052646Y-54623873D01*
X62060962Y-54643950D01*
X62100400Y-54739160D01*
X62169729Y-54842918D01*
X62169731Y-54842920D01*
X63589738Y-56262927D01*
X63623764Y-56325239D01*
X63624222Y-56327440D01*
X63644842Y-56431102D01*
X63646413Y-56439000D01*
X63714898Y-56604336D01*
X63798495Y-56729448D01*
X63819710Y-56797201D01*
X63800927Y-56865668D01*
X63798495Y-56869452D01*
X63715341Y-56993901D01*
X63646895Y-57159142D01*
X63646894Y-57159145D01*
X63644735Y-57170000D01*
X65895264Y-57170000D01*
X65893105Y-57159145D01*
X65893104Y-57159142D01*
X65824658Y-56993901D01*
X65741504Y-56869452D01*
X65720289Y-56801699D01*
X65739072Y-56733232D01*
X65741476Y-56729491D01*
X65825102Y-56604336D01*
X65893587Y-56439000D01*
X65928500Y-56263479D01*
X65928500Y-56084521D01*
X65893587Y-55909000D01*
X65825102Y-55743664D01*
X65741804Y-55618999D01*
X65720590Y-55551249D01*
X65739373Y-55482782D01*
X65741785Y-55479028D01*
X65825102Y-55354336D01*
X65893587Y-55189000D01*
X65928500Y-55013479D01*
X65928500Y-54834521D01*
X65893587Y-54659000D01*
X65825102Y-54493664D01*
X65725678Y-54344865D01*
X65599135Y-54218322D01*
X65450336Y-54118898D01*
X65333429Y-54070473D01*
X65285003Y-54050414D01*
X65285001Y-54050413D01*
X65285000Y-54050413D01*
X65196645Y-54032838D01*
X65109481Y-54015500D01*
X65109479Y-54015500D01*
X64430521Y-54015500D01*
X64430518Y-54015500D01*
X64299771Y-54041507D01*
X64255000Y-54050413D01*
X64254999Y-54050413D01*
X64254996Y-54050414D01*
X64089662Y-54118899D01*
X63940869Y-54218319D01*
X63940862Y-54218324D01*
X63814324Y-54344862D01*
X63814319Y-54344869D01*
X63759093Y-54427521D01*
X63742665Y-54441249D01*
X63729837Y-54458387D01*
X63715972Y-54463558D01*
X63704616Y-54473049D01*
X63683373Y-54475717D01*
X63663317Y-54483198D01*
X63648857Y-54480052D01*
X63634173Y-54481897D01*
X63614860Y-54472657D01*
X63593943Y-54468107D01*
X63573744Y-54452985D01*
X63570129Y-54451256D01*
X63565233Y-54446614D01*
X63513386Y-54394767D01*
X63479360Y-54332455D01*
X63484425Y-54261640D01*
X63486061Y-54257482D01*
X63535387Y-54138400D01*
X63570300Y-53962879D01*
X63570300Y-53783921D01*
X63535387Y-53608400D01*
X63466902Y-53443064D01*
X63367478Y-53294265D01*
X63240935Y-53167722D01*
X63092136Y-53068298D01*
X62975229Y-53019873D01*
X62926803Y-52999814D01*
X62926801Y-52999813D01*
X62926800Y-52999813D01*
X62838445Y-52982238D01*
X62751281Y-52964900D01*
X62751279Y-52964900D01*
X62572321Y-52964900D01*
X62572318Y-52964900D01*
X62441571Y-52990907D01*
X62396800Y-52999813D01*
X62396799Y-52999813D01*
X62396796Y-52999814D01*
X62231462Y-53068299D01*
X62082669Y-53167719D01*
X62082662Y-53167724D01*
X61956124Y-53294262D01*
X61956119Y-53294269D01*
X61856699Y-53443062D01*
X61788214Y-53608396D01*
X61753300Y-53783918D01*
X40329986Y-53783918D01*
X41195699Y-52918205D01*
X41258011Y-52884179D01*
X41284794Y-52881300D01*
X42023193Y-52881300D01*
X42023194Y-52881300D01*
X42145585Y-52856955D01*
X42260875Y-52809200D01*
X42364633Y-52739871D01*
X45215406Y-49889098D01*
X45277718Y-49855072D01*
X45348533Y-49860137D01*
X45405369Y-49902684D01*
X45430180Y-49969204D01*
X45430501Y-49978193D01*
X45430501Y-51947584D01*
X45426535Y-51978950D01*
X45424318Y-51987574D01*
X45406767Y-52029947D01*
X45384651Y-52141135D01*
X45383974Y-52144534D01*
X45383971Y-52144549D01*
X45379534Y-52166858D01*
X45360721Y-52212276D01*
X45258899Y-52364664D01*
X45190415Y-52529997D01*
X45190414Y-52530000D01*
X45190414Y-52530001D01*
X45187598Y-52544158D01*
X45155501Y-52705519D01*
X45155501Y-52705522D01*
X45155501Y-52884480D01*
X45190414Y-53060001D01*
X45258899Y-53225337D01*
X45358323Y-53374136D01*
X45484866Y-53500679D01*
X45633665Y-53600103D01*
X45799001Y-53668588D01*
X45974522Y-53703501D01*
X45974523Y-53703501D01*
X46153479Y-53703501D01*
X46153480Y-53703501D01*
X46329001Y-53668588D01*
X46329006Y-53668586D01*
X46346544Y-53661322D01*
X46346546Y-53661321D01*
X46494332Y-53600105D01*
X46494331Y-53600105D01*
X46494337Y-53600103D01*
X46643136Y-53500679D01*
X46769679Y-53374136D01*
X46869103Y-53225337D01*
X46937588Y-53060001D01*
X46972501Y-52884480D01*
X46972501Y-52705522D01*
X46937588Y-52530001D01*
X46869103Y-52364665D01*
X46869102Y-52364663D01*
X46869101Y-52364661D01*
X46869100Y-52364660D01*
X46818736Y-52289284D01*
X46797521Y-52221532D01*
X46797501Y-52219283D01*
X46797501Y-50945500D01*
X46817503Y-50877379D01*
X46871159Y-50830886D01*
X46923501Y-50819500D01*
X47079478Y-50819500D01*
X47079479Y-50819500D01*
X47255000Y-50784587D01*
X47420336Y-50716102D01*
X47427994Y-50710984D01*
X47495744Y-50689767D01*
X47564212Y-50708547D01*
X47567979Y-50710967D01*
X47573176Y-50714439D01*
X47575662Y-50716101D01*
X47575663Y-50716101D01*
X47575664Y-50716102D01*
X47741000Y-50784587D01*
X47916521Y-50819500D01*
X47916522Y-50819500D01*
X48095478Y-50819500D01*
X48095479Y-50819500D01*
X48271000Y-50784587D01*
X48307049Y-50769654D01*
X48418281Y-50723581D01*
X48451410Y-50720018D01*
X48484432Y-50715271D01*
X48486554Y-50716240D01*
X48488871Y-50715991D01*
X48518681Y-50730912D01*
X48549012Y-50744765D01*
X48550272Y-50746725D01*
X48552358Y-50747770D01*
X48569378Y-50776455D01*
X48587396Y-50804491D01*
X48587838Y-50807566D01*
X48588586Y-50808827D01*
X48592500Y-50839989D01*
X48592500Y-50911451D01*
X48572498Y-50979572D01*
X48571265Y-50981452D01*
X48470900Y-51131659D01*
X48470899Y-51131660D01*
X48402414Y-51296996D01*
X48367500Y-51472518D01*
X48367500Y-51651481D01*
X48374963Y-51689000D01*
X48402413Y-51827000D01*
X48470898Y-51992336D01*
X48570322Y-52141135D01*
X48696865Y-52267678D01*
X48845664Y-52367102D01*
X49011000Y-52435587D01*
X49186521Y-52470500D01*
X49186522Y-52470500D01*
X49266175Y-52470500D01*
X49334296Y-52490502D01*
X49380789Y-52544158D01*
X49389754Y-52571919D01*
X49418413Y-52716002D01*
X49457017Y-52809198D01*
X49486898Y-52881336D01*
X49586322Y-53030135D01*
X49712865Y-53156678D01*
X49861664Y-53256102D01*
X50027000Y-53324587D01*
X50202521Y-53359500D01*
X50202522Y-53359500D01*
X50381478Y-53359500D01*
X50381479Y-53359500D01*
X50557000Y-53324587D01*
X50722336Y-53256102D01*
X50871135Y-53156678D01*
X50997678Y-53030135D01*
X51097102Y-52881336D01*
X51165587Y-52716000D01*
X51200500Y-52540479D01*
X51200500Y-52361521D01*
X51165587Y-52186000D01*
X51097102Y-52020664D01*
X51097101Y-52020662D01*
X51097100Y-52020660D01*
X51097099Y-52020659D01*
X50996735Y-51870452D01*
X50975520Y-51802699D01*
X50975500Y-51800451D01*
X50975500Y-51091185D01*
X50977105Y-51085717D01*
X50975986Y-51080130D01*
X50986998Y-51052024D01*
X50995502Y-51023064D01*
X50999808Y-51019332D01*
X51001887Y-51014027D01*
X51026346Y-50996336D01*
X51049158Y-50976571D01*
X51054798Y-50975760D01*
X51059415Y-50972421D01*
X51089548Y-50970763D01*
X51119432Y-50966467D01*
X51126114Y-50968752D01*
X51130305Y-50968522D01*
X51148304Y-50976341D01*
X51163696Y-50981606D01*
X51167686Y-50983870D01*
X51257240Y-51043709D01*
X51308764Y-51065050D01*
X51381630Y-51095233D01*
X51513680Y-51121499D01*
X51513681Y-51121499D01*
X58722319Y-51121499D01*
X58722320Y-51121499D01*
X58854370Y-51095233D01*
X58883684Y-51083090D01*
X58931901Y-51073500D01*
X59017478Y-51073500D01*
X59017479Y-51073500D01*
X59193000Y-51038587D01*
X59316290Y-50987518D01*
X66297500Y-50987518D01*
X66297500Y-50987521D01*
X66297500Y-51166479D01*
X66332413Y-51342000D01*
X66400898Y-51507336D01*
X66500322Y-51656135D01*
X66626865Y-51782678D01*
X66775664Y-51882102D01*
X66941000Y-51950587D01*
X67116521Y-51985500D01*
X67116522Y-51985500D01*
X67295478Y-51985500D01*
X67295479Y-51985500D01*
X67471000Y-51950587D01*
X67636336Y-51882102D01*
X67785135Y-51782678D01*
X67911678Y-51656135D01*
X68011102Y-51507336D01*
X68079587Y-51342000D01*
X68114500Y-51166479D01*
X68114500Y-50987521D01*
X68079587Y-50812000D01*
X68011102Y-50646664D01*
X67911678Y-50497865D01*
X67785135Y-50371322D01*
X67636336Y-50271898D01*
X67519429Y-50223473D01*
X67471003Y-50203414D01*
X67471001Y-50203413D01*
X67471000Y-50203413D01*
X67382645Y-50185838D01*
X67295481Y-50168500D01*
X67295479Y-50168500D01*
X67116521Y-50168500D01*
X67116518Y-50168500D01*
X66985771Y-50194507D01*
X66941000Y-50203413D01*
X66940999Y-50203413D01*
X66940996Y-50203414D01*
X66775662Y-50271899D01*
X66626869Y-50371319D01*
X66626862Y-50371324D01*
X66500324Y-50497862D01*
X66500319Y-50497869D01*
X66400899Y-50646662D01*
X66332414Y-50811996D01*
X66332413Y-50811999D01*
X66332413Y-50812000D01*
X66330921Y-50819500D01*
X66297500Y-50987518D01*
X59316290Y-50987518D01*
X59358336Y-50970102D01*
X59507135Y-50870678D01*
X59633678Y-50744135D01*
X59733102Y-50595336D01*
X59801587Y-50430000D01*
X59836500Y-50254479D01*
X59836500Y-50075521D01*
X59801587Y-49900000D01*
X59733102Y-49734664D01*
X59633678Y-49585865D01*
X59507135Y-49459322D01*
X59358336Y-49359898D01*
X59241429Y-49311473D01*
X59193003Y-49291414D01*
X59193001Y-49291413D01*
X59193000Y-49291413D01*
X59104645Y-49273838D01*
X59017481Y-49256500D01*
X59017479Y-49256500D01*
X58838521Y-49256500D01*
X58838518Y-49256500D01*
X58707771Y-49282507D01*
X58663000Y-49291413D01*
X58662999Y-49291413D01*
X58662996Y-49291414D01*
X58564233Y-49332324D01*
X58505996Y-49356447D01*
X58497662Y-49359899D01*
X58348869Y-49459319D01*
X58348862Y-49459324D01*
X58222324Y-49585862D01*
X58222319Y-49585869D01*
X58147061Y-49698501D01*
X58092584Y-49744029D01*
X58042296Y-49754499D01*
X52131114Y-49754499D01*
X52062993Y-49734497D01*
X52016500Y-49680841D01*
X52014716Y-49676744D01*
X51986102Y-49607664D01*
X51886678Y-49458865D01*
X51760135Y-49332322D01*
X51611336Y-49232898D01*
X51494429Y-49184473D01*
X51446003Y-49164414D01*
X51446001Y-49164413D01*
X51446000Y-49164413D01*
X51357645Y-49146838D01*
X51270481Y-49129500D01*
X51270479Y-49129500D01*
X51215499Y-49129500D01*
X51147378Y-49109498D01*
X51100885Y-49055842D01*
X51089499Y-49003500D01*
X51089499Y-45757518D01*
X54336500Y-45757518D01*
X54336500Y-45936481D01*
X54345414Y-45981292D01*
X54371413Y-46112000D01*
X54439898Y-46277336D01*
X54539322Y-46426135D01*
X54665865Y-46552678D01*
X54814664Y-46652102D01*
X54980000Y-46720587D01*
X55155521Y-46755500D01*
X55155522Y-46755500D01*
X55334478Y-46755500D01*
X55334479Y-46755500D01*
X55510000Y-46720587D01*
X55675336Y-46652102D01*
X55824135Y-46552678D01*
X55950678Y-46426135D01*
X56050102Y-46277336D01*
X56118587Y-46112000D01*
X56153500Y-45936479D01*
X56153500Y-45757521D01*
X56118587Y-45582000D01*
X56050102Y-45416664D01*
X55950678Y-45267865D01*
X55824135Y-45141322D01*
X55675336Y-45041898D01*
X55550129Y-44990035D01*
X55510003Y-44973414D01*
X55510001Y-44973413D01*
X55510000Y-44973413D01*
X55421645Y-44955838D01*
X55334481Y-44938500D01*
X55334479Y-44938500D01*
X55155521Y-44938500D01*
X55155518Y-44938500D01*
X55047432Y-44960000D01*
X54980000Y-44973413D01*
X54979999Y-44973413D01*
X54979996Y-44973414D01*
X54814662Y-45041899D01*
X54665869Y-45141319D01*
X54665862Y-45141324D01*
X54539324Y-45267862D01*
X54539319Y-45267869D01*
X54439899Y-45416662D01*
X54371414Y-45581996D01*
X54336500Y-45757518D01*
X51089499Y-45757518D01*
X51089499Y-44332138D01*
X51109501Y-44264017D01*
X51126404Y-44243043D01*
X54378908Y-40990539D01*
X54382415Y-40985292D01*
X54415515Y-40935754D01*
X54453710Y-40878591D01*
X54505233Y-40754202D01*
X54531500Y-40622151D01*
X54531500Y-39927305D01*
X54551502Y-39859184D01*
X54605158Y-39812691D01*
X54675432Y-39802587D01*
X54740012Y-39832081D01*
X54746595Y-39838210D01*
X55952684Y-41044299D01*
X55986710Y-41106611D01*
X55987168Y-41108812D01*
X56003483Y-41190831D01*
X56021803Y-41282935D01*
X56022414Y-41286003D01*
X56034074Y-41314151D01*
X56090898Y-41451336D01*
X56190322Y-41600135D01*
X56316865Y-41726678D01*
X56465664Y-41826102D01*
X56631000Y-41894587D01*
X56806521Y-41929500D01*
X56806522Y-41929500D01*
X56985478Y-41929500D01*
X56985479Y-41929500D01*
X57161000Y-41894587D01*
X57326336Y-41826102D01*
X57475135Y-41726678D01*
X57601678Y-41600135D01*
X57701102Y-41451336D01*
X57769587Y-41286000D01*
X57804500Y-41110479D01*
X57804500Y-40931521D01*
X57769587Y-40756000D01*
X57701102Y-40590664D01*
X57601678Y-40441865D01*
X57475135Y-40315322D01*
X57326336Y-40215898D01*
X57184389Y-40157101D01*
X57161003Y-40147414D01*
X57161001Y-40147413D01*
X57161000Y-40147413D01*
X57053349Y-40126000D01*
X56983812Y-40112168D01*
X56920903Y-40079260D01*
X56919299Y-40077684D01*
X55330405Y-38488790D01*
X55296379Y-38426478D01*
X55293500Y-38399695D01*
X55293500Y-37769321D01*
X62809000Y-37769321D01*
X62809000Y-38006678D01*
X62846133Y-38241129D01*
X62919480Y-38466867D01*
X63027246Y-38678368D01*
X63086230Y-38759556D01*
X63086232Y-38759556D01*
X63676032Y-38169755D01*
X63696668Y-38219574D01*
X63773274Y-38334224D01*
X63870776Y-38431726D01*
X63985426Y-38508332D01*
X64035242Y-38528966D01*
X63445442Y-39118766D01*
X63526636Y-39177756D01*
X63526637Y-39177757D01*
X63738132Y-39285519D01*
X63963870Y-39358866D01*
X64198321Y-39396000D01*
X64435679Y-39396000D01*
X64670129Y-39358866D01*
X64895867Y-39285519D01*
X65107367Y-39177754D01*
X65188556Y-39118767D01*
X65188556Y-39118765D01*
X64598757Y-38528966D01*
X64648574Y-38508332D01*
X64763224Y-38431726D01*
X64860726Y-38334224D01*
X64937332Y-38219574D01*
X64957966Y-38169757D01*
X65547765Y-38759556D01*
X65547767Y-38759556D01*
X65606754Y-38678367D01*
X65714519Y-38466867D01*
X65787866Y-38241129D01*
X65825000Y-38006678D01*
X65825000Y-37769321D01*
X65787866Y-37534872D01*
X65718367Y-37320978D01*
X65716339Y-37250010D01*
X65753001Y-37189212D01*
X65768194Y-37177279D01*
X65781669Y-37168276D01*
X65872276Y-37077669D01*
X65943465Y-36971127D01*
X65981778Y-36878632D01*
X65981780Y-36878628D01*
X65987257Y-36865403D01*
X65992501Y-36852744D01*
X66017500Y-36727069D01*
X66017500Y-36598931D01*
X65992501Y-36473256D01*
X65943465Y-36354873D01*
X65872276Y-36248331D01*
X65781669Y-36157724D01*
X65675127Y-36086535D01*
X65556745Y-36037499D01*
X65514852Y-36029166D01*
X65431069Y-36012500D01*
X65302931Y-36012500D01*
X65261039Y-36020833D01*
X65177254Y-36037499D01*
X65177253Y-36037500D01*
X65058871Y-36086536D01*
X64952335Y-36157721D01*
X64952328Y-36157726D01*
X64861726Y-36248328D01*
X64861721Y-36248335D01*
X64787096Y-36360020D01*
X64785018Y-36358631D01*
X64742940Y-36401442D01*
X64673698Y-36417131D01*
X64661893Y-36415828D01*
X64435680Y-36380000D01*
X64198321Y-36380000D01*
X63963870Y-36417133D01*
X63738132Y-36490480D01*
X63526634Y-36598243D01*
X63445442Y-36657231D01*
X63445442Y-36657232D01*
X64035243Y-37247033D01*
X63985426Y-37267668D01*
X63870776Y-37344274D01*
X63773274Y-37441776D01*
X63696668Y-37556426D01*
X63676033Y-37606243D01*
X63086231Y-37016442D01*
X63027243Y-37097634D01*
X62919480Y-37309132D01*
X62846133Y-37534870D01*
X62809000Y-37769321D01*
X55293500Y-37769321D01*
X55293500Y-30666682D01*
X55293500Y-30666681D01*
X55290041Y-30649291D01*
X55267234Y-30534630D01*
X55216890Y-30413090D01*
X55215710Y-30410241D01*
X55196623Y-30381675D01*
X55196618Y-30381667D01*
X55154959Y-30319321D01*
X62809000Y-30319321D01*
X62809000Y-30556678D01*
X62846133Y-30791129D01*
X62919480Y-31016867D01*
X63027246Y-31228368D01*
X63086230Y-31309556D01*
X63086232Y-31309556D01*
X63676032Y-30719755D01*
X63696668Y-30769574D01*
X63773274Y-30884224D01*
X63870776Y-30981726D01*
X63985426Y-31058332D01*
X64035242Y-31078966D01*
X63445442Y-31668766D01*
X63526636Y-31727756D01*
X63526637Y-31727757D01*
X63738132Y-31835519D01*
X63963870Y-31908866D01*
X64198321Y-31946000D01*
X64435679Y-31946000D01*
X64661892Y-31910171D01*
X64732303Y-31919271D01*
X64786617Y-31964992D01*
X64788135Y-31967535D01*
X64790534Y-31971126D01*
X64790535Y-31971127D01*
X64861724Y-32077669D01*
X64952331Y-32168276D01*
X65058873Y-32239465D01*
X65177256Y-32288501D01*
X65302931Y-32313500D01*
X65302936Y-32313500D01*
X65431064Y-32313500D01*
X65431069Y-32313500D01*
X65556744Y-32288501D01*
X65675127Y-32239465D01*
X65781669Y-32168276D01*
X65872276Y-32077669D01*
X65943465Y-31971127D01*
X65992501Y-31852744D01*
X66017500Y-31727069D01*
X66017500Y-31598931D01*
X65992501Y-31473256D01*
X65943465Y-31354873D01*
X65872276Y-31248331D01*
X65781669Y-31157724D01*
X65768198Y-31148723D01*
X65722671Y-31094247D01*
X65713822Y-31023804D01*
X65718367Y-31005021D01*
X65787866Y-30791127D01*
X65825000Y-30556678D01*
X65825000Y-30319321D01*
X65804826Y-30191949D01*
X65787866Y-30084870D01*
X65714519Y-29859132D01*
X65606757Y-29647637D01*
X65606756Y-29647636D01*
X65547766Y-29566442D01*
X64957966Y-30156242D01*
X64937332Y-30106426D01*
X64860726Y-29991776D01*
X64763224Y-29894274D01*
X64648574Y-29817668D01*
X64598755Y-29797032D01*
X65188556Y-29207232D01*
X65188556Y-29207230D01*
X65107368Y-29148246D01*
X64895867Y-29040480D01*
X64670129Y-28967133D01*
X64435679Y-28930000D01*
X64198321Y-28930000D01*
X63963870Y-28967133D01*
X63738132Y-29040480D01*
X63526634Y-29148243D01*
X63445442Y-29207231D01*
X64035243Y-29797033D01*
X63985426Y-29817668D01*
X63870776Y-29894274D01*
X63773274Y-29991776D01*
X63696668Y-30106426D01*
X63676033Y-30156243D01*
X63086231Y-29566442D01*
X63027243Y-29647634D01*
X62919480Y-29859132D01*
X62846133Y-30084870D01*
X62809000Y-30319321D01*
X55154959Y-30319321D01*
X55140909Y-30298294D01*
X55128441Y-30285826D01*
X55045706Y-30203091D01*
X51109608Y-26266993D01*
X51075582Y-26204681D01*
X51080647Y-26133866D01*
X51097833Y-26102391D01*
X51142889Y-26042204D01*
X51186960Y-25924045D01*
X51193988Y-25905204D01*
X51193990Y-25905196D01*
X51200499Y-25844649D01*
X51200500Y-25844632D01*
X51200500Y-24685500D01*
X51220502Y-24617379D01*
X51274158Y-24570886D01*
X51326500Y-24559500D01*
X54673104Y-24559500D01*
X54741225Y-24579502D01*
X54787718Y-24633158D01*
X54797822Y-24703432D01*
X54796683Y-24710082D01*
X54777500Y-24806518D01*
X54777500Y-25485481D01*
X54785642Y-25526413D01*
X54800279Y-25600000D01*
X54812414Y-25661003D01*
X54826971Y-25696147D01*
X54880898Y-25826336D01*
X54980322Y-25975135D01*
X55106865Y-26101678D01*
X55255664Y-26201102D01*
X55421000Y-26269587D01*
X55596521Y-26304500D01*
X55596522Y-26304500D01*
X55775478Y-26304500D01*
X55775479Y-26304500D01*
X55951000Y-26269587D01*
X56116336Y-26201102D01*
X56241000Y-26117804D01*
X56308751Y-26096590D01*
X56377218Y-26115373D01*
X56380971Y-26117785D01*
X56505664Y-26201102D01*
X56671000Y-26269587D01*
X56846521Y-26304500D01*
X56846522Y-26304500D01*
X57025478Y-26304500D01*
X57025479Y-26304500D01*
X57201000Y-26269587D01*
X57366336Y-26201102D01*
X57491451Y-26117503D01*
X57559201Y-26096289D01*
X57627668Y-26115072D01*
X57631452Y-26117504D01*
X57755901Y-26200658D01*
X57921142Y-26269104D01*
X57921141Y-26269104D01*
X57932000Y-26271263D01*
X57932000Y-25096272D01*
X57936000Y-25096272D01*
X57936000Y-25195728D01*
X57974060Y-25287614D01*
X58044386Y-25357940D01*
X58136272Y-25396000D01*
X58235728Y-25396000D01*
X58327614Y-25357940D01*
X58397940Y-25287614D01*
X58436000Y-25195728D01*
X58436000Y-25096272D01*
X58397940Y-25004386D01*
X58327614Y-24934060D01*
X58235728Y-24896000D01*
X58136272Y-24896000D01*
X58044386Y-24934060D01*
X57974060Y-25004386D01*
X57936000Y-25096272D01*
X57932000Y-25096272D01*
X57932000Y-24020735D01*
X58440000Y-24020735D01*
X58440000Y-26271262D01*
X58450857Y-26269104D01*
X58621818Y-26198290D01*
X58623025Y-26201204D01*
X58678969Y-26188983D01*
X58745507Y-26213735D01*
X58789796Y-26246889D01*
X58789799Y-26246890D01*
X58926795Y-26297988D01*
X58926803Y-26297990D01*
X58987350Y-26304499D01*
X58987355Y-26304499D01*
X58987362Y-26304500D01*
X58987368Y-26304500D01*
X59884632Y-26304500D01*
X59884638Y-26304500D01*
X59884645Y-26304499D01*
X59884649Y-26304499D01*
X59945196Y-26297990D01*
X59945199Y-26297989D01*
X59945201Y-26297989D01*
X60082204Y-26246889D01*
X60084354Y-26245280D01*
X60199261Y-26159261D01*
X60286887Y-26042207D01*
X60286887Y-26042206D01*
X60286889Y-26042204D01*
X60330960Y-25924045D01*
X60337988Y-25905204D01*
X60337990Y-25905196D01*
X60344499Y-25844649D01*
X60344500Y-25844632D01*
X60344500Y-24447367D01*
X60344499Y-24447358D01*
X60344453Y-24446921D01*
X60337990Y-24386803D01*
X60337988Y-24386795D01*
X60286889Y-24249797D01*
X60286887Y-24249792D01*
X60199261Y-24132738D01*
X60082207Y-24045112D01*
X60082202Y-24045110D01*
X59945204Y-23994011D01*
X59945196Y-23994009D01*
X59884649Y-23987500D01*
X59884638Y-23987500D01*
X58987362Y-23987500D01*
X58987350Y-23987500D01*
X58926803Y-23994009D01*
X58926795Y-23994011D01*
X58789797Y-24045110D01*
X58789792Y-24045113D01*
X58745597Y-24078197D01*
X58679076Y-24103008D01*
X58622952Y-24090970D01*
X58621818Y-24093710D01*
X58450857Y-24022895D01*
X58450854Y-24022894D01*
X58440000Y-24020735D01*
X57932000Y-24020735D01*
X57921145Y-24022894D01*
X57921142Y-24022895D01*
X57774053Y-24083821D01*
X57703463Y-24091410D01*
X57639976Y-24059630D01*
X57603749Y-23998572D01*
X57602260Y-23992012D01*
X57593234Y-23946630D01*
X57544054Y-23827900D01*
X57541710Y-23822241D01*
X57466909Y-23710294D01*
X57371706Y-23615091D01*
X56551696Y-22795081D01*
X56538794Y-22786460D01*
X56439749Y-22720280D01*
X56388225Y-22698938D01*
X56315361Y-22668757D01*
X56315359Y-22668756D01*
X56183311Y-22642490D01*
X56183309Y-22642490D01*
X45559497Y-22642490D01*
X45424860Y-22642490D01*
X45424857Y-22642490D01*
X45332812Y-22660799D01*
X45292809Y-22668756D01*
X45292808Y-22668756D01*
X45292805Y-22668757D01*
X45204853Y-22705189D01*
X45204853Y-22705188D01*
X45168425Y-22720277D01*
X45168420Y-22720279D01*
X45069375Y-22786460D01*
X45056473Y-22795080D01*
X44826569Y-23024985D01*
X44179695Y-23671859D01*
X44141260Y-23710294D01*
X44084491Y-23767062D01*
X44041954Y-23830724D01*
X44009691Y-23879009D01*
X43990519Y-23925294D01*
X43977276Y-23957265D01*
X43959575Y-24000000D01*
X43958167Y-24003399D01*
X43937747Y-24106062D01*
X43932440Y-24132740D01*
X43932439Y-24132745D01*
X43931901Y-24135447D01*
X43931901Y-30491294D01*
X43923117Y-30521210D01*
X43916488Y-30551680D01*
X43912674Y-30556774D01*
X43911899Y-30559415D01*
X43894996Y-30580390D01*
X43747694Y-30727691D01*
X43685382Y-30761716D01*
X43614566Y-30756651D01*
X43569504Y-30727691D01*
X43549189Y-30707376D01*
X43505135Y-30663322D01*
X43356336Y-30563898D01*
X43218838Y-30506944D01*
X43191003Y-30495414D01*
X43191001Y-30495413D01*
X43191000Y-30495413D01*
X43083349Y-30474000D01*
X43015481Y-30460500D01*
X43015479Y-30460500D01*
X42836521Y-30460500D01*
X42836518Y-30460500D01*
X42705771Y-30486507D01*
X42661000Y-30495413D01*
X42660999Y-30495413D01*
X42660996Y-30495414D01*
X42529902Y-30549716D01*
X42513095Y-30556678D01*
X42495662Y-30563899D01*
X42346869Y-30663319D01*
X42346862Y-30663324D01*
X42220324Y-30789862D01*
X42220319Y-30789869D01*
X42120899Y-30938662D01*
X42059820Y-31086119D01*
X42052413Y-31104000D01*
X42042404Y-31154321D01*
X42017168Y-31281187D01*
X41984260Y-31344096D01*
X41982685Y-31345700D01*
X41028788Y-32299596D01*
X40966478Y-32333620D01*
X40939695Y-32336500D01*
X39544500Y-32336500D01*
X39476379Y-32316498D01*
X39429886Y-32262842D01*
X39418500Y-32210500D01*
X39418500Y-31301682D01*
X39418499Y-31301678D01*
X39412455Y-31271290D01*
X39392234Y-31169631D01*
X39357642Y-31086119D01*
X39340710Y-31045241D01*
X39265909Y-30933294D01*
X39265904Y-30933288D01*
X39166322Y-30833706D01*
X39166299Y-30833685D01*
X38820505Y-30487890D01*
X38745838Y-30437999D01*
X38708559Y-30413090D01*
X38654977Y-30390896D01*
X38632697Y-30381667D01*
X38584172Y-30361567D01*
X38584170Y-30361566D01*
X38584169Y-30361566D01*
X38517697Y-30348344D01*
X38452121Y-30335300D01*
X38452119Y-30335300D01*
X34249348Y-30335300D01*
X34181227Y-30315298D01*
X34179346Y-30314065D01*
X34155743Y-30298294D01*
X34029136Y-30213698D01*
X33912229Y-30165273D01*
X33863803Y-30145214D01*
X33863801Y-30145213D01*
X33863800Y-30145213D01*
X33775445Y-30127638D01*
X33688281Y-30110300D01*
X33688279Y-30110300D01*
X33509321Y-30110300D01*
X33509315Y-30110300D01*
X33328081Y-30146350D01*
X33257367Y-30140022D01*
X33201300Y-30096467D01*
X33177681Y-30029515D01*
X33177500Y-30022771D01*
X33177500Y-29196718D01*
X38232900Y-29196718D01*
X38232900Y-29375681D01*
X38247243Y-29447788D01*
X38267813Y-29551200D01*
X38336298Y-29716536D01*
X38435722Y-29865335D01*
X38562265Y-29991878D01*
X38711064Y-30091302D01*
X38876400Y-30159787D01*
X39051921Y-30194700D01*
X39051922Y-30194700D01*
X39230878Y-30194700D01*
X39230879Y-30194700D01*
X39406400Y-30159787D01*
X39571736Y-30091302D01*
X39720535Y-29991878D01*
X39847078Y-29865335D01*
X39946502Y-29716536D01*
X40014987Y-29551200D01*
X40049900Y-29375679D01*
X40049900Y-29196721D01*
X40014987Y-29021200D01*
X39946502Y-28855864D01*
X39847078Y-28707065D01*
X39720535Y-28580522D01*
X39571736Y-28481098D01*
X39434040Y-28424062D01*
X39406403Y-28412614D01*
X39406401Y-28412613D01*
X39406400Y-28412613D01*
X39318045Y-28395038D01*
X39230881Y-28377700D01*
X39230879Y-28377700D01*
X39051921Y-28377700D01*
X39051918Y-28377700D01*
X38921171Y-28403707D01*
X38876400Y-28412613D01*
X38876399Y-28412613D01*
X38876396Y-28412614D01*
X38711062Y-28481099D01*
X38562269Y-28580519D01*
X38562262Y-28580524D01*
X38435724Y-28707062D01*
X38435719Y-28707069D01*
X38376757Y-28795313D01*
X38336298Y-28855864D01*
X38324104Y-28885302D01*
X38267814Y-29021196D01*
X38267813Y-29021199D01*
X38267813Y-29021200D01*
X38258907Y-29065971D01*
X38232900Y-29196718D01*
X33177500Y-29196718D01*
X33177500Y-26047118D01*
X37877300Y-26047118D01*
X37877300Y-26226081D01*
X37912214Y-26401603D01*
X37917567Y-26414526D01*
X37980698Y-26566936D01*
X38080122Y-26715735D01*
X38206665Y-26842278D01*
X38355464Y-26941702D01*
X38520800Y-27010187D01*
X38696321Y-27045100D01*
X38696322Y-27045100D01*
X38875278Y-27045100D01*
X38875279Y-27045100D01*
X39050800Y-27010187D01*
X39216136Y-26941702D01*
X39364935Y-26842278D01*
X39491478Y-26715735D01*
X39590902Y-26566936D01*
X39659387Y-26401600D01*
X39694300Y-26226079D01*
X39694300Y-26047121D01*
X39659387Y-25871600D01*
X39590902Y-25706264D01*
X39491478Y-25557465D01*
X39364935Y-25430922D01*
X39216136Y-25331498D01*
X39099229Y-25283073D01*
X39050803Y-25263014D01*
X39050801Y-25263013D01*
X39050800Y-25263013D01*
X38962445Y-25245438D01*
X38875281Y-25228100D01*
X38875279Y-25228100D01*
X38696321Y-25228100D01*
X38696318Y-25228100D01*
X38582742Y-25250692D01*
X38520800Y-25263013D01*
X38520799Y-25263013D01*
X38520796Y-25263014D01*
X38355462Y-25331499D01*
X38206669Y-25430919D01*
X38206662Y-25430924D01*
X38080124Y-25557462D01*
X38080119Y-25557469D01*
X37986766Y-25697183D01*
X37980698Y-25706264D01*
X37972243Y-25726677D01*
X37912214Y-25871596D01*
X37912213Y-25871599D01*
X37912213Y-25871600D01*
X37903307Y-25916371D01*
X37877300Y-26047118D01*
X33177500Y-26047118D01*
X33177500Y-25867298D01*
X33177500Y-25867294D01*
X33158497Y-25771762D01*
X33148351Y-25720753D01*
X33091174Y-25582716D01*
X33008166Y-25458485D01*
X32568405Y-25018724D01*
X32534379Y-24956412D01*
X32531500Y-24929629D01*
X32531500Y-24447358D01*
X32531453Y-24446918D01*
X40671300Y-24446918D01*
X40671300Y-24625881D01*
X40672346Y-24631140D01*
X40706213Y-24801400D01*
X40759068Y-24929003D01*
X40776374Y-24970781D01*
X40783963Y-25041371D01*
X40776374Y-25067219D01*
X40774699Y-25071262D01*
X40774698Y-25071264D01*
X40755370Y-25117925D01*
X40706214Y-25236596D01*
X40671300Y-25412118D01*
X40671300Y-25591081D01*
X40685179Y-25660854D01*
X40705398Y-25762505D01*
X40706214Y-25766603D01*
X40714470Y-25786535D01*
X40774698Y-25931936D01*
X40774699Y-25931937D01*
X40779820Y-25939602D01*
X40801032Y-26007356D01*
X40782246Y-26075822D01*
X40779820Y-26079598D01*
X40774698Y-26087264D01*
X40768727Y-26101680D01*
X40706214Y-26252596D01*
X40706213Y-26252599D01*
X40706213Y-26252600D01*
X40701520Y-26276193D01*
X40671300Y-26428118D01*
X40671300Y-26428121D01*
X40671300Y-26607079D01*
X40706213Y-26782600D01*
X40774698Y-26947936D01*
X40874122Y-27096735D01*
X41000665Y-27223278D01*
X41149464Y-27322702D01*
X41314800Y-27391187D01*
X41490321Y-27426100D01*
X41490322Y-27426100D01*
X41669278Y-27426100D01*
X41669279Y-27426100D01*
X41844800Y-27391187D01*
X42010136Y-27322702D01*
X42017794Y-27317584D01*
X42085544Y-27296367D01*
X42154012Y-27315147D01*
X42157779Y-27317567D01*
X42162038Y-27320413D01*
X42165462Y-27322701D01*
X42165463Y-27322701D01*
X42165464Y-27322702D01*
X42330800Y-27391187D01*
X42506321Y-27426100D01*
X42506322Y-27426100D01*
X42685278Y-27426100D01*
X42685279Y-27426100D01*
X42860800Y-27391187D01*
X43026136Y-27322702D01*
X43174935Y-27223278D01*
X43301478Y-27096735D01*
X43400902Y-26947936D01*
X43469387Y-26782600D01*
X43504300Y-26607079D01*
X43504300Y-26428121D01*
X43469387Y-26252600D01*
X43400902Y-26087264D01*
X43395784Y-26079605D01*
X43374567Y-26011856D01*
X43393347Y-25943388D01*
X43395767Y-25939620D01*
X43400902Y-25931936D01*
X43469387Y-25766600D01*
X43504300Y-25591079D01*
X43504300Y-25412121D01*
X43469387Y-25236600D01*
X43400902Y-25071264D01*
X43400900Y-25071262D01*
X43399226Y-25067219D01*
X43391636Y-24996630D01*
X43399226Y-24970781D01*
X43416532Y-24929003D01*
X43469387Y-24801400D01*
X43504300Y-24625879D01*
X43504300Y-24446921D01*
X43469387Y-24271400D01*
X43400902Y-24106064D01*
X43301478Y-23957265D01*
X43174935Y-23830722D01*
X43026136Y-23731298D01*
X42909229Y-23682873D01*
X42860803Y-23662814D01*
X42860801Y-23662813D01*
X42860800Y-23662813D01*
X42772445Y-23645238D01*
X42685281Y-23627900D01*
X42685279Y-23627900D01*
X42506321Y-23627900D01*
X42506318Y-23627900D01*
X42375571Y-23653907D01*
X42330800Y-23662813D01*
X42330799Y-23662813D01*
X42330796Y-23662814D01*
X42165462Y-23731299D01*
X42157798Y-23736420D01*
X42090044Y-23757632D01*
X42021578Y-23738846D01*
X42017802Y-23736420D01*
X42010137Y-23731299D01*
X42010138Y-23731299D01*
X42010136Y-23731298D01*
X41893229Y-23682873D01*
X41844803Y-23662814D01*
X41844801Y-23662813D01*
X41844800Y-23662813D01*
X41756445Y-23645238D01*
X41669281Y-23627900D01*
X41669279Y-23627900D01*
X41490321Y-23627900D01*
X41490318Y-23627900D01*
X41359571Y-23653907D01*
X41314800Y-23662813D01*
X41314799Y-23662813D01*
X41314796Y-23662814D01*
X41149462Y-23731299D01*
X41000669Y-23830719D01*
X41000662Y-23830724D01*
X40874124Y-23957262D01*
X40874119Y-23957269D01*
X40774699Y-24106062D01*
X40706214Y-24271396D01*
X40671300Y-24446918D01*
X32531453Y-24446918D01*
X32524990Y-24386803D01*
X32524988Y-24386795D01*
X32473889Y-24249797D01*
X32473887Y-24249792D01*
X32386261Y-24132738D01*
X32269207Y-24045112D01*
X32269202Y-24045110D01*
X32132204Y-23994011D01*
X32132196Y-23994009D01*
X32071649Y-23987500D01*
X32071638Y-23987500D01*
X31174362Y-23987500D01*
X31174350Y-23987500D01*
X31113803Y-23994009D01*
X31113795Y-23994011D01*
X30976797Y-24045110D01*
X30976792Y-24045113D01*
X30932597Y-24078197D01*
X30866076Y-24103008D01*
X30809952Y-24090970D01*
X30808818Y-24093710D01*
X30637857Y-24022895D01*
X30637854Y-24022894D01*
X30627000Y-24020735D01*
X30627000Y-26271262D01*
X30637857Y-26269104D01*
X30808818Y-26198290D01*
X30810025Y-26201204D01*
X30865969Y-26188983D01*
X30932507Y-26213735D01*
X30976796Y-26246889D01*
X30976799Y-26246890D01*
X31113795Y-26297988D01*
X31113803Y-26297990D01*
X31174350Y-26304499D01*
X31174355Y-26304499D01*
X31174362Y-26304500D01*
X31534500Y-26304500D01*
X31602621Y-26324502D01*
X31649114Y-26378158D01*
X31660500Y-26430500D01*
X31660500Y-46364751D01*
X31640498Y-46432872D01*
X31639009Y-46434920D01*
X31639086Y-46434972D01*
X31525279Y-46605296D01*
X31449258Y-46788825D01*
X31449256Y-46788830D01*
X31410500Y-46983668D01*
X31410500Y-49214331D01*
X31434442Y-49334696D01*
X31449256Y-49409169D01*
X31525279Y-49592704D01*
X31635647Y-49757881D01*
X31776119Y-49898353D01*
X31941296Y-50008721D01*
X32124831Y-50084744D01*
X32319671Y-50123500D01*
X32319672Y-50123500D01*
X32518328Y-50123500D01*
X32518329Y-50123500D01*
X32713169Y-50084744D01*
X32896704Y-50008721D01*
X33061881Y-49898353D01*
X33202353Y-49757881D01*
X33312721Y-49592704D01*
X33388744Y-49409169D01*
X33427500Y-49214329D01*
X33427500Y-48008271D01*
X33427500Y-46983671D01*
X33388744Y-46788831D01*
X33312721Y-46605296D01*
X33202353Y-46440119D01*
X33198914Y-46434972D01*
X33201259Y-46433404D01*
X33178318Y-46379088D01*
X33177500Y-46364751D01*
X33177500Y-44771545D01*
X33197502Y-44703424D01*
X33251158Y-44656931D01*
X33321432Y-44646827D01*
X33386012Y-44676321D01*
X33402094Y-44694552D01*
X33402591Y-44694145D01*
X33406520Y-44698932D01*
X33406522Y-44698935D01*
X33533065Y-44825478D01*
X33681864Y-44924902D01*
X33847200Y-44993387D01*
X34022721Y-45028300D01*
X34022722Y-45028300D01*
X34201678Y-45028300D01*
X34201679Y-45028300D01*
X34214487Y-45025752D01*
X34217918Y-45025070D01*
X34288632Y-45031398D01*
X34344700Y-45074952D01*
X34368319Y-45141905D01*
X34368500Y-45148649D01*
X34368500Y-45533321D01*
X34392304Y-45652993D01*
X34394766Y-45665369D01*
X34424921Y-45738169D01*
X34446290Y-45789759D01*
X34516189Y-45894370D01*
X34521091Y-45901706D01*
X34521094Y-45901709D01*
X34521097Y-45901713D01*
X34632289Y-46012905D01*
X34666315Y-46075217D01*
X34661250Y-46146032D01*
X34618703Y-46202868D01*
X34552183Y-46227679D01*
X34543194Y-46228000D01*
X33782000Y-46228000D01*
X33782000Y-53393666D01*
X33761998Y-53461787D01*
X33708342Y-53508280D01*
X33704226Y-53510071D01*
X33616775Y-53546296D01*
X33605662Y-53550899D01*
X33456869Y-53650319D01*
X33456862Y-53650324D01*
X33330324Y-53776862D01*
X33330319Y-53776869D01*
X33266553Y-53872303D01*
X33230898Y-53925664D01*
X33216716Y-53959902D01*
X33162414Y-54090996D01*
X33127500Y-54266518D01*
X33127500Y-54445481D01*
X33139032Y-54503454D01*
X33151426Y-54565766D01*
X33162414Y-54621003D01*
X33182473Y-54669429D01*
X33230898Y-54786336D01*
X33330322Y-54935135D01*
X33456865Y-55061678D01*
X33605664Y-55161102D01*
X33771000Y-55229587D01*
X33946521Y-55264500D01*
X33946522Y-55264500D01*
X34125478Y-55264500D01*
X34125479Y-55264500D01*
X34301000Y-55229587D01*
X34466336Y-55161102D01*
X34615135Y-55061678D01*
X34741678Y-54935135D01*
X34841102Y-54786336D01*
X34909587Y-54621000D01*
X34944500Y-54445479D01*
X34944500Y-54266521D01*
X34909587Y-54091000D01*
X34841102Y-53925664D01*
X34750456Y-53790002D01*
X34729241Y-53722249D01*
X34748024Y-53653782D01*
X34800842Y-53606339D01*
X34855221Y-53594000D01*
X37846000Y-53594000D01*
X37846000Y-51815000D01*
X37866002Y-51746879D01*
X37919658Y-51700386D01*
X37972000Y-51689000D01*
X40328906Y-51689000D01*
X40397027Y-51709002D01*
X40443520Y-51762658D01*
X40453624Y-51832932D01*
X40424130Y-51897512D01*
X40418001Y-51904095D01*
X37641501Y-54680595D01*
X37579189Y-54714621D01*
X37552406Y-54717500D01*
X37502518Y-54717500D01*
X37371771Y-54743507D01*
X37327000Y-54752413D01*
X37326999Y-54752413D01*
X37326996Y-54752414D01*
X37195902Y-54806716D01*
X37170964Y-54817046D01*
X37161662Y-54820899D01*
X37012869Y-54920319D01*
X37012862Y-54920324D01*
X36886324Y-55046862D01*
X36886319Y-55046869D01*
X36786899Y-55195662D01*
X36718414Y-55360996D01*
X36683500Y-55536518D01*
X36683500Y-55536521D01*
X36683500Y-55715479D01*
X36718413Y-55891000D01*
X36786898Y-56056336D01*
X36886322Y-56205135D01*
X37012865Y-56331678D01*
X37161664Y-56431102D01*
X37327000Y-56499587D01*
X37502521Y-56534500D01*
X37502522Y-56534500D01*
X37681478Y-56534500D01*
X37681479Y-56534500D01*
X37857000Y-56499587D01*
X38022336Y-56431102D01*
X38032495Y-56424313D01*
X38100246Y-56403096D01*
X38168714Y-56421877D01*
X38216159Y-56474692D01*
X38228500Y-56529076D01*
X38228500Y-66864396D01*
X38233982Y-66891954D01*
X38252845Y-66986785D01*
X38300600Y-67102075D01*
X38369929Y-67205833D01*
X39512929Y-68348833D01*
X39601167Y-68437071D01*
X39704925Y-68506400D01*
X39820215Y-68554155D01*
X39942606Y-68578500D01*
X41641923Y-68578500D01*
X41710044Y-68598502D01*
X41756537Y-68652158D01*
X41766641Y-68722432D01*
X41746689Y-68774501D01*
X41739898Y-68784663D01*
X41671414Y-68949996D01*
X41636500Y-69125518D01*
X41636500Y-69304484D01*
X41645339Y-69348919D01*
X41639011Y-69419633D01*
X41595456Y-69475700D01*
X41528503Y-69499319D01*
X41521760Y-69499500D01*
X38902017Y-69499500D01*
X38833896Y-69479498D01*
X38787403Y-69425842D01*
X38777299Y-69355568D01*
X38785608Y-69325281D01*
X38787266Y-69321278D01*
X38839987Y-69194000D01*
X38874900Y-69018479D01*
X38874900Y-68839521D01*
X38839987Y-68664000D01*
X38771502Y-68498664D01*
X38672078Y-68349865D01*
X38545535Y-68223322D01*
X38396736Y-68123898D01*
X38279829Y-68075473D01*
X38231403Y-68055414D01*
X38231401Y-68055413D01*
X38231400Y-68055413D01*
X38143045Y-68037838D01*
X38055881Y-68020500D01*
X38055879Y-68020500D01*
X37876921Y-68020500D01*
X37876918Y-68020500D01*
X37746171Y-68046507D01*
X37701400Y-68055413D01*
X37701399Y-68055413D01*
X37701396Y-68055414D01*
X37536062Y-68123899D01*
X37387269Y-68223319D01*
X37387262Y-68223324D01*
X37260724Y-68349862D01*
X37260719Y-68349869D01*
X37179541Y-68471362D01*
X37161298Y-68498664D01*
X37158094Y-68506400D01*
X37092814Y-68663996D01*
X37057900Y-68839518D01*
X37057900Y-69018481D01*
X37092814Y-69194003D01*
X37121136Y-69262378D01*
X37141744Y-69312130D01*
X37147192Y-69325281D01*
X37154781Y-69395871D01*
X37123002Y-69459358D01*
X37061944Y-69495586D01*
X37030783Y-69499500D01*
X31936872Y-69499500D01*
X31868751Y-69479498D01*
X31822258Y-69425842D01*
X31812154Y-69355568D01*
X31820463Y-69325281D01*
X31827414Y-69308500D01*
X31861587Y-69226000D01*
X31896500Y-69050479D01*
X31896500Y-68871521D01*
X31861587Y-68696000D01*
X31793102Y-68530664D01*
X31693678Y-68381865D01*
X31567135Y-68255322D01*
X31418336Y-68155898D01*
X31301429Y-68107473D01*
X31253003Y-68087414D01*
X31253001Y-68087413D01*
X31253000Y-68087413D01*
X31164645Y-68069838D01*
X31077481Y-68052500D01*
X31077479Y-68052500D01*
X30898521Y-68052500D01*
X30898518Y-68052500D01*
X30767771Y-68078507D01*
X30723000Y-68087413D01*
X30722999Y-68087413D01*
X30722996Y-68087414D01*
X30557662Y-68155899D01*
X30408869Y-68255319D01*
X30408862Y-68255324D01*
X30282324Y-68381862D01*
X30282319Y-68381869D01*
X30199111Y-68506400D01*
X30182898Y-68530664D01*
X30173168Y-68554155D01*
X30114414Y-68695996D01*
X30079500Y-68871518D01*
X30079500Y-68871521D01*
X30079500Y-69050479D01*
X30108048Y-69194003D01*
X30114414Y-69226003D01*
X30155537Y-69325281D01*
X30163126Y-69395871D01*
X30131347Y-69459358D01*
X30070289Y-69495586D01*
X30039128Y-69499500D01*
X25821902Y-69499500D01*
X25753781Y-69479498D01*
X25707288Y-69425842D01*
X25697184Y-69355568D01*
X25726678Y-69290988D01*
X25762506Y-69262378D01*
X25908594Y-69184291D01*
X26211508Y-68981891D01*
X26211514Y-68981886D01*
X26437343Y-68796552D01*
X26245280Y-68604489D01*
X26211254Y-68542177D01*
X26216319Y-68471362D01*
X26258866Y-68414526D01*
X26264330Y-68410658D01*
X26276191Y-68402734D01*
X26402734Y-68276191D01*
X26410630Y-68264373D01*
X26465101Y-68218847D01*
X26535544Y-68209997D01*
X26599589Y-68240635D01*
X26604489Y-68245280D01*
X26796552Y-68437343D01*
X26981886Y-68211514D01*
X26981891Y-68211508D01*
X27184291Y-67908594D01*
X27356034Y-67587286D01*
X27495454Y-67250698D01*
X27495455Y-67250694D01*
X27601217Y-66902043D01*
X27672288Y-66544738D01*
X27672291Y-66544718D01*
X27707999Y-66182168D01*
X27708000Y-66182152D01*
X27708000Y-65817847D01*
X27707999Y-65817831D01*
X27672291Y-65455281D01*
X27672288Y-65455261D01*
X27601217Y-65097956D01*
X27495455Y-64749305D01*
X27495454Y-64749301D01*
X27356034Y-64412713D01*
X27184291Y-64091405D01*
X26981891Y-63788491D01*
X26981886Y-63788485D01*
X26796552Y-63562655D01*
X26604489Y-63754719D01*
X26542177Y-63788744D01*
X26471361Y-63783679D01*
X26414526Y-63741132D01*
X26410637Y-63735636D01*
X26402734Y-63723809D01*
X26276191Y-63597266D01*
X26276184Y-63597261D01*
X26264372Y-63589368D01*
X26218845Y-63534891D01*
X26209998Y-63464447D01*
X26240640Y-63400404D01*
X26245280Y-63395508D01*
X26437343Y-63203445D01*
X26211525Y-63018121D01*
X26211510Y-63018110D01*
X25908594Y-62815708D01*
X25759383Y-62735953D01*
X25587286Y-62643965D01*
X25556029Y-62631018D01*
X26760000Y-62631018D01*
X26760000Y-62809981D01*
X26776777Y-62894322D01*
X26794913Y-62985500D01*
X26863398Y-63150836D01*
X26962822Y-63299635D01*
X27089365Y-63426178D01*
X27238164Y-63525602D01*
X27403500Y-63594087D01*
X27579021Y-63629000D01*
X27579022Y-63629000D01*
X27757978Y-63629000D01*
X27757979Y-63629000D01*
X27933500Y-63594087D01*
X28098836Y-63525602D01*
X28247635Y-63426178D01*
X28374178Y-63299635D01*
X28473602Y-63150836D01*
X28542087Y-62985500D01*
X28577000Y-62809979D01*
X28577000Y-62631021D01*
X28542087Y-62455500D01*
X28473602Y-62290164D01*
X28374178Y-62141365D01*
X28247635Y-62014822D01*
X28098836Y-61915398D01*
X27981929Y-61866973D01*
X27933503Y-61846914D01*
X27933501Y-61846913D01*
X27933500Y-61846913D01*
X27845145Y-61829338D01*
X27757981Y-61812000D01*
X27757979Y-61812000D01*
X27579021Y-61812000D01*
X27579018Y-61812000D01*
X27448271Y-61838007D01*
X27403500Y-61846913D01*
X27403499Y-61846913D01*
X27403496Y-61846914D01*
X27238162Y-61915399D01*
X27089369Y-62014819D01*
X27089362Y-62014824D01*
X26962824Y-62141362D01*
X26962822Y-62141365D01*
X26863398Y-62290164D01*
X26849216Y-62324402D01*
X26794914Y-62455496D01*
X26760000Y-62631018D01*
X25556029Y-62631018D01*
X25250698Y-62504545D01*
X25250694Y-62504544D01*
X24902043Y-62398782D01*
X24544738Y-62327711D01*
X24544718Y-62327708D01*
X24182168Y-62292000D01*
X23817831Y-62292000D01*
X23455281Y-62327708D01*
X23455261Y-62327711D01*
X23097956Y-62398782D01*
X22749305Y-62504544D01*
X22749301Y-62504545D01*
X22412713Y-62643965D01*
X22091405Y-62815708D01*
X21788481Y-63018115D01*
X21562655Y-63203445D01*
X21754719Y-63395508D01*
X21788744Y-63457821D01*
X21783680Y-63528636D01*
X21741133Y-63585472D01*
X21735630Y-63589366D01*
X21723813Y-63597261D01*
X21723803Y-63597270D01*
X21597270Y-63723803D01*
X21597261Y-63723813D01*
X21589366Y-63735630D01*
X21534887Y-63781156D01*
X21464444Y-63790001D01*
X21400401Y-63759357D01*
X21395508Y-63754719D01*
X21203445Y-63562655D01*
X21018115Y-63788481D01*
X20815708Y-64091405D01*
X20737622Y-64237494D01*
X20687870Y-64288142D01*
X20618633Y-64303852D01*
X20551894Y-64279636D01*
X20508842Y-64223182D01*
X20500500Y-64178098D01*
X20500500Y-29966000D01*
X21125302Y-29966000D01*
X22029297Y-29966000D01*
X21994075Y-30027007D01*
X21960000Y-30154174D01*
X21960000Y-30285826D01*
X21994075Y-30412993D01*
X22029297Y-30474000D01*
X21125302Y-30474000D01*
X21135440Y-30538004D01*
X21201490Y-30741286D01*
X21201493Y-30741292D01*
X21298536Y-30931750D01*
X21424177Y-31104679D01*
X21575320Y-31255822D01*
X21748256Y-31381468D01*
X21750052Y-31382569D01*
X21750591Y-31383164D01*
X21752258Y-31384376D01*
X21752003Y-31384726D01*
X21797682Y-31435217D01*
X21809288Y-31505259D01*
X21781183Y-31570456D01*
X21752211Y-31595559D01*
X21752258Y-31595624D01*
X21751511Y-31596166D01*
X21750052Y-31597431D01*
X21748256Y-31598531D01*
X21575320Y-31724177D01*
X21424177Y-31875320D01*
X21298536Y-32048249D01*
X21201493Y-32238707D01*
X21201490Y-32238713D01*
X21135440Y-32441995D01*
X21125302Y-32506000D01*
X22029297Y-32506000D01*
X21994075Y-32567007D01*
X21960000Y-32694174D01*
X21960000Y-32825826D01*
X21994075Y-32952993D01*
X22029297Y-33014000D01*
X21125302Y-33014000D01*
X21135440Y-33078004D01*
X21201490Y-33281286D01*
X21201493Y-33281292D01*
X21298536Y-33471750D01*
X21424177Y-33644679D01*
X21575320Y-33795822D01*
X21748256Y-33921468D01*
X21750052Y-33922569D01*
X21750591Y-33923164D01*
X21752258Y-33924376D01*
X21752003Y-33924726D01*
X21797682Y-33975217D01*
X21809288Y-34045259D01*
X21781183Y-34110456D01*
X21752211Y-34135559D01*
X21752258Y-34135624D01*
X21751511Y-34136166D01*
X21750052Y-34137431D01*
X21748256Y-34138531D01*
X21575320Y-34264177D01*
X21424177Y-34415320D01*
X21298536Y-34588249D01*
X21201493Y-34778707D01*
X21201490Y-34778713D01*
X21135440Y-34981995D01*
X21125302Y-35046000D01*
X22029297Y-35046000D01*
X21994075Y-35107007D01*
X21960000Y-35234174D01*
X21960000Y-35365826D01*
X21994075Y-35492993D01*
X22029297Y-35554000D01*
X21125302Y-35554000D01*
X21135440Y-35618004D01*
X21201490Y-35821286D01*
X21201493Y-35821292D01*
X21298536Y-36011750D01*
X21424177Y-36184679D01*
X21575320Y-36335822D01*
X21748256Y-36461468D01*
X21750052Y-36462569D01*
X21750591Y-36463164D01*
X21752258Y-36464376D01*
X21752003Y-36464726D01*
X21797682Y-36515217D01*
X21809288Y-36585259D01*
X21781183Y-36650456D01*
X21752211Y-36675559D01*
X21752258Y-36675624D01*
X21751511Y-36676166D01*
X21750052Y-36677431D01*
X21748256Y-36678531D01*
X21575320Y-36804177D01*
X21424177Y-36955320D01*
X21298536Y-37128249D01*
X21201493Y-37318707D01*
X21201490Y-37318713D01*
X21135440Y-37521995D01*
X21125302Y-37586000D01*
X22029297Y-37586000D01*
X21994075Y-37647007D01*
X21960000Y-37774174D01*
X21960000Y-37905826D01*
X21994075Y-38032993D01*
X22029297Y-38094000D01*
X21125302Y-38094000D01*
X21135440Y-38158004D01*
X21201490Y-38361286D01*
X21201493Y-38361292D01*
X21298536Y-38551750D01*
X21424177Y-38724679D01*
X21575320Y-38875822D01*
X21748256Y-39001468D01*
X21750052Y-39002569D01*
X21750591Y-39003164D01*
X21752258Y-39004376D01*
X21752003Y-39004726D01*
X21797682Y-39055217D01*
X21809288Y-39125259D01*
X21781183Y-39190456D01*
X21752211Y-39215559D01*
X21752258Y-39215624D01*
X21751511Y-39216166D01*
X21750052Y-39217431D01*
X21748256Y-39218531D01*
X21575320Y-39344177D01*
X21424177Y-39495320D01*
X21298536Y-39668249D01*
X21201493Y-39858707D01*
X21201490Y-39858713D01*
X21135440Y-40061995D01*
X21125302Y-40126000D01*
X22029297Y-40126000D01*
X21994075Y-40187007D01*
X21960000Y-40314174D01*
X21960000Y-40445826D01*
X21994075Y-40572993D01*
X22029297Y-40634000D01*
X21125302Y-40634000D01*
X21135440Y-40698004D01*
X21201490Y-40901286D01*
X21201493Y-40901292D01*
X21298536Y-41091750D01*
X21424177Y-41264679D01*
X21575320Y-41415822D01*
X21748256Y-41541468D01*
X21750052Y-41542569D01*
X21750591Y-41543164D01*
X21752258Y-41544376D01*
X21752003Y-41544726D01*
X21797682Y-41595217D01*
X21809288Y-41665259D01*
X21781183Y-41730456D01*
X21752211Y-41755559D01*
X21752258Y-41755624D01*
X21751511Y-41756166D01*
X21750052Y-41757431D01*
X21748256Y-41758531D01*
X21575320Y-41884177D01*
X21424177Y-42035320D01*
X21298536Y-42208249D01*
X21201493Y-42398707D01*
X21201490Y-42398713D01*
X21135440Y-42601995D01*
X21125302Y-42666000D01*
X22029297Y-42666000D01*
X21994075Y-42727007D01*
X21960000Y-42854174D01*
X21960000Y-42985826D01*
X21994075Y-43112993D01*
X22029297Y-43174000D01*
X21125302Y-43174000D01*
X21135440Y-43238004D01*
X21201490Y-43441286D01*
X21201493Y-43441292D01*
X21298536Y-43631750D01*
X21424177Y-43804679D01*
X21575320Y-43955822D01*
X21748256Y-44081468D01*
X21750052Y-44082569D01*
X21750591Y-44083164D01*
X21752258Y-44084376D01*
X21752003Y-44084726D01*
X21797682Y-44135217D01*
X21809288Y-44205259D01*
X21781183Y-44270456D01*
X21752211Y-44295559D01*
X21752258Y-44295624D01*
X21751511Y-44296166D01*
X21750052Y-44297431D01*
X21748256Y-44298531D01*
X21575320Y-44424177D01*
X21424177Y-44575320D01*
X21298536Y-44748249D01*
X21201493Y-44938707D01*
X21201490Y-44938713D01*
X21135440Y-45141995D01*
X21125302Y-45206000D01*
X22029297Y-45206000D01*
X21994075Y-45267007D01*
X21960000Y-45394174D01*
X21960000Y-45525826D01*
X21994075Y-45652993D01*
X22029297Y-45714000D01*
X21125302Y-45714000D01*
X21135440Y-45778004D01*
X21201490Y-45981286D01*
X21201493Y-45981292D01*
X21298536Y-46171750D01*
X21424177Y-46344679D01*
X21575320Y-46495822D01*
X21748256Y-46621468D01*
X21750052Y-46622569D01*
X21750591Y-46623164D01*
X21752258Y-46624376D01*
X21752003Y-46624726D01*
X21797682Y-46675217D01*
X21809288Y-46745259D01*
X21781183Y-46810456D01*
X21752211Y-46835559D01*
X21752258Y-46835624D01*
X21751511Y-46836166D01*
X21750052Y-46837431D01*
X21748256Y-46838531D01*
X21575320Y-46964177D01*
X21424177Y-47115320D01*
X21298536Y-47288249D01*
X21201493Y-47478707D01*
X21201490Y-47478713D01*
X21135440Y-47681995D01*
X21125302Y-47746000D01*
X22029297Y-47746000D01*
X21994075Y-47807007D01*
X21960000Y-47934174D01*
X21960000Y-48065826D01*
X21994075Y-48192993D01*
X22029297Y-48254000D01*
X21125302Y-48254000D01*
X21135440Y-48318004D01*
X21201490Y-48521286D01*
X21201493Y-48521292D01*
X21298536Y-48711750D01*
X21424177Y-48884679D01*
X21575320Y-49035822D01*
X21748249Y-49161463D01*
X21938707Y-49258506D01*
X21938713Y-49258509D01*
X22141998Y-49324560D01*
X22206000Y-49334696D01*
X22206000Y-48430702D01*
X22267007Y-48465925D01*
X22394174Y-48500000D01*
X22525826Y-48500000D01*
X22652993Y-48465925D01*
X22714000Y-48430702D01*
X22714000Y-49334696D01*
X22778001Y-49324560D01*
X22981286Y-49258509D01*
X22981292Y-49258506D01*
X23171750Y-49161463D01*
X23344677Y-49035823D01*
X23447787Y-48932713D01*
X23475246Y-48917719D01*
X23501599Y-48900849D01*
X23506126Y-48900857D01*
X23510099Y-48898688D01*
X23541304Y-48900919D01*
X23572595Y-48900975D01*
X23576398Y-48903429D01*
X23580915Y-48903752D01*
X23605962Y-48922502D01*
X23632253Y-48939464D01*
X23635145Y-48944348D01*
X23637751Y-48946299D01*
X23651589Y-48969669D01*
X23653408Y-48973670D01*
X23699111Y-49096204D01*
X23724553Y-49130190D01*
X23730206Y-49142626D01*
X23733353Y-49164793D01*
X23741179Y-49185774D01*
X23741500Y-49194765D01*
X23741500Y-54817046D01*
X23745597Y-54842913D01*
X23753449Y-54892489D01*
X23755000Y-54912199D01*
X23755000Y-56430149D01*
X23761509Y-56490696D01*
X23761511Y-56490704D01*
X23812610Y-56627702D01*
X23812612Y-56627707D01*
X23900238Y-56744761D01*
X24017292Y-56832387D01*
X24017294Y-56832388D01*
X24017296Y-56832389D01*
X24076375Y-56854424D01*
X24154295Y-56883488D01*
X24154303Y-56883490D01*
X24214850Y-56889999D01*
X24214855Y-56889999D01*
X24214862Y-56890000D01*
X24214868Y-56890000D01*
X24691899Y-56890000D01*
X24760020Y-56910002D01*
X24806513Y-56963658D01*
X24816617Y-57033932D01*
X24787123Y-57098512D01*
X24740117Y-57132409D01*
X24706453Y-57146352D01*
X24706444Y-57146357D01*
X24512553Y-57258300D01*
X24448590Y-57307380D01*
X25256902Y-58115692D01*
X25231909Y-58122389D01*
X25095092Y-58201381D01*
X24983381Y-58313092D01*
X24904389Y-58449909D01*
X24897692Y-58474902D01*
X24089380Y-57666590D01*
X24040300Y-57730553D01*
X23928357Y-57924444D01*
X23928352Y-57924453D01*
X23842673Y-58131303D01*
X23784722Y-58347577D01*
X23755500Y-58569549D01*
X23755500Y-58793450D01*
X23784722Y-59015422D01*
X23842673Y-59231696D01*
X23928352Y-59438546D01*
X23928357Y-59438555D01*
X24040300Y-59632446D01*
X24089379Y-59696407D01*
X24089381Y-59696408D01*
X24897691Y-58888097D01*
X24904389Y-58913091D01*
X24983381Y-59049908D01*
X25095092Y-59161619D01*
X25231909Y-59240611D01*
X25256901Y-59247307D01*
X24448590Y-60055618D01*
X24448590Y-60055619D01*
X24512552Y-60104699D01*
X24706444Y-60216642D01*
X24706453Y-60216647D01*
X24913303Y-60302326D01*
X25129577Y-60360277D01*
X25351549Y-60389499D01*
X25351559Y-60389500D01*
X25575441Y-60389500D01*
X25575450Y-60389499D01*
X25797422Y-60360277D01*
X26013696Y-60302326D01*
X26220546Y-60216647D01*
X26220555Y-60216642D01*
X26414453Y-60104695D01*
X26478408Y-60055618D01*
X25670098Y-59247307D01*
X25695091Y-59240611D01*
X25831908Y-59161619D01*
X25943619Y-59049908D01*
X26022611Y-58913091D01*
X26029307Y-58888097D01*
X26837618Y-59696408D01*
X26886695Y-59632453D01*
X26998642Y-59438555D01*
X26998647Y-59438546D01*
X27084326Y-59231696D01*
X27142277Y-59015422D01*
X27171499Y-58793450D01*
X27171500Y-58793441D01*
X27171500Y-58569559D01*
X27171499Y-58569549D01*
X27142277Y-58347577D01*
X27084326Y-58131303D01*
X26998647Y-57924453D01*
X26998642Y-57924444D01*
X26886699Y-57730552D01*
X26837618Y-57666590D01*
X26029307Y-58474901D01*
X26022611Y-58449909D01*
X25943619Y-58313092D01*
X25831908Y-58201381D01*
X25695091Y-58122389D01*
X25670097Y-58115692D01*
X26478408Y-57307381D01*
X26478407Y-57307379D01*
X26414446Y-57258300D01*
X26220555Y-57146357D01*
X26220546Y-57146352D01*
X26186883Y-57132409D01*
X26131602Y-57087860D01*
X26109181Y-57020497D01*
X26126739Y-56951706D01*
X26178701Y-56903327D01*
X26235101Y-56890000D01*
X26712132Y-56890000D01*
X26712138Y-56890000D01*
X26712145Y-56889999D01*
X26712149Y-56889999D01*
X26772696Y-56883490D01*
X26772699Y-56883489D01*
X26772701Y-56883489D01*
X26909704Y-56832389D01*
X26928476Y-56818337D01*
X27026761Y-56744761D01*
X27114387Y-56627707D01*
X27114387Y-56627706D01*
X27114389Y-56627704D01*
X27165489Y-56490701D01*
X27166911Y-56477481D01*
X27171999Y-56430149D01*
X27172000Y-56430132D01*
X27172000Y-53932867D01*
X27171999Y-53932850D01*
X27165490Y-53872303D01*
X27165488Y-53872295D01*
X27129895Y-53776869D01*
X27114389Y-53735296D01*
X27114388Y-53735294D01*
X27114387Y-53735292D01*
X27026761Y-53618238D01*
X26909707Y-53530612D01*
X26909702Y-53530610D01*
X26772704Y-53479511D01*
X26772696Y-53479509D01*
X26712149Y-53473000D01*
X26712138Y-53473000D01*
X26384500Y-53473000D01*
X26316379Y-53452998D01*
X26269886Y-53399342D01*
X26258500Y-53347000D01*
X26258500Y-52923168D01*
X30360500Y-52923168D01*
X30360500Y-53121831D01*
X30399256Y-53316669D01*
X30399259Y-53316678D01*
X30439747Y-53414426D01*
X30447336Y-53485015D01*
X30424211Y-53538145D01*
X30418113Y-53546291D01*
X30418110Y-53546296D01*
X30367011Y-53683295D01*
X30367009Y-53683303D01*
X30360500Y-53743850D01*
X30360500Y-54841149D01*
X30367009Y-54901696D01*
X30367011Y-54901704D01*
X30418110Y-55038702D01*
X30418112Y-55038707D01*
X30505738Y-55155761D01*
X30622792Y-55243387D01*
X30622794Y-55243388D01*
X30622796Y-55243389D01*
X30679394Y-55264499D01*
X30759795Y-55294488D01*
X30759803Y-55294490D01*
X30820350Y-55300999D01*
X30820355Y-55300999D01*
X30820362Y-55301000D01*
X30820368Y-55301000D01*
X31917632Y-55301000D01*
X31917638Y-55301000D01*
X31917645Y-55300999D01*
X31917649Y-55300999D01*
X31978196Y-55294490D01*
X31978199Y-55294489D01*
X31978201Y-55294489D01*
X32115204Y-55243389D01*
X32133642Y-55229587D01*
X32232261Y-55155761D01*
X32319887Y-55038707D01*
X32319887Y-55038706D01*
X32319889Y-55038704D01*
X32370989Y-54901701D01*
X32371980Y-54892489D01*
X32377499Y-54841149D01*
X32377500Y-54841132D01*
X32377500Y-53743867D01*
X32377499Y-53743850D01*
X32370990Y-53683303D01*
X32370988Y-53683295D01*
X32319889Y-53546297D01*
X32319889Y-53546296D01*
X32313793Y-53538153D01*
X32288982Y-53471632D01*
X32298252Y-53414424D01*
X32314942Y-53374131D01*
X32338744Y-53316669D01*
X32377500Y-53121829D01*
X32377500Y-52923171D01*
X32338744Y-52728331D01*
X32262721Y-52544796D01*
X32152353Y-52379619D01*
X32011881Y-52239147D01*
X31846704Y-52128779D01*
X31663169Y-52052756D01*
X31468331Y-52014000D01*
X31468329Y-52014000D01*
X31269671Y-52014000D01*
X31269668Y-52014000D01*
X31074830Y-52052756D01*
X31074825Y-52052758D01*
X30891296Y-52128779D01*
X30726123Y-52239144D01*
X30726116Y-52239149D01*
X30585649Y-52379616D01*
X30585644Y-52379623D01*
X30475279Y-52544796D01*
X30399258Y-52728325D01*
X30399256Y-52728330D01*
X30360500Y-52923168D01*
X26258500Y-52923168D01*
X26258500Y-49194765D01*
X26270324Y-49141475D01*
X26275829Y-49129678D01*
X26300889Y-49096204D01*
X26338425Y-48995565D01*
X26340549Y-48991016D01*
X26360829Y-48967999D01*
X26379216Y-48943438D01*
X26384063Y-48941629D01*
X26387485Y-48937747D01*
X26416994Y-48929347D01*
X26445736Y-48918627D01*
X26450791Y-48919726D01*
X26455769Y-48918310D01*
X26485138Y-48927198D01*
X26515111Y-48933719D01*
X26520830Y-48938001D01*
X26523722Y-48938876D01*
X26526755Y-48942436D01*
X26543820Y-48955211D01*
X26656210Y-49067601D01*
X26656213Y-49067603D01*
X26656216Y-49067606D01*
X26829211Y-49193294D01*
X27019737Y-49290372D01*
X27223098Y-49356447D01*
X27223099Y-49356447D01*
X27223104Y-49356449D01*
X27434304Y-49389900D01*
X27434307Y-49389900D01*
X27648133Y-49389900D01*
X27648136Y-49389900D01*
X27859336Y-49356449D01*
X28062703Y-49290372D01*
X28253229Y-49193294D01*
X28426224Y-49067606D01*
X28577426Y-48916404D01*
X28703114Y-48743409D01*
X28800192Y-48552883D01*
X28866269Y-48349516D01*
X28899720Y-48138316D01*
X28899720Y-47924484D01*
X28866269Y-47713284D01*
X28800192Y-47509917D01*
X28703114Y-47319391D01*
X28577426Y-47146396D01*
X28577423Y-47146393D01*
X28577421Y-47146390D01*
X28426229Y-46995198D01*
X28426226Y-46995196D01*
X28426224Y-46995194D01*
X28268693Y-46880741D01*
X28253232Y-46869508D01*
X28252140Y-46868839D01*
X28251811Y-46868475D01*
X28249224Y-46866596D01*
X28249618Y-46866052D01*
X28204503Y-46816196D01*
X28192890Y-46746156D01*
X28220986Y-46680955D01*
X28249350Y-46656378D01*
X28249224Y-46656204D01*
X28251250Y-46654731D01*
X28252140Y-46653961D01*
X28253217Y-46653299D01*
X28253229Y-46653294D01*
X28426224Y-46527606D01*
X28577426Y-46376404D01*
X28703114Y-46203409D01*
X28800192Y-46012883D01*
X28866269Y-45809516D01*
X28899720Y-45598316D01*
X28899720Y-45384484D01*
X28866269Y-45173284D01*
X28800192Y-44969917D01*
X28703114Y-44779391D01*
X28577426Y-44606396D01*
X28577423Y-44606393D01*
X28577421Y-44606390D01*
X28426229Y-44455198D01*
X28426226Y-44455196D01*
X28426224Y-44455194D01*
X28253229Y-44329506D01*
X28253227Y-44329505D01*
X28252140Y-44328839D01*
X28251811Y-44328475D01*
X28249224Y-44326596D01*
X28249618Y-44326052D01*
X28204503Y-44276196D01*
X28192890Y-44206156D01*
X28220986Y-44140955D01*
X28249350Y-44116378D01*
X28249224Y-44116204D01*
X28251250Y-44114731D01*
X28252140Y-44113961D01*
X28253217Y-44113299D01*
X28253229Y-44113294D01*
X28426224Y-43987606D01*
X28577426Y-43836404D01*
X28703114Y-43663409D01*
X28800192Y-43472883D01*
X28866269Y-43269516D01*
X28899720Y-43058316D01*
X28899720Y-42844484D01*
X28866269Y-42633284D01*
X28800192Y-42429917D01*
X28703114Y-42239391D01*
X28577426Y-42066396D01*
X28577423Y-42066393D01*
X28577421Y-42066390D01*
X28426229Y-41915198D01*
X28426226Y-41915196D01*
X28426224Y-41915194D01*
X28253229Y-41789506D01*
X28253227Y-41789505D01*
X28252140Y-41788839D01*
X28251811Y-41788475D01*
X28249224Y-41786596D01*
X28249618Y-41786052D01*
X28204503Y-41736196D01*
X28192890Y-41666156D01*
X28220986Y-41600955D01*
X28249350Y-41576378D01*
X28249224Y-41576204D01*
X28251250Y-41574731D01*
X28252140Y-41573961D01*
X28253217Y-41573299D01*
X28253229Y-41573294D01*
X28426224Y-41447606D01*
X28577426Y-41296404D01*
X28703114Y-41123409D01*
X28800192Y-40932883D01*
X28866269Y-40729516D01*
X28899720Y-40518316D01*
X28899720Y-40304484D01*
X28866269Y-40093284D01*
X28800192Y-39889917D01*
X28703114Y-39699391D01*
X28577426Y-39526396D01*
X28577423Y-39526393D01*
X28577421Y-39526390D01*
X28426229Y-39375198D01*
X28426226Y-39375196D01*
X28426224Y-39375194D01*
X28253229Y-39249506D01*
X28253227Y-39249505D01*
X28252140Y-39248839D01*
X28251811Y-39248475D01*
X28249224Y-39246596D01*
X28249618Y-39246052D01*
X28204503Y-39196196D01*
X28192890Y-39126156D01*
X28220986Y-39060955D01*
X28249350Y-39036378D01*
X28249224Y-39036204D01*
X28251250Y-39034731D01*
X28252140Y-39033961D01*
X28253217Y-39033299D01*
X28253229Y-39033294D01*
X28426224Y-38907606D01*
X28577426Y-38756404D01*
X28703114Y-38583409D01*
X28800192Y-38392883D01*
X28866269Y-38189516D01*
X28899720Y-37978316D01*
X28899720Y-37764484D01*
X28866269Y-37553284D01*
X28800192Y-37349917D01*
X28703114Y-37159391D01*
X28577426Y-36986396D01*
X28577423Y-36986393D01*
X28577421Y-36986390D01*
X28426229Y-36835198D01*
X28426226Y-36835196D01*
X28426224Y-36835194D01*
X28296001Y-36740582D01*
X28253232Y-36709508D01*
X28252140Y-36708839D01*
X28251811Y-36708475D01*
X28249224Y-36706596D01*
X28249618Y-36706052D01*
X28204503Y-36656196D01*
X28192890Y-36586156D01*
X28220986Y-36520955D01*
X28249350Y-36496378D01*
X28249224Y-36496204D01*
X28251250Y-36494731D01*
X28252140Y-36493961D01*
X28253217Y-36493299D01*
X28253229Y-36493294D01*
X28426224Y-36367606D01*
X28577426Y-36216404D01*
X28703114Y-36043409D01*
X28800192Y-35852883D01*
X28866269Y-35649516D01*
X28899720Y-35438316D01*
X28899720Y-35224484D01*
X28866269Y-35013284D01*
X28800192Y-34809917D01*
X28703114Y-34619391D01*
X28577426Y-34446396D01*
X28577423Y-34446393D01*
X28577421Y-34446390D01*
X28426229Y-34295198D01*
X28426226Y-34295196D01*
X28426224Y-34295194D01*
X28253229Y-34169506D01*
X28253227Y-34169505D01*
X28252140Y-34168839D01*
X28251811Y-34168475D01*
X28249224Y-34166596D01*
X28249618Y-34166052D01*
X28204503Y-34116196D01*
X28192890Y-34046156D01*
X28220986Y-33980955D01*
X28249350Y-33956378D01*
X28249224Y-33956204D01*
X28251250Y-33954731D01*
X28252140Y-33953961D01*
X28253217Y-33953299D01*
X28253229Y-33953294D01*
X28426224Y-33827606D01*
X28577426Y-33676404D01*
X28703114Y-33503409D01*
X28800192Y-33312883D01*
X28866269Y-33109516D01*
X28899720Y-32898316D01*
X28899720Y-32684484D01*
X28866269Y-32473284D01*
X28800192Y-32269917D01*
X28703114Y-32079391D01*
X28577426Y-31906396D01*
X28577423Y-31906393D01*
X28577421Y-31906390D01*
X28474449Y-31803418D01*
X28440423Y-31741106D01*
X28445488Y-31670291D01*
X28488035Y-31613455D01*
X28519504Y-31596271D01*
X28637424Y-31552289D01*
X28754481Y-31464661D01*
X28815899Y-31382617D01*
X28842107Y-31347607D01*
X28842107Y-31347606D01*
X28842109Y-31347604D01*
X28893209Y-31210601D01*
X28899720Y-31150038D01*
X28899720Y-29352762D01*
X28897810Y-29334993D01*
X28893210Y-29292203D01*
X28893208Y-29292195D01*
X28861517Y-29207230D01*
X28842109Y-29155196D01*
X28842108Y-29155194D01*
X28842107Y-29155192D01*
X28754481Y-29038138D01*
X28637427Y-28950512D01*
X28637422Y-28950510D01*
X28500424Y-28899411D01*
X28500416Y-28899409D01*
X28439869Y-28892900D01*
X28439858Y-28892900D01*
X26642582Y-28892900D01*
X26642570Y-28892900D01*
X26582023Y-28899409D01*
X26582015Y-28899411D01*
X26445017Y-28950510D01*
X26445012Y-28950512D01*
X26327958Y-29038138D01*
X26240332Y-29155192D01*
X26240331Y-29155195D01*
X26204549Y-29251127D01*
X26162001Y-29307962D01*
X26095481Y-29332772D01*
X26026107Y-29317680D01*
X25997399Y-29296188D01*
X25885009Y-29183798D01*
X25885006Y-29183796D01*
X25885004Y-29183794D01*
X25747333Y-29083770D01*
X25712012Y-29058108D01*
X25712011Y-29058107D01*
X25712009Y-29058106D01*
X25521483Y-28961028D01*
X25521480Y-28961027D01*
X25521478Y-28961026D01*
X25318120Y-28894952D01*
X25318123Y-28894952D01*
X25257195Y-28885302D01*
X25106916Y-28861500D01*
X24893084Y-28861500D01*
X24681884Y-28894951D01*
X24681878Y-28894952D01*
X24478521Y-28961026D01*
X24478515Y-28961029D01*
X24287987Y-29058108D01*
X24114993Y-29183796D01*
X24114990Y-29183798D01*
X23963798Y-29334990D01*
X23963796Y-29334993D01*
X23838100Y-29507998D01*
X23837131Y-29509580D01*
X23836606Y-29510054D01*
X23835196Y-29511996D01*
X23834787Y-29511699D01*
X23784479Y-29557206D01*
X23714437Y-29568807D01*
X23649242Y-29540697D01*
X23624515Y-29512156D01*
X23624376Y-29512258D01*
X23623194Y-29510631D01*
X23622266Y-29509560D01*
X23621460Y-29508244D01*
X23495822Y-29335320D01*
X23344679Y-29184177D01*
X23171750Y-29058536D01*
X22981292Y-28961493D01*
X22981286Y-28961490D01*
X22778004Y-28895440D01*
X22714000Y-28885302D01*
X22714000Y-29789297D01*
X22652993Y-29754075D01*
X22525826Y-29720000D01*
X22394174Y-29720000D01*
X22267007Y-29754075D01*
X22206000Y-29789297D01*
X22206000Y-28885302D01*
X22141995Y-28895440D01*
X21938713Y-28961490D01*
X21938707Y-28961493D01*
X21748249Y-29058536D01*
X21575320Y-29184177D01*
X21424177Y-29335320D01*
X21298536Y-29508249D01*
X21201493Y-29698707D01*
X21201490Y-29698713D01*
X21135440Y-29901995D01*
X21125302Y-29966000D01*
X20500500Y-29966000D01*
X20500500Y-25821901D01*
X20520502Y-25753780D01*
X20574158Y-25707287D01*
X20644432Y-25697183D01*
X20709012Y-25726677D01*
X20737622Y-25762505D01*
X20815708Y-25908594D01*
X21018110Y-26211510D01*
X21018121Y-26211525D01*
X21203445Y-26437342D01*
X21395508Y-26245280D01*
X21457821Y-26211255D01*
X21528636Y-26216319D01*
X21585472Y-26258866D01*
X21589368Y-26264372D01*
X21593973Y-26271263D01*
X21597266Y-26276191D01*
X21723809Y-26402734D01*
X21735624Y-26410629D01*
X21781152Y-26465104D01*
X21790001Y-26535547D01*
X21759361Y-26599592D01*
X21754719Y-26604489D01*
X21562655Y-26796552D01*
X21788485Y-26981886D01*
X21788491Y-26981891D01*
X22091405Y-27184291D01*
X22412713Y-27356034D01*
X22749301Y-27495454D01*
X22749305Y-27495455D01*
X23097956Y-27601217D01*
X23455261Y-27672288D01*
X23455281Y-27672291D01*
X23817831Y-27707999D01*
X23817847Y-27708000D01*
X24182153Y-27708000D01*
X24182168Y-27707999D01*
X24544718Y-27672291D01*
X24544738Y-27672288D01*
X24902043Y-27601217D01*
X25250694Y-27495455D01*
X25250698Y-27495454D01*
X25587286Y-27356034D01*
X25908594Y-27184291D01*
X26211508Y-26981891D01*
X26211514Y-26981886D01*
X26437343Y-26796552D01*
X26245280Y-26604489D01*
X26211254Y-26542177D01*
X26216319Y-26471362D01*
X26258866Y-26414526D01*
X26264330Y-26410658D01*
X26276191Y-26402734D01*
X26402734Y-26276191D01*
X26410630Y-26264373D01*
X26465101Y-26218847D01*
X26535544Y-26209997D01*
X26599589Y-26240635D01*
X26604489Y-26245280D01*
X26796552Y-26437343D01*
X26981886Y-26211514D01*
X26981891Y-26211508D01*
X27184291Y-25908594D01*
X27356034Y-25587286D01*
X27398224Y-25485432D01*
X29465000Y-25485432D01*
X29499894Y-25660854D01*
X29499896Y-25660859D01*
X29568341Y-25826098D01*
X29667710Y-25974815D01*
X29667715Y-25974821D01*
X29794178Y-26101284D01*
X29794184Y-26101289D01*
X29942901Y-26200658D01*
X30108142Y-26269104D01*
X30108141Y-26269104D01*
X30119000Y-26271263D01*
X30119000Y-25400000D01*
X29465000Y-25400000D01*
X29465000Y-25485432D01*
X27398224Y-25485432D01*
X27475202Y-25299591D01*
X27475202Y-25299590D01*
X27495456Y-25250692D01*
X27542299Y-25096272D01*
X30123000Y-25096272D01*
X30123000Y-25195728D01*
X30161060Y-25287614D01*
X30231386Y-25357940D01*
X30323272Y-25396000D01*
X30422728Y-25396000D01*
X30514614Y-25357940D01*
X30584940Y-25287614D01*
X30623000Y-25195728D01*
X30623000Y-25096272D01*
X30584940Y-25004386D01*
X30514614Y-24934060D01*
X30422728Y-24896000D01*
X30323272Y-24896000D01*
X30231386Y-24934060D01*
X30161060Y-25004386D01*
X30123000Y-25096272D01*
X27542299Y-25096272D01*
X27601217Y-24902043D01*
X27620208Y-24806567D01*
X29465000Y-24806567D01*
X29465000Y-24892000D01*
X30119000Y-24892000D01*
X30119000Y-24020735D01*
X30108145Y-24022894D01*
X30108142Y-24022895D01*
X29942901Y-24091341D01*
X29794184Y-24190710D01*
X29794178Y-24190715D01*
X29667715Y-24317178D01*
X29667710Y-24317184D01*
X29568341Y-24465901D01*
X29499896Y-24631140D01*
X29499894Y-24631145D01*
X29465000Y-24806567D01*
X27620208Y-24806567D01*
X27626328Y-24775799D01*
X27672288Y-24544738D01*
X27672291Y-24544718D01*
X27707999Y-24182168D01*
X27708000Y-24182152D01*
X27708000Y-23817847D01*
X27707999Y-23817831D01*
X27672291Y-23455281D01*
X27672288Y-23455261D01*
X27601217Y-23097956D01*
X27495455Y-22749305D01*
X27495454Y-22749301D01*
X27356034Y-22412713D01*
X27184291Y-22091405D01*
X26981891Y-21788491D01*
X26981886Y-21788485D01*
X26796552Y-21562655D01*
X25296631Y-23062576D01*
X25220412Y-22957670D01*
X25042330Y-22779588D01*
X24937421Y-22703367D01*
X25387572Y-22253216D01*
X25447056Y-22253216D01*
X25447056Y-22352672D01*
X25485116Y-22444558D01*
X25555442Y-22514884D01*
X25647328Y-22552944D01*
X25746784Y-22552944D01*
X25838670Y-22514884D01*
X25908996Y-22444558D01*
X25947056Y-22352672D01*
X25947056Y-22253216D01*
X25908996Y-22161330D01*
X25838670Y-22091004D01*
X25746784Y-22052944D01*
X25647328Y-22052944D01*
X25555442Y-22091004D01*
X25485116Y-22161330D01*
X25447056Y-22253216D01*
X25387572Y-22253216D01*
X26437343Y-21203446D01*
X26211525Y-21018121D01*
X26211510Y-21018110D01*
X25908594Y-20815708D01*
X25762506Y-20737622D01*
X25711858Y-20687870D01*
X25696148Y-20618633D01*
X25720364Y-20551894D01*
X25776818Y-20508842D01*
X25821902Y-20500500D01*
X64178098Y-20500500D01*
X64183101Y-20501969D01*
G37*
G04 #@! TD.AperFunction*
G04 #@! TA.AperFunction,Conductor*
G36*
X39712416Y-46677502D02*
G01*
X39733390Y-46694405D01*
X41982684Y-48943699D01*
X42016710Y-49006011D01*
X42017168Y-49008212D01*
X42034671Y-49096204D01*
X42048238Y-49164413D01*
X42052414Y-49185403D01*
X42055683Y-49193294D01*
X42113271Y-49332324D01*
X42122988Y-49355781D01*
X42130577Y-49426371D01*
X42098798Y-49489858D01*
X42037740Y-49526086D01*
X42006579Y-49530000D01*
X37972000Y-49530000D01*
X37903879Y-49509998D01*
X37857386Y-49456342D01*
X37846000Y-49404000D01*
X37846000Y-46901745D01*
X37866002Y-46833624D01*
X37919658Y-46787131D01*
X37947416Y-46778166D01*
X38081831Y-46751430D01*
X38228968Y-46690483D01*
X38246550Y-46678734D01*
X38314303Y-46657520D01*
X38316552Y-46657500D01*
X39644295Y-46657500D01*
X39712416Y-46677502D01*
G37*
G04 #@! TD.AperFunction*
G04 #@! TA.AperFunction,Conductor*
G36*
X46092010Y-38337512D02*
G01*
X46138503Y-38391168D01*
X46149889Y-38443510D01*
X46149889Y-39654070D01*
X46149889Y-39788708D01*
X46176155Y-39920758D01*
X46192697Y-39960693D01*
X46196381Y-39969587D01*
X46196382Y-39969591D01*
X46200653Y-39979901D01*
X46227679Y-40045148D01*
X46259839Y-40093278D01*
X46296009Y-40147410D01*
X46296009Y-40147411D01*
X46302479Y-40157094D01*
X46302485Y-40157101D01*
X47856091Y-41710706D01*
X47951294Y-41805909D01*
X48063241Y-41880710D01*
X48114765Y-41902051D01*
X48187631Y-41932234D01*
X48250570Y-41944753D01*
X48257269Y-41946883D01*
X48281106Y-41962962D01*
X48306582Y-41976288D01*
X48310149Y-41982553D01*
X48316127Y-41986585D01*
X48327485Y-42012996D01*
X48341714Y-42037983D01*
X48341865Y-42046433D01*
X48344176Y-42051806D01*
X48342176Y-42063810D01*
X48342673Y-42091527D01*
X48340963Y-42100129D01*
X48340960Y-42100142D01*
X48338500Y-42112504D01*
X48338500Y-46700343D01*
X48318498Y-46768464D01*
X48264842Y-46814957D01*
X48194568Y-46825061D01*
X48129988Y-46795567D01*
X48123405Y-46789438D01*
X46735052Y-45401085D01*
X46735046Y-45401080D01*
X46689785Y-45370837D01*
X46689777Y-45370832D01*
X46685972Y-45368290D01*
X46623100Y-45326280D01*
X46586666Y-45311189D01*
X46579458Y-45308203D01*
X46579454Y-45308201D01*
X46498717Y-45274758D01*
X46498713Y-45274756D01*
X46498711Y-45274756D01*
X46454694Y-45266000D01*
X46366662Y-45248490D01*
X46366660Y-45248490D01*
X44870295Y-45248490D01*
X44840379Y-45239706D01*
X44809910Y-45233078D01*
X44804814Y-45229263D01*
X44802174Y-45228488D01*
X44781200Y-45211585D01*
X44643406Y-45073791D01*
X44609380Y-45011479D01*
X44606501Y-44984696D01*
X44606501Y-41971113D01*
X44626503Y-41902992D01*
X44680159Y-41856499D01*
X44684271Y-41854709D01*
X44753336Y-41826102D01*
X44902135Y-41726678D01*
X45028678Y-41600135D01*
X45128102Y-41451336D01*
X45196587Y-41286000D01*
X45231500Y-41110479D01*
X45231500Y-40931521D01*
X45196587Y-40756000D01*
X45128102Y-40590664D01*
X45028678Y-40441865D01*
X44902135Y-40315322D01*
X44753336Y-40215898D01*
X44611389Y-40157101D01*
X44588003Y-40147414D01*
X44588001Y-40147413D01*
X44588000Y-40147413D01*
X44480349Y-40126000D01*
X44412481Y-40112500D01*
X44412479Y-40112500D01*
X44233521Y-40112500D01*
X44233518Y-40112500D01*
X44102771Y-40138507D01*
X44058000Y-40147413D01*
X44057999Y-40147413D01*
X44057996Y-40147414D01*
X43892662Y-40215899D01*
X43743869Y-40315319D01*
X43743862Y-40315324D01*
X43617324Y-40441862D01*
X43617319Y-40441869D01*
X43583472Y-40492526D01*
X43517898Y-40590664D01*
X43489533Y-40659142D01*
X43449415Y-40755996D01*
X43449413Y-40756000D01*
X43441314Y-40796716D01*
X43413657Y-40935754D01*
X43394844Y-40981173D01*
X43317289Y-41097242D01*
X43308397Y-41118709D01*
X43308398Y-41118710D01*
X43266709Y-41219356D01*
X43265767Y-41221630D01*
X43263562Y-41232716D01*
X43242483Y-41338688D01*
X43239502Y-41353674D01*
X43239501Y-41353684D01*
X43239501Y-45016696D01*
X43219499Y-45084817D01*
X43165843Y-45131310D01*
X43095569Y-45141414D01*
X43030989Y-45111920D01*
X43024406Y-45105791D01*
X42757405Y-44838790D01*
X42723379Y-44776478D01*
X42720500Y-44749695D01*
X42720500Y-39131548D01*
X42740502Y-39063427D01*
X42741735Y-39061546D01*
X42757053Y-39038621D01*
X42842102Y-38911336D01*
X42910587Y-38746000D01*
X42945500Y-38570479D01*
X42945500Y-38443510D01*
X42965502Y-38375389D01*
X43019158Y-38328896D01*
X43071500Y-38317510D01*
X46023889Y-38317510D01*
X46092010Y-38337512D01*
G37*
G04 #@! TD.AperFunction*
G04 #@! TA.AperFunction,Conductor*
G36*
X41070621Y-38337512D02*
G01*
X41117114Y-38391168D01*
X41128500Y-38443510D01*
X41128500Y-38570481D01*
X41131648Y-38586306D01*
X41162803Y-38742935D01*
X41163414Y-38746003D01*
X41169028Y-38759556D01*
X41231898Y-38911336D01*
X41316947Y-39038621D01*
X41332265Y-39061546D01*
X41353480Y-39129299D01*
X41353500Y-39131548D01*
X41353500Y-43908526D01*
X41347161Y-43930113D01*
X41345556Y-43952558D01*
X41337354Y-43963514D01*
X41333498Y-43976647D01*
X41316492Y-43991382D01*
X41303009Y-44009394D01*
X41290186Y-44014176D01*
X41279842Y-44023140D01*
X41257569Y-44026342D01*
X41236489Y-44034205D01*
X41223116Y-44031296D01*
X41209568Y-44033244D01*
X41189101Y-44023896D01*
X41167115Y-44019114D01*
X41149101Y-44005628D01*
X41144988Y-44003750D01*
X41138405Y-43997621D01*
X41094006Y-43953222D01*
X41059980Y-43890910D01*
X41057101Y-43864127D01*
X41057101Y-43862487D01*
X41057101Y-43862484D01*
X41051914Y-43836408D01*
X41051913Y-43836402D01*
X41045603Y-43804679D01*
X41030835Y-43730434D01*
X40988667Y-43628632D01*
X40987261Y-43625238D01*
X40979311Y-43606044D01*
X40904510Y-43494097D01*
X40878467Y-43468054D01*
X40809307Y-43398894D01*
X40440315Y-43029902D01*
X40406289Y-42967590D01*
X40405831Y-42965388D01*
X40405499Y-42963720D01*
X40370587Y-42788202D01*
X40370585Y-42788198D01*
X40345239Y-42727007D01*
X40302102Y-42622866D01*
X40202678Y-42474067D01*
X40076135Y-42347524D01*
X39927336Y-42248100D01*
X39810429Y-42199675D01*
X39762003Y-42179616D01*
X39762001Y-42179615D01*
X39762000Y-42179615D01*
X39673645Y-42162040D01*
X39586481Y-42144702D01*
X39586479Y-42144702D01*
X39407521Y-42144702D01*
X39407518Y-42144702D01*
X39276771Y-42170709D01*
X39232000Y-42179615D01*
X39231999Y-42179615D01*
X39231996Y-42179616D01*
X39066662Y-42248101D01*
X38917869Y-42347521D01*
X38917862Y-42347526D01*
X38791324Y-42474064D01*
X38791319Y-42474071D01*
X38691899Y-42622864D01*
X38623414Y-42788198D01*
X38588500Y-42963720D01*
X38588500Y-43142683D01*
X38603018Y-43215668D01*
X38623413Y-43318202D01*
X38691898Y-43483538D01*
X38791322Y-43632337D01*
X38791324Y-43632339D01*
X38833953Y-43674968D01*
X38867979Y-43737280D01*
X38862914Y-43808095D01*
X38849624Y-43834064D01*
X38793498Y-43918063D01*
X38725014Y-44083396D01*
X38725013Y-44083399D01*
X38725013Y-44083400D01*
X38718781Y-44114731D01*
X38690100Y-44258918D01*
X38690100Y-44313901D01*
X38670098Y-44382022D01*
X38616442Y-44428515D01*
X38564100Y-44439901D01*
X37237439Y-44439901D01*
X37215849Y-44433561D01*
X37193407Y-44431957D01*
X37182450Y-44423755D01*
X37169318Y-44419899D01*
X37154582Y-44402893D01*
X37136571Y-44389410D01*
X37131788Y-44376587D01*
X37122825Y-44366243D01*
X37119622Y-44343970D01*
X37111760Y-44322890D01*
X37114668Y-44309517D01*
X37112721Y-44295969D01*
X37122068Y-44275502D01*
X37126851Y-44253516D01*
X37140337Y-44235500D01*
X37142215Y-44231389D01*
X37148343Y-44224806D01*
X37206536Y-44166613D01*
X37273944Y-44099204D01*
X37273954Y-44099197D01*
X37379518Y-43993633D01*
X37379523Y-43993628D01*
X37454324Y-43881681D01*
X37488956Y-43798072D01*
X37505848Y-43757291D01*
X37532114Y-43625240D01*
X37532114Y-43490603D01*
X37532114Y-41337691D01*
X37552116Y-41269570D01*
X37569019Y-41248596D01*
X40463200Y-38354415D01*
X40525512Y-38320389D01*
X40552295Y-38317510D01*
X41002500Y-38317510D01*
X41070621Y-38337512D01*
G37*
G04 #@! TD.AperFunction*
G04 #@! TA.AperFunction,Conductor*
G36*
X52848013Y-31463082D02*
G01*
X52854596Y-31469211D01*
X53127595Y-31742210D01*
X53161621Y-31804522D01*
X53164500Y-31831305D01*
X53164500Y-40219527D01*
X53144498Y-40287648D01*
X53127595Y-40308622D01*
X52854596Y-40581621D01*
X52792284Y-40615647D01*
X52721469Y-40610582D01*
X52664633Y-40568035D01*
X52639822Y-40501515D01*
X52639501Y-40492526D01*
X52639501Y-31558306D01*
X52659503Y-31490185D01*
X52713159Y-31443692D01*
X52783433Y-31433588D01*
X52848013Y-31463082D01*
G37*
G04 #@! TD.AperFunction*
G04 #@! TA.AperFunction,Conductor*
G36*
X46530871Y-33262469D02*
G01*
X46543410Y-33263366D01*
X46562295Y-33277503D01*
X46583575Y-33287684D01*
X46590181Y-33298379D01*
X46600246Y-33305913D01*
X46608489Y-33328015D01*
X46620888Y-33348085D01*
X46620663Y-33360654D01*
X46625057Y-33372433D01*
X46620042Y-33395484D01*
X46619622Y-33419070D01*
X46610984Y-33437123D01*
X46609966Y-33441807D01*
X46604144Y-33451422D01*
X46565899Y-33508660D01*
X46497414Y-33673996D01*
X46497414Y-33673997D01*
X46497413Y-33674000D01*
X46496770Y-33677233D01*
X46462500Y-33849518D01*
X46462500Y-34028481D01*
X46469048Y-34061400D01*
X46497413Y-34204000D01*
X46565898Y-34369336D01*
X46665322Y-34518135D01*
X46791865Y-34644678D01*
X46940664Y-34744102D01*
X47075613Y-34800000D01*
X47105997Y-34812586D01*
X47105998Y-34812586D01*
X47106000Y-34812587D01*
X47281521Y-34847500D01*
X47281522Y-34847500D01*
X47283186Y-34847831D01*
X47346096Y-34880738D01*
X47347700Y-34882315D01*
X47856845Y-35391460D01*
X47890871Y-35453772D01*
X47885806Y-35524587D01*
X47843259Y-35581423D01*
X47815970Y-35596963D01*
X47702665Y-35643897D01*
X47702664Y-35643897D01*
X47552454Y-35744265D01*
X47484701Y-35765480D01*
X47482452Y-35765500D01*
X45558595Y-35765500D01*
X45490474Y-35745498D01*
X45443981Y-35691842D01*
X45433877Y-35621568D01*
X45442187Y-35591280D01*
X45450585Y-35571005D01*
X45450585Y-35571004D01*
X45450587Y-35571000D01*
X45485500Y-35395479D01*
X45485500Y-35216521D01*
X45450587Y-35041000D01*
X45382102Y-34875664D01*
X45282678Y-34726865D01*
X45218307Y-34662494D01*
X45184281Y-34600182D01*
X45189346Y-34529367D01*
X45218305Y-34484306D01*
X46410286Y-33292324D01*
X46430984Y-33281022D01*
X46449088Y-33265893D01*
X46461563Y-33264325D01*
X46472595Y-33258302D01*
X46496123Y-33259984D01*
X46519531Y-33257044D01*
X46530871Y-33262469D01*
G37*
G04 #@! TD.AperFunction*
M02*
