M48
; DRILL file {KiCad 9.0.2} date 2025-06-16T10:28:30-0400
; FORMAT={-:-/ absolute / metric / decimal}
; #@! TF.CreationDate,2025-06-16T10:28:30-04:00
; #@! TF.GenerationSoftware,Kicad,Pcbnew,9.0.2
; #@! TF.FileFunction,Plated,1,4,PTH
FMAT,2
METRIC
; #@! TA.AperFunction,Plated,PTH,ViaDrill
T1C0.400
; #@! TA.AperFunction,Plated,PTH,ComponentDrill
T2C0.500
; #@! TA.AperFunction,Plated,PTH,ComponentDrill
T3C0.650
; #@! TA.AperFunction,Plated,PTH,ComponentDrill
T4C1.000
; #@! TA.AperFunction,Plated,PTH,ComponentDrill
T5C1.200
; #@! TA.AperFunction,Plated,PTH,ComponentDrill
T6C1.400
; #@! TA.AperFunction,Plated,PTH,ComponentDrill
T7C3.200
%
G90
G05
T1
X21.59Y-62.23
X22.86Y-62.23
X26.67Y-52.07
X27.668Y-62.72
X27.94Y-52.07
X29.21Y-52.07
X29.235Y-23.114
X29.235Y-24.13
X29.235Y-25.146
X29.464Y-62.484
X30.48Y-67.31
X30.988Y-68.961
X31.75Y-67.31
X32.419Y-47.083
X32.419Y-48.108
X32.419Y-49.115
X33.02Y-67.31
X33.528Y-45.72
X33.599Y-31.019
X33.884Y-32.436
X34.036Y-54.356
X34.112Y-44.12
X34.341Y-52.832
X35.814Y-42.316
X36.034Y-44.797
X36.5Y-21.463
X36.957Y-57.531
X36.957Y-58.801
X36.957Y-60.071
X37.287Y-46.99
X37.516Y-21.463
X37.592Y-55.626
X37.846Y-31.877
X37.846Y-45.974
X37.966Y-68.929
X38.1Y-33.02
X38.1Y-67.31
X38.532Y-21.463
X38.786Y-26.137
X38.811Y-47.117
X38.862Y-55.499
X39.141Y-29.286
X39.497Y-43.053
X39.548Y-21.463
X39.599Y-44.348
X39.624Y-56.261
X40.005Y-42.082
X40.386Y-66.929
X40.64Y-21.59
X41.58Y-24.536
X41.58Y-25.502
X41.58Y-26.518
X41.91Y-21.59
X41.91Y-57.912
X41.91Y-59.182
X41.91Y-60.452
X42.037Y-38.481
X42.291Y-34.798
X42.545Y-69.215
X42.596Y-24.536
X42.596Y-25.502
X42.596Y-26.518
X42.672Y-54.356
X42.926Y-31.369
X42.926Y-48.92
X43.053Y-35.56
X43.18Y-21.59
X43.561Y-34.036
X43.84Y-26.518
X43.942Y-69.215
X44.196Y-48.031
X44.323Y-41.021
X44.45Y-54.61
X44.577Y-35.306
X44.704Y-44.704
X45.339Y-48.031
X45.466Y-60.452
X45.72Y-21.488
X45.72Y-35.306
X45.72Y-54.61
X46.064Y-52.795
X46.228Y-28.854
X46.99Y-21.488
X46.99Y-49.911
X46.99Y-52.07
X46.99Y-53.34
X46.99Y-54.61
X47.371Y-33.939
X48.006Y-49.911
X48.133Y-36.449
X48.133Y-55.245
X48.133Y-56.388
X48.158Y-37.744
X48.26Y-21.488
X48.26Y-52.07
X48.26Y-53.34
X48.26Y-68.58
X48.641Y-40.259
X49.022Y-49.911
X49.276Y-51.562
X49.53Y-68.58
X49.555Y-21.488
X49.911Y-28.194
X50.038Y-31.217
X50.292Y-52.451
X50.724Y-33.934
X50.8Y-21.488
X50.8Y-54.61
X50.8Y-55.88
X50.8Y-68.58
X51.181Y-40.005
X51.181Y-50.038
X51.689Y-29.337
X52.07Y-60.96
X52.07Y-62.23
X52.578Y-57.15
X52.578Y-59.944
X52.959Y-37.084
X53.34Y-60.96
X53.34Y-62.23
X54.61Y-29.21
X55.245Y-45.847
X55.88Y-21.488
X55.88Y-29.21
X55.88Y-30.48
X55.88Y-31.75
X55.88Y-68.58
X56.896Y-41.021
X57.15Y-21.488
X57.15Y-29.21
X57.15Y-30.48
X57.15Y-31.75
X57.15Y-68.58
X58.039Y-34.493
X58.42Y-21.488
X58.42Y-29.21
X58.42Y-30.48
X58.42Y-41.91
X58.42Y-43.18
X58.42Y-68.58
X58.674Y-48.895
X58.928Y-50.165
X59.69Y-29.21
X59.69Y-30.48
X59.69Y-41.91
X59.69Y-43.18
X59.69Y-68.58
X60.96Y-41.91
X60.96Y-59.69
X60.96Y-60.96
X60.96Y-62.23
X62.23Y-40.64
X62.23Y-59.69
X62.23Y-60.96
X62.23Y-62.23
X62.662Y-53.873
X63.5Y-40.64
X63.5Y-62.23
X64.77Y-40.64
X66.04Y-40.64
X66.264Y-32.863
X67.206Y-51.077
X67.31Y-40.64
X68.58Y-32.893
X68.58Y-34.29
X68.58Y-35.56
X68.58Y-40.64
X68.58Y-50.927
X68.58Y-54.61
X68.58Y-55.88
X68.58Y-57.15
X68.58Y-58.42
T2
X21.6Y-24.0
X21.6Y-66.0
X22.303Y-22.303
X22.303Y-25.697
X22.303Y-64.303
X22.303Y-67.697
X24.0Y-21.6
X24.0Y-26.4
X24.0Y-63.6
X24.0Y-68.4
X25.697Y-22.303
X25.697Y-25.697
X25.697Y-64.303
X25.697Y-67.697
X26.4Y-24.0
X26.4Y-66.0
X30.373Y-25.146
X31.623Y-25.146
X46.482Y-64.77
X46.542Y-25.146
X47.732Y-64.77
X47.792Y-25.146
X48.982Y-64.77
X49.042Y-25.146
X50.232Y-64.77
X50.292Y-25.146
X55.686Y-25.146
X55.753Y-64.77
X56.936Y-25.146
X57.003Y-64.77
X58.186Y-25.146
X58.253Y-64.77
X59.436Y-25.146
X59.503Y-64.77
X63.6Y-24.0
X63.6Y-66.0
X64.303Y-22.303
X64.303Y-25.697
X64.303Y-64.303
X64.303Y-67.697
X64.77Y-54.924
X64.77Y-56.174
X64.77Y-57.424
X64.77Y-58.674
X66.0Y-21.6
X66.0Y-26.4
X66.0Y-63.6
X66.0Y-68.4
X67.697Y-22.303
X67.697Y-25.697
X67.697Y-64.303
X67.697Y-67.697
X68.4Y-24.0
X68.4Y-66.0
T3
X31.369Y-53.023
X31.369Y-54.292
T4
X22.46Y-30.22
X22.46Y-32.76
X22.46Y-35.3
X22.46Y-37.84
X22.46Y-40.38
X22.46Y-42.92
X22.46Y-45.46
X22.46Y-48.0
X25.0Y-30.22
X25.0Y-32.76
X25.0Y-35.3
X25.0Y-37.84
X25.0Y-40.38
X25.0Y-42.92
X25.0Y-45.46
X25.0Y-48.0
X27.541Y-30.251
X27.541Y-32.791
X27.541Y-35.331
X27.541Y-37.871
X27.541Y-40.411
X27.541Y-42.951
X27.541Y-45.491
X27.541Y-48.031
T5
X25.463Y-55.181
X25.463Y-58.681
X68.117Y-30.288
X68.117Y-38.038
T6
X64.317Y-30.438
X64.317Y-37.888
T7
X24.0Y-24.0
X24.0Y-66.0
X66.0Y-24.0
X66.0Y-66.0
M30
