G04 #@! TF.GenerationSoftware,KiCad,Pcbnew,9.0.2*
G04 #@! TF.CreationDate,2025-06-16T10:28:11-04:00*
G04 #@! TF.ProjectId,avionicsboard,6176696f-6e69-4637-9362-6f6172642e6b,rev?*
G04 #@! TF.SameCoordinates,Original*
G04 #@! TF.FileFunction,Copper,L3,Inr*
G04 #@! TF.FilePolarity,Positive*
%FSLAX46Y46*%
G04 Gerber Fmt 4.6, Leading zero omitted, Abs format (unit mm)*
G04 Created by KiCad (PCBNEW 9.0.2) date 2025-06-16 10:28:11*
%MOMM*%
%LPD*%
G01*
G04 APERTURE LIST*
G04 #@! TA.AperFunction,ComponentPad*
%ADD10R,0.800000X1.300000*%
G04 #@! TD*
G04 #@! TA.AperFunction,ComponentPad*
%ADD11O,0.800000X1.300000*%
G04 #@! TD*
G04 #@! TA.AperFunction,ComponentPad*
%ADD12R,1.300000X0.800000*%
G04 #@! TD*
G04 #@! TA.AperFunction,ComponentPad*
%ADD13O,1.300000X0.800000*%
G04 #@! TD*
G04 #@! TA.AperFunction,ComponentPad*
%ADD14R,1.000000X1.000000*%
G04 #@! TD*
G04 #@! TA.AperFunction,ComponentPad*
%ADD15O,1.000000X1.000000*%
G04 #@! TD*
G04 #@! TA.AperFunction,ComponentPad*
%ADD16R,1.700000X1.700000*%
G04 #@! TD*
G04 #@! TA.AperFunction,ComponentPad*
%ADD17O,1.700000X1.700000*%
G04 #@! TD*
G04 #@! TA.AperFunction,ComponentPad*
%ADD18C,0.800000*%
G04 #@! TD*
G04 #@! TA.AperFunction,ComponentPad*
%ADD19C,6.400000*%
G04 #@! TD*
G04 #@! TA.AperFunction,ComponentPad*
%ADD20R,2.400000X2.400000*%
G04 #@! TD*
G04 #@! TA.AperFunction,ComponentPad*
%ADD21C,2.400000*%
G04 #@! TD*
G04 #@! TA.AperFunction,ComponentPad*
%ADD22C,1.800000*%
G04 #@! TD*
G04 #@! TA.AperFunction,ComponentPad*
%ADD23C,2.000000*%
G04 #@! TD*
G04 #@! TA.AperFunction,ViaPad*
%ADD24C,0.800000*%
G04 #@! TD*
G04 #@! TA.AperFunction,ViaPad*
%ADD25C,0.600000*%
G04 #@! TD*
G04 APERTURE END LIST*
D10*
X46482000Y-64770000D03*
D11*
X47732000Y-64770000D03*
X48982000Y-64770000D03*
X50232000Y-64770000D03*
D10*
X55753000Y-64770000D03*
D11*
X57003000Y-64770000D03*
X58253000Y-64770000D03*
X59503000Y-64770000D03*
D12*
X64770000Y-58674000D03*
D13*
X64770000Y-57424000D03*
X64770000Y-56174000D03*
X64770000Y-54924000D03*
D14*
X31369000Y-54292500D03*
D15*
X31369000Y-53022500D03*
D16*
X25000000Y-48000000D03*
D17*
X22460000Y-48000000D03*
X25000000Y-45460000D03*
X22460000Y-45460000D03*
X25000000Y-42920000D03*
X22460000Y-42920000D03*
X25000000Y-40380000D03*
X22460000Y-40380000D03*
X25000000Y-37840000D03*
X22460000Y-37840000D03*
X25000000Y-35300000D03*
X22460000Y-35300000D03*
X25000000Y-32760000D03*
X22460000Y-32760000D03*
X25000000Y-30220000D03*
X22460000Y-30220000D03*
D16*
X27541220Y-30251400D03*
D17*
X27541220Y-32791400D03*
X27541220Y-35331400D03*
X27541220Y-37871400D03*
X27541220Y-40411400D03*
X27541220Y-42951400D03*
X27541220Y-45491400D03*
X27541220Y-48031400D03*
D10*
X50292000Y-25146000D03*
D11*
X49042000Y-25146000D03*
X47792000Y-25146000D03*
X46542000Y-25146000D03*
D10*
X31623000Y-25146000D03*
D11*
X30373000Y-25146000D03*
D18*
X21600000Y-66000000D03*
X22302944Y-64302944D03*
X22302944Y-67697056D03*
X24000000Y-63600000D03*
D19*
X24000000Y-66000000D03*
D18*
X24000000Y-68400000D03*
X25697056Y-64302944D03*
X25697056Y-67697056D03*
X26400000Y-66000000D03*
X63600000Y-66000000D03*
X64302944Y-64302944D03*
X64302944Y-67697056D03*
X66000000Y-63600000D03*
D19*
X66000000Y-66000000D03*
D18*
X66000000Y-68400000D03*
X67697056Y-64302944D03*
X67697056Y-67697056D03*
X68400000Y-66000000D03*
X63600000Y-24000000D03*
X64302944Y-22302944D03*
X64302944Y-25697056D03*
X66000000Y-21600000D03*
D19*
X66000000Y-24000000D03*
D18*
X66000000Y-26400000D03*
X67697056Y-22302944D03*
X67697056Y-25697056D03*
X68400000Y-24000000D03*
X21600000Y-24000000D03*
X22302944Y-22302944D03*
X22302944Y-25697056D03*
X24000000Y-21600000D03*
D19*
X24000000Y-24000000D03*
D18*
X24000000Y-26400000D03*
X25697056Y-22302944D03*
X25697056Y-25697056D03*
X26400000Y-24000000D03*
D10*
X59436000Y-25146000D03*
D11*
X58186000Y-25146000D03*
X56936000Y-25146000D03*
X55686000Y-25146000D03*
D20*
X25463500Y-55181500D03*
D21*
X25463500Y-58681500D03*
D22*
X68117000Y-38038000D03*
D23*
X64317000Y-37888000D03*
X64317000Y-30438000D03*
D22*
X68117000Y-30288000D03*
D24*
X41579800Y-24536400D03*
X38785800Y-26136600D03*
X41579800Y-25501600D03*
X41579800Y-26517600D03*
X42595800Y-24536400D03*
X42595800Y-25501600D03*
X42595800Y-26517600D03*
X35814000Y-42316400D03*
X50723800Y-33934400D03*
X34112200Y-44119800D03*
X33883600Y-32435800D03*
X44577000Y-35306000D03*
X48158400Y-37744400D03*
X67206000Y-51077000D03*
X42545000Y-69215000D03*
X34036000Y-54356000D03*
X39141400Y-29286200D03*
X55245000Y-45847000D03*
X27668500Y-62720500D03*
X30988000Y-68961000D03*
X37966400Y-68929000D03*
X50038000Y-31216600D03*
X45466000Y-60452000D03*
X52578000Y-57150000D03*
X46228000Y-28854400D03*
X51181000Y-40005000D03*
X39598600Y-44348400D03*
X41910000Y-59182000D03*
X42926000Y-31369000D03*
D25*
X36033900Y-44796900D03*
D24*
X33598800Y-31018800D03*
X44196000Y-48031400D03*
X48133000Y-36449000D03*
X38100000Y-33020000D03*
X37515800Y-21463000D03*
X36499800Y-21463000D03*
X39547800Y-21463000D03*
X54610000Y-29210000D03*
X46990000Y-21488400D03*
X48260000Y-52070000D03*
X66040000Y-40640000D03*
X45720000Y-35306000D03*
X36957000Y-58801000D03*
X43942000Y-69215000D03*
X57150000Y-30480000D03*
X57150000Y-29210000D03*
X68580000Y-57150000D03*
X38811200Y-47117000D03*
X22860000Y-62230000D03*
X48260000Y-68580000D03*
X55880000Y-21488400D03*
X29235400Y-25146000D03*
X48260000Y-21488400D03*
X60960000Y-60960000D03*
X27940000Y-52070000D03*
X52578000Y-59944000D03*
X66264000Y-32863000D03*
X63500000Y-62230000D03*
X45720000Y-54610000D03*
X40005000Y-42082000D03*
X55880000Y-29210000D03*
D25*
X29464000Y-62484000D03*
D24*
X38100000Y-67310000D03*
X40640000Y-21590000D03*
X50800000Y-54610000D03*
X60960000Y-59690000D03*
X67310000Y-40640000D03*
X30480000Y-67310000D03*
X50800000Y-55880000D03*
X46990000Y-52070000D03*
X41910000Y-60452000D03*
X50800000Y-21488400D03*
X59690000Y-43180000D03*
X57150000Y-68580000D03*
X53340000Y-62230000D03*
X43180000Y-21590000D03*
X55880000Y-30480000D03*
X58420000Y-68580000D03*
X62230000Y-40640000D03*
X68580000Y-40640000D03*
X26670000Y-52070000D03*
X57150000Y-21488400D03*
X43840400Y-26517600D03*
X52070000Y-60960000D03*
X59690000Y-30480000D03*
X46990000Y-53340000D03*
X60960000Y-41910000D03*
X44704000Y-44704000D03*
X68580000Y-34290000D03*
X58420000Y-43180000D03*
X33528000Y-45720000D03*
X68580000Y-32893000D03*
X52959000Y-37084000D03*
D25*
X34340800Y-52832000D03*
D24*
X68580000Y-55880000D03*
X44450000Y-54610000D03*
X36957000Y-60071000D03*
X68580000Y-54610000D03*
X29210000Y-52070000D03*
X62230000Y-60960000D03*
X59690000Y-29210000D03*
X58420000Y-30480000D03*
X33020000Y-67310000D03*
X59690000Y-68580000D03*
D25*
X37287200Y-46990000D03*
D24*
X52070000Y-62230000D03*
X49530000Y-68580000D03*
X68580000Y-50927000D03*
X49555400Y-21488400D03*
X53340000Y-60960000D03*
X62230000Y-59690000D03*
X50800000Y-68580000D03*
X36957000Y-57531000D03*
X60960000Y-62230000D03*
X59690000Y-41910000D03*
X68580000Y-35560000D03*
X55880000Y-68580000D03*
X64770000Y-40640000D03*
X58674000Y-48895000D03*
X62230000Y-62230000D03*
X68580000Y-58420000D03*
X58420000Y-21488400D03*
X58420000Y-29210000D03*
D25*
X58039000Y-34493200D03*
D24*
X21590000Y-62230000D03*
X29235400Y-24130000D03*
X29235400Y-23114000D03*
X46990000Y-54610000D03*
X45720000Y-21488400D03*
X31750000Y-67310000D03*
X58420000Y-41910000D03*
X63500000Y-40640000D03*
X55880000Y-31750000D03*
X41910000Y-21590000D03*
X42672000Y-54356000D03*
X57150000Y-31750000D03*
X38531800Y-21463000D03*
X41910000Y-57912000D03*
X48260000Y-53340000D03*
D25*
X37846000Y-45974000D03*
D24*
X37846000Y-31877000D03*
X42926000Y-48920400D03*
X48641000Y-40259000D03*
X46064001Y-52795001D03*
X39497000Y-43053202D03*
X32419000Y-47083000D03*
X32419000Y-48107600D03*
X32419000Y-49115000D03*
X58928000Y-50165000D03*
X51181000Y-50038000D03*
X48133000Y-55245000D03*
X48133000Y-56388000D03*
X62661800Y-53873400D03*
X39624000Y-56261000D03*
X40386000Y-66929000D03*
X46990000Y-49911000D03*
X42037000Y-38481000D03*
X48006000Y-49911000D03*
X44323000Y-41021000D03*
X49022000Y-49911000D03*
X47371000Y-33939000D03*
X38862000Y-55499000D03*
X49276000Y-51562000D03*
X49911000Y-28194000D03*
X51689000Y-29337000D03*
X50292000Y-52451000D03*
X56896000Y-41021000D03*
X43053000Y-35560000D03*
X42291000Y-34798000D03*
X43561000Y-34036000D03*
X37592000Y-55626000D03*
X45339000Y-48031400D03*
G04 #@! TA.AperFunction,Conductor*
G36*
X35957781Y-20520502D02*
G01*
X36004274Y-20574158D01*
X36014378Y-20644432D01*
X35984884Y-20709012D01*
X35959662Y-20731265D01*
X35920669Y-20757319D01*
X35920662Y-20757324D01*
X35794124Y-20883862D01*
X35794119Y-20883869D01*
X35694699Y-21032662D01*
X35626214Y-21197996D01*
X35626213Y-21197999D01*
X35626213Y-21198000D01*
X35621161Y-21223400D01*
X35591300Y-21373518D01*
X35591300Y-21552481D01*
X35596690Y-21579579D01*
X35626213Y-21728000D01*
X35694698Y-21893336D01*
X35794122Y-22042135D01*
X35920665Y-22168678D01*
X36069464Y-22268102D01*
X36234800Y-22336587D01*
X36410321Y-22371500D01*
X36410322Y-22371500D01*
X36589278Y-22371500D01*
X36589279Y-22371500D01*
X36764800Y-22336587D01*
X36930136Y-22268102D01*
X36937794Y-22262984D01*
X37005544Y-22241767D01*
X37074012Y-22260547D01*
X37077779Y-22262967D01*
X37082976Y-22266439D01*
X37085462Y-22268101D01*
X37085463Y-22268101D01*
X37085464Y-22268102D01*
X37250800Y-22336587D01*
X37426321Y-22371500D01*
X37426322Y-22371500D01*
X37605278Y-22371500D01*
X37605279Y-22371500D01*
X37780800Y-22336587D01*
X37946136Y-22268102D01*
X37953794Y-22262984D01*
X38021544Y-22241767D01*
X38090012Y-22260547D01*
X38093779Y-22262967D01*
X38098976Y-22266439D01*
X38101462Y-22268101D01*
X38101463Y-22268101D01*
X38101464Y-22268102D01*
X38266800Y-22336587D01*
X38442321Y-22371500D01*
X38442322Y-22371500D01*
X38621278Y-22371500D01*
X38621279Y-22371500D01*
X38796800Y-22336587D01*
X38962136Y-22268102D01*
X38969794Y-22262984D01*
X39037544Y-22241767D01*
X39106012Y-22260547D01*
X39109779Y-22262967D01*
X39114976Y-22266439D01*
X39117462Y-22268101D01*
X39117463Y-22268101D01*
X39117464Y-22268102D01*
X39282800Y-22336587D01*
X39458321Y-22371500D01*
X39458322Y-22371500D01*
X39637278Y-22371500D01*
X39637279Y-22371500D01*
X39812800Y-22336587D01*
X39894629Y-22302692D01*
X39941506Y-22283275D01*
X40012096Y-22275685D01*
X40059726Y-22294918D01*
X40209659Y-22395099D01*
X40209660Y-22395100D01*
X40209662Y-22395101D01*
X40209664Y-22395102D01*
X40375000Y-22463587D01*
X40550521Y-22498500D01*
X40550522Y-22498500D01*
X40729478Y-22498500D01*
X40729479Y-22498500D01*
X40905000Y-22463587D01*
X41070336Y-22395102D01*
X41204998Y-22305123D01*
X41272751Y-22283909D01*
X41341218Y-22302692D01*
X41345001Y-22305123D01*
X41479664Y-22395102D01*
X41645000Y-22463587D01*
X41820521Y-22498500D01*
X41820522Y-22498500D01*
X41999478Y-22498500D01*
X41999479Y-22498500D01*
X42175000Y-22463587D01*
X42340336Y-22395102D01*
X42474998Y-22305123D01*
X42542751Y-22283909D01*
X42611218Y-22302692D01*
X42615001Y-22305123D01*
X42749664Y-22395102D01*
X42915000Y-22463587D01*
X43090521Y-22498500D01*
X43090522Y-22498500D01*
X43269478Y-22498500D01*
X43269479Y-22498500D01*
X43445000Y-22463587D01*
X43610336Y-22395102D01*
X43759135Y-22295678D01*
X43885678Y-22169135D01*
X43985102Y-22020336D01*
X44053587Y-21855000D01*
X44088500Y-21679479D01*
X44088500Y-21500521D01*
X44053587Y-21325000D01*
X43985102Y-21159664D01*
X43885678Y-21010865D01*
X43759135Y-20884322D01*
X43610336Y-20784898D01*
X43508965Y-20742908D01*
X43453686Y-20698360D01*
X43431265Y-20630997D01*
X43448824Y-20562205D01*
X43500786Y-20513827D01*
X43557185Y-20500500D01*
X45147874Y-20500500D01*
X45215995Y-20520502D01*
X45262488Y-20574158D01*
X45272592Y-20644432D01*
X45243098Y-20709012D01*
X45217876Y-20731265D01*
X45140869Y-20782719D01*
X45140862Y-20782724D01*
X45014324Y-20909262D01*
X45014319Y-20909269D01*
X44914899Y-21058062D01*
X44846414Y-21223396D01*
X44811500Y-21398918D01*
X44811500Y-21398921D01*
X44811500Y-21577879D01*
X44841361Y-21728003D01*
X44846414Y-21753403D01*
X44860823Y-21788189D01*
X44914898Y-21918736D01*
X45014322Y-22067535D01*
X45140865Y-22194078D01*
X45289664Y-22293502D01*
X45455000Y-22361987D01*
X45630521Y-22396900D01*
X45630522Y-22396900D01*
X45809478Y-22396900D01*
X45809479Y-22396900D01*
X45985000Y-22361987D01*
X46150336Y-22293502D01*
X46284998Y-22203523D01*
X46352751Y-22182309D01*
X46421218Y-22201092D01*
X46425001Y-22203523D01*
X46559664Y-22293502D01*
X46725000Y-22361987D01*
X46900521Y-22396900D01*
X46900522Y-22396900D01*
X47079478Y-22396900D01*
X47079479Y-22396900D01*
X47255000Y-22361987D01*
X47420336Y-22293502D01*
X47554998Y-22203523D01*
X47622751Y-22182309D01*
X47691218Y-22201092D01*
X47695001Y-22203523D01*
X47829664Y-22293502D01*
X47995000Y-22361987D01*
X48170521Y-22396900D01*
X48170522Y-22396900D01*
X48349478Y-22396900D01*
X48349479Y-22396900D01*
X48525000Y-22361987D01*
X48690336Y-22293502D01*
X48837698Y-22195037D01*
X48905451Y-22173823D01*
X48973918Y-22192606D01*
X48977695Y-22195033D01*
X49125064Y-22293502D01*
X49290400Y-22361987D01*
X49465921Y-22396900D01*
X49465922Y-22396900D01*
X49644878Y-22396900D01*
X49644879Y-22396900D01*
X49820400Y-22361987D01*
X49985736Y-22293502D01*
X50107700Y-22212008D01*
X50175451Y-22190794D01*
X50243918Y-22209577D01*
X50247668Y-22211987D01*
X50369664Y-22293502D01*
X50535000Y-22361987D01*
X50710521Y-22396900D01*
X50710522Y-22396900D01*
X50889478Y-22396900D01*
X50889479Y-22396900D01*
X51065000Y-22361987D01*
X51230336Y-22293502D01*
X51379135Y-22194078D01*
X51505678Y-22067535D01*
X51605102Y-21918736D01*
X51673587Y-21753400D01*
X51708500Y-21577879D01*
X51708500Y-21398921D01*
X51673587Y-21223400D01*
X51605102Y-21058064D01*
X51505678Y-20909265D01*
X51379135Y-20782722D01*
X51302124Y-20731265D01*
X51256596Y-20676788D01*
X51247748Y-20606345D01*
X51278389Y-20542301D01*
X51338791Y-20504990D01*
X51372126Y-20500500D01*
X55307874Y-20500500D01*
X55375995Y-20520502D01*
X55422488Y-20574158D01*
X55432592Y-20644432D01*
X55403098Y-20709012D01*
X55377876Y-20731265D01*
X55300869Y-20782719D01*
X55300862Y-20782724D01*
X55174324Y-20909262D01*
X55174319Y-20909269D01*
X55074899Y-21058062D01*
X55006414Y-21223396D01*
X54971500Y-21398918D01*
X54971500Y-21398921D01*
X54971500Y-21577879D01*
X55001361Y-21728003D01*
X55006414Y-21753403D01*
X55020823Y-21788189D01*
X55074898Y-21918736D01*
X55174322Y-22067535D01*
X55300865Y-22194078D01*
X55449664Y-22293502D01*
X55615000Y-22361987D01*
X55790521Y-22396900D01*
X55790522Y-22396900D01*
X55969478Y-22396900D01*
X55969479Y-22396900D01*
X56145000Y-22361987D01*
X56310336Y-22293502D01*
X56444998Y-22203523D01*
X56512751Y-22182309D01*
X56581218Y-22201092D01*
X56585001Y-22203523D01*
X56719664Y-22293502D01*
X56885000Y-22361987D01*
X57060521Y-22396900D01*
X57060522Y-22396900D01*
X57239478Y-22396900D01*
X57239479Y-22396900D01*
X57415000Y-22361987D01*
X57580336Y-22293502D01*
X57714998Y-22203523D01*
X57782751Y-22182309D01*
X57851218Y-22201092D01*
X57855001Y-22203523D01*
X57989664Y-22293502D01*
X58155000Y-22361987D01*
X58330521Y-22396900D01*
X58330522Y-22396900D01*
X58509478Y-22396900D01*
X58509479Y-22396900D01*
X58685000Y-22361987D01*
X58850336Y-22293502D01*
X58999135Y-22194078D01*
X59125678Y-22067535D01*
X59225102Y-21918736D01*
X59293587Y-21753400D01*
X59328500Y-21577879D01*
X59328500Y-21398921D01*
X59293587Y-21223400D01*
X59225102Y-21058064D01*
X59125678Y-20909265D01*
X58999135Y-20782722D01*
X58922124Y-20731265D01*
X58876596Y-20676788D01*
X58867748Y-20606345D01*
X58898389Y-20542301D01*
X58958791Y-20504990D01*
X58992126Y-20500500D01*
X64177039Y-20500500D01*
X64245160Y-20520502D01*
X64291653Y-20574158D01*
X64301757Y-20644432D01*
X64272263Y-20709012D01*
X64236435Y-20737622D01*
X64091148Y-20815279D01*
X63788189Y-21017709D01*
X63506520Y-21248868D01*
X63506502Y-21248885D01*
X63248885Y-21506502D01*
X63248868Y-21506520D01*
X63017709Y-21788189D01*
X62815279Y-22091148D01*
X62643513Y-22412499D01*
X62504072Y-22749138D01*
X62504071Y-22749141D01*
X62398297Y-23097834D01*
X62327216Y-23455188D01*
X62327213Y-23455209D01*
X62291500Y-23817806D01*
X62291500Y-24182193D01*
X62327213Y-24544790D01*
X62327216Y-24544811D01*
X62398297Y-24902165D01*
X62504071Y-25250858D01*
X62504072Y-25250861D01*
X62643513Y-25587500D01*
X62815279Y-25908851D01*
X63017709Y-26211810D01*
X63248868Y-26493479D01*
X63248885Y-26493497D01*
X63506502Y-26751114D01*
X63506520Y-26751131D01*
X63788185Y-26982287D01*
X64091151Y-27184722D01*
X64412500Y-27356487D01*
X64749137Y-27495927D01*
X65097821Y-27601699D01*
X65097830Y-27601700D01*
X65097834Y-27601702D01*
X65219074Y-27625817D01*
X65455194Y-27672785D01*
X65817813Y-27708500D01*
X65817822Y-27708500D01*
X66182178Y-27708500D01*
X66182187Y-27708500D01*
X66544806Y-27672785D01*
X66839157Y-27614234D01*
X66902165Y-27601702D01*
X66902167Y-27601701D01*
X66902179Y-27601699D01*
X67250863Y-27495927D01*
X67587500Y-27356487D01*
X67908849Y-27184722D01*
X68211815Y-26982287D01*
X68493480Y-26751131D01*
X68751131Y-26493480D01*
X68982287Y-26211815D01*
X69184722Y-25908849D01*
X69262378Y-25763564D01*
X69312130Y-25712917D01*
X69381367Y-25697207D01*
X69448106Y-25721423D01*
X69491158Y-25777877D01*
X69499500Y-25822961D01*
X69499500Y-29406777D01*
X69479498Y-29474898D01*
X69425842Y-29521391D01*
X69355568Y-29531495D01*
X69290988Y-29502001D01*
X69271564Y-29480838D01*
X69191341Y-29370421D01*
X69034578Y-29213658D01*
X68855218Y-29083345D01*
X68855217Y-29083344D01*
X68855215Y-29083343D01*
X68657676Y-28982692D01*
X68657673Y-28982691D01*
X68657671Y-28982690D01*
X68446829Y-28914183D01*
X68446825Y-28914182D01*
X68446824Y-28914182D01*
X68227851Y-28879500D01*
X68006149Y-28879500D01*
X67787176Y-28914182D01*
X67787170Y-28914183D01*
X67576328Y-28982690D01*
X67576322Y-28982693D01*
X67378781Y-29083345D01*
X67199421Y-29213658D01*
X67042658Y-29370421D01*
X66912345Y-29549781D01*
X66811693Y-29747322D01*
X66811690Y-29747328D01*
X66743183Y-29958170D01*
X66743182Y-29958175D01*
X66743182Y-29958176D01*
X66708500Y-30177149D01*
X66708500Y-30398851D01*
X66738532Y-30588462D01*
X66743183Y-30617829D01*
X66799530Y-30791246D01*
X66811692Y-30828676D01*
X66911261Y-31024091D01*
X66912345Y-31026218D01*
X67042658Y-31205578D01*
X67199421Y-31362341D01*
X67227258Y-31382566D01*
X67378785Y-31492657D01*
X67576324Y-31593308D01*
X67787176Y-31661818D01*
X68006149Y-31696500D01*
X68006152Y-31696500D01*
X68227848Y-31696500D01*
X68227851Y-31696500D01*
X68446824Y-31661818D01*
X68657676Y-31593308D01*
X68855215Y-31492657D01*
X69034576Y-31362343D01*
X69191343Y-31205576D01*
X69271565Y-31095160D01*
X69327786Y-31051807D01*
X69398522Y-31045732D01*
X69461314Y-31078863D01*
X69496226Y-31140683D01*
X69499500Y-31169222D01*
X69499500Y-32223497D01*
X69479498Y-32291618D01*
X69425842Y-32338111D01*
X69355568Y-32348215D01*
X69290988Y-32318721D01*
X69284405Y-32312592D01*
X69159137Y-32187324D01*
X69159135Y-32187322D01*
X69010336Y-32087898D01*
X68866255Y-32028217D01*
X68845003Y-32019414D01*
X68845001Y-32019413D01*
X68845000Y-32019413D01*
X68756645Y-32001838D01*
X68669481Y-31984500D01*
X68669479Y-31984500D01*
X68490521Y-31984500D01*
X68490518Y-31984500D01*
X68359771Y-32010507D01*
X68315000Y-32019413D01*
X68314999Y-32019413D01*
X68314996Y-32019414D01*
X68149662Y-32087899D01*
X68000869Y-32187319D01*
X68000862Y-32187324D01*
X67874324Y-32313862D01*
X67874319Y-32313869D01*
X67779261Y-32456135D01*
X67774898Y-32462664D01*
X67770499Y-32473284D01*
X67706414Y-32627996D01*
X67671500Y-32803518D01*
X67671500Y-32803521D01*
X67671500Y-32982479D01*
X67706413Y-33158000D01*
X67774898Y-33323336D01*
X67874322Y-33472135D01*
X67874324Y-33472137D01*
X67904592Y-33502405D01*
X67938618Y-33564717D01*
X67933553Y-33635532D01*
X67904592Y-33680595D01*
X67874324Y-33710862D01*
X67874319Y-33710869D01*
X67774899Y-33859662D01*
X67706414Y-34024996D01*
X67706413Y-34024999D01*
X67706413Y-34025000D01*
X67703225Y-34041028D01*
X67671500Y-34200518D01*
X67671500Y-34379481D01*
X67706414Y-34555003D01*
X67774898Y-34720336D01*
X67864876Y-34854999D01*
X67886090Y-34922752D01*
X67867306Y-34991219D01*
X67864876Y-34995001D01*
X67774898Y-35129663D01*
X67706414Y-35294996D01*
X67706413Y-35294999D01*
X67706413Y-35295000D01*
X67705080Y-35301700D01*
X67671500Y-35470518D01*
X67671500Y-35649481D01*
X67677693Y-35680614D01*
X67705713Y-35821483D01*
X67706414Y-35825003D01*
X67726473Y-35873429D01*
X67774898Y-35990336D01*
X67874322Y-36139135D01*
X68000865Y-36265678D01*
X68106418Y-36336206D01*
X68149664Y-36365102D01*
X68149668Y-36365104D01*
X68202750Y-36387092D01*
X68258031Y-36431640D01*
X68280451Y-36499004D01*
X68262892Y-36567795D01*
X68210930Y-36616173D01*
X68154531Y-36629500D01*
X68006149Y-36629500D01*
X67787176Y-36664182D01*
X67787170Y-36664183D01*
X67576328Y-36732690D01*
X67576322Y-36732693D01*
X67378781Y-36833345D01*
X67199421Y-36963658D01*
X67042658Y-37120421D01*
X66912345Y-37299781D01*
X66811693Y-37497322D01*
X66811690Y-37497328D01*
X66743183Y-37708170D01*
X66743182Y-37708175D01*
X66743182Y-37708176D01*
X66708500Y-37927149D01*
X66708500Y-38148851D01*
X66723134Y-38241246D01*
X66743183Y-38367829D01*
X66809029Y-38570481D01*
X66811692Y-38578676D01*
X66912343Y-38776215D01*
X66912345Y-38776218D01*
X67042658Y-38955578D01*
X67199421Y-39112341D01*
X67239417Y-39141400D01*
X67378785Y-39242657D01*
X67576324Y-39343308D01*
X67787176Y-39411818D01*
X68006149Y-39446500D01*
X68006152Y-39446500D01*
X68227848Y-39446500D01*
X68227851Y-39446500D01*
X68446824Y-39411818D01*
X68657676Y-39343308D01*
X68855215Y-39242657D01*
X69034576Y-39112343D01*
X69191343Y-38955576D01*
X69271565Y-38845160D01*
X69327786Y-38801807D01*
X69398522Y-38795732D01*
X69461314Y-38828863D01*
X69496226Y-38890683D01*
X69499500Y-38919222D01*
X69499500Y-39970497D01*
X69479498Y-40038618D01*
X69425842Y-40085111D01*
X69355568Y-40095215D01*
X69290988Y-40065721D01*
X69284405Y-40059592D01*
X69159137Y-39934324D01*
X69159135Y-39934322D01*
X69010336Y-39834898D01*
X68893429Y-39786473D01*
X68845003Y-39766414D01*
X68845001Y-39766413D01*
X68845000Y-39766413D01*
X68739551Y-39745438D01*
X68669481Y-39731500D01*
X68669479Y-39731500D01*
X68490521Y-39731500D01*
X68490518Y-39731500D01*
X68359771Y-39757507D01*
X68315000Y-39766413D01*
X68314999Y-39766413D01*
X68314996Y-39766414D01*
X68149663Y-39834898D01*
X68015001Y-39924876D01*
X67947248Y-39946090D01*
X67878781Y-39927306D01*
X67874999Y-39924876D01*
X67740336Y-39834898D01*
X67575003Y-39766414D01*
X67575001Y-39766413D01*
X67575000Y-39766413D01*
X67469551Y-39745438D01*
X67399481Y-39731500D01*
X67399479Y-39731500D01*
X67220521Y-39731500D01*
X67220518Y-39731500D01*
X67089771Y-39757507D01*
X67045000Y-39766413D01*
X67044999Y-39766413D01*
X67044996Y-39766414D01*
X66879663Y-39834898D01*
X66745001Y-39924876D01*
X66677248Y-39946090D01*
X66608781Y-39927306D01*
X66604999Y-39924876D01*
X66470336Y-39834898D01*
X66305003Y-39766414D01*
X66305001Y-39766413D01*
X66305000Y-39766413D01*
X66199551Y-39745438D01*
X66129481Y-39731500D01*
X66129479Y-39731500D01*
X65950521Y-39731500D01*
X65950518Y-39731500D01*
X65819771Y-39757507D01*
X65775000Y-39766413D01*
X65774999Y-39766413D01*
X65774996Y-39766414D01*
X65609663Y-39834898D01*
X65475001Y-39924876D01*
X65407248Y-39946090D01*
X65338781Y-39927306D01*
X65334999Y-39924876D01*
X65200336Y-39834898D01*
X65035003Y-39766414D01*
X65035001Y-39766413D01*
X65035000Y-39766413D01*
X64929551Y-39745438D01*
X64859481Y-39731500D01*
X64859479Y-39731500D01*
X64680521Y-39731500D01*
X64680518Y-39731500D01*
X64549771Y-39757507D01*
X64505000Y-39766413D01*
X64504999Y-39766413D01*
X64504996Y-39766414D01*
X64339663Y-39834898D01*
X64205001Y-39924876D01*
X64137248Y-39946090D01*
X64068781Y-39927306D01*
X64064999Y-39924876D01*
X63930336Y-39834898D01*
X63765003Y-39766414D01*
X63765001Y-39766413D01*
X63765000Y-39766413D01*
X63659551Y-39745438D01*
X63589481Y-39731500D01*
X63589479Y-39731500D01*
X63410521Y-39731500D01*
X63410518Y-39731500D01*
X63279771Y-39757507D01*
X63235000Y-39766413D01*
X63234999Y-39766413D01*
X63234996Y-39766414D01*
X63069663Y-39834898D01*
X62935001Y-39924876D01*
X62867248Y-39946090D01*
X62798781Y-39927306D01*
X62794999Y-39924876D01*
X62660336Y-39834898D01*
X62495003Y-39766414D01*
X62495001Y-39766413D01*
X62495000Y-39766413D01*
X62389551Y-39745438D01*
X62319481Y-39731500D01*
X62319479Y-39731500D01*
X62140521Y-39731500D01*
X62140518Y-39731500D01*
X62009771Y-39757507D01*
X61965000Y-39766413D01*
X61964999Y-39766413D01*
X61964996Y-39766414D01*
X61799662Y-39834899D01*
X61650869Y-39934319D01*
X61650862Y-39934324D01*
X61524324Y-40060862D01*
X61524319Y-40060869D01*
X61424899Y-40209662D01*
X61356414Y-40374996D01*
X61321500Y-40550518D01*
X61321500Y-40729481D01*
X61352255Y-40884094D01*
X61345927Y-40954808D01*
X61302373Y-41010876D01*
X61235420Y-41034495D01*
X61204097Y-41032255D01*
X61096616Y-41010876D01*
X61049481Y-41001500D01*
X61049479Y-41001500D01*
X60870521Y-41001500D01*
X60870518Y-41001500D01*
X60739771Y-41027507D01*
X60695000Y-41036413D01*
X60694999Y-41036413D01*
X60694996Y-41036414D01*
X60529663Y-41104898D01*
X60395001Y-41194876D01*
X60327248Y-41216090D01*
X60258781Y-41197306D01*
X60254999Y-41194876D01*
X60120336Y-41104898D01*
X59955003Y-41036414D01*
X59955001Y-41036413D01*
X59955000Y-41036413D01*
X59866645Y-41018838D01*
X59779481Y-41001500D01*
X59779479Y-41001500D01*
X59600521Y-41001500D01*
X59600518Y-41001500D01*
X59469771Y-41027507D01*
X59425000Y-41036413D01*
X59424999Y-41036413D01*
X59424996Y-41036414D01*
X59259663Y-41104898D01*
X59125001Y-41194876D01*
X59057248Y-41216090D01*
X58988781Y-41197306D01*
X58984999Y-41194876D01*
X58850336Y-41104898D01*
X58685003Y-41036414D01*
X58685001Y-41036413D01*
X58685000Y-41036413D01*
X58596645Y-41018838D01*
X58509481Y-41001500D01*
X58509479Y-41001500D01*
X58330521Y-41001500D01*
X58330518Y-41001500D01*
X58199771Y-41027507D01*
X58155000Y-41036413D01*
X58154999Y-41036413D01*
X58154996Y-41036414D01*
X58098621Y-41059766D01*
X57989664Y-41104898D01*
X57989662Y-41104899D01*
X57983946Y-41107267D01*
X57983468Y-41106115D01*
X57920373Y-41119243D01*
X57854081Y-41093831D01*
X57812050Y-41036612D01*
X57804500Y-40993651D01*
X57804500Y-40931522D01*
X57804499Y-40931518D01*
X57769587Y-40756000D01*
X57701102Y-40590664D01*
X57601678Y-40441865D01*
X57475135Y-40315322D01*
X57326336Y-40215898D01*
X57209429Y-40167473D01*
X57161003Y-40147414D01*
X57161001Y-40147413D01*
X57161000Y-40147413D01*
X57072645Y-40129838D01*
X56985481Y-40112500D01*
X56985479Y-40112500D01*
X56806521Y-40112500D01*
X56806518Y-40112500D01*
X56675771Y-40138507D01*
X56631000Y-40147413D01*
X56630999Y-40147413D01*
X56630996Y-40147414D01*
X56465662Y-40215899D01*
X56316869Y-40315319D01*
X56316862Y-40315324D01*
X56190324Y-40441862D01*
X56190319Y-40441869D01*
X56090899Y-40590662D01*
X56022414Y-40755996D01*
X55987500Y-40931518D01*
X55987500Y-41110481D01*
X56000233Y-41174493D01*
X56012068Y-41233994D01*
X56022414Y-41286003D01*
X56028425Y-41300514D01*
X56090898Y-41451336D01*
X56190322Y-41600135D01*
X56316865Y-41726678D01*
X56465664Y-41826102D01*
X56631000Y-41894587D01*
X56806521Y-41929500D01*
X56806522Y-41929500D01*
X56985478Y-41929500D01*
X56985479Y-41929500D01*
X57161000Y-41894587D01*
X57326336Y-41826102D01*
X57326338Y-41826100D01*
X57332054Y-41823733D01*
X57332532Y-41824888D01*
X57395608Y-41811754D01*
X57461905Y-41837156D01*
X57503943Y-41894369D01*
X57511500Y-41937348D01*
X57511500Y-41999481D01*
X57528838Y-42086645D01*
X57545712Y-42171477D01*
X57546414Y-42175003D01*
X57614898Y-42340336D01*
X57704876Y-42474999D01*
X57726090Y-42542752D01*
X57707306Y-42611219D01*
X57704876Y-42615001D01*
X57614898Y-42749663D01*
X57546414Y-42914996D01*
X57511500Y-43090518D01*
X57511500Y-43269481D01*
X57521192Y-43318205D01*
X57545713Y-43441483D01*
X57546414Y-43445003D01*
X57566473Y-43493429D01*
X57614898Y-43610336D01*
X57714322Y-43759135D01*
X57840865Y-43885678D01*
X57989664Y-43985102D01*
X58155000Y-44053587D01*
X58330521Y-44088500D01*
X58330522Y-44088500D01*
X58509478Y-44088500D01*
X58509479Y-44088500D01*
X58685000Y-44053587D01*
X58850336Y-43985102D01*
X58984998Y-43895123D01*
X59052751Y-43873909D01*
X59121218Y-43892692D01*
X59125001Y-43895123D01*
X59259664Y-43985102D01*
X59425000Y-44053587D01*
X59600521Y-44088500D01*
X59600522Y-44088500D01*
X59779478Y-44088500D01*
X59779479Y-44088500D01*
X59955000Y-44053587D01*
X60120336Y-43985102D01*
X60269135Y-43885678D01*
X60395678Y-43759135D01*
X60495102Y-43610336D01*
X60563587Y-43445000D01*
X60598500Y-43269479D01*
X60598500Y-43090521D01*
X60567744Y-42935900D01*
X60574072Y-42865191D01*
X60617626Y-42809124D01*
X60684578Y-42785504D01*
X60715895Y-42787743D01*
X60870521Y-42818500D01*
X60870522Y-42818500D01*
X61049478Y-42818500D01*
X61049479Y-42818500D01*
X61225000Y-42783587D01*
X61390336Y-42715102D01*
X61539135Y-42615678D01*
X61665678Y-42489135D01*
X61765102Y-42340336D01*
X61833587Y-42175000D01*
X61868500Y-41999479D01*
X61868500Y-41820521D01*
X61837744Y-41665900D01*
X61844072Y-41595191D01*
X61887626Y-41539124D01*
X61954578Y-41515504D01*
X61985895Y-41517743D01*
X62140521Y-41548500D01*
X62140522Y-41548500D01*
X62319478Y-41548500D01*
X62319479Y-41548500D01*
X62495000Y-41513587D01*
X62660336Y-41445102D01*
X62794998Y-41355123D01*
X62862751Y-41333909D01*
X62931218Y-41352692D01*
X62935001Y-41355123D01*
X63069664Y-41445102D01*
X63235000Y-41513587D01*
X63410521Y-41548500D01*
X63410522Y-41548500D01*
X63589478Y-41548500D01*
X63589479Y-41548500D01*
X63765000Y-41513587D01*
X63930336Y-41445102D01*
X64064998Y-41355123D01*
X64132751Y-41333909D01*
X64201218Y-41352692D01*
X64205001Y-41355123D01*
X64339664Y-41445102D01*
X64505000Y-41513587D01*
X64680521Y-41548500D01*
X64680522Y-41548500D01*
X64859478Y-41548500D01*
X64859479Y-41548500D01*
X65035000Y-41513587D01*
X65200336Y-41445102D01*
X65334998Y-41355123D01*
X65402751Y-41333909D01*
X65471218Y-41352692D01*
X65475001Y-41355123D01*
X65609664Y-41445102D01*
X65775000Y-41513587D01*
X65950521Y-41548500D01*
X65950522Y-41548500D01*
X66129478Y-41548500D01*
X66129479Y-41548500D01*
X66305000Y-41513587D01*
X66470336Y-41445102D01*
X66604998Y-41355123D01*
X66672751Y-41333909D01*
X66741218Y-41352692D01*
X66745001Y-41355123D01*
X66879664Y-41445102D01*
X67045000Y-41513587D01*
X67220521Y-41548500D01*
X67220522Y-41548500D01*
X67399478Y-41548500D01*
X67399479Y-41548500D01*
X67575000Y-41513587D01*
X67740336Y-41445102D01*
X67874998Y-41355123D01*
X67942751Y-41333909D01*
X68011218Y-41352692D01*
X68015001Y-41355123D01*
X68149664Y-41445102D01*
X68315000Y-41513587D01*
X68490521Y-41548500D01*
X68490522Y-41548500D01*
X68669478Y-41548500D01*
X68669479Y-41548500D01*
X68845000Y-41513587D01*
X69010336Y-41445102D01*
X69159135Y-41345678D01*
X69284405Y-41220408D01*
X69346717Y-41186382D01*
X69417532Y-41191447D01*
X69474368Y-41233994D01*
X69499179Y-41300514D01*
X69499500Y-41309503D01*
X69499500Y-50257497D01*
X69479498Y-50325618D01*
X69425842Y-50372111D01*
X69355568Y-50382215D01*
X69290988Y-50352721D01*
X69284405Y-50346592D01*
X69159137Y-50221324D01*
X69159135Y-50221322D01*
X69010336Y-50121898D01*
X68893429Y-50073473D01*
X68845003Y-50053414D01*
X68845001Y-50053413D01*
X68845000Y-50053413D01*
X68756645Y-50035838D01*
X68669481Y-50018500D01*
X68669479Y-50018500D01*
X68490521Y-50018500D01*
X68490518Y-50018500D01*
X68359771Y-50044507D01*
X68315000Y-50053413D01*
X68314999Y-50053413D01*
X68314996Y-50053414D01*
X68149662Y-50121899D01*
X68000869Y-50221319D01*
X68000862Y-50221324D01*
X67874324Y-50347862D01*
X67874319Y-50347869D01*
X67774899Y-50496662D01*
X67706414Y-50661996D01*
X67671500Y-50837518D01*
X67671500Y-51016481D01*
X67682842Y-51073499D01*
X67706413Y-51192000D01*
X67774898Y-51357336D01*
X67874322Y-51506135D01*
X68000865Y-51632678D01*
X68149664Y-51732102D01*
X68315000Y-51800587D01*
X68490521Y-51835500D01*
X68490522Y-51835500D01*
X68669478Y-51835500D01*
X68669479Y-51835500D01*
X68845000Y-51800587D01*
X69010336Y-51732102D01*
X69159135Y-51632678D01*
X69284405Y-51507408D01*
X69346717Y-51473382D01*
X69417532Y-51478447D01*
X69474368Y-51520994D01*
X69499179Y-51587514D01*
X69499500Y-51596503D01*
X69499500Y-53940497D01*
X69479498Y-54008618D01*
X69425842Y-54055111D01*
X69355568Y-54065215D01*
X69290988Y-54035721D01*
X69284405Y-54029592D01*
X69159137Y-53904324D01*
X69159135Y-53904322D01*
X69010336Y-53804898D01*
X68893429Y-53756473D01*
X68845003Y-53736414D01*
X68845001Y-53736413D01*
X68845000Y-53736413D01*
X68756645Y-53718838D01*
X68669481Y-53701500D01*
X68669479Y-53701500D01*
X68490521Y-53701500D01*
X68490518Y-53701500D01*
X68359771Y-53727507D01*
X68315000Y-53736413D01*
X68314999Y-53736413D01*
X68314996Y-53736414D01*
X68149662Y-53804899D01*
X68000869Y-53904319D01*
X68000862Y-53904324D01*
X67874324Y-54030862D01*
X67874319Y-54030869D01*
X67774899Y-54179662D01*
X67706414Y-54344996D01*
X67671500Y-54520518D01*
X67671500Y-54699481D01*
X67680949Y-54746985D01*
X67702784Y-54856757D01*
X67706414Y-54875003D01*
X67774898Y-55040336D01*
X67864876Y-55174999D01*
X67886090Y-55242752D01*
X67867306Y-55311219D01*
X67864876Y-55315001D01*
X67774898Y-55449663D01*
X67706414Y-55614996D01*
X67671500Y-55790518D01*
X67671500Y-55969481D01*
X67676775Y-55996000D01*
X67694382Y-56084518D01*
X67706414Y-56145003D01*
X67774898Y-56310336D01*
X67864876Y-56444999D01*
X67886090Y-56512752D01*
X67867306Y-56581219D01*
X67864876Y-56585001D01*
X67774898Y-56719663D01*
X67706414Y-56884996D01*
X67706413Y-56884999D01*
X67706413Y-56885000D01*
X67702768Y-56903327D01*
X67671500Y-57060518D01*
X67671500Y-57239481D01*
X67676775Y-57266000D01*
X67702282Y-57394234D01*
X67706414Y-57415003D01*
X67774898Y-57580336D01*
X67864876Y-57714999D01*
X67886090Y-57782752D01*
X67867306Y-57851219D01*
X67864876Y-57855001D01*
X67774898Y-57989663D01*
X67706414Y-58154996D01*
X67671500Y-58330518D01*
X67671500Y-58509481D01*
X67683444Y-58569526D01*
X67706413Y-58685000D01*
X67774898Y-58850336D01*
X67874322Y-58999135D01*
X68000865Y-59125678D01*
X68149664Y-59225102D01*
X68315000Y-59293587D01*
X68490521Y-59328500D01*
X68490522Y-59328500D01*
X68669478Y-59328500D01*
X68669479Y-59328500D01*
X68845000Y-59293587D01*
X69010336Y-59225102D01*
X69159135Y-59125678D01*
X69284405Y-59000408D01*
X69346717Y-58966382D01*
X69417532Y-58971447D01*
X69474368Y-59013994D01*
X69499179Y-59080514D01*
X69499500Y-59089503D01*
X69499500Y-64177038D01*
X69479498Y-64245159D01*
X69425842Y-64291652D01*
X69355568Y-64301756D01*
X69290988Y-64272262D01*
X69262378Y-64236434D01*
X69184720Y-64091148D01*
X68982290Y-63788189D01*
X68922057Y-63714795D01*
X68751131Y-63506520D01*
X68751114Y-63506502D01*
X68493497Y-63248885D01*
X68493479Y-63248868D01*
X68211810Y-63017709D01*
X67908851Y-62815279D01*
X67587500Y-62643513D01*
X67250861Y-62504072D01*
X67250858Y-62504071D01*
X67020056Y-62434058D01*
X66902179Y-62398301D01*
X66902176Y-62398300D01*
X66902165Y-62398297D01*
X66544811Y-62327216D01*
X66544806Y-62327215D01*
X66544799Y-62327214D01*
X66544790Y-62327213D01*
X66182193Y-62291500D01*
X66182187Y-62291500D01*
X65817813Y-62291500D01*
X65817806Y-62291500D01*
X65455209Y-62327213D01*
X65455197Y-62327214D01*
X65455194Y-62327215D01*
X65455191Y-62327215D01*
X65455188Y-62327216D01*
X65097834Y-62398297D01*
X64749141Y-62504071D01*
X64749138Y-62504072D01*
X64555684Y-62584204D01*
X64485094Y-62591793D01*
X64421607Y-62560014D01*
X64385380Y-62498955D01*
X64383887Y-62443217D01*
X64408500Y-62319479D01*
X64408500Y-62140521D01*
X64373587Y-61965000D01*
X64305102Y-61799664D01*
X64205678Y-61650865D01*
X64079135Y-61524322D01*
X63930336Y-61424898D01*
X63774867Y-61360500D01*
X63765003Y-61356414D01*
X63765001Y-61356413D01*
X63765000Y-61356413D01*
X63676645Y-61338838D01*
X63589481Y-61321500D01*
X63589479Y-61321500D01*
X63410521Y-61321500D01*
X63410517Y-61321500D01*
X63290294Y-61345414D01*
X63255904Y-61352254D01*
X63185190Y-61345927D01*
X63129123Y-61302373D01*
X63105504Y-61235420D01*
X63107743Y-61204105D01*
X63138500Y-61049479D01*
X63138500Y-60870521D01*
X63103587Y-60695000D01*
X63035102Y-60529664D01*
X62945123Y-60395001D01*
X62923909Y-60327249D01*
X62942692Y-60258782D01*
X62945124Y-60254998D01*
X62970451Y-60217093D01*
X63035102Y-60120336D01*
X63103587Y-59955000D01*
X63138500Y-59779479D01*
X63138500Y-59600521D01*
X63103587Y-59425000D01*
X63035102Y-59259664D01*
X62943517Y-59122597D01*
X63612000Y-59122597D01*
X63618505Y-59183093D01*
X63669555Y-59319964D01*
X63669555Y-59319965D01*
X63757095Y-59436904D01*
X63874034Y-59524444D01*
X64010906Y-59575494D01*
X64071402Y-59581999D01*
X64071415Y-59582000D01*
X64516000Y-59582000D01*
X65024000Y-59582000D01*
X65468585Y-59582000D01*
X65468597Y-59581999D01*
X65529093Y-59575494D01*
X65665964Y-59524444D01*
X65665965Y-59524444D01*
X65782904Y-59436904D01*
X65870444Y-59319965D01*
X65870444Y-59319964D01*
X65921494Y-59183093D01*
X65927999Y-59122597D01*
X65928000Y-59122585D01*
X65928000Y-58928000D01*
X65024000Y-58928000D01*
X65024000Y-59582000D01*
X64516000Y-59582000D01*
X64516000Y-58928000D01*
X63612000Y-58928000D01*
X63612000Y-59122597D01*
X62943517Y-59122597D01*
X62935678Y-59110865D01*
X62809135Y-58984322D01*
X62809131Y-58984319D01*
X62809130Y-58984318D01*
X62803526Y-58980574D01*
X62718856Y-58924000D01*
X62660336Y-58884898D01*
X62504867Y-58820500D01*
X62495003Y-58816414D01*
X62495001Y-58816413D01*
X62495000Y-58816413D01*
X62406645Y-58798838D01*
X62319481Y-58781500D01*
X62319479Y-58781500D01*
X62140521Y-58781500D01*
X62140518Y-58781500D01*
X62009771Y-58807507D01*
X61965000Y-58816413D01*
X61964999Y-58816413D01*
X61964996Y-58816414D01*
X61799663Y-58884898D01*
X61665001Y-58974876D01*
X61597248Y-58996090D01*
X61528781Y-58977306D01*
X61524999Y-58974876D01*
X61390336Y-58884898D01*
X61225003Y-58816414D01*
X61225001Y-58816413D01*
X61225000Y-58816413D01*
X61136645Y-58798838D01*
X61049481Y-58781500D01*
X61049479Y-58781500D01*
X60870521Y-58781500D01*
X60870518Y-58781500D01*
X60739771Y-58807507D01*
X60695000Y-58816413D01*
X60694999Y-58816413D01*
X60694996Y-58816414D01*
X60529662Y-58884899D01*
X60380869Y-58984319D01*
X60380862Y-58984324D01*
X60254324Y-59110862D01*
X60254319Y-59110869D01*
X60154899Y-59259662D01*
X60086414Y-59424996D01*
X60086413Y-59424999D01*
X60086413Y-59425000D01*
X60077507Y-59469771D01*
X60051500Y-59600518D01*
X60051500Y-59779481D01*
X60056775Y-59806000D01*
X60070075Y-59872865D01*
X60086414Y-59955003D01*
X60154898Y-60120336D01*
X60244876Y-60254999D01*
X60266090Y-60322752D01*
X60247306Y-60391219D01*
X60244876Y-60395001D01*
X60154898Y-60529663D01*
X60086414Y-60694996D01*
X60051500Y-60870518D01*
X60051500Y-61049481D01*
X60086414Y-61225003D01*
X60154898Y-61390336D01*
X60244876Y-61524999D01*
X60266090Y-61592752D01*
X60247306Y-61661219D01*
X60244876Y-61665001D01*
X60154898Y-61799663D01*
X60086414Y-61964996D01*
X60086413Y-61964999D01*
X60086413Y-61965000D01*
X60085695Y-61968609D01*
X60051500Y-62140518D01*
X60051500Y-62319481D01*
X60086414Y-62495003D01*
X60094527Y-62514589D01*
X60154898Y-62660336D01*
X60254322Y-62809135D01*
X60380865Y-62935678D01*
X60529664Y-63035102D01*
X60695000Y-63103587D01*
X60870521Y-63138500D01*
X60870522Y-63138500D01*
X61049478Y-63138500D01*
X61049479Y-63138500D01*
X61225000Y-63103587D01*
X61390336Y-63035102D01*
X61524998Y-62945123D01*
X61592751Y-62923909D01*
X61661218Y-62942692D01*
X61665001Y-62945123D01*
X61799664Y-63035102D01*
X61965000Y-63103587D01*
X62140521Y-63138500D01*
X62140522Y-63138500D01*
X62319478Y-63138500D01*
X62319479Y-63138500D01*
X62495000Y-63103587D01*
X62660336Y-63035102D01*
X62794998Y-62945123D01*
X62862751Y-62923909D01*
X62931218Y-62942692D01*
X62935001Y-62945123D01*
X63069664Y-63035102D01*
X63235000Y-63103587D01*
X63351450Y-63126750D01*
X63414359Y-63159658D01*
X63449491Y-63221353D01*
X63445691Y-63292248D01*
X63415964Y-63339424D01*
X63248868Y-63506520D01*
X63017709Y-63788189D01*
X62815279Y-64091148D01*
X62643513Y-64412499D01*
X62504072Y-64749138D01*
X62504071Y-64749141D01*
X62398297Y-65097834D01*
X62327216Y-65455188D01*
X62327213Y-65455209D01*
X62291500Y-65817806D01*
X62291500Y-66182193D01*
X62327213Y-66544790D01*
X62327216Y-66544811D01*
X62398297Y-66902165D01*
X62504071Y-67250858D01*
X62504072Y-67250861D01*
X62643513Y-67587500D01*
X62815279Y-67908851D01*
X63017709Y-68211810D01*
X63017712Y-68211814D01*
X63017713Y-68211815D01*
X63023199Y-68218500D01*
X63248868Y-68493479D01*
X63248885Y-68493497D01*
X63506502Y-68751114D01*
X63506520Y-68751131D01*
X63748838Y-68949996D01*
X63788189Y-68982290D01*
X64002546Y-69125518D01*
X64091151Y-69184722D01*
X64236435Y-69262378D01*
X64287083Y-69312130D01*
X64302793Y-69381367D01*
X64278577Y-69448106D01*
X64222123Y-69491158D01*
X64177039Y-69499500D01*
X60359503Y-69499500D01*
X60291382Y-69479498D01*
X60244889Y-69425842D01*
X60234785Y-69355568D01*
X60264279Y-69290988D01*
X60270408Y-69284405D01*
X60325000Y-69229813D01*
X60395678Y-69159135D01*
X60495102Y-69010336D01*
X60563587Y-68845000D01*
X60598500Y-68669479D01*
X60598500Y-68490521D01*
X60563587Y-68315000D01*
X60495102Y-68149664D01*
X60395678Y-68000865D01*
X60269135Y-67874322D01*
X60120336Y-67774898D01*
X59997236Y-67723908D01*
X59955003Y-67706414D01*
X59955001Y-67706413D01*
X59955000Y-67706413D01*
X59866645Y-67688838D01*
X59779481Y-67671500D01*
X59779479Y-67671500D01*
X59600521Y-67671500D01*
X59600518Y-67671500D01*
X59469771Y-67697507D01*
X59425000Y-67706413D01*
X59424999Y-67706413D01*
X59424996Y-67706414D01*
X59259663Y-67774898D01*
X59125001Y-67864876D01*
X59057248Y-67886090D01*
X58988781Y-67867306D01*
X58984999Y-67864876D01*
X58850336Y-67774898D01*
X58685003Y-67706414D01*
X58685001Y-67706413D01*
X58685000Y-67706413D01*
X58596645Y-67688838D01*
X58509481Y-67671500D01*
X58509479Y-67671500D01*
X58330521Y-67671500D01*
X58330518Y-67671500D01*
X58199771Y-67697507D01*
X58155000Y-67706413D01*
X58154999Y-67706413D01*
X58154996Y-67706414D01*
X57989663Y-67774898D01*
X57855001Y-67864876D01*
X57787248Y-67886090D01*
X57718781Y-67867306D01*
X57714999Y-67864876D01*
X57580336Y-67774898D01*
X57415003Y-67706414D01*
X57415001Y-67706413D01*
X57415000Y-67706413D01*
X57326645Y-67688838D01*
X57239481Y-67671500D01*
X57239479Y-67671500D01*
X57060521Y-67671500D01*
X57060518Y-67671500D01*
X56929771Y-67697507D01*
X56885000Y-67706413D01*
X56884999Y-67706413D01*
X56884996Y-67706414D01*
X56719663Y-67774898D01*
X56585001Y-67864876D01*
X56517248Y-67886090D01*
X56448781Y-67867306D01*
X56444999Y-67864876D01*
X56310336Y-67774898D01*
X56145003Y-67706414D01*
X56145001Y-67706413D01*
X56145000Y-67706413D01*
X56056645Y-67688838D01*
X55969481Y-67671500D01*
X55969479Y-67671500D01*
X55790521Y-67671500D01*
X55790518Y-67671500D01*
X55659771Y-67697507D01*
X55615000Y-67706413D01*
X55614999Y-67706413D01*
X55614996Y-67706414D01*
X55449662Y-67774899D01*
X55300869Y-67874319D01*
X55300862Y-67874324D01*
X55174324Y-68000862D01*
X55174319Y-68000869D01*
X55074899Y-68149662D01*
X55006414Y-68314996D01*
X54971500Y-68490518D01*
X54971500Y-68490521D01*
X54971500Y-68669479D01*
X55006413Y-68845000D01*
X55074898Y-69010336D01*
X55174322Y-69159135D01*
X55174324Y-69159137D01*
X55299592Y-69284405D01*
X55333618Y-69346717D01*
X55328553Y-69417532D01*
X55286006Y-69474368D01*
X55219486Y-69499179D01*
X55210497Y-69499500D01*
X51469503Y-69499500D01*
X51401382Y-69479498D01*
X51354889Y-69425842D01*
X51344785Y-69355568D01*
X51374279Y-69290988D01*
X51380408Y-69284405D01*
X51435000Y-69229813D01*
X51505678Y-69159135D01*
X51605102Y-69010336D01*
X51673587Y-68845000D01*
X51708500Y-68669479D01*
X51708500Y-68490521D01*
X51673587Y-68315000D01*
X51605102Y-68149664D01*
X51505678Y-68000865D01*
X51379135Y-67874322D01*
X51230336Y-67774898D01*
X51107236Y-67723908D01*
X51065003Y-67706414D01*
X51065001Y-67706413D01*
X51065000Y-67706413D01*
X50976645Y-67688838D01*
X50889481Y-67671500D01*
X50889479Y-67671500D01*
X50710521Y-67671500D01*
X50710518Y-67671500D01*
X50579771Y-67697507D01*
X50535000Y-67706413D01*
X50534999Y-67706413D01*
X50534996Y-67706414D01*
X50369663Y-67774898D01*
X50235001Y-67864876D01*
X50167248Y-67886090D01*
X50098781Y-67867306D01*
X50094999Y-67864876D01*
X49960336Y-67774898D01*
X49795003Y-67706414D01*
X49795001Y-67706413D01*
X49795000Y-67706413D01*
X49706645Y-67688838D01*
X49619481Y-67671500D01*
X49619479Y-67671500D01*
X49440521Y-67671500D01*
X49440518Y-67671500D01*
X49309771Y-67697507D01*
X49265000Y-67706413D01*
X49264999Y-67706413D01*
X49264996Y-67706414D01*
X49099663Y-67774898D01*
X48965001Y-67864876D01*
X48897248Y-67886090D01*
X48828781Y-67867306D01*
X48824999Y-67864876D01*
X48690336Y-67774898D01*
X48525003Y-67706414D01*
X48525001Y-67706413D01*
X48525000Y-67706413D01*
X48436645Y-67688838D01*
X48349481Y-67671500D01*
X48349479Y-67671500D01*
X48170521Y-67671500D01*
X48170518Y-67671500D01*
X48039771Y-67697507D01*
X47995000Y-67706413D01*
X47994999Y-67706413D01*
X47994996Y-67706414D01*
X47829662Y-67774899D01*
X47680869Y-67874319D01*
X47680862Y-67874324D01*
X47554324Y-68000862D01*
X47554319Y-68000869D01*
X47454899Y-68149662D01*
X47386414Y-68314996D01*
X47351500Y-68490518D01*
X47351500Y-68490521D01*
X47351500Y-68669479D01*
X47386413Y-68845000D01*
X47454898Y-69010336D01*
X47554322Y-69159135D01*
X47554324Y-69159137D01*
X47679592Y-69284405D01*
X47713618Y-69346717D01*
X47708553Y-69417532D01*
X47666006Y-69474368D01*
X47599486Y-69499179D01*
X47590497Y-69499500D01*
X44965240Y-69499500D01*
X44897119Y-69479498D01*
X44850626Y-69425842D01*
X44840522Y-69355568D01*
X44841661Y-69348919D01*
X44850499Y-69304484D01*
X44850500Y-69304477D01*
X44850500Y-69125522D01*
X44850499Y-69125518D01*
X44834163Y-69043391D01*
X44815587Y-68950000D01*
X44747102Y-68784664D01*
X44647678Y-68635865D01*
X44521135Y-68509322D01*
X44372336Y-68409898D01*
X44255429Y-68361473D01*
X44207003Y-68341414D01*
X44207001Y-68341413D01*
X44207000Y-68341413D01*
X44118645Y-68323838D01*
X44031481Y-68306500D01*
X44031479Y-68306500D01*
X43852521Y-68306500D01*
X43852518Y-68306500D01*
X43721771Y-68332507D01*
X43677000Y-68341413D01*
X43676999Y-68341413D01*
X43676996Y-68341414D01*
X43511662Y-68409899D01*
X43362869Y-68509319D01*
X43362862Y-68509324D01*
X43236324Y-68635862D01*
X43236319Y-68635869D01*
X43136899Y-68784662D01*
X43068414Y-68949996D01*
X43033500Y-69125518D01*
X43033500Y-69304484D01*
X43042339Y-69348919D01*
X43036011Y-69419633D01*
X42992456Y-69475700D01*
X42925503Y-69499319D01*
X42918760Y-69499500D01*
X25822961Y-69499500D01*
X25754840Y-69479498D01*
X25708347Y-69425842D01*
X25698243Y-69355568D01*
X25727737Y-69290988D01*
X25763565Y-69262378D01*
X25908849Y-69184722D01*
X26211815Y-68982287D01*
X26493480Y-68751131D01*
X26751131Y-68493480D01*
X26982287Y-68211815D01*
X27184722Y-67908849D01*
X27356487Y-67587500D01*
X27495927Y-67250863D01*
X27505132Y-67220518D01*
X29571500Y-67220518D01*
X29571500Y-67220521D01*
X29571500Y-67399479D01*
X29606413Y-67575000D01*
X29674898Y-67740336D01*
X29774322Y-67889135D01*
X29900865Y-68015678D01*
X30049664Y-68115102D01*
X30215000Y-68183587D01*
X30390521Y-68218500D01*
X30390522Y-68218500D01*
X30569478Y-68218500D01*
X30569479Y-68218500D01*
X30745000Y-68183587D01*
X30910336Y-68115102D01*
X31044998Y-68025123D01*
X31112751Y-68003909D01*
X31181218Y-68022692D01*
X31185001Y-68025123D01*
X31319664Y-68115102D01*
X31485000Y-68183587D01*
X31660521Y-68218500D01*
X31660522Y-68218500D01*
X31839478Y-68218500D01*
X31839479Y-68218500D01*
X32015000Y-68183587D01*
X32180336Y-68115102D01*
X32314998Y-68025123D01*
X32382751Y-68003909D01*
X32451218Y-68022692D01*
X32455001Y-68025123D01*
X32589664Y-68115102D01*
X32755000Y-68183587D01*
X32930521Y-68218500D01*
X32930522Y-68218500D01*
X33109478Y-68218500D01*
X33109479Y-68218500D01*
X33285000Y-68183587D01*
X33450336Y-68115102D01*
X33599135Y-68015678D01*
X33725678Y-67889135D01*
X33825102Y-67740336D01*
X33893587Y-67575000D01*
X33928500Y-67399479D01*
X33928500Y-67220521D01*
X33928499Y-67220518D01*
X37191500Y-67220518D01*
X37191500Y-67220521D01*
X37191500Y-67399479D01*
X37226413Y-67575000D01*
X37294898Y-67740336D01*
X37394322Y-67889135D01*
X37520865Y-68015678D01*
X37669664Y-68115102D01*
X37835000Y-68183587D01*
X38010521Y-68218500D01*
X38010522Y-68218500D01*
X38189478Y-68218500D01*
X38189479Y-68218500D01*
X38365000Y-68183587D01*
X38530336Y-68115102D01*
X38679135Y-68015678D01*
X38805678Y-67889135D01*
X38905102Y-67740336D01*
X38973587Y-67575000D01*
X39008500Y-67399479D01*
X39008500Y-67220521D01*
X38973587Y-67045000D01*
X38905102Y-66879664D01*
X38878277Y-66839518D01*
X39477500Y-66839518D01*
X39477500Y-67018481D01*
X39482775Y-67045000D01*
X39512413Y-67194000D01*
X39580898Y-67359336D01*
X39680322Y-67508135D01*
X39806865Y-67634678D01*
X39955664Y-67734102D01*
X40121000Y-67802587D01*
X40296521Y-67837500D01*
X40296522Y-67837500D01*
X40475478Y-67837500D01*
X40475479Y-67837500D01*
X40651000Y-67802587D01*
X40816336Y-67734102D01*
X40965135Y-67634678D01*
X41091678Y-67508135D01*
X41191102Y-67359336D01*
X41259587Y-67194000D01*
X41294500Y-67018479D01*
X41294500Y-66839521D01*
X41259587Y-66664000D01*
X41191102Y-66498664D01*
X41091678Y-66349865D01*
X40965135Y-66223322D01*
X40816336Y-66123898D01*
X40699429Y-66075473D01*
X40651003Y-66055414D01*
X40651001Y-66055413D01*
X40651000Y-66055413D01*
X40562645Y-66037838D01*
X40475481Y-66020500D01*
X40475479Y-66020500D01*
X40296521Y-66020500D01*
X40296518Y-66020500D01*
X40165771Y-66046507D01*
X40121000Y-66055413D01*
X40120999Y-66055413D01*
X40120996Y-66055414D01*
X39955662Y-66123899D01*
X39806869Y-66223319D01*
X39806862Y-66223324D01*
X39680324Y-66349862D01*
X39680319Y-66349869D01*
X39580899Y-66498662D01*
X39512414Y-66663996D01*
X39477500Y-66839518D01*
X38878277Y-66839518D01*
X38805678Y-66730865D01*
X38679135Y-66604322D01*
X38530336Y-66504898D01*
X38413429Y-66456473D01*
X38365003Y-66436414D01*
X38365001Y-66436413D01*
X38365000Y-66436413D01*
X38276645Y-66418838D01*
X38189481Y-66401500D01*
X38189479Y-66401500D01*
X38010521Y-66401500D01*
X38010518Y-66401500D01*
X37879771Y-66427507D01*
X37835000Y-66436413D01*
X37834999Y-66436413D01*
X37834996Y-66436414D01*
X37669662Y-66504899D01*
X37520869Y-66604319D01*
X37520862Y-66604324D01*
X37394324Y-66730862D01*
X37394319Y-66730869D01*
X37321721Y-66839521D01*
X37294898Y-66879664D01*
X37285572Y-66902179D01*
X37226414Y-67044996D01*
X37191500Y-67220518D01*
X33928499Y-67220518D01*
X33893587Y-67045000D01*
X33825102Y-66879664D01*
X33725678Y-66730865D01*
X33599135Y-66604322D01*
X33450336Y-66504898D01*
X33333429Y-66456473D01*
X33285003Y-66436414D01*
X33285001Y-66436413D01*
X33285000Y-66436413D01*
X33196645Y-66418838D01*
X33109481Y-66401500D01*
X33109479Y-66401500D01*
X32930521Y-66401500D01*
X32930518Y-66401500D01*
X32799771Y-66427507D01*
X32755000Y-66436413D01*
X32754999Y-66436413D01*
X32754996Y-66436414D01*
X32589663Y-66504898D01*
X32455001Y-66594876D01*
X32387248Y-66616090D01*
X32318781Y-66597306D01*
X32314999Y-66594876D01*
X32180336Y-66504898D01*
X32015003Y-66436414D01*
X32015001Y-66436413D01*
X32015000Y-66436413D01*
X31926645Y-66418838D01*
X31839481Y-66401500D01*
X31839479Y-66401500D01*
X31660521Y-66401500D01*
X31660518Y-66401500D01*
X31529771Y-66427507D01*
X31485000Y-66436413D01*
X31484999Y-66436413D01*
X31484996Y-66436414D01*
X31319663Y-66504898D01*
X31185001Y-66594876D01*
X31117248Y-66616090D01*
X31048781Y-66597306D01*
X31044999Y-66594876D01*
X30910336Y-66504898D01*
X30745003Y-66436414D01*
X30745001Y-66436413D01*
X30745000Y-66436413D01*
X30656645Y-66418838D01*
X30569481Y-66401500D01*
X30569479Y-66401500D01*
X30390521Y-66401500D01*
X30390518Y-66401500D01*
X30259771Y-66427507D01*
X30215000Y-66436413D01*
X30214999Y-66436413D01*
X30214996Y-66436414D01*
X30049662Y-66504899D01*
X29900869Y-66604319D01*
X29900862Y-66604324D01*
X29774324Y-66730862D01*
X29774319Y-66730869D01*
X29701721Y-66839521D01*
X29674898Y-66879664D01*
X29665572Y-66902179D01*
X29606414Y-67044996D01*
X29571500Y-67220518D01*
X27505132Y-67220518D01*
X27518102Y-67177764D01*
X27518104Y-67177756D01*
X27531816Y-67132549D01*
X27601699Y-66902179D01*
X27672785Y-66544806D01*
X27708500Y-66182187D01*
X27708500Y-65817813D01*
X27674105Y-65468597D01*
X45574000Y-65468597D01*
X45580505Y-65529093D01*
X45631555Y-65665964D01*
X45631555Y-65665965D01*
X45719095Y-65782904D01*
X45836034Y-65870444D01*
X45972906Y-65921494D01*
X46033402Y-65927999D01*
X46033415Y-65928000D01*
X46228000Y-65928000D01*
X46228000Y-65024000D01*
X45574000Y-65024000D01*
X45574000Y-65468597D01*
X27674105Y-65468597D01*
X27672785Y-65455194D01*
X27601699Y-65097821D01*
X27495927Y-64749137D01*
X27483971Y-64720272D01*
X46232000Y-64720272D01*
X46232000Y-64819728D01*
X46270060Y-64911614D01*
X46340386Y-64981940D01*
X46432272Y-65020000D01*
X46531728Y-65020000D01*
X46623614Y-64981940D01*
X46693940Y-64911614D01*
X46732000Y-64819728D01*
X46732000Y-64720272D01*
X46693940Y-64628386D01*
X46623614Y-64558060D01*
X46531728Y-64520000D01*
X46432272Y-64520000D01*
X46340386Y-64558060D01*
X46270060Y-64628386D01*
X46232000Y-64720272D01*
X27483971Y-64720272D01*
X27356487Y-64412500D01*
X27184722Y-64091151D01*
X27171526Y-64071402D01*
X45574000Y-64071402D01*
X45574000Y-64516000D01*
X46228000Y-64516000D01*
X46228000Y-63612000D01*
X46736000Y-63612000D01*
X46736000Y-65928000D01*
X46930585Y-65928000D01*
X46930597Y-65927999D01*
X46991093Y-65921494D01*
X47127960Y-65870445D01*
X47171469Y-65837875D01*
X47237989Y-65813063D01*
X47294922Y-65825203D01*
X47295946Y-65822733D01*
X47301662Y-65825100D01*
X47301664Y-65825102D01*
X47467000Y-65893587D01*
X47642521Y-65928500D01*
X47642522Y-65928500D01*
X47821478Y-65928500D01*
X47821479Y-65928500D01*
X47997000Y-65893587D01*
X48162336Y-65825102D01*
X48287000Y-65741804D01*
X48354751Y-65720590D01*
X48423218Y-65739373D01*
X48426971Y-65741785D01*
X48551664Y-65825102D01*
X48717000Y-65893587D01*
X48892521Y-65928500D01*
X48892522Y-65928500D01*
X49071478Y-65928500D01*
X49071479Y-65928500D01*
X49247000Y-65893587D01*
X49412336Y-65825102D01*
X49537000Y-65741804D01*
X49604751Y-65720590D01*
X49673218Y-65739373D01*
X49676971Y-65741785D01*
X49801664Y-65825102D01*
X49967000Y-65893587D01*
X50142521Y-65928500D01*
X50142522Y-65928500D01*
X50321478Y-65928500D01*
X50321479Y-65928500D01*
X50497000Y-65893587D01*
X50662336Y-65825102D01*
X50811135Y-65725678D01*
X50937678Y-65599135D01*
X51024900Y-65468597D01*
X54845000Y-65468597D01*
X54851505Y-65529093D01*
X54902555Y-65665964D01*
X54902555Y-65665965D01*
X54990095Y-65782904D01*
X55107034Y-65870444D01*
X55243906Y-65921494D01*
X55304402Y-65927999D01*
X55304415Y-65928000D01*
X55499000Y-65928000D01*
X55499000Y-65024000D01*
X54845000Y-65024000D01*
X54845000Y-65468597D01*
X51024900Y-65468597D01*
X51037102Y-65450336D01*
X51105587Y-65285000D01*
X51140500Y-65109479D01*
X51140500Y-64720272D01*
X55503000Y-64720272D01*
X55503000Y-64819728D01*
X55541060Y-64911614D01*
X55611386Y-64981940D01*
X55703272Y-65020000D01*
X55802728Y-65020000D01*
X55894614Y-64981940D01*
X55964940Y-64911614D01*
X56003000Y-64819728D01*
X56003000Y-64720272D01*
X55964940Y-64628386D01*
X55894614Y-64558060D01*
X55802728Y-64520000D01*
X55703272Y-64520000D01*
X55611386Y-64558060D01*
X55541060Y-64628386D01*
X55503000Y-64720272D01*
X51140500Y-64720272D01*
X51140500Y-64430521D01*
X51105587Y-64255000D01*
X51037102Y-64089664D01*
X51024900Y-64071402D01*
X54845000Y-64071402D01*
X54845000Y-64516000D01*
X55499000Y-64516000D01*
X55499000Y-63612000D01*
X56007000Y-63612000D01*
X56007000Y-65928000D01*
X56201585Y-65928000D01*
X56201597Y-65927999D01*
X56262093Y-65921494D01*
X56398960Y-65870445D01*
X56442469Y-65837875D01*
X56508989Y-65813063D01*
X56565922Y-65825203D01*
X56566946Y-65822733D01*
X56572662Y-65825100D01*
X56572664Y-65825102D01*
X56738000Y-65893587D01*
X56913521Y-65928500D01*
X56913522Y-65928500D01*
X57092478Y-65928500D01*
X57092479Y-65928500D01*
X57268000Y-65893587D01*
X57433336Y-65825102D01*
X57558000Y-65741804D01*
X57625751Y-65720590D01*
X57694218Y-65739373D01*
X57697971Y-65741785D01*
X57822664Y-65825102D01*
X57988000Y-65893587D01*
X58163521Y-65928500D01*
X58163522Y-65928500D01*
X58342478Y-65928500D01*
X58342479Y-65928500D01*
X58518000Y-65893587D01*
X58683336Y-65825102D01*
X58808000Y-65741804D01*
X58875751Y-65720590D01*
X58944218Y-65739373D01*
X58947971Y-65741785D01*
X59072664Y-65825102D01*
X59238000Y-65893587D01*
X59413521Y-65928500D01*
X59413522Y-65928500D01*
X59592478Y-65928500D01*
X59592479Y-65928500D01*
X59768000Y-65893587D01*
X59933336Y-65825102D01*
X60082135Y-65725678D01*
X60208678Y-65599135D01*
X60308102Y-65450336D01*
X60376587Y-65285000D01*
X60411500Y-65109479D01*
X60411500Y-64430521D01*
X60376587Y-64255000D01*
X60308102Y-64089664D01*
X60208678Y-63940865D01*
X60082135Y-63814322D01*
X59933336Y-63714898D01*
X59816429Y-63666473D01*
X59768003Y-63646414D01*
X59768001Y-63646413D01*
X59768000Y-63646413D01*
X59679645Y-63628838D01*
X59592481Y-63611500D01*
X59592479Y-63611500D01*
X59413521Y-63611500D01*
X59413518Y-63611500D01*
X59282771Y-63637507D01*
X59238000Y-63646413D01*
X59237999Y-63646413D01*
X59237996Y-63646414D01*
X59072662Y-63714899D01*
X58948002Y-63798194D01*
X58880249Y-63819409D01*
X58811782Y-63800626D01*
X58807998Y-63798194D01*
X58746488Y-63757095D01*
X58683336Y-63714898D01*
X58566429Y-63666473D01*
X58518003Y-63646414D01*
X58518001Y-63646413D01*
X58518000Y-63646413D01*
X58429645Y-63628838D01*
X58342481Y-63611500D01*
X58342479Y-63611500D01*
X58163521Y-63611500D01*
X58163518Y-63611500D01*
X58032771Y-63637507D01*
X57988000Y-63646413D01*
X57987999Y-63646413D01*
X57987996Y-63646414D01*
X57822662Y-63714899D01*
X57698002Y-63798194D01*
X57630249Y-63819409D01*
X57561782Y-63800626D01*
X57557998Y-63798194D01*
X57496488Y-63757095D01*
X57433336Y-63714898D01*
X57316429Y-63666473D01*
X57268003Y-63646414D01*
X57268001Y-63646413D01*
X57268000Y-63646413D01*
X57179645Y-63628838D01*
X57092481Y-63611500D01*
X57092479Y-63611500D01*
X56913521Y-63611500D01*
X56913518Y-63611500D01*
X56782771Y-63637507D01*
X56738000Y-63646413D01*
X56737999Y-63646413D01*
X56737996Y-63646414D01*
X56641422Y-63686417D01*
X56572664Y-63714898D01*
X56572662Y-63714899D01*
X56566946Y-63717267D01*
X56565922Y-63714795D01*
X56507702Y-63726836D01*
X56442471Y-63702124D01*
X56398965Y-63669555D01*
X56262093Y-63618505D01*
X56201597Y-63612000D01*
X56007000Y-63612000D01*
X55499000Y-63612000D01*
X55304402Y-63612000D01*
X55243906Y-63618505D01*
X55107035Y-63669555D01*
X55107034Y-63669555D01*
X54990095Y-63757095D01*
X54902555Y-63874034D01*
X54902555Y-63874035D01*
X54851505Y-64010906D01*
X54845000Y-64071402D01*
X51024900Y-64071402D01*
X50937678Y-63940865D01*
X50811135Y-63814322D01*
X50662336Y-63714898D01*
X50545429Y-63666473D01*
X50497003Y-63646414D01*
X50497001Y-63646413D01*
X50497000Y-63646413D01*
X50408645Y-63628838D01*
X50321481Y-63611500D01*
X50321479Y-63611500D01*
X50142521Y-63611500D01*
X50142518Y-63611500D01*
X50011771Y-63637507D01*
X49967000Y-63646413D01*
X49966999Y-63646413D01*
X49966996Y-63646414D01*
X49801662Y-63714899D01*
X49677002Y-63798194D01*
X49609249Y-63819409D01*
X49540782Y-63800626D01*
X49536998Y-63798194D01*
X49475488Y-63757095D01*
X49412336Y-63714898D01*
X49295429Y-63666473D01*
X49247003Y-63646414D01*
X49247001Y-63646413D01*
X49247000Y-63646413D01*
X49158645Y-63628838D01*
X49071481Y-63611500D01*
X49071479Y-63611500D01*
X48892521Y-63611500D01*
X48892518Y-63611500D01*
X48761771Y-63637507D01*
X48717000Y-63646413D01*
X48716999Y-63646413D01*
X48716996Y-63646414D01*
X48551662Y-63714899D01*
X48427002Y-63798194D01*
X48359249Y-63819409D01*
X48290782Y-63800626D01*
X48286998Y-63798194D01*
X48225488Y-63757095D01*
X48162336Y-63714898D01*
X48045429Y-63666473D01*
X47997003Y-63646414D01*
X47997001Y-63646413D01*
X47997000Y-63646413D01*
X47908645Y-63628838D01*
X47821481Y-63611500D01*
X47821479Y-63611500D01*
X47642521Y-63611500D01*
X47642518Y-63611500D01*
X47511771Y-63637507D01*
X47467000Y-63646413D01*
X47466999Y-63646413D01*
X47466996Y-63646414D01*
X47370422Y-63686417D01*
X47301664Y-63714898D01*
X47301662Y-63714899D01*
X47295946Y-63717267D01*
X47294922Y-63714795D01*
X47236702Y-63726836D01*
X47171471Y-63702124D01*
X47127965Y-63669555D01*
X46991093Y-63618505D01*
X46930597Y-63612000D01*
X46736000Y-63612000D01*
X46228000Y-63612000D01*
X46033402Y-63612000D01*
X45972906Y-63618505D01*
X45836035Y-63669555D01*
X45836034Y-63669555D01*
X45719095Y-63757095D01*
X45631555Y-63874034D01*
X45631555Y-63874035D01*
X45580505Y-64010906D01*
X45574000Y-64071402D01*
X27171526Y-64071402D01*
X27039650Y-63874035D01*
X26982290Y-63788189D01*
X26922057Y-63714795D01*
X26751131Y-63506520D01*
X26751114Y-63506502D01*
X26493497Y-63248885D01*
X26493479Y-63248868D01*
X26211810Y-63017709D01*
X25908851Y-62815279D01*
X25587500Y-62643513D01*
X25250863Y-62504073D01*
X25250864Y-62504073D01*
X25250861Y-62504072D01*
X25250858Y-62504071D01*
X25020056Y-62434058D01*
X24922176Y-62404367D01*
X28655500Y-62404367D01*
X28655500Y-62563632D01*
X28671035Y-62641730D01*
X28686570Y-62719831D01*
X28747517Y-62866968D01*
X28798114Y-62942692D01*
X28835998Y-62999390D01*
X28836003Y-62999396D01*
X28948603Y-63111996D01*
X28948609Y-63112001D01*
X28948611Y-63112003D01*
X29081032Y-63200483D01*
X29228169Y-63261430D01*
X29384370Y-63292500D01*
X29384371Y-63292500D01*
X29543629Y-63292500D01*
X29543630Y-63292500D01*
X29699831Y-63261430D01*
X29846968Y-63200483D01*
X29979389Y-63112003D01*
X30092003Y-62999389D01*
X30180483Y-62866968D01*
X30241430Y-62719831D01*
X30272500Y-62563630D01*
X30272500Y-62404370D01*
X30241430Y-62248169D01*
X30180483Y-62101032D01*
X30092003Y-61968611D01*
X30092001Y-61968609D01*
X30091996Y-61968603D01*
X29979396Y-61856003D01*
X29979390Y-61855998D01*
X29895087Y-61799669D01*
X29846968Y-61767517D01*
X29699831Y-61706570D01*
X29621730Y-61691035D01*
X29543632Y-61675500D01*
X29543630Y-61675500D01*
X29384370Y-61675500D01*
X29384367Y-61675500D01*
X29267219Y-61698802D01*
X29228169Y-61706570D01*
X29228167Y-61706571D01*
X29081032Y-61767517D01*
X28948609Y-61855998D01*
X28948603Y-61856003D01*
X28836003Y-61968603D01*
X28835998Y-61968609D01*
X28835997Y-61968611D01*
X28747517Y-62101032D01*
X28731160Y-62140522D01*
X28686571Y-62248167D01*
X28686570Y-62248170D01*
X28655500Y-62404367D01*
X24922176Y-62404367D01*
X24902179Y-62398301D01*
X24902176Y-62398300D01*
X24902165Y-62398297D01*
X24544811Y-62327216D01*
X24544806Y-62327215D01*
X24544799Y-62327214D01*
X24544790Y-62327213D01*
X24182193Y-62291500D01*
X24182187Y-62291500D01*
X23894500Y-62291500D01*
X23826379Y-62271498D01*
X23779886Y-62217842D01*
X23768500Y-62165500D01*
X23768500Y-62140522D01*
X23768499Y-62140518D01*
X23760645Y-62101032D01*
X23733587Y-61965000D01*
X23665102Y-61799664D01*
X23565678Y-61650865D01*
X23439135Y-61524322D01*
X23290336Y-61424898D01*
X23134867Y-61360500D01*
X23125003Y-61356414D01*
X23125001Y-61356413D01*
X23125000Y-61356413D01*
X23036645Y-61338838D01*
X22949481Y-61321500D01*
X22949479Y-61321500D01*
X22770521Y-61321500D01*
X22770518Y-61321500D01*
X22647717Y-61345927D01*
X22595000Y-61356413D01*
X22594999Y-61356413D01*
X22594996Y-61356414D01*
X22429663Y-61424898D01*
X22295001Y-61514876D01*
X22227248Y-61536090D01*
X22158781Y-61517306D01*
X22154999Y-61514876D01*
X22020336Y-61424898D01*
X21855003Y-61356414D01*
X21855001Y-61356413D01*
X21855000Y-61356413D01*
X21766645Y-61338838D01*
X21679481Y-61321500D01*
X21679479Y-61321500D01*
X21500521Y-61321500D01*
X21500518Y-61321500D01*
X21377717Y-61345927D01*
X21325000Y-61356413D01*
X21324999Y-61356413D01*
X21324996Y-61356414D01*
X21159662Y-61424899D01*
X21010869Y-61524319D01*
X21010862Y-61524324D01*
X20884324Y-61650862D01*
X20884319Y-61650869D01*
X20784897Y-61799664D01*
X20784895Y-61799669D01*
X20742908Y-61901033D01*
X20698360Y-61956314D01*
X20630996Y-61978734D01*
X20562205Y-61961175D01*
X20513827Y-61909213D01*
X20500500Y-61852814D01*
X20500500Y-53932850D01*
X23755000Y-53932850D01*
X23755000Y-56430149D01*
X23761509Y-56490696D01*
X23761511Y-56490704D01*
X23812610Y-56627702D01*
X23812612Y-56627707D01*
X23900238Y-56744761D01*
X24017292Y-56832387D01*
X24017294Y-56832388D01*
X24017296Y-56832389D01*
X24076375Y-56854424D01*
X24154295Y-56883488D01*
X24154303Y-56883490D01*
X24214850Y-56889999D01*
X24214855Y-56889999D01*
X24214862Y-56890000D01*
X24214868Y-56890000D01*
X24690593Y-56890000D01*
X24758714Y-56910002D01*
X24805207Y-56963658D01*
X24815311Y-57033932D01*
X24785817Y-57098512D01*
X24738812Y-57132408D01*
X24733557Y-57134585D01*
X24706226Y-57145905D01*
X24706216Y-57145911D01*
X24512276Y-57257883D01*
X24334590Y-57394225D01*
X24334580Y-57394234D01*
X24176234Y-57552580D01*
X24176225Y-57552590D01*
X24071555Y-57689000D01*
X24040759Y-57729135D01*
X24039883Y-57730276D01*
X23927911Y-57924216D01*
X23927906Y-57924226D01*
X23927905Y-57924228D01*
X23884907Y-58028034D01*
X23842198Y-58131142D01*
X23784231Y-58347479D01*
X23755000Y-58569516D01*
X23755000Y-58793483D01*
X23784231Y-59015520D01*
X23797757Y-59066000D01*
X23842198Y-59231858D01*
X23927905Y-59438772D01*
X23927906Y-59438773D01*
X23927911Y-59438783D01*
X24010597Y-59581999D01*
X24039886Y-59632728D01*
X24127051Y-59746324D01*
X24176225Y-59810409D01*
X24176234Y-59810419D01*
X24334580Y-59968765D01*
X24334590Y-59968774D01*
X24334591Y-59968775D01*
X24512272Y-60105114D01*
X24706228Y-60217095D01*
X24913142Y-60302802D01*
X25129473Y-60360767D01*
X25129477Y-60360767D01*
X25129479Y-60360768D01*
X25186704Y-60368301D01*
X25351519Y-60390000D01*
X25351526Y-60390000D01*
X25575474Y-60390000D01*
X25575481Y-60390000D01*
X25776156Y-60363580D01*
X25797520Y-60360768D01*
X25797520Y-60360767D01*
X25797527Y-60360767D01*
X26013858Y-60302802D01*
X26220772Y-60217095D01*
X26414728Y-60105114D01*
X26592409Y-59968775D01*
X26750775Y-59810409D01*
X26887114Y-59632728D01*
X26999095Y-59438772D01*
X27084802Y-59231858D01*
X27142767Y-59015527D01*
X27172000Y-58793481D01*
X27172000Y-58569519D01*
X27142767Y-58347473D01*
X27084802Y-58131142D01*
X26999095Y-57924228D01*
X26887114Y-57730272D01*
X26750775Y-57552591D01*
X26750774Y-57552590D01*
X26750765Y-57552580D01*
X26639703Y-57441518D01*
X36048500Y-57441518D01*
X36048500Y-57620481D01*
X36062130Y-57689003D01*
X36082567Y-57791749D01*
X36083414Y-57796003D01*
X36151898Y-57961336D01*
X36241876Y-58095999D01*
X36263090Y-58163752D01*
X36244306Y-58232219D01*
X36241876Y-58236001D01*
X36151898Y-58370663D01*
X36083414Y-58535996D01*
X36048500Y-58711518D01*
X36048500Y-58890481D01*
X36055963Y-58928000D01*
X36073373Y-59015527D01*
X36083414Y-59066003D01*
X36151898Y-59231336D01*
X36241876Y-59365999D01*
X36263090Y-59433752D01*
X36244306Y-59502219D01*
X36241876Y-59506001D01*
X36151898Y-59640663D01*
X36083414Y-59805996D01*
X36048500Y-59981518D01*
X36048500Y-60160481D01*
X36065838Y-60247645D01*
X36082567Y-60331749D01*
X36083414Y-60336003D01*
X36103473Y-60384429D01*
X36151898Y-60501336D01*
X36251322Y-60650135D01*
X36377865Y-60776678D01*
X36526664Y-60876102D01*
X36692000Y-60944587D01*
X36867521Y-60979500D01*
X36867522Y-60979500D01*
X37046478Y-60979500D01*
X37046479Y-60979500D01*
X37222000Y-60944587D01*
X37387336Y-60876102D01*
X37536135Y-60776678D01*
X37662678Y-60650135D01*
X37762102Y-60501336D01*
X37819603Y-60362518D01*
X41001500Y-60362518D01*
X41001500Y-60362521D01*
X41001500Y-60541479D01*
X41036413Y-60717000D01*
X41104898Y-60882336D01*
X41204322Y-61031135D01*
X41330865Y-61157678D01*
X41479664Y-61257102D01*
X41645000Y-61325587D01*
X41820521Y-61360500D01*
X41820522Y-61360500D01*
X41999478Y-61360500D01*
X41999479Y-61360500D01*
X42175000Y-61325587D01*
X42340336Y-61257102D01*
X42489135Y-61157678D01*
X42615678Y-61031135D01*
X42715102Y-60882336D01*
X42719997Y-60870518D01*
X51161500Y-60870518D01*
X51161500Y-61049481D01*
X51196414Y-61225003D01*
X51264898Y-61390336D01*
X51354876Y-61524999D01*
X51376090Y-61592752D01*
X51357306Y-61661219D01*
X51354876Y-61665001D01*
X51264898Y-61799663D01*
X51196414Y-61964996D01*
X51196413Y-61964999D01*
X51196413Y-61965000D01*
X51195695Y-61968609D01*
X51161500Y-62140518D01*
X51161500Y-62319481D01*
X51196414Y-62495003D01*
X51204527Y-62514589D01*
X51264898Y-62660336D01*
X51364322Y-62809135D01*
X51490865Y-62935678D01*
X51639664Y-63035102D01*
X51805000Y-63103587D01*
X51980521Y-63138500D01*
X51980522Y-63138500D01*
X52159478Y-63138500D01*
X52159479Y-63138500D01*
X52335000Y-63103587D01*
X52500336Y-63035102D01*
X52634998Y-62945123D01*
X52702751Y-62923909D01*
X52771218Y-62942692D01*
X52775001Y-62945123D01*
X52909664Y-63035102D01*
X53075000Y-63103587D01*
X53250521Y-63138500D01*
X53250522Y-63138500D01*
X53429478Y-63138500D01*
X53429479Y-63138500D01*
X53605000Y-63103587D01*
X53770336Y-63035102D01*
X53919135Y-62935678D01*
X54045678Y-62809135D01*
X54145102Y-62660336D01*
X54213587Y-62495000D01*
X54248500Y-62319479D01*
X54248500Y-62140521D01*
X54213587Y-61965000D01*
X54145102Y-61799664D01*
X54055123Y-61665001D01*
X54033909Y-61597249D01*
X54052692Y-61528782D01*
X54055124Y-61524998D01*
X54061887Y-61514876D01*
X54145102Y-61390336D01*
X54213587Y-61225000D01*
X54248500Y-61049479D01*
X54248500Y-60870521D01*
X54213587Y-60695000D01*
X54145102Y-60529664D01*
X54045678Y-60380865D01*
X53919135Y-60254322D01*
X53770336Y-60154898D01*
X53605000Y-60086413D01*
X53604998Y-60086412D01*
X53604994Y-60086411D01*
X53587916Y-60083014D01*
X53525007Y-60050105D01*
X53489876Y-59988410D01*
X53486500Y-59959436D01*
X53486500Y-59854522D01*
X53486499Y-59854518D01*
X53451587Y-59679000D01*
X53383102Y-59513664D01*
X53283678Y-59364865D01*
X53157135Y-59238322D01*
X53008336Y-59138898D01*
X52867386Y-59080514D01*
X52843003Y-59070414D01*
X52843001Y-59070413D01*
X52843000Y-59070413D01*
X52754645Y-59052838D01*
X52667481Y-59035500D01*
X52667479Y-59035500D01*
X52488521Y-59035500D01*
X52488518Y-59035500D01*
X52357771Y-59061507D01*
X52313000Y-59070413D01*
X52312999Y-59070413D01*
X52312996Y-59070414D01*
X52147662Y-59138899D01*
X51998869Y-59238319D01*
X51998862Y-59238324D01*
X51872324Y-59364862D01*
X51872319Y-59364869D01*
X51772899Y-59513662D01*
X51704414Y-59678996D01*
X51669500Y-59854518D01*
X51669500Y-60033481D01*
X51670893Y-60040482D01*
X51664565Y-60111196D01*
X51621011Y-60167264D01*
X51617316Y-60169829D01*
X51490869Y-60254318D01*
X51490862Y-60254324D01*
X51364324Y-60380862D01*
X51364319Y-60380869D01*
X51264899Y-60529662D01*
X51196414Y-60694996D01*
X51161500Y-60870518D01*
X42719997Y-60870518D01*
X42742531Y-60816119D01*
X42742533Y-60816112D01*
X42783587Y-60717000D01*
X42818500Y-60541479D01*
X42818500Y-60362521D01*
X42783587Y-60187000D01*
X42715102Y-60021664D01*
X42615678Y-59872865D01*
X42489135Y-59746322D01*
X42340336Y-59646898D01*
X42183660Y-59582000D01*
X42175003Y-59578414D01*
X42175001Y-59578413D01*
X42175000Y-59578413D01*
X42086645Y-59560838D01*
X41999481Y-59543500D01*
X41999479Y-59543500D01*
X41820521Y-59543500D01*
X41820518Y-59543500D01*
X41689771Y-59569507D01*
X41645000Y-59578413D01*
X41644999Y-59578413D01*
X41644996Y-59578414D01*
X41513902Y-59632716D01*
X41494717Y-59640663D01*
X41479662Y-59646899D01*
X41330869Y-59746319D01*
X41330862Y-59746324D01*
X41204324Y-59872862D01*
X41204319Y-59872869D01*
X41104899Y-60021662D01*
X41036414Y-60186996D01*
X41001500Y-60362518D01*
X37819603Y-60362518D01*
X37830587Y-60336000D01*
X37865500Y-60160479D01*
X37865500Y-59981521D01*
X37830587Y-59806000D01*
X37762102Y-59640664D01*
X37672123Y-59506001D01*
X37650909Y-59438249D01*
X37669692Y-59369782D01*
X37672124Y-59365998D01*
X37702882Y-59319965D01*
X37762102Y-59231336D01*
X37830587Y-59066000D01*
X37865500Y-58890479D01*
X37865500Y-58711521D01*
X37830587Y-58536000D01*
X37762102Y-58370664D01*
X37672123Y-58236001D01*
X37650909Y-58168249D01*
X37669692Y-58099782D01*
X37672124Y-58095998D01*
X37762102Y-57961336D01*
X37819603Y-57822518D01*
X41001500Y-57822518D01*
X41001500Y-57822521D01*
X41001500Y-58001479D01*
X41036413Y-58177000D01*
X41104898Y-58342336D01*
X41204322Y-58491135D01*
X41330865Y-58617678D01*
X41479664Y-58717102D01*
X41645000Y-58785587D01*
X41820521Y-58820500D01*
X41820522Y-58820500D01*
X41999478Y-58820500D01*
X41999479Y-58820500D01*
X42175000Y-58785587D01*
X42340336Y-58717102D01*
X42479266Y-58624272D01*
X64520000Y-58624272D01*
X64520000Y-58723728D01*
X64558060Y-58815614D01*
X64628386Y-58885940D01*
X64720272Y-58924000D01*
X64819728Y-58924000D01*
X64911614Y-58885940D01*
X64981940Y-58815614D01*
X65020000Y-58723728D01*
X65020000Y-58624272D01*
X64981940Y-58532386D01*
X64911614Y-58462060D01*
X64819728Y-58424000D01*
X64720272Y-58424000D01*
X64628386Y-58462060D01*
X64558060Y-58532386D01*
X64520000Y-58624272D01*
X42479266Y-58624272D01*
X42489135Y-58617678D01*
X42615678Y-58491135D01*
X42715102Y-58342336D01*
X42783587Y-58177000D01*
X42818500Y-58001479D01*
X42818500Y-57822521D01*
X42783587Y-57647000D01*
X42715102Y-57481664D01*
X42615678Y-57332865D01*
X42489135Y-57206322D01*
X42340336Y-57106898D01*
X42223429Y-57058473D01*
X42175003Y-57038414D01*
X42175001Y-57038413D01*
X42175000Y-57038413D01*
X42084929Y-57020497D01*
X41999481Y-57003500D01*
X41999479Y-57003500D01*
X41820521Y-57003500D01*
X41820518Y-57003500D01*
X41689771Y-57029507D01*
X41645000Y-57038413D01*
X41644999Y-57038413D01*
X41644996Y-57038414D01*
X41578153Y-57066102D01*
X41499910Y-57098512D01*
X41479662Y-57106899D01*
X41330869Y-57206319D01*
X41330862Y-57206324D01*
X41204324Y-57332862D01*
X41204319Y-57332869D01*
X41104899Y-57481662D01*
X41036414Y-57646996D01*
X41001500Y-57822518D01*
X37819603Y-57822518D01*
X37830587Y-57796000D01*
X37865500Y-57620479D01*
X37865500Y-57441521D01*
X37830587Y-57266000D01*
X37762102Y-57100664D01*
X37662678Y-56951865D01*
X37536135Y-56825322D01*
X37446252Y-56765264D01*
X37400725Y-56710789D01*
X37391877Y-56640345D01*
X37422518Y-56576301D01*
X37482920Y-56538990D01*
X37516255Y-56534500D01*
X37681478Y-56534500D01*
X37681479Y-56534500D01*
X37857000Y-56499587D01*
X38022336Y-56431102D01*
X38171135Y-56331678D01*
X38218900Y-56283912D01*
X38281211Y-56249888D01*
X38352026Y-56254952D01*
X38377996Y-56268242D01*
X38431664Y-56304102D01*
X38597000Y-56372587D01*
X38642386Y-56381614D01*
X38705295Y-56414521D01*
X38740428Y-56476215D01*
X38741383Y-56480609D01*
X38750411Y-56525994D01*
X38750412Y-56525998D01*
X38750413Y-56526000D01*
X38818898Y-56691336D01*
X38918322Y-56840135D01*
X39044865Y-56966678D01*
X39193664Y-57066102D01*
X39359000Y-57134587D01*
X39534521Y-57169500D01*
X39534522Y-57169500D01*
X39713478Y-57169500D01*
X39713479Y-57169500D01*
X39889000Y-57134587D01*
X40054336Y-57066102D01*
X40203135Y-56966678D01*
X40329678Y-56840135D01*
X40429102Y-56691336D01*
X40497587Y-56526000D01*
X40532500Y-56350479D01*
X40532500Y-56171521D01*
X40497587Y-55996000D01*
X40429102Y-55830664D01*
X40329678Y-55681865D01*
X40203135Y-55555322D01*
X40054336Y-55455898D01*
X39889000Y-55387413D01*
X39888998Y-55387412D01*
X39888994Y-55387411D01*
X39843609Y-55378383D01*
X39780700Y-55345475D01*
X39745570Y-55283779D01*
X39744614Y-55279385D01*
X39735587Y-55234000D01*
X39667102Y-55068664D01*
X39567678Y-54919865D01*
X39441135Y-54793322D01*
X39292336Y-54693898D01*
X39140165Y-54630866D01*
X39127003Y-54625414D01*
X39127001Y-54625413D01*
X39127000Y-54625413D01*
X39038645Y-54607838D01*
X38951481Y-54590500D01*
X38951479Y-54590500D01*
X38772521Y-54590500D01*
X38772518Y-54590500D01*
X38641771Y-54616507D01*
X38597000Y-54625413D01*
X38596999Y-54625413D01*
X38596996Y-54625414D01*
X38431662Y-54693899D01*
X38423314Y-54699477D01*
X38282870Y-54793319D01*
X38282864Y-54793323D01*
X38282862Y-54793324D01*
X38235099Y-54841087D01*
X38172786Y-54875112D01*
X38101970Y-54870046D01*
X38076003Y-54856757D01*
X38052627Y-54841138D01*
X38022336Y-54820898D01*
X37938897Y-54786336D01*
X37857003Y-54752414D01*
X37857001Y-54752413D01*
X37857000Y-54752413D01*
X37768645Y-54734838D01*
X37681481Y-54717500D01*
X37681479Y-54717500D01*
X37502521Y-54717500D01*
X37502518Y-54717500D01*
X37371771Y-54743507D01*
X37327000Y-54752413D01*
X37326999Y-54752413D01*
X37326996Y-54752414D01*
X37161662Y-54820899D01*
X37012869Y-54920319D01*
X37012862Y-54920324D01*
X36886324Y-55046862D01*
X36886319Y-55046869D01*
X36786899Y-55195662D01*
X36718414Y-55360996D01*
X36683500Y-55536518D01*
X36683500Y-55536521D01*
X36683500Y-55715479D01*
X36718413Y-55891000D01*
X36786898Y-56056336D01*
X36886322Y-56205135D01*
X37012865Y-56331678D01*
X37041000Y-56350477D01*
X37102747Y-56391735D01*
X37148275Y-56446211D01*
X37157123Y-56516655D01*
X37126482Y-56580699D01*
X37066080Y-56618010D01*
X37032745Y-56622500D01*
X36867518Y-56622500D01*
X36736771Y-56648507D01*
X36692000Y-56657413D01*
X36691999Y-56657413D01*
X36691996Y-56657414D01*
X36563140Y-56710789D01*
X36541717Y-56719663D01*
X36526662Y-56725899D01*
X36377869Y-56825319D01*
X36377862Y-56825324D01*
X36251324Y-56951862D01*
X36251319Y-56951869D01*
X36151899Y-57100662D01*
X36083414Y-57265996D01*
X36048500Y-57441518D01*
X26639703Y-57441518D01*
X26592419Y-57394234D01*
X26592409Y-57394225D01*
X26512448Y-57332869D01*
X26414728Y-57257886D01*
X26382850Y-57239481D01*
X26220783Y-57145911D01*
X26220773Y-57145905D01*
X26203903Y-57138917D01*
X26188188Y-57132408D01*
X26132908Y-57087860D01*
X26110487Y-57020497D01*
X26128045Y-56951706D01*
X26180008Y-56903327D01*
X26236407Y-56890000D01*
X26712132Y-56890000D01*
X26712138Y-56890000D01*
X26712145Y-56889999D01*
X26712149Y-56889999D01*
X26772696Y-56883490D01*
X26772699Y-56883489D01*
X26772701Y-56883489D01*
X26909704Y-56832389D01*
X26919145Y-56825322D01*
X27026761Y-56744761D01*
X27114387Y-56627707D01*
X27114387Y-56627706D01*
X27114389Y-56627704D01*
X27165489Y-56490701D01*
X27166911Y-56477481D01*
X27171999Y-56430149D01*
X27172000Y-56430132D01*
X27172000Y-53932867D01*
X27171999Y-53932850D01*
X27165490Y-53872303D01*
X27165488Y-53872295D01*
X27129895Y-53776869D01*
X27114389Y-53735296D01*
X27114388Y-53735294D01*
X27114387Y-53735292D01*
X27026761Y-53618238D01*
X26909707Y-53530612D01*
X26909702Y-53530610D01*
X26772704Y-53479511D01*
X26772696Y-53479509D01*
X26712149Y-53473000D01*
X26712138Y-53473000D01*
X24214862Y-53473000D01*
X24214850Y-53473000D01*
X24154303Y-53479509D01*
X24154295Y-53479511D01*
X24017297Y-53530610D01*
X24017292Y-53530612D01*
X23900238Y-53618238D01*
X23812612Y-53735292D01*
X23812610Y-53735297D01*
X23761511Y-53872295D01*
X23761509Y-53872303D01*
X23755000Y-53932850D01*
X20500500Y-53932850D01*
X20500500Y-51980518D01*
X25761500Y-51980518D01*
X25761500Y-52159481D01*
X25772715Y-52215863D01*
X25796413Y-52335000D01*
X25864898Y-52500336D01*
X25964322Y-52649135D01*
X26090865Y-52775678D01*
X26239664Y-52875102D01*
X26405000Y-52943587D01*
X26580521Y-52978500D01*
X26580522Y-52978500D01*
X26759478Y-52978500D01*
X26759479Y-52978500D01*
X26935000Y-52943587D01*
X27100336Y-52875102D01*
X27234998Y-52785123D01*
X27302751Y-52763909D01*
X27371218Y-52782692D01*
X27375001Y-52785123D01*
X27509664Y-52875102D01*
X27675000Y-52943587D01*
X27850521Y-52978500D01*
X27850522Y-52978500D01*
X28029478Y-52978500D01*
X28029479Y-52978500D01*
X28205000Y-52943587D01*
X28370336Y-52875102D01*
X28504998Y-52785123D01*
X28572751Y-52763909D01*
X28641218Y-52782692D01*
X28645001Y-52785123D01*
X28779664Y-52875102D01*
X28945000Y-52943587D01*
X29120521Y-52978500D01*
X29120522Y-52978500D01*
X29299478Y-52978500D01*
X29299479Y-52978500D01*
X29475000Y-52943587D01*
X29524295Y-52923168D01*
X30360500Y-52923168D01*
X30360500Y-53121831D01*
X30399256Y-53316669D01*
X30399259Y-53316678D01*
X30439747Y-53414426D01*
X30447336Y-53485015D01*
X30424211Y-53538145D01*
X30418113Y-53546291D01*
X30418110Y-53546296D01*
X30367011Y-53683295D01*
X30367009Y-53683303D01*
X30360500Y-53743850D01*
X30360500Y-54841149D01*
X30367009Y-54901696D01*
X30367011Y-54901704D01*
X30418110Y-55038702D01*
X30418112Y-55038707D01*
X30505738Y-55155761D01*
X30622792Y-55243387D01*
X30622794Y-55243388D01*
X30622796Y-55243389D01*
X30666830Y-55259813D01*
X30759795Y-55294488D01*
X30759803Y-55294490D01*
X30820350Y-55300999D01*
X30820355Y-55300999D01*
X30820362Y-55301000D01*
X30820368Y-55301000D01*
X31917632Y-55301000D01*
X31917638Y-55301000D01*
X31917645Y-55300999D01*
X31917649Y-55300999D01*
X31978196Y-55294490D01*
X31978199Y-55294489D01*
X31978201Y-55294489D01*
X32115204Y-55243389D01*
X32133642Y-55229587D01*
X32232261Y-55155761D01*
X32319887Y-55038707D01*
X32319887Y-55038706D01*
X32319889Y-55038704D01*
X32370989Y-54901701D01*
X32371089Y-54900776D01*
X32377499Y-54841149D01*
X32377500Y-54841132D01*
X32377500Y-54266518D01*
X41763500Y-54266518D01*
X41763500Y-54445481D01*
X41798414Y-54621003D01*
X41818473Y-54669429D01*
X41866898Y-54786336D01*
X41966322Y-54935135D01*
X42092865Y-55061678D01*
X42241664Y-55161102D01*
X42407000Y-55229587D01*
X42582521Y-55264500D01*
X42582522Y-55264500D01*
X42761478Y-55264500D01*
X42761479Y-55264500D01*
X42937000Y-55229587D01*
X43102336Y-55161102D01*
X43251135Y-55061678D01*
X43377678Y-54935135D01*
X43384770Y-54924519D01*
X43439241Y-54878992D01*
X43509684Y-54870139D01*
X43573730Y-54900776D01*
X43605945Y-54946299D01*
X43644895Y-55040330D01*
X43644897Y-55040335D01*
X43663825Y-55068662D01*
X43744322Y-55189135D01*
X43870865Y-55315678D01*
X44019664Y-55415102D01*
X44185000Y-55483587D01*
X44360521Y-55518500D01*
X44360522Y-55518500D01*
X44539478Y-55518500D01*
X44539479Y-55518500D01*
X44715000Y-55483587D01*
X44880336Y-55415102D01*
X45014998Y-55325123D01*
X45082751Y-55303909D01*
X45151218Y-55322692D01*
X45155001Y-55325123D01*
X45289664Y-55415102D01*
X45455000Y-55483587D01*
X45630521Y-55518500D01*
X45630522Y-55518500D01*
X45809478Y-55518500D01*
X45809479Y-55518500D01*
X45985000Y-55483587D01*
X46150336Y-55415102D01*
X46284998Y-55325123D01*
X46352751Y-55303909D01*
X46421218Y-55322692D01*
X46425001Y-55325123D01*
X46559664Y-55415102D01*
X46725000Y-55483587D01*
X46900521Y-55518500D01*
X46900522Y-55518500D01*
X47079479Y-55518500D01*
X47079487Y-55518499D01*
X47135548Y-55507347D01*
X47147547Y-55504960D01*
X47174234Y-55507347D01*
X47200990Y-55505888D01*
X47209038Y-55510460D01*
X47218261Y-55511286D01*
X47239421Y-55527723D01*
X47262719Y-55540960D01*
X47269220Y-55550871D01*
X47274330Y-55554840D01*
X47283723Y-55570029D01*
X47286366Y-55575070D01*
X47327898Y-55675336D01*
X47379164Y-55752062D01*
X47382273Y-55757991D01*
X47387972Y-55786502D01*
X47396661Y-55814252D01*
X47394843Y-55820876D01*
X47396190Y-55827611D01*
X47385569Y-55854678D01*
X47377877Y-55882719D01*
X47375447Y-55886501D01*
X47327898Y-55957663D01*
X47259414Y-56122996D01*
X47224500Y-56298518D01*
X47224500Y-56477481D01*
X47234150Y-56525994D01*
X47259413Y-56653000D01*
X47327898Y-56818336D01*
X47427322Y-56967135D01*
X47553865Y-57093678D01*
X47702664Y-57193102D01*
X47868000Y-57261587D01*
X48043521Y-57296500D01*
X48043522Y-57296500D01*
X48222478Y-57296500D01*
X48222479Y-57296500D01*
X48398000Y-57261587D01*
X48563336Y-57193102D01*
X48712135Y-57093678D01*
X48838678Y-56967135D01*
X48938102Y-56818336D01*
X49006587Y-56653000D01*
X49041500Y-56477479D01*
X49041500Y-56298521D01*
X49006587Y-56123000D01*
X48938102Y-55957664D01*
X48890550Y-55886498D01*
X48869337Y-55818750D01*
X48888119Y-55750283D01*
X48890511Y-55746560D01*
X48938102Y-55675336D01*
X49006587Y-55510000D01*
X49041500Y-55334479D01*
X49041500Y-55155521D01*
X49006587Y-54980000D01*
X48938102Y-54814664D01*
X48838678Y-54665865D01*
X48712135Y-54539322D01*
X48683993Y-54520518D01*
X49891500Y-54520518D01*
X49891500Y-54699481D01*
X49900949Y-54746985D01*
X49922784Y-54856757D01*
X49926414Y-54875003D01*
X49994898Y-55040336D01*
X50084876Y-55174999D01*
X50106090Y-55242752D01*
X50087306Y-55311219D01*
X50084876Y-55315001D01*
X49994898Y-55449663D01*
X49926414Y-55614996D01*
X49891500Y-55790518D01*
X49891500Y-55969481D01*
X49896775Y-55996000D01*
X49926413Y-56145000D01*
X49994898Y-56310336D01*
X50094322Y-56459135D01*
X50220865Y-56585678D01*
X50369664Y-56685102D01*
X50535000Y-56753587D01*
X50710521Y-56788500D01*
X50710522Y-56788500D01*
X50889478Y-56788500D01*
X50889479Y-56788500D01*
X51065000Y-56753587D01*
X51230336Y-56685102D01*
X51379135Y-56585678D01*
X51505678Y-56459135D01*
X51605102Y-56310336D01*
X51673587Y-56145000D01*
X51708500Y-55969479D01*
X51708500Y-55790521D01*
X51673587Y-55615000D01*
X51605102Y-55449664D01*
X51515123Y-55315001D01*
X51493909Y-55247249D01*
X51512692Y-55178782D01*
X51515124Y-55174998D01*
X51528140Y-55155518D01*
X51605102Y-55040336D01*
X51673587Y-54875000D01*
X51681639Y-54834518D01*
X63611500Y-54834518D01*
X63611500Y-55013481D01*
X63621087Y-55061675D01*
X63640863Y-55161100D01*
X63646414Y-55189003D01*
X63649173Y-55195664D01*
X63714898Y-55354336D01*
X63714899Y-55354337D01*
X63798194Y-55478998D01*
X63819409Y-55546751D01*
X63800626Y-55615218D01*
X63798194Y-55619002D01*
X63714899Y-55743662D01*
X63646414Y-55908996D01*
X63611500Y-56084518D01*
X63611500Y-56263481D01*
X63625066Y-56331680D01*
X63646413Y-56439000D01*
X63714898Y-56604336D01*
X63764714Y-56678891D01*
X63798194Y-56728998D01*
X63819409Y-56796751D01*
X63800626Y-56865218D01*
X63798194Y-56869002D01*
X63714899Y-56993662D01*
X63646414Y-57158996D01*
X63646413Y-57158999D01*
X63646413Y-57159000D01*
X63639630Y-57193100D01*
X63611500Y-57334518D01*
X63611500Y-57513481D01*
X63628838Y-57600645D01*
X63646413Y-57689000D01*
X63709318Y-57840865D01*
X63717267Y-57860054D01*
X63714782Y-57861082D01*
X63726842Y-57919227D01*
X63702125Y-57984526D01*
X63669555Y-58028034D01*
X63618505Y-58164906D01*
X63612000Y-58225402D01*
X63612000Y-58420000D01*
X65928000Y-58420000D01*
X65928000Y-58225414D01*
X65927999Y-58225402D01*
X65921494Y-58164906D01*
X65870445Y-58028036D01*
X65837875Y-57984529D01*
X65813064Y-57918009D01*
X65825191Y-57861072D01*
X65822733Y-57860054D01*
X65825100Y-57854338D01*
X65825102Y-57854336D01*
X65893587Y-57689000D01*
X65928500Y-57513479D01*
X65928500Y-57334521D01*
X65893587Y-57159000D01*
X65825102Y-56993664D01*
X65741804Y-56868999D01*
X65720590Y-56801249D01*
X65739373Y-56732782D01*
X65741785Y-56729028D01*
X65825102Y-56604336D01*
X65893587Y-56439000D01*
X65928500Y-56263479D01*
X65928500Y-56084521D01*
X65893587Y-55909000D01*
X65825102Y-55743664D01*
X65741804Y-55618999D01*
X65720590Y-55551249D01*
X65739373Y-55482782D01*
X65741785Y-55479028D01*
X65825102Y-55354336D01*
X65893587Y-55189000D01*
X65928500Y-55013479D01*
X65928500Y-54834521D01*
X65893587Y-54659000D01*
X65825102Y-54493664D01*
X65725678Y-54344865D01*
X65599135Y-54218322D01*
X65450336Y-54118898D01*
X65296342Y-54055111D01*
X65285003Y-54050414D01*
X65285001Y-54050413D01*
X65285000Y-54050413D01*
X65180325Y-54029592D01*
X65109481Y-54015500D01*
X65109479Y-54015500D01*
X64430521Y-54015500D01*
X64430518Y-54015500D01*
X64328862Y-54035721D01*
X64255000Y-54050413D01*
X64254999Y-54050413D01*
X64254996Y-54050414D01*
X64089662Y-54118899D01*
X63940869Y-54218319D01*
X63940862Y-54218324D01*
X63814324Y-54344862D01*
X63814319Y-54344869D01*
X63714899Y-54493662D01*
X63646414Y-54658996D01*
X63646413Y-54658999D01*
X63646413Y-54659000D01*
X63645047Y-54665869D01*
X63611500Y-54834518D01*
X51681639Y-54834518D01*
X51708500Y-54699479D01*
X51708500Y-54520521D01*
X51673587Y-54345000D01*
X51605102Y-54179664D01*
X51505678Y-54030865D01*
X51379135Y-53904322D01*
X51230336Y-53804898D01*
X51179686Y-53783918D01*
X61753300Y-53783918D01*
X61753300Y-53962881D01*
X61766823Y-54030865D01*
X61788213Y-54138400D01*
X61856698Y-54303736D01*
X61956122Y-54452535D01*
X62082665Y-54579078D01*
X62231464Y-54678502D01*
X62396800Y-54746987D01*
X62572321Y-54781900D01*
X62572322Y-54781900D01*
X62751278Y-54781900D01*
X62751279Y-54781900D01*
X62926800Y-54746987D01*
X63092136Y-54678502D01*
X63240935Y-54579078D01*
X63367478Y-54452535D01*
X63466902Y-54303736D01*
X63535387Y-54138400D01*
X63570300Y-53962879D01*
X63570300Y-53783921D01*
X63535387Y-53608400D01*
X63466902Y-53443064D01*
X63367478Y-53294265D01*
X63240935Y-53167722D01*
X63092136Y-53068298D01*
X62975229Y-53019873D01*
X62926803Y-52999814D01*
X62926801Y-52999813D01*
X62926800Y-52999813D01*
X62838445Y-52982238D01*
X62751281Y-52964900D01*
X62751279Y-52964900D01*
X62572321Y-52964900D01*
X62572318Y-52964900D01*
X62441571Y-52990907D01*
X62396800Y-52999813D01*
X62396799Y-52999813D01*
X62396796Y-52999814D01*
X62265702Y-53054116D01*
X62232592Y-53067831D01*
X62231462Y-53068299D01*
X62082669Y-53167719D01*
X62082662Y-53167724D01*
X61956124Y-53294262D01*
X61956119Y-53294269D01*
X61856699Y-53443062D01*
X61788214Y-53608396D01*
X61753300Y-53783918D01*
X51179686Y-53783918D01*
X51113429Y-53756473D01*
X51065003Y-53736414D01*
X51065001Y-53736413D01*
X51065000Y-53736413D01*
X50976645Y-53718838D01*
X50889481Y-53701500D01*
X50889479Y-53701500D01*
X50710521Y-53701500D01*
X50710518Y-53701500D01*
X50579771Y-53727507D01*
X50535000Y-53736413D01*
X50534999Y-53736413D01*
X50534996Y-53736414D01*
X50369662Y-53804899D01*
X50220869Y-53904319D01*
X50220862Y-53904324D01*
X50094324Y-54030862D01*
X50094319Y-54030869D01*
X49994899Y-54179662D01*
X49926414Y-54344996D01*
X49891500Y-54520518D01*
X48683993Y-54520518D01*
X48563336Y-54439898D01*
X48552020Y-54435211D01*
X48496742Y-54390663D01*
X48474321Y-54323300D01*
X48491880Y-54254508D01*
X48543842Y-54206130D01*
X48552022Y-54202394D01*
X48690336Y-54145102D01*
X48839135Y-54045678D01*
X48965678Y-53919135D01*
X49065102Y-53770336D01*
X49133587Y-53605000D01*
X49168500Y-53429479D01*
X49168500Y-53250521D01*
X49133587Y-53075000D01*
X49065102Y-52909664D01*
X48975123Y-52775001D01*
X48969054Y-52755616D01*
X48958379Y-52738336D01*
X48958662Y-52722430D01*
X48953909Y-52707249D01*
X48959282Y-52687660D01*
X48959645Y-52667351D01*
X48971857Y-52641825D01*
X48972692Y-52638782D01*
X48975123Y-52634999D01*
X49050171Y-52522680D01*
X49104645Y-52477156D01*
X49175088Y-52468307D01*
X49179523Y-52469108D01*
X49186515Y-52470499D01*
X49186518Y-52470499D01*
X49186521Y-52470500D01*
X49186522Y-52470500D01*
X49266175Y-52470500D01*
X49334296Y-52490502D01*
X49380789Y-52544158D01*
X49389754Y-52571919D01*
X49418413Y-52716002D01*
X49443133Y-52775680D01*
X49486898Y-52881336D01*
X49586322Y-53030135D01*
X49712865Y-53156678D01*
X49861664Y-53256102D01*
X50027000Y-53324587D01*
X50202521Y-53359500D01*
X50202522Y-53359500D01*
X50381478Y-53359500D01*
X50381479Y-53359500D01*
X50557000Y-53324587D01*
X50722336Y-53256102D01*
X50871135Y-53156678D01*
X50997678Y-53030135D01*
X51097102Y-52881336D01*
X51165587Y-52716000D01*
X51200500Y-52540479D01*
X51200500Y-52361521D01*
X51165587Y-52186000D01*
X51097102Y-52020664D01*
X50997678Y-51871865D01*
X50871135Y-51745322D01*
X50722336Y-51645898D01*
X50581386Y-51587514D01*
X50557003Y-51577414D01*
X50557001Y-51577413D01*
X50557000Y-51577413D01*
X50468645Y-51559838D01*
X50381481Y-51542500D01*
X50381479Y-51542500D01*
X50301825Y-51542500D01*
X50233704Y-51522498D01*
X50187211Y-51468842D01*
X50178246Y-51441081D01*
X50162977Y-51364319D01*
X50149587Y-51297000D01*
X50081102Y-51131664D01*
X49981678Y-50982865D01*
X49855135Y-50856322D01*
X49732117Y-50774124D01*
X49706335Y-50756897D01*
X49700875Y-50753979D01*
X49701527Y-50752758D01*
X49651730Y-50712624D01*
X49629313Y-50645259D01*
X49646875Y-50576469D01*
X49666138Y-50551675D01*
X49727678Y-50490135D01*
X49827102Y-50341336D01*
X49895587Y-50176000D01*
X49930500Y-50000479D01*
X49930500Y-49948518D01*
X50272500Y-49948518D01*
X50272500Y-50127481D01*
X50307414Y-50303003D01*
X50327473Y-50351429D01*
X50375898Y-50468336D01*
X50475322Y-50617135D01*
X50601865Y-50743678D01*
X50750664Y-50843102D01*
X50916000Y-50911587D01*
X51091521Y-50946500D01*
X51091522Y-50946500D01*
X51270478Y-50946500D01*
X51270479Y-50946500D01*
X51446000Y-50911587D01*
X51611336Y-50843102D01*
X51760135Y-50743678D01*
X51886678Y-50617135D01*
X51986102Y-50468336D01*
X52054587Y-50303000D01*
X52089500Y-50127479D01*
X52089500Y-49948521D01*
X52054587Y-49773000D01*
X51986102Y-49607664D01*
X51886678Y-49458865D01*
X51760135Y-49332322D01*
X51611336Y-49232898D01*
X51494429Y-49184473D01*
X51446003Y-49164414D01*
X51446001Y-49164413D01*
X51446000Y-49164413D01*
X51357645Y-49146838D01*
X51270481Y-49129500D01*
X51270479Y-49129500D01*
X51091521Y-49129500D01*
X51091518Y-49129500D01*
X50960771Y-49155507D01*
X50916000Y-49164413D01*
X50915999Y-49164413D01*
X50915996Y-49164414D01*
X50750662Y-49232899D01*
X50601869Y-49332319D01*
X50601862Y-49332324D01*
X50475324Y-49458862D01*
X50475319Y-49458869D01*
X50375899Y-49607662D01*
X50307414Y-49772996D01*
X50307413Y-49772999D01*
X50307413Y-49773000D01*
X50298507Y-49817771D01*
X50272500Y-49948518D01*
X49930500Y-49948518D01*
X49930500Y-49821521D01*
X49895587Y-49646000D01*
X49827102Y-49480664D01*
X49727678Y-49331865D01*
X49601135Y-49205322D01*
X49452336Y-49105898D01*
X49335429Y-49057473D01*
X49287003Y-49037414D01*
X49287001Y-49037413D01*
X49287000Y-49037413D01*
X49198645Y-49019838D01*
X49111481Y-49002500D01*
X49111479Y-49002500D01*
X48932521Y-49002500D01*
X48932518Y-49002500D01*
X48801771Y-49028507D01*
X48757000Y-49037413D01*
X48756999Y-49037413D01*
X48756996Y-49037414D01*
X48591662Y-49105899D01*
X48583998Y-49111020D01*
X48516244Y-49132232D01*
X48447778Y-49113446D01*
X48444002Y-49111020D01*
X48436337Y-49105899D01*
X48436338Y-49105899D01*
X48436336Y-49105898D01*
X48319429Y-49057473D01*
X48271003Y-49037414D01*
X48271001Y-49037413D01*
X48271000Y-49037413D01*
X48182645Y-49019838D01*
X48095481Y-49002500D01*
X48095479Y-49002500D01*
X47916521Y-49002500D01*
X47916518Y-49002500D01*
X47785771Y-49028507D01*
X47741000Y-49037413D01*
X47740999Y-49037413D01*
X47740996Y-49037414D01*
X47575662Y-49105899D01*
X47567998Y-49111020D01*
X47500244Y-49132232D01*
X47431778Y-49113446D01*
X47428002Y-49111020D01*
X47420337Y-49105899D01*
X47420338Y-49105899D01*
X47420336Y-49105898D01*
X47303429Y-49057473D01*
X47255003Y-49037414D01*
X47255001Y-49037413D01*
X47255000Y-49037413D01*
X47166645Y-49019838D01*
X47079481Y-49002500D01*
X47079479Y-49002500D01*
X46900521Y-49002500D01*
X46900518Y-49002500D01*
X46769771Y-49028507D01*
X46725000Y-49037413D01*
X46724999Y-49037413D01*
X46724996Y-49037414D01*
X46559662Y-49105899D01*
X46410869Y-49205319D01*
X46410862Y-49205324D01*
X46284324Y-49331862D01*
X46284319Y-49331869D01*
X46189261Y-49474135D01*
X46184898Y-49480664D01*
X46172747Y-49509998D01*
X46116414Y-49645996D01*
X46116413Y-49645999D01*
X46116413Y-49646000D01*
X46111341Y-49671499D01*
X46081500Y-49821518D01*
X46081500Y-50000481D01*
X46086079Y-50023499D01*
X46116413Y-50176000D01*
X46184898Y-50341336D01*
X46284322Y-50490135D01*
X46410865Y-50616678D01*
X46559664Y-50716102D01*
X46725000Y-50784587D01*
X46900521Y-50819500D01*
X46900522Y-50819500D01*
X47079478Y-50819500D01*
X47079479Y-50819500D01*
X47255000Y-50784587D01*
X47420336Y-50716102D01*
X47427994Y-50710984D01*
X47495744Y-50689767D01*
X47564212Y-50708547D01*
X47567979Y-50710967D01*
X47570459Y-50712624D01*
X47575662Y-50716101D01*
X47575663Y-50716101D01*
X47575664Y-50716102D01*
X47741000Y-50784587D01*
X47916521Y-50819500D01*
X47916522Y-50819500D01*
X48095478Y-50819500D01*
X48095479Y-50819500D01*
X48271000Y-50784587D01*
X48436336Y-50716102D01*
X48443994Y-50710984D01*
X48459334Y-50706180D01*
X48472398Y-50696813D01*
X48492517Y-50695788D01*
X48511744Y-50689767D01*
X48528138Y-50693974D01*
X48543302Y-50693202D01*
X48569175Y-50704505D01*
X48576640Y-50706421D01*
X48580397Y-50708574D01*
X48591664Y-50716102D01*
X48598421Y-50718900D01*
X48605406Y-50722903D01*
X48624635Y-50742937D01*
X48646262Y-50760364D01*
X48648863Y-50768179D01*
X48654569Y-50774124D01*
X48659914Y-50801376D01*
X48668686Y-50827727D01*
X48666648Y-50835710D01*
X48668234Y-50843793D01*
X48657997Y-50869608D01*
X48651130Y-50896519D01*
X48643361Y-50906519D01*
X48642065Y-50909790D01*
X48639257Y-50911802D01*
X48631863Y-50921323D01*
X48570320Y-50982866D01*
X48570318Y-50982869D01*
X48485829Y-51109316D01*
X48431352Y-51154844D01*
X48360908Y-51163691D01*
X48356482Y-51162893D01*
X48349481Y-51161500D01*
X48349479Y-51161500D01*
X48170521Y-51161500D01*
X48170518Y-51161500D01*
X48069767Y-51181541D01*
X47995000Y-51196413D01*
X47994999Y-51196413D01*
X47994996Y-51196414D01*
X47829663Y-51264898D01*
X47695001Y-51354876D01*
X47627248Y-51376090D01*
X47558781Y-51357306D01*
X47554999Y-51354876D01*
X47420336Y-51264898D01*
X47255003Y-51196414D01*
X47255001Y-51196413D01*
X47255000Y-51196413D01*
X47166645Y-51178838D01*
X47079481Y-51161500D01*
X47079479Y-51161500D01*
X46900521Y-51161500D01*
X46900518Y-51161500D01*
X46799767Y-51181541D01*
X46725000Y-51196413D01*
X46724999Y-51196413D01*
X46724996Y-51196414D01*
X46559662Y-51264899D01*
X46410869Y-51364319D01*
X46410862Y-51364324D01*
X46284324Y-51490862D01*
X46284319Y-51490869D01*
X46189565Y-51632680D01*
X46184898Y-51639664D01*
X46164462Y-51689000D01*
X46114872Y-51808720D01*
X46070323Y-51864000D01*
X46002959Y-51886421D01*
X45998463Y-51886501D01*
X45974519Y-51886501D01*
X45843772Y-51912508D01*
X45799001Y-51921414D01*
X45799000Y-51921414D01*
X45798997Y-51921415D01*
X45633663Y-51989900D01*
X45484870Y-52089320D01*
X45484863Y-52089325D01*
X45358325Y-52215863D01*
X45358320Y-52215870D01*
X45258900Y-52364663D01*
X45190415Y-52529997D01*
X45190414Y-52530000D01*
X45190414Y-52530001D01*
X45187598Y-52544158D01*
X45155501Y-52705519D01*
X45155501Y-52884482D01*
X45167258Y-52943587D01*
X45190414Y-53060001D01*
X45258899Y-53225337D01*
X45358323Y-53374136D01*
X45484866Y-53500679D01*
X45495707Y-53507923D01*
X45496957Y-53508758D01*
X45542485Y-53563234D01*
X45551333Y-53633678D01*
X45520692Y-53697722D01*
X45460290Y-53735033D01*
X45456926Y-53735828D01*
X45455004Y-53736411D01*
X45289663Y-53804898D01*
X45155001Y-53894876D01*
X45087248Y-53916090D01*
X45018781Y-53897306D01*
X45014999Y-53894876D01*
X44880336Y-53804898D01*
X44715003Y-53736414D01*
X44715001Y-53736413D01*
X44715000Y-53736413D01*
X44626645Y-53718838D01*
X44539481Y-53701500D01*
X44539479Y-53701500D01*
X44360521Y-53701500D01*
X44360518Y-53701500D01*
X44229771Y-53727507D01*
X44185000Y-53736413D01*
X44184999Y-53736413D01*
X44184996Y-53736414D01*
X44019662Y-53804899D01*
X43870869Y-53904319D01*
X43870862Y-53904324D01*
X43744324Y-54030862D01*
X43744322Y-54030865D01*
X43741078Y-54035721D01*
X43737227Y-54041484D01*
X43682749Y-54087011D01*
X43612306Y-54095858D01*
X43548262Y-54065217D01*
X43516053Y-54019700D01*
X43477102Y-53925664D01*
X43377678Y-53776865D01*
X43251135Y-53650322D01*
X43102336Y-53550898D01*
X42985429Y-53502473D01*
X42937003Y-53482414D01*
X42937001Y-53482413D01*
X42937000Y-53482413D01*
X42848645Y-53464838D01*
X42761481Y-53447500D01*
X42761479Y-53447500D01*
X42582521Y-53447500D01*
X42582518Y-53447500D01*
X42475528Y-53468782D01*
X42407000Y-53482413D01*
X42406999Y-53482413D01*
X42406996Y-53482414D01*
X42241662Y-53550899D01*
X42092869Y-53650319D01*
X42092862Y-53650324D01*
X41966324Y-53776862D01*
X41966319Y-53776869D01*
X41871261Y-53919135D01*
X41866898Y-53925664D01*
X41860754Y-53940497D01*
X41798414Y-54090996D01*
X41763500Y-54266518D01*
X32377500Y-54266518D01*
X32377500Y-53743867D01*
X32377499Y-53743850D01*
X32370990Y-53683303D01*
X32370988Y-53683295D01*
X32337682Y-53594000D01*
X32319889Y-53546296D01*
X32313792Y-53538152D01*
X32288982Y-53471632D01*
X32298252Y-53414424D01*
X32338744Y-53316669D01*
X32377500Y-53121829D01*
X32377500Y-52923171D01*
X32338744Y-52728331D01*
X32262721Y-52544796D01*
X32152353Y-52379619D01*
X32011881Y-52239147D01*
X31846704Y-52128779D01*
X31663169Y-52052756D01*
X31468331Y-52014000D01*
X31468329Y-52014000D01*
X31269671Y-52014000D01*
X31269668Y-52014000D01*
X31074830Y-52052756D01*
X31074825Y-52052758D01*
X30891296Y-52128779D01*
X30726123Y-52239144D01*
X30726116Y-52239149D01*
X30585649Y-52379616D01*
X30585644Y-52379623D01*
X30475279Y-52544796D01*
X30399258Y-52728325D01*
X30399256Y-52728330D01*
X30360500Y-52923168D01*
X29524295Y-52923168D01*
X29640336Y-52875102D01*
X29789135Y-52775678D01*
X29915678Y-52649135D01*
X30015102Y-52500336D01*
X30083587Y-52335000D01*
X30118500Y-52159479D01*
X30118500Y-51980521D01*
X30083587Y-51805000D01*
X30015102Y-51639664D01*
X29915678Y-51490865D01*
X29789135Y-51364322D01*
X29640336Y-51264898D01*
X29523429Y-51216473D01*
X29475003Y-51196414D01*
X29475001Y-51196413D01*
X29475000Y-51196413D01*
X29386645Y-51178838D01*
X29299481Y-51161500D01*
X29299479Y-51161500D01*
X29120521Y-51161500D01*
X29120518Y-51161500D01*
X29019767Y-51181541D01*
X28945000Y-51196413D01*
X28944999Y-51196413D01*
X28944996Y-51196414D01*
X28779663Y-51264898D01*
X28645001Y-51354876D01*
X28577248Y-51376090D01*
X28508781Y-51357306D01*
X28504999Y-51354876D01*
X28370336Y-51264898D01*
X28205003Y-51196414D01*
X28205001Y-51196413D01*
X28205000Y-51196413D01*
X28116645Y-51178838D01*
X28029481Y-51161500D01*
X28029479Y-51161500D01*
X27850521Y-51161500D01*
X27850518Y-51161500D01*
X27749767Y-51181541D01*
X27675000Y-51196413D01*
X27674999Y-51196413D01*
X27674996Y-51196414D01*
X27509663Y-51264898D01*
X27375001Y-51354876D01*
X27307248Y-51376090D01*
X27238781Y-51357306D01*
X27234999Y-51354876D01*
X27100336Y-51264898D01*
X26935003Y-51196414D01*
X26935001Y-51196413D01*
X26935000Y-51196413D01*
X26846645Y-51178838D01*
X26759481Y-51161500D01*
X26759479Y-51161500D01*
X26580521Y-51161500D01*
X26580518Y-51161500D01*
X26479767Y-51181541D01*
X26405000Y-51196413D01*
X26404999Y-51196413D01*
X26404996Y-51196414D01*
X26239662Y-51264899D01*
X26090869Y-51364319D01*
X26090862Y-51364324D01*
X25964324Y-51490862D01*
X25964319Y-51490869D01*
X25864899Y-51639662D01*
X25796414Y-51804996D01*
X25761500Y-51980518D01*
X20500500Y-51980518D01*
X20500500Y-30113084D01*
X21101500Y-30113084D01*
X21101500Y-30326916D01*
X21128188Y-30495414D01*
X21134952Y-30538121D01*
X21201026Y-30741478D01*
X21201028Y-30741483D01*
X21298106Y-30932009D01*
X21423794Y-31105004D01*
X21423796Y-31105006D01*
X21423798Y-31105009D01*
X21574990Y-31256201D01*
X21574993Y-31256203D01*
X21574996Y-31256206D01*
X21747991Y-31381894D01*
X21747996Y-31381896D01*
X21749088Y-31382566D01*
X21749418Y-31382931D01*
X21751996Y-31384804D01*
X21751602Y-31385345D01*
X21796721Y-31435213D01*
X21808328Y-31505255D01*
X21780226Y-31570453D01*
X21751870Y-31595023D01*
X21751996Y-31595196D01*
X21749982Y-31596658D01*
X21749088Y-31597434D01*
X21747987Y-31598108D01*
X21574993Y-31723796D01*
X21574990Y-31723798D01*
X21423798Y-31874990D01*
X21423796Y-31874993D01*
X21298108Y-32047987D01*
X21201029Y-32238515D01*
X21201026Y-32238521D01*
X21134952Y-32441878D01*
X21134951Y-32441883D01*
X21134951Y-32441884D01*
X21101500Y-32653084D01*
X21101500Y-32866916D01*
X21132939Y-33065413D01*
X21134952Y-33078121D01*
X21194491Y-33261364D01*
X21201028Y-33281483D01*
X21298106Y-33472009D01*
X21298108Y-33472012D01*
X21300562Y-33475390D01*
X21423794Y-33645004D01*
X21423796Y-33645006D01*
X21423798Y-33645009D01*
X21574990Y-33796201D01*
X21574993Y-33796203D01*
X21574996Y-33796206D01*
X21747991Y-33921894D01*
X21747996Y-33921896D01*
X21749088Y-33922566D01*
X21749418Y-33922931D01*
X21751996Y-33924804D01*
X21751602Y-33925345D01*
X21796721Y-33975213D01*
X21808328Y-34045255D01*
X21780226Y-34110453D01*
X21751870Y-34135023D01*
X21751996Y-34135196D01*
X21749982Y-34136658D01*
X21749088Y-34137434D01*
X21747987Y-34138108D01*
X21574993Y-34263796D01*
X21574990Y-34263798D01*
X21423798Y-34414990D01*
X21423796Y-34414993D01*
X21298108Y-34587987D01*
X21201029Y-34778515D01*
X21201026Y-34778521D01*
X21134952Y-34981878D01*
X21134951Y-34981883D01*
X21134951Y-34981884D01*
X21101500Y-35193084D01*
X21101500Y-35406916D01*
X21128188Y-35575414D01*
X21134952Y-35618121D01*
X21194491Y-35801364D01*
X21201028Y-35821483D01*
X21298106Y-36012009D01*
X21298108Y-36012012D01*
X21316626Y-36037500D01*
X21423794Y-36185004D01*
X21423796Y-36185006D01*
X21423798Y-36185009D01*
X21574990Y-36336201D01*
X21574993Y-36336203D01*
X21574996Y-36336206D01*
X21747991Y-36461894D01*
X21747996Y-36461896D01*
X21749088Y-36462566D01*
X21749418Y-36462931D01*
X21751996Y-36464804D01*
X21751602Y-36465345D01*
X21796721Y-36515213D01*
X21808328Y-36585255D01*
X21780226Y-36650453D01*
X21751870Y-36675023D01*
X21751996Y-36675196D01*
X21749982Y-36676658D01*
X21749088Y-36677434D01*
X21747987Y-36678108D01*
X21574993Y-36803796D01*
X21574990Y-36803798D01*
X21423798Y-36954990D01*
X21423796Y-36954993D01*
X21298108Y-37127987D01*
X21201029Y-37318515D01*
X21201026Y-37318521D01*
X21134952Y-37521878D01*
X21134951Y-37521883D01*
X21134951Y-37521884D01*
X21101500Y-37733084D01*
X21101500Y-37946916D01*
X21133483Y-38148847D01*
X21134952Y-38158121D01*
X21194491Y-38341364D01*
X21201028Y-38361483D01*
X21298106Y-38552009D01*
X21298108Y-38552012D01*
X21300562Y-38555390D01*
X21423794Y-38725004D01*
X21423796Y-38725006D01*
X21423798Y-38725009D01*
X21574990Y-38876201D01*
X21574993Y-38876203D01*
X21574996Y-38876206D01*
X21747991Y-39001894D01*
X21747996Y-39001896D01*
X21749088Y-39002566D01*
X21749418Y-39002931D01*
X21751996Y-39004804D01*
X21751602Y-39005345D01*
X21796721Y-39055213D01*
X21808328Y-39125255D01*
X21780226Y-39190453D01*
X21751870Y-39215023D01*
X21751996Y-39215196D01*
X21749982Y-39216658D01*
X21749088Y-39217434D01*
X21747987Y-39218108D01*
X21574993Y-39343796D01*
X21574990Y-39343798D01*
X21423798Y-39494990D01*
X21423796Y-39494993D01*
X21298108Y-39667987D01*
X21201029Y-39858515D01*
X21201026Y-39858521D01*
X21134952Y-40061878D01*
X21134951Y-40061883D01*
X21134951Y-40061884D01*
X21101500Y-40273084D01*
X21101500Y-40486916D01*
X21133561Y-40689337D01*
X21134952Y-40698121D01*
X21194491Y-40881364D01*
X21201028Y-40901483D01*
X21298106Y-41092009D01*
X21298108Y-41092012D01*
X21311524Y-41110477D01*
X21423794Y-41265004D01*
X21423796Y-41265006D01*
X21423798Y-41265009D01*
X21574990Y-41416201D01*
X21574993Y-41416203D01*
X21574996Y-41416206D01*
X21747991Y-41541894D01*
X21747996Y-41541896D01*
X21749088Y-41542566D01*
X21749418Y-41542931D01*
X21751996Y-41544804D01*
X21751602Y-41545345D01*
X21796721Y-41595213D01*
X21808328Y-41665255D01*
X21780226Y-41730453D01*
X21751870Y-41755023D01*
X21751996Y-41755196D01*
X21749982Y-41756658D01*
X21749088Y-41757434D01*
X21747987Y-41758108D01*
X21574993Y-41883796D01*
X21574990Y-41883798D01*
X21423798Y-42034990D01*
X21423796Y-42034993D01*
X21298108Y-42207987D01*
X21201029Y-42398515D01*
X21201026Y-42398521D01*
X21134952Y-42601878D01*
X21134951Y-42601883D01*
X21134951Y-42601884D01*
X21101500Y-42813084D01*
X21101500Y-43026916D01*
X21119836Y-43142683D01*
X21134952Y-43238121D01*
X21194491Y-43421364D01*
X21201028Y-43441483D01*
X21298106Y-43632009D01*
X21298108Y-43632012D01*
X21300562Y-43635390D01*
X21423794Y-43805004D01*
X21423796Y-43805006D01*
X21423798Y-43805009D01*
X21574990Y-43956201D01*
X21574993Y-43956203D01*
X21574996Y-43956206D01*
X21747991Y-44081894D01*
X21747996Y-44081896D01*
X21749088Y-44082566D01*
X21749418Y-44082931D01*
X21751996Y-44084804D01*
X21751602Y-44085345D01*
X21796721Y-44135213D01*
X21808328Y-44205255D01*
X21780226Y-44270453D01*
X21751870Y-44295023D01*
X21751996Y-44295196D01*
X21749982Y-44296658D01*
X21749088Y-44297434D01*
X21747987Y-44298108D01*
X21574993Y-44423796D01*
X21574990Y-44423798D01*
X21423798Y-44574990D01*
X21423796Y-44574993D01*
X21298108Y-44747987D01*
X21201029Y-44938515D01*
X21201026Y-44938521D01*
X21134952Y-45141878D01*
X21134951Y-45141883D01*
X21134951Y-45141884D01*
X21101500Y-45353084D01*
X21101500Y-45566916D01*
X21128624Y-45738167D01*
X21134952Y-45778121D01*
X21194491Y-45961364D01*
X21201028Y-45981483D01*
X21298106Y-46172009D01*
X21423794Y-46345004D01*
X21423796Y-46345006D01*
X21423798Y-46345009D01*
X21574990Y-46496201D01*
X21574993Y-46496203D01*
X21574996Y-46496206D01*
X21747991Y-46621894D01*
X21747996Y-46621896D01*
X21749088Y-46622566D01*
X21749418Y-46622931D01*
X21751996Y-46624804D01*
X21751602Y-46625345D01*
X21796721Y-46675213D01*
X21808328Y-46745255D01*
X21780226Y-46810453D01*
X21751870Y-46835023D01*
X21751996Y-46835196D01*
X21749982Y-46836658D01*
X21749088Y-46837434D01*
X21747987Y-46838108D01*
X21574993Y-46963796D01*
X21574990Y-46963798D01*
X21423798Y-47114990D01*
X21423796Y-47114993D01*
X21298108Y-47287987D01*
X21201029Y-47478515D01*
X21201026Y-47478521D01*
X21134952Y-47681878D01*
X21134951Y-47681883D01*
X21134951Y-47681884D01*
X21101500Y-47893084D01*
X21101500Y-48106916D01*
X21134595Y-48315869D01*
X21134952Y-48318121D01*
X21190819Y-48490064D01*
X21201028Y-48521483D01*
X21298106Y-48712009D01*
X21423794Y-48885004D01*
X21423796Y-48885006D01*
X21423798Y-48885009D01*
X21574990Y-49036201D01*
X21574993Y-49036203D01*
X21574996Y-49036206D01*
X21747991Y-49161894D01*
X21938517Y-49258972D01*
X22141878Y-49325047D01*
X22141879Y-49325047D01*
X22141884Y-49325049D01*
X22353084Y-49358500D01*
X22353087Y-49358500D01*
X22566913Y-49358500D01*
X22566916Y-49358500D01*
X22778116Y-49325049D01*
X22981483Y-49258972D01*
X23172009Y-49161894D01*
X23345004Y-49036206D01*
X23447982Y-48933227D01*
X23510292Y-48899204D01*
X23581108Y-48904268D01*
X23637944Y-48946815D01*
X23655131Y-48978291D01*
X23699110Y-49096203D01*
X23699112Y-49096207D01*
X23786738Y-49213261D01*
X23903792Y-49300887D01*
X23903794Y-49300888D01*
X23903796Y-49300889D01*
X23961664Y-49322473D01*
X24040795Y-49351988D01*
X24040803Y-49351990D01*
X24101350Y-49358499D01*
X24101355Y-49358499D01*
X24101362Y-49358500D01*
X24101368Y-49358500D01*
X25898632Y-49358500D01*
X25898638Y-49358500D01*
X25898645Y-49358499D01*
X25898649Y-49358499D01*
X25959196Y-49351990D01*
X25959199Y-49351989D01*
X25959201Y-49351989D01*
X25962561Y-49350736D01*
X26011924Y-49332324D01*
X26096204Y-49300889D01*
X26152199Y-49258972D01*
X26213261Y-49213261D01*
X26300887Y-49096207D01*
X26300889Y-49096203D01*
X26311556Y-49067606D01*
X26336670Y-49000273D01*
X26379216Y-48943437D01*
X26445737Y-48918627D01*
X26515111Y-48933719D01*
X26543820Y-48955211D01*
X26656210Y-49067601D01*
X26656213Y-49067603D01*
X26656216Y-49067606D01*
X26829211Y-49193294D01*
X27019737Y-49290372D01*
X27223098Y-49356447D01*
X27223099Y-49356447D01*
X27223104Y-49356449D01*
X27434304Y-49389900D01*
X27434307Y-49389900D01*
X27648133Y-49389900D01*
X27648136Y-49389900D01*
X27859336Y-49356449D01*
X28062703Y-49290372D01*
X28253229Y-49193294D01*
X28426224Y-49067606D01*
X28577426Y-48916404D01*
X28703114Y-48743409D01*
X28800192Y-48552883D01*
X28866269Y-48349516D01*
X28899720Y-48138316D01*
X28899720Y-47924484D01*
X28866269Y-47713284D01*
X28800192Y-47509917D01*
X28703114Y-47319391D01*
X28577426Y-47146396D01*
X28577423Y-47146393D01*
X28577421Y-47146390D01*
X28426229Y-46995198D01*
X28426226Y-46995196D01*
X28426224Y-46995194D01*
X28423917Y-46993518D01*
X31510500Y-46993518D01*
X31510500Y-47172481D01*
X31517263Y-47206479D01*
X31541130Y-47326469D01*
X31545414Y-47348003D01*
X31613898Y-47513337D01*
X31621893Y-47525302D01*
X31643105Y-47593055D01*
X31624320Y-47661522D01*
X31621893Y-47665298D01*
X31613898Y-47677262D01*
X31545414Y-47842596D01*
X31510500Y-48018118D01*
X31510500Y-48197081D01*
X31527838Y-48284245D01*
X31540822Y-48349521D01*
X31545414Y-48372603D01*
X31613899Y-48537939D01*
X31613900Y-48537940D01*
X31616147Y-48541303D01*
X31616782Y-48543331D01*
X31616815Y-48543393D01*
X31616803Y-48543399D01*
X31637359Y-48609056D01*
X31618573Y-48677523D01*
X31616147Y-48681297D01*
X31613900Y-48684659D01*
X31613899Y-48684660D01*
X31545414Y-48849996D01*
X31510500Y-49025518D01*
X31510500Y-49204481D01*
X31516153Y-49232898D01*
X31545413Y-49380000D01*
X31613898Y-49545336D01*
X31713322Y-49694135D01*
X31839865Y-49820678D01*
X31988664Y-49920102D01*
X32154000Y-49988587D01*
X32329521Y-50023500D01*
X32329522Y-50023500D01*
X32508478Y-50023500D01*
X32508479Y-50023500D01*
X32684000Y-49988587D01*
X32849336Y-49920102D01*
X32998135Y-49820678D01*
X33124678Y-49694135D01*
X33224102Y-49545336D01*
X33292587Y-49380000D01*
X33327500Y-49204479D01*
X33327500Y-49025521D01*
X33292587Y-48850000D01*
X33224102Y-48684664D01*
X33224100Y-48684661D01*
X33224099Y-48684658D01*
X33221857Y-48681303D01*
X33221221Y-48679272D01*
X33221183Y-48679201D01*
X33221196Y-48679193D01*
X33200641Y-48613550D01*
X33219423Y-48545083D01*
X33221857Y-48541297D01*
X33224099Y-48537941D01*
X33224099Y-48537939D01*
X33224102Y-48537936D01*
X33292587Y-48372600D01*
X33327500Y-48197079D01*
X33327500Y-48018121D01*
X33292587Y-47842600D01*
X33224102Y-47677264D01*
X33216108Y-47665301D01*
X33194894Y-47597550D01*
X33213677Y-47529083D01*
X33216104Y-47525305D01*
X33224102Y-47513336D01*
X33292587Y-47348000D01*
X33327500Y-47172479D01*
X33327500Y-46993521D01*
X33292587Y-46818000D01*
X33284153Y-46797638D01*
X33276563Y-46727048D01*
X33308341Y-46663561D01*
X33369398Y-46627332D01*
X33425143Y-46625839D01*
X33438521Y-46628500D01*
X33438522Y-46628500D01*
X33617478Y-46628500D01*
X33617479Y-46628500D01*
X33631415Y-46625728D01*
X33702129Y-46632054D01*
X33758198Y-46675607D01*
X33781819Y-46742559D01*
X33782000Y-46749306D01*
X33782000Y-52195217D01*
X33761998Y-52263338D01*
X33745095Y-52284312D01*
X33712803Y-52316603D01*
X33712798Y-52316609D01*
X33670699Y-52379616D01*
X33624317Y-52449032D01*
X33603066Y-52500337D01*
X33563371Y-52596167D01*
X33563370Y-52596170D01*
X33532300Y-52752367D01*
X33532300Y-52911632D01*
X33541722Y-52959000D01*
X33563370Y-53067831D01*
X33624317Y-53214968D01*
X33712797Y-53347389D01*
X33745095Y-53379687D01*
X33779120Y-53441997D01*
X33782000Y-53468782D01*
X33782000Y-53594000D01*
X34042654Y-53594000D01*
X34090874Y-53603592D01*
X34104963Y-53609428D01*
X34104965Y-53609428D01*
X34104969Y-53609430D01*
X34261170Y-53640500D01*
X34261171Y-53640500D01*
X34420429Y-53640500D01*
X34420430Y-53640500D01*
X34576631Y-53609430D01*
X34579118Y-53608400D01*
X34590726Y-53603592D01*
X34638946Y-53594000D01*
X37846000Y-53594000D01*
X37846000Y-51815000D01*
X37866002Y-51746879D01*
X37919658Y-51700386D01*
X37972000Y-51689000D01*
X42164000Y-51689000D01*
X42164000Y-49739620D01*
X42184002Y-49671499D01*
X42237658Y-49625006D01*
X42307932Y-49614902D01*
X42359999Y-49634853D01*
X42495664Y-49725502D01*
X42661000Y-49793987D01*
X42836521Y-49828900D01*
X42836522Y-49828900D01*
X43015478Y-49828900D01*
X43015479Y-49828900D01*
X43191000Y-49793987D01*
X43356336Y-49725502D01*
X43505135Y-49626078D01*
X43631678Y-49499535D01*
X43731102Y-49350736D01*
X43799587Y-49185400D01*
X43833662Y-49014090D01*
X43866568Y-48951183D01*
X43928263Y-48916051D01*
X43981817Y-48915095D01*
X44106521Y-48939900D01*
X44106522Y-48939900D01*
X44285478Y-48939900D01*
X44285479Y-48939900D01*
X44461000Y-48904987D01*
X44626336Y-48836502D01*
X44697501Y-48788950D01*
X44765250Y-48767737D01*
X44833717Y-48786519D01*
X44837439Y-48788911D01*
X44908664Y-48836502D01*
X45074000Y-48904987D01*
X45249521Y-48939900D01*
X45249522Y-48939900D01*
X45428478Y-48939900D01*
X45428479Y-48939900D01*
X45604000Y-48904987D01*
X45769336Y-48836502D01*
X45815707Y-48805518D01*
X57765500Y-48805518D01*
X57765500Y-48984481D01*
X57773664Y-49025522D01*
X57790670Y-49111020D01*
X57800414Y-49160003D01*
X57802241Y-49164413D01*
X57868898Y-49325336D01*
X57968322Y-49474135D01*
X57968324Y-49474137D01*
X58094398Y-49600211D01*
X58128424Y-49662523D01*
X58123359Y-49733338D01*
X58121712Y-49737524D01*
X58054414Y-49899994D01*
X58019500Y-50075518D01*
X58019500Y-50075521D01*
X58019500Y-50254479D01*
X58054413Y-50430000D01*
X58122898Y-50595336D01*
X58222322Y-50744135D01*
X58348865Y-50870678D01*
X58497664Y-50970102D01*
X58663000Y-51038587D01*
X58838521Y-51073500D01*
X58838522Y-51073500D01*
X59017478Y-51073500D01*
X59017479Y-51073500D01*
X59193000Y-51038587D01*
X59358336Y-50970102D01*
X59507135Y-50870678D01*
X59633678Y-50744135D01*
X59733102Y-50595336D01*
X59801587Y-50430000D01*
X59836500Y-50254479D01*
X59836500Y-50075521D01*
X59801587Y-49900000D01*
X59733102Y-49734664D01*
X59633678Y-49585865D01*
X59507600Y-49459787D01*
X59473575Y-49397475D01*
X59478641Y-49326659D01*
X59480288Y-49322473D01*
X59547584Y-49160007D01*
X59547583Y-49160007D01*
X59547587Y-49160000D01*
X59582500Y-48984479D01*
X59582500Y-48805521D01*
X59547587Y-48630000D01*
X59479102Y-48464664D01*
X59379678Y-48315865D01*
X59253135Y-48189322D01*
X59104336Y-48089898D01*
X58987429Y-48041473D01*
X58939003Y-48021414D01*
X58939001Y-48021413D01*
X58939000Y-48021413D01*
X58834446Y-48000616D01*
X58763481Y-47986500D01*
X58763479Y-47986500D01*
X58584521Y-47986500D01*
X58584518Y-47986500D01*
X58456825Y-48011900D01*
X58409000Y-48021413D01*
X58408999Y-48021413D01*
X58408996Y-48021414D01*
X58243662Y-48089899D01*
X58094869Y-48189319D01*
X58094862Y-48189324D01*
X57968324Y-48315862D01*
X57968319Y-48315869D01*
X57868899Y-48464662D01*
X57800414Y-48629996D01*
X57800413Y-48629999D01*
X57800413Y-48630000D01*
X57795361Y-48655400D01*
X57765500Y-48805518D01*
X45815707Y-48805518D01*
X45918135Y-48737078D01*
X46044678Y-48610535D01*
X46144102Y-48461736D01*
X46212587Y-48296400D01*
X46247500Y-48120879D01*
X46247500Y-47941921D01*
X46212587Y-47766400D01*
X46144102Y-47601064D01*
X46044678Y-47452265D01*
X45918135Y-47325722D01*
X45769336Y-47226298D01*
X45652429Y-47177873D01*
X45604003Y-47157814D01*
X45604001Y-47157813D01*
X45604000Y-47157813D01*
X45515645Y-47140238D01*
X45428481Y-47122900D01*
X45428479Y-47122900D01*
X45249521Y-47122900D01*
X45249518Y-47122900D01*
X45118771Y-47148907D01*
X45074000Y-47157813D01*
X45073999Y-47157813D01*
X45073996Y-47157814D01*
X44908663Y-47226298D01*
X44837501Y-47273847D01*
X44769748Y-47295061D01*
X44701281Y-47276277D01*
X44697499Y-47273847D01*
X44626336Y-47226298D01*
X44461003Y-47157814D01*
X44461001Y-47157813D01*
X44461000Y-47157813D01*
X44372645Y-47140238D01*
X44285481Y-47122900D01*
X44285479Y-47122900D01*
X44106521Y-47122900D01*
X44106518Y-47122900D01*
X43975771Y-47148907D01*
X43931000Y-47157813D01*
X43930999Y-47157813D01*
X43930996Y-47157814D01*
X43765662Y-47226299D01*
X43616869Y-47325719D01*
X43616862Y-47325724D01*
X43490324Y-47452262D01*
X43490319Y-47452269D01*
X43390899Y-47601062D01*
X43322414Y-47766396D01*
X43288338Y-47937707D01*
X43255430Y-48000616D01*
X43193735Y-48035748D01*
X43140178Y-48036703D01*
X43093615Y-48027442D01*
X43015481Y-48011900D01*
X43015479Y-48011900D01*
X42836521Y-48011900D01*
X42836518Y-48011900D01*
X42716628Y-48035748D01*
X42661000Y-48046813D01*
X42660999Y-48046813D01*
X42660996Y-48046814D01*
X42564502Y-48086784D01*
X42515910Y-48106912D01*
X42495662Y-48115299D01*
X42346869Y-48214719D01*
X42346862Y-48214724D01*
X42220324Y-48341262D01*
X42220319Y-48341269D01*
X42120899Y-48490062D01*
X42052414Y-48655396D01*
X42052413Y-48655399D01*
X42052413Y-48655400D01*
X42047680Y-48679193D01*
X42017500Y-48830918D01*
X42017500Y-49009881D01*
X42034671Y-49096203D01*
X42048238Y-49164413D01*
X42052414Y-49185403D01*
X42072087Y-49232898D01*
X42113271Y-49332324D01*
X42122988Y-49355781D01*
X42130577Y-49426371D01*
X42098798Y-49489858D01*
X42037740Y-49526086D01*
X42006579Y-49530000D01*
X37972000Y-49530000D01*
X37903879Y-49509998D01*
X37857386Y-49456342D01*
X37846000Y-49404000D01*
X37846000Y-47723099D01*
X37866002Y-47654978D01*
X37919658Y-47608485D01*
X37989932Y-47598381D01*
X38054512Y-47627875D01*
X38076765Y-47653097D01*
X38105518Y-47696130D01*
X38105522Y-47696135D01*
X38232065Y-47822678D01*
X38380864Y-47922102D01*
X38546200Y-47990587D01*
X38721721Y-48025500D01*
X38721722Y-48025500D01*
X38900678Y-48025500D01*
X38900679Y-48025500D01*
X39076200Y-47990587D01*
X39241536Y-47922102D01*
X39390335Y-47822678D01*
X39516878Y-47696135D01*
X39616302Y-47547336D01*
X39684787Y-47382000D01*
X39719700Y-47206479D01*
X39719700Y-47027521D01*
X39684787Y-46852000D01*
X39616302Y-46686664D01*
X39516878Y-46537865D01*
X39390335Y-46411322D01*
X39241536Y-46311898D01*
X39102481Y-46254299D01*
X39076203Y-46243414D01*
X39076201Y-46243413D01*
X39076200Y-46243413D01*
X38987845Y-46225838D01*
X38900681Y-46208500D01*
X38900679Y-46208500D01*
X38777226Y-46208500D01*
X38709105Y-46188498D01*
X38662612Y-46134842D01*
X38652508Y-46064568D01*
X38653648Y-46057916D01*
X38654499Y-46053637D01*
X38654500Y-46053628D01*
X38654500Y-45894371D01*
X38654499Y-45894367D01*
X38623430Y-45738169D01*
X38562483Y-45591032D01*
X38474003Y-45458611D01*
X38474001Y-45458609D01*
X38473996Y-45458603D01*
X38361396Y-45346003D01*
X38361390Y-45345998D01*
X38310942Y-45312290D01*
X38228968Y-45257517D01*
X38081831Y-45196570D01*
X37997859Y-45179867D01*
X37925632Y-45165500D01*
X37925630Y-45165500D01*
X37766370Y-45165500D01*
X37766367Y-45165500D01*
X37649219Y-45188802D01*
X37610169Y-45196570D01*
X37610167Y-45196571D01*
X37463032Y-45257517D01*
X37330609Y-45345998D01*
X37330603Y-45346003D01*
X37218003Y-45458603D01*
X37217998Y-45458609D01*
X37181400Y-45513383D01*
X37129517Y-45591032D01*
X37113160Y-45630522D01*
X37068571Y-45738167D01*
X37068570Y-45738170D01*
X37037500Y-45894367D01*
X37037500Y-46053628D01*
X37037501Y-46053640D01*
X37042231Y-46077421D01*
X37035902Y-46148135D01*
X36992347Y-46204201D01*
X36925394Y-46227819D01*
X36918652Y-46228000D01*
X34489506Y-46228000D01*
X34421385Y-46207998D01*
X34374892Y-46154342D01*
X34364788Y-46084068D01*
X34373097Y-46053782D01*
X34401585Y-45985005D01*
X34401585Y-45985004D01*
X34401587Y-45985000D01*
X34436500Y-45809479D01*
X34436500Y-45630521D01*
X34401587Y-45455000D01*
X34333102Y-45289664D01*
X34233678Y-45140865D01*
X34107135Y-45014322D01*
X33958336Y-44914898D01*
X33841429Y-44866473D01*
X33793003Y-44846414D01*
X33793001Y-44846413D01*
X33793000Y-44846413D01*
X33687551Y-44825438D01*
X33617481Y-44811500D01*
X33617479Y-44811500D01*
X33438521Y-44811500D01*
X33438518Y-44811500D01*
X33322092Y-44834659D01*
X33263000Y-44846413D01*
X33262999Y-44846413D01*
X33262996Y-44846414D01*
X33097662Y-44914899D01*
X32948869Y-45014319D01*
X32948862Y-45014324D01*
X32822324Y-45140862D01*
X32822319Y-45140869D01*
X32722899Y-45289662D01*
X32654414Y-45454996D01*
X32654413Y-45454999D01*
X32654413Y-45455000D01*
X32653695Y-45458609D01*
X32619500Y-45630518D01*
X32619500Y-45809481D01*
X32654414Y-45985005D01*
X32662847Y-46005363D01*
X32670436Y-46075953D01*
X32638656Y-46139440D01*
X32577598Y-46175667D01*
X32521861Y-46177161D01*
X32508484Y-46174500D01*
X32508479Y-46174500D01*
X32329521Y-46174500D01*
X32329518Y-46174500D01*
X32198771Y-46200507D01*
X32154000Y-46209413D01*
X32153999Y-46209413D01*
X32153996Y-46209414D01*
X31988662Y-46277899D01*
X31839869Y-46377319D01*
X31839862Y-46377324D01*
X31713324Y-46503862D01*
X31713319Y-46503869D01*
X31613899Y-46652662D01*
X31545414Y-46817996D01*
X31510500Y-46993518D01*
X28423917Y-46993518D01*
X28253229Y-46869506D01*
X28253227Y-46869505D01*
X28252140Y-46868839D01*
X28251811Y-46868475D01*
X28249224Y-46866596D01*
X28249618Y-46866052D01*
X28204503Y-46816196D01*
X28192890Y-46746156D01*
X28220986Y-46680955D01*
X28249350Y-46656378D01*
X28249224Y-46656204D01*
X28251250Y-46654731D01*
X28252140Y-46653961D01*
X28253217Y-46653299D01*
X28253229Y-46653294D01*
X28426224Y-46527606D01*
X28577426Y-46376404D01*
X28703114Y-46203409D01*
X28800192Y-46012883D01*
X28866269Y-45809516D01*
X28899720Y-45598316D01*
X28899720Y-45384484D01*
X28866269Y-45173284D01*
X28800192Y-44969917D01*
X28703114Y-44779391D01*
X28657978Y-44717267D01*
X35225400Y-44717267D01*
X35225400Y-44717270D01*
X35225400Y-44876530D01*
X35256470Y-45032731D01*
X35317417Y-45179868D01*
X35390780Y-45289664D01*
X35405898Y-45312290D01*
X35405903Y-45312296D01*
X35518503Y-45424896D01*
X35518509Y-45424901D01*
X35518511Y-45424903D01*
X35650932Y-45513383D01*
X35798069Y-45574330D01*
X35954270Y-45605400D01*
X35954271Y-45605400D01*
X36113529Y-45605400D01*
X36113530Y-45605400D01*
X36269731Y-45574330D01*
X36416868Y-45513383D01*
X36549289Y-45424903D01*
X36661903Y-45312289D01*
X36750383Y-45179868D01*
X36811330Y-45032731D01*
X36842400Y-44876530D01*
X36842400Y-44717270D01*
X36821962Y-44614518D01*
X43795500Y-44614518D01*
X43795500Y-44793481D01*
X43801857Y-44825438D01*
X43830413Y-44969000D01*
X43898898Y-45134336D01*
X43998322Y-45283135D01*
X44124865Y-45409678D01*
X44273664Y-45509102D01*
X44439000Y-45577587D01*
X44614521Y-45612500D01*
X44614522Y-45612500D01*
X44793478Y-45612500D01*
X44793479Y-45612500D01*
X44969000Y-45577587D01*
X45134336Y-45509102D01*
X45283135Y-45409678D01*
X45409678Y-45283135D01*
X45509102Y-45134336D01*
X45577587Y-44969000D01*
X45612500Y-44793479D01*
X45612500Y-44614521D01*
X45577587Y-44439000D01*
X45509102Y-44273664D01*
X45409678Y-44124865D01*
X45283135Y-43998322D01*
X45134336Y-43898898D01*
X44983476Y-43836409D01*
X44969003Y-43830414D01*
X44969001Y-43830413D01*
X44969000Y-43830413D01*
X44880645Y-43812838D01*
X44793481Y-43795500D01*
X44793479Y-43795500D01*
X44614521Y-43795500D01*
X44614518Y-43795500D01*
X44483771Y-43821507D01*
X44439000Y-43830413D01*
X44438999Y-43830413D01*
X44438996Y-43830414D01*
X44333992Y-43873909D01*
X44288647Y-43892692D01*
X44273662Y-43898899D01*
X44124869Y-43998319D01*
X44124862Y-43998324D01*
X43998324Y-44124862D01*
X43998319Y-44124869D01*
X43901044Y-44270453D01*
X43898898Y-44273664D01*
X43889201Y-44297075D01*
X43830414Y-44438996D01*
X43830413Y-44438999D01*
X43830413Y-44439000D01*
X43827191Y-44455198D01*
X43795500Y-44614518D01*
X36821962Y-44614518D01*
X36811330Y-44561069D01*
X36750383Y-44413932D01*
X36661903Y-44281511D01*
X36661901Y-44281509D01*
X36661896Y-44281503D01*
X36549296Y-44168903D01*
X36549290Y-44168898D01*
X36549289Y-44168897D01*
X36416868Y-44080417D01*
X36269731Y-44019470D01*
X36191630Y-44003935D01*
X36113532Y-43988400D01*
X36113530Y-43988400D01*
X35954270Y-43988400D01*
X35954267Y-43988400D01*
X35837119Y-44011702D01*
X35798069Y-44019470D01*
X35650932Y-44080417D01*
X35518509Y-44168898D01*
X35518503Y-44168903D01*
X35405903Y-44281503D01*
X35405898Y-44281509D01*
X35374517Y-44328475D01*
X35317417Y-44413932D01*
X35300326Y-44455194D01*
X35256471Y-44561067D01*
X35256470Y-44561070D01*
X35225400Y-44717267D01*
X28657978Y-44717267D01*
X28577426Y-44606396D01*
X28577423Y-44606393D01*
X28577421Y-44606390D01*
X28426229Y-44455198D01*
X28426226Y-44455196D01*
X28426224Y-44455194D01*
X28253229Y-44329506D01*
X28253227Y-44329505D01*
X28252140Y-44328839D01*
X28251811Y-44328475D01*
X28249224Y-44326596D01*
X28249618Y-44326052D01*
X28204503Y-44276196D01*
X28192890Y-44206156D01*
X28220986Y-44140955D01*
X28249350Y-44116378D01*
X28249224Y-44116204D01*
X28251250Y-44114731D01*
X28252140Y-44113961D01*
X28253217Y-44113299D01*
X28253229Y-44113294D01*
X28426224Y-43987606D01*
X28577426Y-43836404D01*
X28703114Y-43663409D01*
X28800192Y-43472883D01*
X28866269Y-43269516D01*
X28899720Y-43058316D01*
X28899720Y-42963720D01*
X38588500Y-42963720D01*
X38588500Y-42963723D01*
X38588500Y-43142681D01*
X38623413Y-43318202D01*
X38691898Y-43483538D01*
X38791322Y-43632337D01*
X38917865Y-43758880D01*
X39066664Y-43858304D01*
X39232000Y-43926789D01*
X39407521Y-43961702D01*
X39407522Y-43961702D01*
X39586478Y-43961702D01*
X39586479Y-43961702D01*
X39762000Y-43926789D01*
X39927336Y-43858304D01*
X40076135Y-43758880D01*
X40202678Y-43632337D01*
X40302102Y-43483538D01*
X40370587Y-43318202D01*
X40405500Y-43142681D01*
X40405500Y-42974386D01*
X40425502Y-42906265D01*
X40461498Y-42869621D01*
X40499114Y-42844487D01*
X40584135Y-42787678D01*
X40710678Y-42661135D01*
X40810102Y-42512336D01*
X40878587Y-42347000D01*
X40913500Y-42171479D01*
X40913500Y-41992521D01*
X40878587Y-41817000D01*
X40810102Y-41651664D01*
X40710678Y-41502865D01*
X40584135Y-41376322D01*
X40435336Y-41276898D01*
X40288534Y-41216090D01*
X40270003Y-41208414D01*
X40270001Y-41208413D01*
X40270000Y-41208413D01*
X40159242Y-41186382D01*
X40094481Y-41173500D01*
X40094479Y-41173500D01*
X39915521Y-41173500D01*
X39915518Y-41173500D01*
X39795839Y-41197306D01*
X39740000Y-41208413D01*
X39739999Y-41208413D01*
X39739996Y-41208414D01*
X39615008Y-41260187D01*
X39584034Y-41273017D01*
X39574662Y-41276899D01*
X39425869Y-41376319D01*
X39425862Y-41376324D01*
X39299324Y-41502862D01*
X39299319Y-41502869D01*
X39199899Y-41651662D01*
X39131414Y-41816996D01*
X39131413Y-41816999D01*
X39131413Y-41817000D01*
X39130074Y-41823733D01*
X39096500Y-41992518D01*
X39096500Y-42160815D01*
X39076498Y-42228936D01*
X39040502Y-42265580D01*
X38917869Y-42347521D01*
X38917862Y-42347526D01*
X38791324Y-42474064D01*
X38791319Y-42474071D01*
X38691899Y-42622864D01*
X38623414Y-42788198D01*
X38588500Y-42963720D01*
X28899720Y-42963720D01*
X28899720Y-42844484D01*
X28866269Y-42633284D01*
X28800192Y-42429917D01*
X28703114Y-42239391D01*
X28577426Y-42066396D01*
X28577423Y-42066393D01*
X28577421Y-42066390D01*
X28426229Y-41915198D01*
X28426226Y-41915196D01*
X28426224Y-41915194D01*
X28253229Y-41789506D01*
X28253227Y-41789505D01*
X28252140Y-41788839D01*
X28251811Y-41788475D01*
X28249224Y-41786596D01*
X28249618Y-41786052D01*
X28204503Y-41736196D01*
X28192890Y-41666156D01*
X28220986Y-41600955D01*
X28249350Y-41576378D01*
X28249224Y-41576204D01*
X28251250Y-41574731D01*
X28252140Y-41573961D01*
X28253217Y-41573299D01*
X28253229Y-41573294D01*
X28426224Y-41447606D01*
X28577426Y-41296404D01*
X28703114Y-41123409D01*
X28800192Y-40932883D01*
X28800636Y-40931518D01*
X43414500Y-40931518D01*
X43414500Y-41110481D01*
X43427233Y-41174493D01*
X43439068Y-41233994D01*
X43449414Y-41286003D01*
X43455425Y-41300514D01*
X43517898Y-41451336D01*
X43617322Y-41600135D01*
X43743865Y-41726678D01*
X43892664Y-41826102D01*
X44058000Y-41894587D01*
X44233521Y-41929500D01*
X44233522Y-41929500D01*
X44412478Y-41929500D01*
X44412479Y-41929500D01*
X44588000Y-41894587D01*
X44753336Y-41826102D01*
X44902135Y-41726678D01*
X45028678Y-41600135D01*
X45128102Y-41451336D01*
X45196587Y-41286000D01*
X45231500Y-41110479D01*
X45231500Y-40931521D01*
X45196587Y-40756000D01*
X45128102Y-40590664D01*
X45028678Y-40441865D01*
X44902135Y-40315322D01*
X44885919Y-40304487D01*
X44831456Y-40268096D01*
X44753337Y-40215899D01*
X44753338Y-40215899D01*
X44753336Y-40215898D01*
X44641366Y-40169518D01*
X47732500Y-40169518D01*
X47732500Y-40348481D01*
X47737775Y-40375000D01*
X47767413Y-40524000D01*
X47835898Y-40689336D01*
X47935322Y-40838135D01*
X48061865Y-40964678D01*
X48210664Y-41064102D01*
X48376000Y-41132587D01*
X48551521Y-41167500D01*
X48551522Y-41167500D01*
X48730478Y-41167500D01*
X48730479Y-41167500D01*
X48906000Y-41132587D01*
X49071336Y-41064102D01*
X49220135Y-40964678D01*
X49346678Y-40838135D01*
X49446102Y-40689336D01*
X49514587Y-40524000D01*
X49549500Y-40348479D01*
X49549500Y-40169521D01*
X49514587Y-39994000D01*
X49446102Y-39828664D01*
X49346678Y-39679865D01*
X49220135Y-39553322D01*
X49071336Y-39453898D01*
X48915867Y-39389500D01*
X48906003Y-39385414D01*
X48906001Y-39385413D01*
X48906000Y-39385413D01*
X48817645Y-39367838D01*
X48730481Y-39350500D01*
X48730479Y-39350500D01*
X48551521Y-39350500D01*
X48551518Y-39350500D01*
X48427375Y-39375194D01*
X48376000Y-39385413D01*
X48375999Y-39385413D01*
X48375996Y-39385414D01*
X48210662Y-39453899D01*
X48061869Y-39553319D01*
X48061862Y-39553324D01*
X47935324Y-39679862D01*
X47935319Y-39679869D01*
X47835899Y-39828662D01*
X47767414Y-39993996D01*
X47732500Y-40169518D01*
X44641366Y-40169518D01*
X44636429Y-40167473D01*
X44588003Y-40147414D01*
X44588001Y-40147413D01*
X44588000Y-40147413D01*
X44499645Y-40129838D01*
X44412481Y-40112500D01*
X44412479Y-40112500D01*
X44233521Y-40112500D01*
X44233518Y-40112500D01*
X44102771Y-40138507D01*
X44058000Y-40147413D01*
X44057999Y-40147413D01*
X44057996Y-40147414D01*
X43892662Y-40215899D01*
X43743869Y-40315319D01*
X43743862Y-40315324D01*
X43617324Y-40441862D01*
X43617319Y-40441869D01*
X43517899Y-40590662D01*
X43449414Y-40755996D01*
X43414500Y-40931518D01*
X28800636Y-40931518D01*
X28866269Y-40729516D01*
X28899720Y-40518316D01*
X28899720Y-40304484D01*
X28866269Y-40093284D01*
X28800192Y-39889917D01*
X28703114Y-39699391D01*
X28577426Y-39526396D01*
X28577423Y-39526393D01*
X28577421Y-39526390D01*
X28426229Y-39375198D01*
X28426226Y-39375196D01*
X28426224Y-39375194D01*
X28253229Y-39249506D01*
X28253227Y-39249505D01*
X28252140Y-39248839D01*
X28251811Y-39248475D01*
X28249224Y-39246596D01*
X28249618Y-39246052D01*
X28204503Y-39196196D01*
X28192890Y-39126156D01*
X28220986Y-39060955D01*
X28249350Y-39036378D01*
X28249224Y-39036204D01*
X28251250Y-39034731D01*
X28252140Y-39033961D01*
X28253217Y-39033299D01*
X28253229Y-39033294D01*
X28426224Y-38907606D01*
X28577426Y-38756404D01*
X28703114Y-38583409D01*
X28800192Y-38392883D01*
X28800636Y-38391518D01*
X41128500Y-38391518D01*
X41128500Y-38570481D01*
X41163414Y-38746003D01*
X41175930Y-38776218D01*
X41231898Y-38911336D01*
X41331322Y-39060135D01*
X41457865Y-39186678D01*
X41606664Y-39286102D01*
X41772000Y-39354587D01*
X41947521Y-39389500D01*
X41947522Y-39389500D01*
X42126478Y-39389500D01*
X42126479Y-39389500D01*
X42302000Y-39354587D01*
X42467336Y-39286102D01*
X42616135Y-39186678D01*
X42742678Y-39060135D01*
X42842102Y-38911336D01*
X42910587Y-38746000D01*
X42945500Y-38570479D01*
X42945500Y-38391521D01*
X42910587Y-38216000D01*
X42842102Y-38050664D01*
X42742678Y-37901865D01*
X42616135Y-37775322D01*
X42467336Y-37675898D01*
X42350429Y-37627473D01*
X42302003Y-37607414D01*
X42302001Y-37607413D01*
X42302000Y-37607413D01*
X42213645Y-37589838D01*
X42126481Y-37572500D01*
X42126479Y-37572500D01*
X41947521Y-37572500D01*
X41947518Y-37572500D01*
X41816771Y-37598507D01*
X41772000Y-37607413D01*
X41771999Y-37607413D01*
X41771996Y-37607414D01*
X41606662Y-37675899D01*
X41457869Y-37775319D01*
X41457862Y-37775324D01*
X41331324Y-37901862D01*
X41331319Y-37901869D01*
X41231899Y-38050662D01*
X41163414Y-38215996D01*
X41128500Y-38391518D01*
X28800636Y-38391518D01*
X28866269Y-38189516D01*
X28899720Y-37978316D01*
X28899720Y-37764484D01*
X28866269Y-37553284D01*
X28800192Y-37349917D01*
X28703114Y-37159391D01*
X28577426Y-36986396D01*
X28577423Y-36986393D01*
X28577421Y-36986390D01*
X28426229Y-36835198D01*
X28426226Y-36835196D01*
X28426224Y-36835194D01*
X28285139Y-36732690D01*
X28253232Y-36709508D01*
X28252140Y-36708839D01*
X28251811Y-36708475D01*
X28249224Y-36706596D01*
X28249618Y-36706052D01*
X28204503Y-36656196D01*
X28192890Y-36586156D01*
X28220986Y-36520955D01*
X28249350Y-36496378D01*
X28249224Y-36496204D01*
X28251250Y-36494731D01*
X28252140Y-36493961D01*
X28253217Y-36493299D01*
X28253229Y-36493294D01*
X28426224Y-36367606D01*
X28577426Y-36216404D01*
X28703114Y-36043409D01*
X28800192Y-35852883D01*
X28866269Y-35649516D01*
X28899720Y-35438316D01*
X28899720Y-35224484D01*
X28866269Y-35013284D01*
X28800192Y-34809917D01*
X28748527Y-34708518D01*
X41382500Y-34708518D01*
X41382500Y-34887481D01*
X41389516Y-34922752D01*
X41417413Y-35063000D01*
X41485898Y-35228336D01*
X41585322Y-35377135D01*
X41711865Y-35503678D01*
X41860664Y-35603102D01*
X42026000Y-35671587D01*
X42071386Y-35680614D01*
X42134295Y-35713521D01*
X42169428Y-35775215D01*
X42170383Y-35779609D01*
X42179411Y-35824994D01*
X42179412Y-35824998D01*
X42179413Y-35825000D01*
X42247898Y-35990336D01*
X42347322Y-36139135D01*
X42473865Y-36265678D01*
X42622664Y-36365102D01*
X42788000Y-36433587D01*
X42963521Y-36468500D01*
X42963522Y-36468500D01*
X43142478Y-36468500D01*
X43142479Y-36468500D01*
X43318000Y-36433587D01*
X43483336Y-36365102D01*
X43491693Y-36359518D01*
X47224500Y-36359518D01*
X47224500Y-36538481D01*
X47236525Y-36598932D01*
X47258519Y-36709508D01*
X47259414Y-36714003D01*
X47267156Y-36732693D01*
X47327898Y-36879336D01*
X47427322Y-37028135D01*
X47553865Y-37154678D01*
X47702664Y-37254102D01*
X47868000Y-37322587D01*
X48043521Y-37357500D01*
X48043522Y-37357500D01*
X48222478Y-37357500D01*
X48222479Y-37357500D01*
X48398000Y-37322587D01*
X48563336Y-37254102D01*
X48712135Y-37154678D01*
X48838678Y-37028135D01*
X48861140Y-36994518D01*
X52050500Y-36994518D01*
X52050500Y-37173481D01*
X52056857Y-37205438D01*
X52085413Y-37349000D01*
X52153898Y-37514336D01*
X52253322Y-37663135D01*
X52379865Y-37789678D01*
X52528664Y-37889102D01*
X52694000Y-37957587D01*
X52869521Y-37992500D01*
X52869522Y-37992500D01*
X53048478Y-37992500D01*
X53048479Y-37992500D01*
X53224000Y-37957587D01*
X53389336Y-37889102D01*
X53538135Y-37789678D01*
X53558535Y-37769278D01*
X62808500Y-37769278D01*
X62808500Y-38006722D01*
X62841646Y-38215996D01*
X62845645Y-38241246D01*
X62894473Y-38391522D01*
X62919018Y-38467063D01*
X63026815Y-38678627D01*
X63166380Y-38870722D01*
X63166382Y-38870724D01*
X63166384Y-38870727D01*
X63334272Y-39038615D01*
X63334275Y-39038617D01*
X63334278Y-39038620D01*
X63526373Y-39178185D01*
X63737937Y-39285982D01*
X63963759Y-39359356D01*
X64198278Y-39396500D01*
X64198281Y-39396500D01*
X64435719Y-39396500D01*
X64435722Y-39396500D01*
X64670241Y-39359356D01*
X64896063Y-39285982D01*
X65107627Y-39178185D01*
X65299722Y-39038620D01*
X65467620Y-38870722D01*
X65607185Y-38678627D01*
X65714982Y-38467063D01*
X65788356Y-38241241D01*
X65825500Y-38006722D01*
X65825500Y-37769278D01*
X65788356Y-37534759D01*
X65718798Y-37320684D01*
X65716771Y-37249721D01*
X65753433Y-37188923D01*
X65768621Y-37176993D01*
X65781669Y-37168276D01*
X65872276Y-37077669D01*
X65943465Y-36971127D01*
X65992501Y-36852744D01*
X66017500Y-36727069D01*
X66017500Y-36598931D01*
X65992501Y-36473256D01*
X65943465Y-36354873D01*
X65872276Y-36248331D01*
X65781669Y-36157724D01*
X65675127Y-36086535D01*
X65556745Y-36037499D01*
X65514852Y-36029166D01*
X65431069Y-36012500D01*
X65302931Y-36012500D01*
X65261039Y-36020833D01*
X65177254Y-36037499D01*
X65177253Y-36037500D01*
X65058871Y-36086536D01*
X64952335Y-36157721D01*
X64952328Y-36157726D01*
X64861726Y-36248328D01*
X64861721Y-36248335D01*
X64787096Y-36360020D01*
X64784905Y-36358556D01*
X64743112Y-36401017D01*
X64673860Y-36416658D01*
X64662142Y-36415361D01*
X64562276Y-36399544D01*
X64435722Y-36379500D01*
X64198278Y-36379500D01*
X63971860Y-36415361D01*
X63963753Y-36416645D01*
X63737941Y-36490016D01*
X63737935Y-36490019D01*
X63526369Y-36597817D01*
X63334275Y-36737382D01*
X63334272Y-36737384D01*
X63166384Y-36905272D01*
X63166382Y-36905275D01*
X63026817Y-37097369D01*
X62919019Y-37308935D01*
X62919016Y-37308941D01*
X62845645Y-37534753D01*
X62845645Y-37534755D01*
X62845644Y-37534759D01*
X62808500Y-37769278D01*
X53558535Y-37769278D01*
X53664678Y-37663135D01*
X53764102Y-37514336D01*
X53832587Y-37349000D01*
X53867500Y-37173479D01*
X53867500Y-36994521D01*
X53832587Y-36819000D01*
X53764102Y-36653664D01*
X53664678Y-36504865D01*
X53538135Y-36378322D01*
X53389336Y-36278898D01*
X53238476Y-36216409D01*
X53224003Y-36210414D01*
X53224001Y-36210413D01*
X53224000Y-36210413D01*
X53135645Y-36192838D01*
X53048481Y-36175500D01*
X53048479Y-36175500D01*
X52869521Y-36175500D01*
X52869518Y-36175500D01*
X52738771Y-36201507D01*
X52694000Y-36210413D01*
X52693999Y-36210413D01*
X52693996Y-36210414D01*
X52528662Y-36278899D01*
X52379869Y-36378319D01*
X52379862Y-36378324D01*
X52253324Y-36504862D01*
X52253319Y-36504869D01*
X52156044Y-36650453D01*
X52153898Y-36653664D01*
X52144201Y-36677075D01*
X52085414Y-36818996D01*
X52085413Y-36818999D01*
X52085413Y-36819000D01*
X52082191Y-36835198D01*
X52050500Y-36994518D01*
X48861140Y-36994518D01*
X48938102Y-36879336D01*
X49006587Y-36714000D01*
X49041500Y-36538479D01*
X49041500Y-36359521D01*
X49006587Y-36184000D01*
X48938102Y-36018664D01*
X48838678Y-35869865D01*
X48712135Y-35743322D01*
X48563336Y-35643898D01*
X48446429Y-35595473D01*
X48398003Y-35575414D01*
X48398001Y-35575413D01*
X48398000Y-35575413D01*
X48309645Y-35557838D01*
X48222481Y-35540500D01*
X48222479Y-35540500D01*
X48043521Y-35540500D01*
X48043518Y-35540500D01*
X47912771Y-35566507D01*
X47868000Y-35575413D01*
X47867999Y-35575413D01*
X47867996Y-35575414D01*
X47702662Y-35643899D01*
X47553869Y-35743319D01*
X47553862Y-35743324D01*
X47427324Y-35869862D01*
X47427319Y-35869869D01*
X47330086Y-36015390D01*
X47327898Y-36018664D01*
X47320096Y-36037499D01*
X47259414Y-36183996D01*
X47259413Y-36183999D01*
X47259413Y-36184000D01*
X47252967Y-36216406D01*
X47224500Y-36359518D01*
X43491693Y-36359518D01*
X43632135Y-36265678D01*
X43758678Y-36139135D01*
X43858102Y-35990336D01*
X43926587Y-35825000D01*
X43961500Y-35649479D01*
X43961500Y-35470521D01*
X43926587Y-35295000D01*
X43894078Y-35216518D01*
X44811500Y-35216518D01*
X44811500Y-35216521D01*
X44811500Y-35395479D01*
X44846413Y-35571000D01*
X44914898Y-35736336D01*
X45014322Y-35885135D01*
X45140865Y-36011678D01*
X45289664Y-36111102D01*
X45455000Y-36179587D01*
X45630521Y-36214500D01*
X45630522Y-36214500D01*
X45809478Y-36214500D01*
X45809479Y-36214500D01*
X45985000Y-36179587D01*
X46150336Y-36111102D01*
X46299135Y-36011678D01*
X46425678Y-35885135D01*
X46525102Y-35736336D01*
X46593587Y-35571000D01*
X46628500Y-35395479D01*
X46628500Y-35216521D01*
X46593587Y-35041000D01*
X46525102Y-34875664D01*
X46425678Y-34726865D01*
X46299135Y-34600322D01*
X46150336Y-34500898D01*
X46018758Y-34446396D01*
X45985003Y-34432414D01*
X45985001Y-34432413D01*
X45985000Y-34432413D01*
X45890254Y-34413567D01*
X45809481Y-34397500D01*
X45809479Y-34397500D01*
X45630521Y-34397500D01*
X45630518Y-34397500D01*
X45499771Y-34423507D01*
X45455000Y-34432413D01*
X45454999Y-34432413D01*
X45454996Y-34432414D01*
X45289662Y-34500899D01*
X45140869Y-34600319D01*
X45140862Y-34600324D01*
X45014324Y-34726862D01*
X45014319Y-34726869D01*
X44919261Y-34869135D01*
X44914898Y-34875664D01*
X44908598Y-34890873D01*
X44846414Y-35040996D01*
X44811500Y-35216518D01*
X43894078Y-35216518D01*
X43858102Y-35129664D01*
X43816727Y-35067742D01*
X43813108Y-35060430D01*
X43808317Y-35033184D01*
X43800051Y-35006784D01*
X43802260Y-34998730D01*
X43800814Y-34990505D01*
X43811516Y-34964989D01*
X43818834Y-34938317D01*
X43825044Y-34932737D01*
X43828276Y-34925035D01*
X43851074Y-34909356D01*
X43871651Y-34890873D01*
X43877813Y-34888125D01*
X43879373Y-34887479D01*
X43991336Y-34841102D01*
X44140135Y-34741678D01*
X44266678Y-34615135D01*
X44366102Y-34466336D01*
X44434587Y-34301000D01*
X44469500Y-34125479D01*
X44469500Y-33946521D01*
X44450205Y-33849518D01*
X46462500Y-33849518D01*
X46462500Y-34028481D01*
X46479838Y-34115645D01*
X46497413Y-34204000D01*
X46565898Y-34369336D01*
X46665322Y-34518135D01*
X46791865Y-34644678D01*
X46940664Y-34744102D01*
X47106000Y-34812587D01*
X47281521Y-34847500D01*
X47281522Y-34847500D01*
X47460478Y-34847500D01*
X47460479Y-34847500D01*
X47636000Y-34812587D01*
X47801336Y-34744102D01*
X47950135Y-34644678D01*
X48076678Y-34518135D01*
X48146548Y-34413567D01*
X57230500Y-34413567D01*
X57230500Y-34572832D01*
X57242330Y-34632306D01*
X57261570Y-34729031D01*
X57322517Y-34876168D01*
X57409791Y-35006784D01*
X57410998Y-35008590D01*
X57411003Y-35008596D01*
X57523603Y-35121196D01*
X57523609Y-35121201D01*
X57523611Y-35121203D01*
X57656032Y-35209683D01*
X57803169Y-35270630D01*
X57959370Y-35301700D01*
X57959371Y-35301700D01*
X58118629Y-35301700D01*
X58118630Y-35301700D01*
X58274831Y-35270630D01*
X58421968Y-35209683D01*
X58554389Y-35121203D01*
X58667003Y-35008589D01*
X58755483Y-34876168D01*
X58816430Y-34729031D01*
X58847500Y-34572830D01*
X58847500Y-34413570D01*
X58816430Y-34257369D01*
X58755483Y-34110232D01*
X58667003Y-33977811D01*
X58667001Y-33977809D01*
X58666996Y-33977803D01*
X58554396Y-33865203D01*
X58554390Y-33865198D01*
X58530929Y-33849522D01*
X58421968Y-33776717D01*
X58274831Y-33715770D01*
X58196730Y-33700235D01*
X58118632Y-33684700D01*
X58118630Y-33684700D01*
X57959370Y-33684700D01*
X57959367Y-33684700D01*
X57842219Y-33708002D01*
X57803169Y-33715770D01*
X57752918Y-33736585D01*
X57656032Y-33776717D01*
X57523609Y-33865198D01*
X57523603Y-33865203D01*
X57411003Y-33977803D01*
X57410998Y-33977809D01*
X57344952Y-34076655D01*
X57322517Y-34110232D01*
X57277518Y-34218869D01*
X57261571Y-34257367D01*
X57261570Y-34257370D01*
X57230500Y-34413567D01*
X48146548Y-34413567D01*
X48176102Y-34369336D01*
X48244587Y-34204000D01*
X48279500Y-34028479D01*
X48279500Y-33849521D01*
X48244587Y-33674000D01*
X48176102Y-33508664D01*
X48076678Y-33359865D01*
X47950135Y-33233322D01*
X47801336Y-33133898D01*
X47666680Y-33078121D01*
X47636003Y-33065414D01*
X47636001Y-33065413D01*
X47636000Y-33065413D01*
X47547645Y-33047838D01*
X47460481Y-33030500D01*
X47460479Y-33030500D01*
X47281521Y-33030500D01*
X47281518Y-33030500D01*
X47150771Y-33056507D01*
X47106000Y-33065413D01*
X47105999Y-33065413D01*
X47105996Y-33065414D01*
X46940662Y-33133899D01*
X46791869Y-33233319D01*
X46791862Y-33233324D01*
X46665324Y-33359862D01*
X46665319Y-33359869D01*
X46565899Y-33508662D01*
X46497414Y-33673996D01*
X46497413Y-33673999D01*
X46497413Y-33674000D01*
X46496934Y-33676409D01*
X46462500Y-33849518D01*
X44450205Y-33849518D01*
X44434587Y-33771000D01*
X44366102Y-33605664D01*
X44266678Y-33456865D01*
X44140135Y-33330322D01*
X43991336Y-33230898D01*
X43874429Y-33182473D01*
X43826003Y-33162414D01*
X43826001Y-33162413D01*
X43826000Y-33162413D01*
X43737645Y-33144838D01*
X43650481Y-33127500D01*
X43650479Y-33127500D01*
X43471521Y-33127500D01*
X43471518Y-33127500D01*
X43340771Y-33153507D01*
X43296000Y-33162413D01*
X43295999Y-33162413D01*
X43295996Y-33162414D01*
X43130662Y-33230899D01*
X42981869Y-33330319D01*
X42981862Y-33330324D01*
X42855324Y-33456862D01*
X42855319Y-33456869D01*
X42755899Y-33605662D01*
X42687412Y-33771000D01*
X42677637Y-33820142D01*
X42644729Y-33883051D01*
X42583033Y-33918181D01*
X42529478Y-33919137D01*
X42380484Y-33889500D01*
X42380479Y-33889500D01*
X42201521Y-33889500D01*
X42201518Y-33889500D01*
X42070771Y-33915507D01*
X42026000Y-33924413D01*
X42025999Y-33924413D01*
X42025996Y-33924414D01*
X41860662Y-33992899D01*
X41711869Y-34092319D01*
X41711862Y-34092324D01*
X41585324Y-34218862D01*
X41585319Y-34218869D01*
X41534321Y-34295194D01*
X41485898Y-34367664D01*
X41485205Y-34369337D01*
X41417414Y-34532996D01*
X41382500Y-34708518D01*
X28748527Y-34708518D01*
X28703114Y-34619391D01*
X28577426Y-34446396D01*
X28577423Y-34446393D01*
X28577421Y-34446390D01*
X28426229Y-34295198D01*
X28426226Y-34295196D01*
X28426224Y-34295194D01*
X28253229Y-34169506D01*
X28253227Y-34169505D01*
X28252140Y-34168839D01*
X28251811Y-34168475D01*
X28249224Y-34166596D01*
X28249618Y-34166052D01*
X28204503Y-34116196D01*
X28192890Y-34046156D01*
X28220986Y-33980955D01*
X28249350Y-33956378D01*
X28249224Y-33956204D01*
X28251250Y-33954731D01*
X28252140Y-33953961D01*
X28253217Y-33953299D01*
X28253229Y-33953294D01*
X28426224Y-33827606D01*
X28577426Y-33676404D01*
X28703114Y-33503409D01*
X28800192Y-33312883D01*
X28866269Y-33109516D01*
X28899720Y-32898316D01*
X28899720Y-32684484D01*
X28866269Y-32473284D01*
X28800192Y-32269917D01*
X28703114Y-32079391D01*
X28577426Y-31906396D01*
X28577423Y-31906393D01*
X28577421Y-31906390D01*
X28474449Y-31803418D01*
X28440423Y-31741106D01*
X28445488Y-31670291D01*
X28488035Y-31613455D01*
X28519504Y-31596271D01*
X28637424Y-31552289D01*
X28647434Y-31544796D01*
X28754481Y-31464661D01*
X28842107Y-31347607D01*
X28842107Y-31347606D01*
X28842109Y-31347604D01*
X28893209Y-31210601D01*
X28893750Y-31205576D01*
X28899719Y-31150049D01*
X28899720Y-31150032D01*
X28899720Y-30929318D01*
X32690300Y-30929318D01*
X32690300Y-31108281D01*
X32705561Y-31185001D01*
X32724361Y-31279518D01*
X32725214Y-31283803D01*
X32740068Y-31319663D01*
X32793698Y-31449136D01*
X32893122Y-31597935D01*
X33019665Y-31724478D01*
X33168464Y-31823902D01*
X33333800Y-31892387D01*
X33509321Y-31927300D01*
X33509322Y-31927300D01*
X33688278Y-31927300D01*
X33688279Y-31927300D01*
X33863800Y-31892387D01*
X34029136Y-31823902D01*
X34083589Y-31787518D01*
X36937500Y-31787518D01*
X36937500Y-31966481D01*
X36942062Y-31989413D01*
X36967910Y-32119363D01*
X36972414Y-32142003D01*
X36978760Y-32157324D01*
X37040898Y-32307336D01*
X37140322Y-32456135D01*
X37229201Y-32545014D01*
X37263226Y-32607326D01*
X37258160Y-32678142D01*
X37256514Y-32682326D01*
X37226416Y-32754989D01*
X37226413Y-32754999D01*
X37191500Y-32930518D01*
X37191500Y-33109481D01*
X37196357Y-33133898D01*
X37225713Y-33281483D01*
X37226414Y-33285003D01*
X37237963Y-33312883D01*
X37294898Y-33450336D01*
X37394322Y-33599135D01*
X37520865Y-33725678D01*
X37669664Y-33825102D01*
X37835000Y-33893587D01*
X38010521Y-33928500D01*
X38010522Y-33928500D01*
X38189478Y-33928500D01*
X38189479Y-33928500D01*
X38365000Y-33893587D01*
X38530336Y-33825102D01*
X38679135Y-33725678D01*
X38805678Y-33599135D01*
X38905102Y-33450336D01*
X38973587Y-33285000D01*
X39008500Y-33109479D01*
X39008500Y-32930521D01*
X38973587Y-32755000D01*
X38905102Y-32589664D01*
X38805678Y-32440865D01*
X38716798Y-32351985D01*
X38682772Y-32289673D01*
X38687837Y-32218858D01*
X38689485Y-32214671D01*
X38700813Y-32187324D01*
X38719587Y-32142000D01*
X38754500Y-31966479D01*
X38754500Y-31787521D01*
X38719587Y-31612000D01*
X38651102Y-31446664D01*
X38651101Y-31446662D01*
X38651100Y-31446660D01*
X38651099Y-31446659D01*
X38582060Y-31343334D01*
X38582059Y-31343333D01*
X38571674Y-31327792D01*
X38551678Y-31297865D01*
X38533331Y-31279518D01*
X42017500Y-31279518D01*
X42017500Y-31458481D01*
X42034669Y-31544796D01*
X42052413Y-31634000D01*
X42120898Y-31799336D01*
X42220322Y-31948135D01*
X42346865Y-32074678D01*
X42495664Y-32174102D01*
X42661000Y-32242587D01*
X42836521Y-32277500D01*
X42836522Y-32277500D01*
X43015478Y-32277500D01*
X43015479Y-32277500D01*
X43191000Y-32242587D01*
X43356336Y-32174102D01*
X43505135Y-32074678D01*
X43631678Y-31948135D01*
X43731102Y-31799336D01*
X43799587Y-31634000D01*
X43834500Y-31458479D01*
X43834500Y-31279521D01*
X43799587Y-31104000D01*
X43731102Y-30938664D01*
X43631678Y-30789865D01*
X43505135Y-30663322D01*
X43356336Y-30563898D01*
X43239429Y-30515473D01*
X43191003Y-30495414D01*
X43191001Y-30495413D01*
X43191000Y-30495413D01*
X43102645Y-30477838D01*
X43015481Y-30460500D01*
X43015479Y-30460500D01*
X42836521Y-30460500D01*
X42836518Y-30460500D01*
X42705771Y-30486507D01*
X42661000Y-30495413D01*
X42660999Y-30495413D01*
X42660996Y-30495414D01*
X42495662Y-30563899D01*
X42346869Y-30663319D01*
X42346862Y-30663324D01*
X42220324Y-30789862D01*
X42220319Y-30789869D01*
X42120899Y-30938662D01*
X42052414Y-31103996D01*
X42052413Y-31103999D01*
X42052413Y-31104000D01*
X42050672Y-31112752D01*
X42017500Y-31279518D01*
X38533331Y-31279518D01*
X38425135Y-31171322D01*
X38276336Y-31071898D01*
X38143942Y-31017058D01*
X38111003Y-31003414D01*
X38111001Y-31003413D01*
X38111000Y-31003413D01*
X38022645Y-30985838D01*
X37935481Y-30968500D01*
X37935479Y-30968500D01*
X37756521Y-30968500D01*
X37756518Y-30968500D01*
X37625771Y-30994507D01*
X37581000Y-31003413D01*
X37580999Y-31003413D01*
X37580996Y-31003414D01*
X37415662Y-31071899D01*
X37266869Y-31171319D01*
X37266862Y-31171324D01*
X37140324Y-31297862D01*
X37140319Y-31297869D01*
X37040899Y-31446662D01*
X36972414Y-31611996D01*
X36937500Y-31787518D01*
X34083589Y-31787518D01*
X34177935Y-31724478D01*
X34304478Y-31597935D01*
X34403902Y-31449136D01*
X34472387Y-31283800D01*
X34507300Y-31108279D01*
X34507300Y-30929321D01*
X34472387Y-30753800D01*
X34403902Y-30588464D01*
X34304478Y-30439665D01*
X34177935Y-30313122D01*
X34029136Y-30213698D01*
X33912229Y-30165273D01*
X33863803Y-30145214D01*
X33863801Y-30145213D01*
X33863800Y-30145213D01*
X33775445Y-30127638D01*
X33688281Y-30110300D01*
X33688279Y-30110300D01*
X33509321Y-30110300D01*
X33509318Y-30110300D01*
X33378571Y-30136307D01*
X33333800Y-30145213D01*
X33333799Y-30145213D01*
X33333796Y-30145214D01*
X33202702Y-30199516D01*
X33175980Y-30210585D01*
X33168462Y-30213699D01*
X33019669Y-30313119D01*
X33019662Y-30313124D01*
X32893124Y-30439662D01*
X32893119Y-30439669D01*
X32793699Y-30588462D01*
X32725214Y-30753796D01*
X32725213Y-30753799D01*
X32725213Y-30753800D01*
X32717766Y-30791241D01*
X32690300Y-30929318D01*
X28899720Y-30929318D01*
X28899720Y-29352767D01*
X28899719Y-29352750D01*
X28893210Y-29292203D01*
X28893209Y-29292199D01*
X28890660Y-29285365D01*
X28890659Y-29285363D01*
X28876543Y-29247518D01*
X50780500Y-29247518D01*
X50780500Y-29426481D01*
X50795522Y-29502001D01*
X50815413Y-29602000D01*
X50883898Y-29767336D01*
X50983322Y-29916135D01*
X51109865Y-30042678D01*
X51258664Y-30142102D01*
X51424000Y-30210587D01*
X51599521Y-30245500D01*
X51599522Y-30245500D01*
X51778478Y-30245500D01*
X51778479Y-30245500D01*
X51954000Y-30210587D01*
X52119336Y-30142102D01*
X52268135Y-30042678D01*
X52394678Y-29916135D01*
X52494102Y-29767336D01*
X52562587Y-29602000D01*
X52597500Y-29426479D01*
X52597500Y-29247521D01*
X52572238Y-29120518D01*
X53701500Y-29120518D01*
X53701500Y-29299481D01*
X53715611Y-29370421D01*
X53732489Y-29455275D01*
X53736414Y-29475003D01*
X53750903Y-29509982D01*
X53804898Y-29640336D01*
X53904322Y-29789135D01*
X54030865Y-29915678D01*
X54179664Y-30015102D01*
X54345000Y-30083587D01*
X54520521Y-30118500D01*
X54520522Y-30118500D01*
X54699478Y-30118500D01*
X54699479Y-30118500D01*
X54854098Y-30087744D01*
X54924808Y-30094072D01*
X54980875Y-30137626D01*
X55004495Y-30204578D01*
X55002255Y-30235903D01*
X55000346Y-30245500D01*
X54971500Y-30390517D01*
X54971500Y-30390521D01*
X54971500Y-30569479D01*
X55005713Y-30741483D01*
X55006414Y-30745003D01*
X55074898Y-30910336D01*
X55164876Y-31044999D01*
X55186090Y-31112752D01*
X55167306Y-31181219D01*
X55164876Y-31185001D01*
X55074898Y-31319663D01*
X55006414Y-31484996D01*
X55006413Y-31484999D01*
X55006413Y-31485000D01*
X55004891Y-31492654D01*
X54971500Y-31660518D01*
X54971500Y-31839481D01*
X54985399Y-31909354D01*
X55001323Y-31989413D01*
X55006414Y-32015003D01*
X55020903Y-32049982D01*
X55074898Y-32180336D01*
X55174322Y-32329135D01*
X55300865Y-32455678D01*
X55449664Y-32555102D01*
X55615000Y-32623587D01*
X55790521Y-32658500D01*
X55790522Y-32658500D01*
X55969478Y-32658500D01*
X55969479Y-32658500D01*
X56145000Y-32623587D01*
X56310336Y-32555102D01*
X56444998Y-32465123D01*
X56512751Y-32443909D01*
X56581218Y-32462692D01*
X56585001Y-32465123D01*
X56719664Y-32555102D01*
X56885000Y-32623587D01*
X57060521Y-32658500D01*
X57060522Y-32658500D01*
X57239478Y-32658500D01*
X57239479Y-32658500D01*
X57415000Y-32623587D01*
X57580336Y-32555102D01*
X57729135Y-32455678D01*
X57855678Y-32329135D01*
X57955102Y-32180336D01*
X58023587Y-32015000D01*
X58058500Y-31839479D01*
X58058500Y-31660521D01*
X58027744Y-31505900D01*
X58034072Y-31435191D01*
X58077626Y-31379124D01*
X58144578Y-31355504D01*
X58175895Y-31357743D01*
X58330521Y-31388500D01*
X58330522Y-31388500D01*
X58509478Y-31388500D01*
X58509479Y-31388500D01*
X58685000Y-31353587D01*
X58850336Y-31285102D01*
X58984998Y-31195123D01*
X59052751Y-31173909D01*
X59121218Y-31192692D01*
X59125001Y-31195123D01*
X59259664Y-31285102D01*
X59425000Y-31353587D01*
X59600521Y-31388500D01*
X59600522Y-31388500D01*
X59779478Y-31388500D01*
X59779479Y-31388500D01*
X59955000Y-31353587D01*
X60120336Y-31285102D01*
X60269135Y-31185678D01*
X60395678Y-31059135D01*
X60495102Y-30910336D01*
X60563587Y-30745000D01*
X60598500Y-30569479D01*
X60598500Y-30390521D01*
X60585848Y-30326916D01*
X60584329Y-30319278D01*
X62808500Y-30319278D01*
X62808500Y-30556722D01*
X62839714Y-30753800D01*
X62845645Y-30791246D01*
X62919016Y-31017058D01*
X62919018Y-31017063D01*
X63017632Y-31210604D01*
X63026817Y-31228630D01*
X63046852Y-31256206D01*
X63166380Y-31420722D01*
X63166382Y-31420724D01*
X63166384Y-31420727D01*
X63334272Y-31588615D01*
X63334275Y-31588617D01*
X63334278Y-31588620D01*
X63526373Y-31728185D01*
X63737937Y-31835982D01*
X63963759Y-31909356D01*
X64198278Y-31946500D01*
X64198281Y-31946500D01*
X64435719Y-31946500D01*
X64435722Y-31946500D01*
X64662144Y-31910638D01*
X64732552Y-31919738D01*
X64786866Y-31965459D01*
X64787860Y-31967124D01*
X64802753Y-31989413D01*
X64861724Y-32077669D01*
X64952331Y-32168276D01*
X65058873Y-32239465D01*
X65177256Y-32288501D01*
X65302931Y-32313500D01*
X65302936Y-32313500D01*
X65319685Y-32313500D01*
X65387806Y-32333502D01*
X65434299Y-32387158D01*
X65444403Y-32457432D01*
X65436093Y-32487719D01*
X65390415Y-32597992D01*
X65390413Y-32597998D01*
X65390413Y-32598000D01*
X65384446Y-32628000D01*
X65355500Y-32773518D01*
X65355500Y-32952481D01*
X65371019Y-33030500D01*
X65386737Y-33109521D01*
X65390414Y-33128003D01*
X65402841Y-33158003D01*
X65458898Y-33293336D01*
X65558322Y-33442135D01*
X65684865Y-33568678D01*
X65833664Y-33668102D01*
X65999000Y-33736587D01*
X66174521Y-33771500D01*
X66174522Y-33771500D01*
X66353478Y-33771500D01*
X66353479Y-33771500D01*
X66529000Y-33736587D01*
X66694336Y-33668102D01*
X66843135Y-33568678D01*
X66969678Y-33442135D01*
X67069102Y-33293336D01*
X67137587Y-33128000D01*
X67172500Y-32952479D01*
X67172500Y-32773521D01*
X67137587Y-32598000D01*
X67069102Y-32432664D01*
X66969678Y-32283865D01*
X66843135Y-32157322D01*
X66694336Y-32057898D01*
X66577429Y-32009473D01*
X66529003Y-31989414D01*
X66529001Y-31989413D01*
X66529000Y-31989413D01*
X66416945Y-31967124D01*
X66353481Y-31954500D01*
X66353479Y-31954500D01*
X66174521Y-31954500D01*
X66174520Y-31954500D01*
X66174510Y-31954501D01*
X66148874Y-31959600D01*
X66078160Y-31953271D01*
X66022094Y-31909715D01*
X65998475Y-31842762D01*
X66000715Y-31811449D01*
X66017500Y-31727069D01*
X66017500Y-31598931D01*
X65992501Y-31473256D01*
X65943465Y-31354873D01*
X65872276Y-31248331D01*
X65781669Y-31157724D01*
X65768629Y-31149010D01*
X65723103Y-31094534D01*
X65714256Y-31024091D01*
X65718800Y-31005311D01*
X65719417Y-31003414D01*
X65788356Y-30791241D01*
X65825500Y-30556722D01*
X65825500Y-30319278D01*
X65788356Y-30084759D01*
X65714982Y-29858937D01*
X65607185Y-29647373D01*
X65467620Y-29455278D01*
X65467617Y-29455275D01*
X65467615Y-29455272D01*
X65299727Y-29287384D01*
X65299724Y-29287382D01*
X65299722Y-29287380D01*
X65107627Y-29147815D01*
X64896063Y-29040018D01*
X64896060Y-29040017D01*
X64896058Y-29040016D01*
X64670246Y-28966645D01*
X64670242Y-28966644D01*
X64670241Y-28966644D01*
X64435722Y-28929500D01*
X64198278Y-28929500D01*
X63963759Y-28966644D01*
X63963753Y-28966645D01*
X63737941Y-29040016D01*
X63737935Y-29040019D01*
X63526369Y-29147817D01*
X63334275Y-29287382D01*
X63334272Y-29287384D01*
X63166384Y-29455272D01*
X63166382Y-29455275D01*
X63026817Y-29647369D01*
X62919019Y-29858935D01*
X62919016Y-29858941D01*
X62845645Y-30084753D01*
X62845644Y-30084758D01*
X62845644Y-30084759D01*
X62808500Y-30319278D01*
X60584329Y-30319278D01*
X60582363Y-30309397D01*
X60563587Y-30215000D01*
X60495102Y-30049664D01*
X60405123Y-29915001D01*
X60383909Y-29847249D01*
X60402692Y-29778782D01*
X60405124Y-29774998D01*
X60410243Y-29767337D01*
X60495102Y-29640336D01*
X60563587Y-29475000D01*
X60598500Y-29299479D01*
X60598500Y-29120521D01*
X60563587Y-28945000D01*
X60495102Y-28779664D01*
X60395678Y-28630865D01*
X60269135Y-28504322D01*
X60120336Y-28404898D01*
X60003429Y-28356473D01*
X59955003Y-28336414D01*
X59955001Y-28336413D01*
X59955000Y-28336413D01*
X59866645Y-28318838D01*
X59779481Y-28301500D01*
X59779479Y-28301500D01*
X59600521Y-28301500D01*
X59600518Y-28301500D01*
X59469771Y-28327507D01*
X59425000Y-28336413D01*
X59424999Y-28336413D01*
X59424996Y-28336414D01*
X59259663Y-28404898D01*
X59125001Y-28494876D01*
X59057248Y-28516090D01*
X58988781Y-28497306D01*
X58984999Y-28494876D01*
X58850336Y-28404898D01*
X58685003Y-28336414D01*
X58685001Y-28336413D01*
X58685000Y-28336413D01*
X58596645Y-28318838D01*
X58509481Y-28301500D01*
X58509479Y-28301500D01*
X58330521Y-28301500D01*
X58330518Y-28301500D01*
X58199771Y-28327507D01*
X58155000Y-28336413D01*
X58154999Y-28336413D01*
X58154996Y-28336414D01*
X57989663Y-28404898D01*
X57855001Y-28494876D01*
X57787248Y-28516090D01*
X57718781Y-28497306D01*
X57714999Y-28494876D01*
X57580336Y-28404898D01*
X57415003Y-28336414D01*
X57415001Y-28336413D01*
X57415000Y-28336413D01*
X57326645Y-28318838D01*
X57239481Y-28301500D01*
X57239479Y-28301500D01*
X57060521Y-28301500D01*
X57060518Y-28301500D01*
X56929771Y-28327507D01*
X56885000Y-28336413D01*
X56884999Y-28336413D01*
X56884996Y-28336414D01*
X56719663Y-28404898D01*
X56585001Y-28494876D01*
X56517248Y-28516090D01*
X56448781Y-28497306D01*
X56444999Y-28494876D01*
X56310336Y-28404898D01*
X56145003Y-28336414D01*
X56145001Y-28336413D01*
X56145000Y-28336413D01*
X56056645Y-28318838D01*
X55969481Y-28301500D01*
X55969479Y-28301500D01*
X55790521Y-28301500D01*
X55790518Y-28301500D01*
X55659771Y-28327507D01*
X55615000Y-28336413D01*
X55614999Y-28336413D01*
X55614996Y-28336414D01*
X55449663Y-28404898D01*
X55315001Y-28494876D01*
X55247248Y-28516090D01*
X55178781Y-28497306D01*
X55174999Y-28494876D01*
X55040336Y-28404898D01*
X54875003Y-28336414D01*
X54875001Y-28336413D01*
X54875000Y-28336413D01*
X54786645Y-28318838D01*
X54699481Y-28301500D01*
X54699479Y-28301500D01*
X54520521Y-28301500D01*
X54520518Y-28301500D01*
X54389771Y-28327507D01*
X54345000Y-28336413D01*
X54344999Y-28336413D01*
X54344996Y-28336414D01*
X54179662Y-28404899D01*
X54030869Y-28504319D01*
X54030862Y-28504324D01*
X53904324Y-28630862D01*
X53904319Y-28630869D01*
X53804899Y-28779662D01*
X53736414Y-28944996D01*
X53701500Y-29120518D01*
X52572238Y-29120518D01*
X52562587Y-29072000D01*
X52562585Y-29071996D01*
X52549340Y-29040019D01*
X52494102Y-28906664D01*
X52394678Y-28757865D01*
X52268135Y-28631322D01*
X52119336Y-28531898D01*
X52002429Y-28483473D01*
X51954003Y-28463414D01*
X51954001Y-28463413D01*
X51954000Y-28463413D01*
X51865645Y-28445838D01*
X51778481Y-28428500D01*
X51778479Y-28428500D01*
X51599521Y-28428500D01*
X51599518Y-28428500D01*
X51468771Y-28454507D01*
X51424000Y-28463413D01*
X51423999Y-28463413D01*
X51423996Y-28463414D01*
X51258662Y-28531899D01*
X51109869Y-28631319D01*
X51109862Y-28631324D01*
X50983324Y-28757862D01*
X50983319Y-28757869D01*
X50883899Y-28906662D01*
X50815414Y-29071996D01*
X50815414Y-29071997D01*
X50815413Y-29072000D01*
X50809346Y-29102499D01*
X50780500Y-29247518D01*
X28876543Y-29247518D01*
X28842109Y-29155196D01*
X28842107Y-29155192D01*
X28754481Y-29038138D01*
X28637427Y-28950512D01*
X28637422Y-28950510D01*
X28500424Y-28899411D01*
X28500416Y-28899409D01*
X28439869Y-28892900D01*
X28439858Y-28892900D01*
X26642582Y-28892900D01*
X26642570Y-28892900D01*
X26582023Y-28899409D01*
X26582015Y-28899411D01*
X26445017Y-28950510D01*
X26445012Y-28950512D01*
X26327958Y-29038138D01*
X26240332Y-29155192D01*
X26240331Y-29155195D01*
X26204549Y-29251127D01*
X26162001Y-29307962D01*
X26095481Y-29332772D01*
X26026107Y-29317680D01*
X25997399Y-29296188D01*
X25885009Y-29183798D01*
X25885006Y-29183796D01*
X25885004Y-29183794D01*
X25746745Y-29083343D01*
X25712012Y-29058108D01*
X25712011Y-29058107D01*
X25712009Y-29058106D01*
X25521483Y-28961028D01*
X25521480Y-28961027D01*
X25521478Y-28961026D01*
X25318120Y-28894952D01*
X25318123Y-28894952D01*
X25278801Y-28888724D01*
X25106916Y-28861500D01*
X24893084Y-28861500D01*
X24681884Y-28894951D01*
X24681878Y-28894952D01*
X24478521Y-28961026D01*
X24478515Y-28961029D01*
X24287987Y-29058108D01*
X24114993Y-29183796D01*
X24114990Y-29183798D01*
X23963798Y-29334990D01*
X23963796Y-29334993D01*
X23838108Y-29507987D01*
X23837434Y-29509088D01*
X23837068Y-29509418D01*
X23835196Y-29511996D01*
X23834654Y-29511602D01*
X23784787Y-29556721D01*
X23714745Y-29568328D01*
X23649547Y-29540226D01*
X23624976Y-29511870D01*
X23624804Y-29511996D01*
X23623341Y-29509982D01*
X23622566Y-29509088D01*
X23621896Y-29507996D01*
X23621894Y-29507991D01*
X23496206Y-29334996D01*
X23496203Y-29334993D01*
X23496201Y-29334990D01*
X23345009Y-29183798D01*
X23345006Y-29183796D01*
X23345004Y-29183794D01*
X23206745Y-29083343D01*
X23172012Y-29058108D01*
X23172011Y-29058107D01*
X23172009Y-29058106D01*
X22981483Y-28961028D01*
X22981480Y-28961027D01*
X22981478Y-28961026D01*
X22778120Y-28894952D01*
X22778123Y-28894952D01*
X22738801Y-28888724D01*
X22566916Y-28861500D01*
X22353084Y-28861500D01*
X22141884Y-28894951D01*
X22141878Y-28894952D01*
X21938521Y-28961026D01*
X21938515Y-28961029D01*
X21747987Y-29058108D01*
X21574993Y-29183796D01*
X21574990Y-29183798D01*
X21423798Y-29334990D01*
X21423796Y-29334993D01*
X21298108Y-29507987D01*
X21201029Y-29698515D01*
X21201026Y-29698521D01*
X21134952Y-29901878D01*
X21134951Y-29901883D01*
X21134951Y-29901884D01*
X21101500Y-30113084D01*
X20500500Y-30113084D01*
X20500500Y-28104518D01*
X49002500Y-28104518D01*
X49002500Y-28283481D01*
X49013029Y-28336413D01*
X49037413Y-28459000D01*
X49105898Y-28624336D01*
X49205322Y-28773135D01*
X49331865Y-28899678D01*
X49480664Y-28999102D01*
X49646000Y-29067587D01*
X49821521Y-29102500D01*
X49821522Y-29102500D01*
X50000478Y-29102500D01*
X50000479Y-29102500D01*
X50176000Y-29067587D01*
X50341336Y-28999102D01*
X50490135Y-28899678D01*
X50616678Y-28773135D01*
X50716102Y-28624336D01*
X50784587Y-28459000D01*
X50819500Y-28283479D01*
X50819500Y-28104521D01*
X50784587Y-27929000D01*
X50716102Y-27763664D01*
X50616678Y-27614865D01*
X50490135Y-27488322D01*
X50341336Y-27388898D01*
X50224429Y-27340473D01*
X50176003Y-27320414D01*
X50176001Y-27320413D01*
X50176000Y-27320413D01*
X50087645Y-27302838D01*
X50000481Y-27285500D01*
X50000479Y-27285500D01*
X49821521Y-27285500D01*
X49821518Y-27285500D01*
X49690771Y-27311507D01*
X49646000Y-27320413D01*
X49645999Y-27320413D01*
X49645996Y-27320414D01*
X49480662Y-27388899D01*
X49331869Y-27488319D01*
X49331862Y-27488324D01*
X49205324Y-27614862D01*
X49205319Y-27614869D01*
X49105899Y-27763662D01*
X49037414Y-27928996D01*
X49002500Y-28104518D01*
X20500500Y-28104518D01*
X20500500Y-25822961D01*
X20520502Y-25754840D01*
X20574158Y-25708347D01*
X20644432Y-25698243D01*
X20709012Y-25727737D01*
X20737622Y-25763565D01*
X20815279Y-25908851D01*
X21017709Y-26211810D01*
X21248868Y-26493479D01*
X21248885Y-26493497D01*
X21506502Y-26751114D01*
X21506520Y-26751131D01*
X21788185Y-26982287D01*
X22091151Y-27184722D01*
X22412500Y-27356487D01*
X22749137Y-27495927D01*
X23097821Y-27601699D01*
X23097830Y-27601700D01*
X23097834Y-27601702D01*
X23219074Y-27625817D01*
X23455194Y-27672785D01*
X23817813Y-27708500D01*
X23817822Y-27708500D01*
X24182178Y-27708500D01*
X24182187Y-27708500D01*
X24544806Y-27672785D01*
X24839157Y-27614234D01*
X24902165Y-27601702D01*
X24902167Y-27601701D01*
X24902179Y-27601699D01*
X25250863Y-27495927D01*
X25587500Y-27356487D01*
X25908849Y-27184722D01*
X26211815Y-26982287D01*
X26493480Y-26751131D01*
X26751131Y-26493480D01*
X26804772Y-26428118D01*
X42931900Y-26428118D01*
X42931900Y-26428121D01*
X42931900Y-26607079D01*
X42966813Y-26782600D01*
X43035298Y-26947936D01*
X43134722Y-27096735D01*
X43261265Y-27223278D01*
X43410064Y-27322702D01*
X43575400Y-27391187D01*
X43750921Y-27426100D01*
X43750922Y-27426100D01*
X43929878Y-27426100D01*
X43929879Y-27426100D01*
X44105400Y-27391187D01*
X44270736Y-27322702D01*
X44419535Y-27223278D01*
X44546078Y-27096735D01*
X44645502Y-26947936D01*
X44713987Y-26782600D01*
X44748900Y-26607079D01*
X44748900Y-26428121D01*
X44713987Y-26252600D01*
X44645502Y-26087264D01*
X44546078Y-25938465D01*
X44419535Y-25811922D01*
X44270736Y-25712498D01*
X44146410Y-25661000D01*
X44105403Y-25644014D01*
X44105401Y-25644013D01*
X44105400Y-25644013D01*
X44017045Y-25626438D01*
X43929881Y-25609100D01*
X43929879Y-25609100D01*
X43750921Y-25609100D01*
X43750918Y-25609100D01*
X43620171Y-25635107D01*
X43575400Y-25644013D01*
X43575399Y-25644013D01*
X43575396Y-25644014D01*
X43446979Y-25697207D01*
X43420086Y-25708347D01*
X43410062Y-25712499D01*
X43261269Y-25811919D01*
X43261262Y-25811924D01*
X43134724Y-25938462D01*
X43134719Y-25938469D01*
X43056313Y-26055813D01*
X43035298Y-26087264D01*
X43029327Y-26101680D01*
X42966814Y-26252596D01*
X42931900Y-26428118D01*
X26804772Y-26428118D01*
X26982287Y-26211815D01*
X27184722Y-25908849D01*
X27356487Y-25587500D01*
X27495927Y-25250863D01*
X27601699Y-24902179D01*
X27672785Y-24544806D01*
X27708500Y-24182187D01*
X27708500Y-23817813D01*
X27672785Y-23455194D01*
X27601699Y-23097821D01*
X27579463Y-23024518D01*
X28326900Y-23024518D01*
X28326900Y-23024521D01*
X28326900Y-23203479D01*
X28361813Y-23379000D01*
X28430298Y-23544336D01*
X28430299Y-23544337D01*
X28435420Y-23552002D01*
X28456632Y-23619756D01*
X28437846Y-23688222D01*
X28435420Y-23691998D01*
X28430299Y-23699662D01*
X28361814Y-23864996D01*
X28326900Y-24040518D01*
X28326900Y-24219481D01*
X28332978Y-24250035D01*
X28361813Y-24395000D01*
X28430298Y-24560336D01*
X28430299Y-24560337D01*
X28435420Y-24568002D01*
X28456632Y-24635756D01*
X28437846Y-24704222D01*
X28435420Y-24707998D01*
X28430299Y-24715662D01*
X28361814Y-24880996D01*
X28326900Y-25056518D01*
X28326900Y-25235481D01*
X28329960Y-25250863D01*
X28361813Y-25411000D01*
X28430298Y-25576336D01*
X28529722Y-25725135D01*
X28656265Y-25851678D01*
X28805064Y-25951102D01*
X28970400Y-26019587D01*
X29145921Y-26054500D01*
X29145922Y-26054500D01*
X29324878Y-26054500D01*
X29324879Y-26054500D01*
X29500400Y-26019587D01*
X29572081Y-25989894D01*
X29642671Y-25982305D01*
X29706158Y-26014083D01*
X29709395Y-26017208D01*
X29793865Y-26101678D01*
X29942664Y-26201102D01*
X30108000Y-26269587D01*
X30283521Y-26304500D01*
X30283522Y-26304500D01*
X30462478Y-26304500D01*
X30462479Y-26304500D01*
X30638000Y-26269587D01*
X30803336Y-26201102D01*
X30803336Y-26201101D01*
X30809055Y-26198733D01*
X30810166Y-26201415D01*
X30867431Y-26189392D01*
X30933043Y-26214136D01*
X30976791Y-26246886D01*
X30976793Y-26246887D01*
X30976796Y-26246889D01*
X30992108Y-26252600D01*
X31113795Y-26297988D01*
X31113803Y-26297990D01*
X31174350Y-26304499D01*
X31174355Y-26304499D01*
X31174362Y-26304500D01*
X31174368Y-26304500D01*
X32071632Y-26304500D01*
X32071638Y-26304500D01*
X32071645Y-26304499D01*
X32071649Y-26304499D01*
X32132196Y-26297990D01*
X32132199Y-26297989D01*
X32132201Y-26297989D01*
X32269204Y-26246889D01*
X32269799Y-26246444D01*
X32386261Y-26159261D01*
X32473887Y-26042207D01*
X32473887Y-26042206D01*
X32473889Y-26042204D01*
X32524989Y-25905201D01*
X32530744Y-25851675D01*
X32531499Y-25844649D01*
X32531500Y-25844632D01*
X32531500Y-24806518D01*
X45633500Y-24806518D01*
X45633500Y-24806521D01*
X45633500Y-25485479D01*
X45665034Y-25644014D01*
X45668414Y-25661003D01*
X45683840Y-25698243D01*
X45736898Y-25826336D01*
X45836322Y-25975135D01*
X45962865Y-26101678D01*
X46111664Y-26201102D01*
X46277000Y-26269587D01*
X46452521Y-26304500D01*
X46452522Y-26304500D01*
X46631478Y-26304500D01*
X46631479Y-26304500D01*
X46807000Y-26269587D01*
X46972336Y-26201102D01*
X47097000Y-26117804D01*
X47164751Y-26096590D01*
X47233218Y-26115373D01*
X47236971Y-26117785D01*
X47361664Y-26201102D01*
X47527000Y-26269587D01*
X47702521Y-26304500D01*
X47702522Y-26304500D01*
X47881478Y-26304500D01*
X47881479Y-26304500D01*
X48057000Y-26269587D01*
X48222336Y-26201102D01*
X48347000Y-26117804D01*
X48414751Y-26096590D01*
X48483218Y-26115373D01*
X48486971Y-26117785D01*
X48611664Y-26201102D01*
X48777000Y-26269587D01*
X48952521Y-26304500D01*
X48952522Y-26304500D01*
X49131478Y-26304500D01*
X49131479Y-26304500D01*
X49307000Y-26269587D01*
X49472336Y-26201102D01*
X49472336Y-26201101D01*
X49478055Y-26198733D01*
X49479166Y-26201415D01*
X49536431Y-26189392D01*
X49602043Y-26214136D01*
X49645791Y-26246886D01*
X49645793Y-26246887D01*
X49645796Y-26246889D01*
X49661108Y-26252600D01*
X49782795Y-26297988D01*
X49782803Y-26297990D01*
X49843350Y-26304499D01*
X49843355Y-26304499D01*
X49843362Y-26304500D01*
X49843368Y-26304500D01*
X50740632Y-26304500D01*
X50740638Y-26304500D01*
X50740645Y-26304499D01*
X50740649Y-26304499D01*
X50801196Y-26297990D01*
X50801199Y-26297989D01*
X50801201Y-26297989D01*
X50938204Y-26246889D01*
X50938799Y-26246444D01*
X51055261Y-26159261D01*
X51142887Y-26042207D01*
X51142887Y-26042206D01*
X51142889Y-26042204D01*
X51193989Y-25905201D01*
X51199744Y-25851675D01*
X51200499Y-25844649D01*
X51200500Y-25844632D01*
X51200500Y-24806518D01*
X54777500Y-24806518D01*
X54777500Y-24806521D01*
X54777500Y-25485479D01*
X54809034Y-25644014D01*
X54812414Y-25661003D01*
X54827840Y-25698243D01*
X54880898Y-25826336D01*
X54980322Y-25975135D01*
X55106865Y-26101678D01*
X55255664Y-26201102D01*
X55421000Y-26269587D01*
X55596521Y-26304500D01*
X55596522Y-26304500D01*
X55775478Y-26304500D01*
X55775479Y-26304500D01*
X55951000Y-26269587D01*
X56116336Y-26201102D01*
X56241000Y-26117804D01*
X56308751Y-26096590D01*
X56377218Y-26115373D01*
X56380971Y-26117785D01*
X56505664Y-26201102D01*
X56671000Y-26269587D01*
X56846521Y-26304500D01*
X56846522Y-26304500D01*
X57025478Y-26304500D01*
X57025479Y-26304500D01*
X57201000Y-26269587D01*
X57366336Y-26201102D01*
X57491000Y-26117804D01*
X57558751Y-26096590D01*
X57627218Y-26115373D01*
X57630971Y-26117785D01*
X57755664Y-26201102D01*
X57921000Y-26269587D01*
X58096521Y-26304500D01*
X58096522Y-26304500D01*
X58275478Y-26304500D01*
X58275479Y-26304500D01*
X58451000Y-26269587D01*
X58616336Y-26201102D01*
X58616338Y-26201100D01*
X58622054Y-26198733D01*
X58623092Y-26201239D01*
X58681096Y-26189147D01*
X58746529Y-26213875D01*
X58790036Y-26246445D01*
X58926906Y-26297494D01*
X58987402Y-26303999D01*
X58987415Y-26304000D01*
X59182000Y-26304000D01*
X59690000Y-26304000D01*
X59884585Y-26304000D01*
X59884597Y-26303999D01*
X59945093Y-26297494D01*
X60081964Y-26246444D01*
X60081965Y-26246444D01*
X60198904Y-26158904D01*
X60286444Y-26041965D01*
X60286444Y-26041964D01*
X60337494Y-25905093D01*
X60343999Y-25844597D01*
X60344000Y-25844585D01*
X60344000Y-25400000D01*
X59690000Y-25400000D01*
X59690000Y-26304000D01*
X59182000Y-26304000D01*
X59182000Y-25096272D01*
X59186000Y-25096272D01*
X59186000Y-25195728D01*
X59224060Y-25287614D01*
X59294386Y-25357940D01*
X59386272Y-25396000D01*
X59485728Y-25396000D01*
X59577614Y-25357940D01*
X59647940Y-25287614D01*
X59686000Y-25195728D01*
X59686000Y-25096272D01*
X59647940Y-25004386D01*
X59577614Y-24934060D01*
X59485728Y-24896000D01*
X59386272Y-24896000D01*
X59294386Y-24934060D01*
X59224060Y-25004386D01*
X59186000Y-25096272D01*
X59182000Y-25096272D01*
X59182000Y-24892000D01*
X59690000Y-24892000D01*
X60344000Y-24892000D01*
X60344000Y-24447414D01*
X60343999Y-24447402D01*
X60337494Y-24386906D01*
X60286444Y-24250035D01*
X60286444Y-24250034D01*
X60198904Y-24133095D01*
X60081965Y-24045555D01*
X59945093Y-23994505D01*
X59884597Y-23988000D01*
X59690000Y-23988000D01*
X59690000Y-24892000D01*
X59182000Y-24892000D01*
X59182000Y-23988000D01*
X58987402Y-23988000D01*
X58926906Y-23994505D01*
X58790034Y-24045555D01*
X58746526Y-24078125D01*
X58680006Y-24102935D01*
X58623060Y-24090835D01*
X58622054Y-24093267D01*
X58616337Y-24090899D01*
X58616336Y-24090898D01*
X58494709Y-24040518D01*
X58451003Y-24022414D01*
X58451001Y-24022413D01*
X58451000Y-24022413D01*
X58362645Y-24004838D01*
X58275481Y-23987500D01*
X58275479Y-23987500D01*
X58096521Y-23987500D01*
X58096518Y-23987500D01*
X57965771Y-24013507D01*
X57921000Y-24022413D01*
X57920999Y-24022413D01*
X57920996Y-24022414D01*
X57789902Y-24076716D01*
X57755817Y-24090835D01*
X57755662Y-24090899D01*
X57631002Y-24174194D01*
X57563249Y-24195409D01*
X57494782Y-24176626D01*
X57490998Y-24174194D01*
X57425671Y-24130544D01*
X57366336Y-24090898D01*
X57244709Y-24040518D01*
X57201003Y-24022414D01*
X57201001Y-24022413D01*
X57201000Y-24022413D01*
X57112645Y-24004838D01*
X57025481Y-23987500D01*
X57025479Y-23987500D01*
X56846521Y-23987500D01*
X56846518Y-23987500D01*
X56715771Y-24013507D01*
X56671000Y-24022413D01*
X56670999Y-24022413D01*
X56670996Y-24022414D01*
X56539902Y-24076716D01*
X56505817Y-24090835D01*
X56505662Y-24090899D01*
X56381002Y-24174194D01*
X56313249Y-24195409D01*
X56244782Y-24176626D01*
X56240998Y-24174194D01*
X56175671Y-24130544D01*
X56116336Y-24090898D01*
X55994709Y-24040518D01*
X55951003Y-24022414D01*
X55951001Y-24022413D01*
X55951000Y-24022413D01*
X55862645Y-24004838D01*
X55775481Y-23987500D01*
X55775479Y-23987500D01*
X55596521Y-23987500D01*
X55596518Y-23987500D01*
X55465771Y-24013507D01*
X55421000Y-24022413D01*
X55420999Y-24022413D01*
X55420996Y-24022414D01*
X55289902Y-24076716D01*
X55255817Y-24090835D01*
X55255662Y-24090899D01*
X55106869Y-24190319D01*
X55106862Y-24190324D01*
X54980324Y-24316862D01*
X54980319Y-24316869D01*
X54880899Y-24465662D01*
X54812414Y-24630996D01*
X54777500Y-24806518D01*
X51200500Y-24806518D01*
X51200500Y-24447367D01*
X51200499Y-24447350D01*
X51193990Y-24386803D01*
X51193988Y-24386795D01*
X51142978Y-24250035D01*
X51142889Y-24249796D01*
X51142888Y-24249794D01*
X51142887Y-24249792D01*
X51055261Y-24132738D01*
X50938207Y-24045112D01*
X50938202Y-24045110D01*
X50801204Y-23994011D01*
X50801196Y-23994009D01*
X50740649Y-23987500D01*
X50740638Y-23987500D01*
X49843362Y-23987500D01*
X49843350Y-23987500D01*
X49782803Y-23994009D01*
X49782795Y-23994011D01*
X49645797Y-24045110D01*
X49645793Y-24045112D01*
X49602040Y-24077865D01*
X49535519Y-24102675D01*
X49479114Y-24090706D01*
X49478054Y-24093267D01*
X49472337Y-24090899D01*
X49472336Y-24090898D01*
X49350709Y-24040518D01*
X49307003Y-24022414D01*
X49307001Y-24022413D01*
X49307000Y-24022413D01*
X49218645Y-24004838D01*
X49131481Y-23987500D01*
X49131479Y-23987500D01*
X48952521Y-23987500D01*
X48952518Y-23987500D01*
X48821771Y-24013507D01*
X48777000Y-24022413D01*
X48776999Y-24022413D01*
X48776996Y-24022414D01*
X48645902Y-24076716D01*
X48611817Y-24090835D01*
X48611662Y-24090899D01*
X48487002Y-24174194D01*
X48419249Y-24195409D01*
X48350782Y-24176626D01*
X48346998Y-24174194D01*
X48281671Y-24130544D01*
X48222336Y-24090898D01*
X48100709Y-24040518D01*
X48057003Y-24022414D01*
X48057001Y-24022413D01*
X48057000Y-24022413D01*
X47968645Y-24004838D01*
X47881481Y-23987500D01*
X47881479Y-23987500D01*
X47702521Y-23987500D01*
X47702518Y-23987500D01*
X47571771Y-24013507D01*
X47527000Y-24022413D01*
X47526999Y-24022413D01*
X47526996Y-24022414D01*
X47395902Y-24076716D01*
X47361817Y-24090835D01*
X47361662Y-24090899D01*
X47237002Y-24174194D01*
X47169249Y-24195409D01*
X47100782Y-24176626D01*
X47096998Y-24174194D01*
X47031671Y-24130544D01*
X46972336Y-24090898D01*
X46850709Y-24040518D01*
X46807003Y-24022414D01*
X46807001Y-24022413D01*
X46807000Y-24022413D01*
X46718645Y-24004838D01*
X46631481Y-23987500D01*
X46631479Y-23987500D01*
X46452521Y-23987500D01*
X46452518Y-23987500D01*
X46321771Y-24013507D01*
X46277000Y-24022413D01*
X46276999Y-24022413D01*
X46276996Y-24022414D01*
X46145902Y-24076716D01*
X46111817Y-24090835D01*
X46111662Y-24090899D01*
X45962869Y-24190319D01*
X45962862Y-24190324D01*
X45836324Y-24316862D01*
X45836319Y-24316869D01*
X45736899Y-24465662D01*
X45668414Y-24630996D01*
X45633500Y-24806518D01*
X32531500Y-24806518D01*
X32531500Y-24447367D01*
X32531499Y-24447350D01*
X32524990Y-24386803D01*
X32524988Y-24386795D01*
X32473978Y-24250035D01*
X32473889Y-24249796D01*
X32473888Y-24249794D01*
X32473887Y-24249792D01*
X32386261Y-24132738D01*
X32269207Y-24045112D01*
X32269202Y-24045110D01*
X32132204Y-23994011D01*
X32132196Y-23994009D01*
X32071649Y-23987500D01*
X32071638Y-23987500D01*
X31174362Y-23987500D01*
X31174350Y-23987500D01*
X31113803Y-23994009D01*
X31113795Y-23994011D01*
X30976797Y-24045110D01*
X30976793Y-24045112D01*
X30933040Y-24077865D01*
X30866519Y-24102675D01*
X30810114Y-24090706D01*
X30809054Y-24093267D01*
X30803337Y-24090899D01*
X30803336Y-24090898D01*
X30681709Y-24040518D01*
X30638003Y-24022414D01*
X30638001Y-24022413D01*
X30638000Y-24022413D01*
X30549645Y-24004838D01*
X30462481Y-23987500D01*
X30462479Y-23987500D01*
X30283521Y-23987500D01*
X30283518Y-23987500D01*
X30262644Y-23991652D01*
X30191930Y-23985322D01*
X30135864Y-23941766D01*
X30114487Y-23892653D01*
X30108987Y-23865000D01*
X30040502Y-23699664D01*
X30035384Y-23692005D01*
X30014167Y-23624256D01*
X30032947Y-23555788D01*
X30035367Y-23552020D01*
X30040502Y-23544336D01*
X30108987Y-23379000D01*
X30143900Y-23203479D01*
X30143900Y-23024521D01*
X30108987Y-22849000D01*
X30040502Y-22683664D01*
X29941078Y-22534865D01*
X29814535Y-22408322D01*
X29665736Y-22308898D01*
X29548829Y-22260473D01*
X29500403Y-22240414D01*
X29500401Y-22240413D01*
X29500400Y-22240413D01*
X29412045Y-22222838D01*
X29324881Y-22205500D01*
X29324879Y-22205500D01*
X29145921Y-22205500D01*
X29145918Y-22205500D01*
X29015171Y-22231507D01*
X28970400Y-22240413D01*
X28970399Y-22240413D01*
X28970396Y-22240414D01*
X28866923Y-22283275D01*
X28820047Y-22302692D01*
X28805062Y-22308899D01*
X28656269Y-22408319D01*
X28656262Y-22408324D01*
X28529724Y-22534862D01*
X28529719Y-22534869D01*
X28430299Y-22683662D01*
X28361814Y-22848996D01*
X28326900Y-23024518D01*
X27579463Y-23024518D01*
X27495927Y-22749137D01*
X27356487Y-22412500D01*
X27184722Y-22091151D01*
X27137405Y-22020336D01*
X26982290Y-21788189D01*
X26932894Y-21728000D01*
X26751131Y-21506520D01*
X26751114Y-21506502D01*
X26493497Y-21248885D01*
X26493479Y-21248868D01*
X26260983Y-21058064D01*
X26211815Y-21017713D01*
X26211814Y-21017712D01*
X26211810Y-21017709D01*
X25908851Y-20815279D01*
X25800421Y-20757322D01*
X25763564Y-20737621D01*
X25712917Y-20687870D01*
X25697207Y-20618633D01*
X25721423Y-20551894D01*
X25777877Y-20508842D01*
X25822961Y-20500500D01*
X35889660Y-20500500D01*
X35957781Y-20520502D01*
G37*
G04 #@! TD.AperFunction*
M02*
