%TF.GenerationSoftware,KiCad,Pcbnew,9.0.2*%
%TF.CreationDate,2025-06-16T10:28:30-04:00*%
%TF.ProjectId,avionicsboard,6176696f-6e69-4637-9362-6f6172642e6b,rev?*%
%TF.SameCoordinates,Original*%
%TF.FileFunction,Drillmap*%
%TF.FilePolarity,Positive*%
%FSLAX45Y45*%
G04 Gerber Fmt 4.5, Leading zero omitted, Abs format (unit mm)*
G04 Created by KiCad (PCBNEW 9.0.2) date 2025-06-16 10:28:30*
%MOMM*%
%LPD*%
G01*
G04 APERTURE LIST*
%ADD10C,0.100000*%
%ADD11C,0.200000*%
%ADD12C,0.120000*%
%ADD13C,0.140000*%
%ADD14C,0.320000*%
G04 APERTURE END LIST*
D10*
X2400000Y-7000000D02*
G75*
G02*
X2000000Y-6600000I0J400000D01*
G01*
X2400000Y-2000000D02*
X6600000Y-2000000D01*
X2000000Y-2400000D02*
G75*
G02*
X2400000Y-2000000I400000J0D01*
G01*
X7000000Y-2400000D02*
X7000000Y-6600000D01*
X6600000Y-7000000D02*
X2400000Y-7000000D01*
X6600000Y-2000000D02*
G75*
G02*
X7000000Y-2400000I0J-400000D01*
G01*
X7000000Y-6600000D02*
G75*
G02*
X6600000Y-7000000I-400000J0D01*
G01*
X2000000Y-6600000D02*
X2000000Y-2400000D01*
D11*
D10*
X2139000Y-6203000D02*
X2179000Y-6243000D01*
X2179000Y-6203000D02*
X2139000Y-6243000D01*
X2266000Y-6203000D02*
X2306000Y-6243000D01*
X2306000Y-6203000D02*
X2266000Y-6243000D01*
X2647000Y-5187000D02*
X2687000Y-5227000D01*
X2687000Y-5187000D02*
X2647000Y-5227000D01*
X2746850Y-6252050D02*
X2786850Y-6292050D01*
X2786850Y-6252050D02*
X2746850Y-6292050D01*
X2774000Y-5187000D02*
X2814000Y-5227000D01*
X2814000Y-5187000D02*
X2774000Y-5227000D01*
X2901000Y-5187000D02*
X2941000Y-5227000D01*
X2941000Y-5187000D02*
X2901000Y-5227000D01*
X2903540Y-2291400D02*
X2943540Y-2331400D01*
X2943540Y-2291400D02*
X2903540Y-2331400D01*
X2903540Y-2393000D02*
X2943540Y-2433000D01*
X2943540Y-2393000D02*
X2903540Y-2433000D01*
X2903540Y-2494600D02*
X2943540Y-2534600D01*
X2943540Y-2494600D02*
X2903540Y-2534600D01*
X2926400Y-6228400D02*
X2966400Y-6268400D01*
X2966400Y-6228400D02*
X2926400Y-6268400D01*
X3028000Y-6711000D02*
X3068000Y-6751000D01*
X3068000Y-6711000D02*
X3028000Y-6751000D01*
X3078800Y-6876100D02*
X3118800Y-6916100D01*
X3118800Y-6876100D02*
X3078800Y-6916100D01*
X3155000Y-6711000D02*
X3195000Y-6751000D01*
X3195000Y-6711000D02*
X3155000Y-6751000D01*
X3221900Y-4688300D02*
X3261900Y-4728300D01*
X3261900Y-4688300D02*
X3221900Y-4728300D01*
X3221900Y-4790760D02*
X3261900Y-4830760D01*
X3261900Y-4790760D02*
X3221900Y-4830760D01*
X3221900Y-4891500D02*
X3261900Y-4931500D01*
X3261900Y-4891500D02*
X3221900Y-4931500D01*
X3282000Y-6711000D02*
X3322000Y-6751000D01*
X3322000Y-6711000D02*
X3282000Y-6751000D01*
X3332800Y-4552000D02*
X3372800Y-4592000D01*
X3372800Y-4552000D02*
X3332800Y-4592000D01*
X3339880Y-3081880D02*
X3379880Y-3121880D01*
X3379880Y-3081880D02*
X3339880Y-3121880D01*
X3368360Y-3223580D02*
X3408360Y-3263580D01*
X3408360Y-3223580D02*
X3368360Y-3263580D01*
X3383600Y-5415600D02*
X3423600Y-5455600D01*
X3423600Y-5415600D02*
X3383600Y-5455600D01*
X3391220Y-4391980D02*
X3431220Y-4431980D01*
X3431220Y-4391980D02*
X3391220Y-4431980D01*
X3414080Y-5263200D02*
X3454080Y-5303200D01*
X3454080Y-5263200D02*
X3414080Y-5303200D01*
X3561400Y-4211640D02*
X3601400Y-4251640D01*
X3601400Y-4211640D02*
X3561400Y-4251640D01*
X3583390Y-4459690D02*
X3623390Y-4499690D01*
X3623390Y-4459690D02*
X3583390Y-4499690D01*
X3629980Y-2126300D02*
X3669980Y-2166300D01*
X3669980Y-2126300D02*
X3629980Y-2166300D01*
X3675700Y-5733100D02*
X3715700Y-5773100D01*
X3715700Y-5733100D02*
X3675700Y-5773100D01*
X3675700Y-5860100D02*
X3715700Y-5900100D01*
X3715700Y-5860100D02*
X3675700Y-5900100D01*
X3675700Y-5987100D02*
X3715700Y-6027100D01*
X3715700Y-5987100D02*
X3675700Y-6027100D01*
X3708720Y-4679000D02*
X3748720Y-4719000D01*
X3748720Y-4679000D02*
X3708720Y-4719000D01*
X3731580Y-2126300D02*
X3771580Y-2166300D01*
X3771580Y-2126300D02*
X3731580Y-2166300D01*
X3739200Y-5542600D02*
X3779200Y-5582600D01*
X3779200Y-5542600D02*
X3739200Y-5582600D01*
X3764600Y-3167700D02*
X3804600Y-3207700D01*
X3804600Y-3167700D02*
X3764600Y-3207700D01*
X3764600Y-4577400D02*
X3804600Y-4617400D01*
X3804600Y-4577400D02*
X3764600Y-4617400D01*
X3776640Y-6872900D02*
X3816640Y-6912900D01*
X3816640Y-6872900D02*
X3776640Y-6912900D01*
X3790000Y-3282000D02*
X3830000Y-3322000D01*
X3830000Y-3282000D02*
X3790000Y-3322000D01*
X3790000Y-6711000D02*
X3830000Y-6751000D01*
X3830000Y-6711000D02*
X3790000Y-6751000D01*
X3833180Y-2126300D02*
X3873180Y-2166300D01*
X3873180Y-2126300D02*
X3833180Y-2166300D01*
X3858580Y-2593660D02*
X3898580Y-2633660D01*
X3898580Y-2593660D02*
X3858580Y-2633660D01*
X3861120Y-4691700D02*
X3901120Y-4731700D01*
X3901120Y-4691700D02*
X3861120Y-4731700D01*
X3866200Y-5529900D02*
X3906200Y-5569900D01*
X3906200Y-5529900D02*
X3866200Y-5569900D01*
X3894140Y-2908620D02*
X3934140Y-2948620D01*
X3934140Y-2908620D02*
X3894140Y-2948620D01*
X3929700Y-4285320D02*
X3969700Y-4325320D01*
X3969700Y-4285320D02*
X3929700Y-4325320D01*
X3934780Y-2126300D02*
X3974780Y-2166300D01*
X3974780Y-2126300D02*
X3934780Y-2166300D01*
X3939860Y-4414840D02*
X3979860Y-4454840D01*
X3979860Y-4414840D02*
X3939860Y-4454840D01*
X3942400Y-5606100D02*
X3982400Y-5646100D01*
X3982400Y-5606100D02*
X3942400Y-5646100D01*
X3980500Y-4188200D02*
X4020500Y-4228200D01*
X4020500Y-4188200D02*
X3980500Y-4228200D01*
X4018600Y-6672900D02*
X4058600Y-6712900D01*
X4058600Y-6672900D02*
X4018600Y-6712900D01*
X4044000Y-2139000D02*
X4084000Y-2179000D01*
X4084000Y-2139000D02*
X4044000Y-2179000D01*
X4137980Y-2433640D02*
X4177980Y-2473640D01*
X4177980Y-2433640D02*
X4137980Y-2473640D01*
X4137980Y-2530160D02*
X4177980Y-2570160D01*
X4177980Y-2530160D02*
X4137980Y-2570160D01*
X4137980Y-2631760D02*
X4177980Y-2671760D01*
X4177980Y-2631760D02*
X4137980Y-2671760D01*
X4171000Y-2139000D02*
X4211000Y-2179000D01*
X4211000Y-2139000D02*
X4171000Y-2179000D01*
X4171000Y-5771200D02*
X4211000Y-5811200D01*
X4211000Y-5771200D02*
X4171000Y-5811200D01*
X4171000Y-5898200D02*
X4211000Y-5938200D01*
X4211000Y-5898200D02*
X4171000Y-5938200D01*
X4171000Y-6025200D02*
X4211000Y-6065200D01*
X4211000Y-6025200D02*
X4171000Y-6065200D01*
X4183700Y-3828100D02*
X4223700Y-3868100D01*
X4223700Y-3828100D02*
X4183700Y-3868100D01*
X4209100Y-3459800D02*
X4249100Y-3499800D01*
X4249100Y-3459800D02*
X4209100Y-3499800D01*
X4234500Y-6901500D02*
X4274500Y-6941500D01*
X4274500Y-6901500D02*
X4234500Y-6941500D01*
X4239580Y-2433640D02*
X4279580Y-2473640D01*
X4279580Y-2433640D02*
X4239580Y-2473640D01*
X4239580Y-2530160D02*
X4279580Y-2570160D01*
X4279580Y-2530160D02*
X4239580Y-2570160D01*
X4239580Y-2631760D02*
X4279580Y-2671760D01*
X4279580Y-2631760D02*
X4239580Y-2671760D01*
X4247200Y-5415600D02*
X4287200Y-5455600D01*
X4287200Y-5415600D02*
X4247200Y-5455600D01*
X4272600Y-3116900D02*
X4312600Y-3156900D01*
X4312600Y-3116900D02*
X4272600Y-3156900D01*
X4272600Y-4872040D02*
X4312600Y-4912040D01*
X4312600Y-4872040D02*
X4272600Y-4912040D01*
X4285300Y-3536000D02*
X4325300Y-3576000D01*
X4325300Y-3536000D02*
X4285300Y-3576000D01*
X4298000Y-2139000D02*
X4338000Y-2179000D01*
X4338000Y-2139000D02*
X4298000Y-2179000D01*
X4336100Y-3383600D02*
X4376100Y-3423600D01*
X4376100Y-3383600D02*
X4336100Y-3423600D01*
X4364040Y-2631760D02*
X4404040Y-2671760D01*
X4404040Y-2631760D02*
X4364040Y-2671760D01*
X4374200Y-6901500D02*
X4414200Y-6941500D01*
X4414200Y-6901500D02*
X4374200Y-6941500D01*
X4399600Y-4783140D02*
X4439600Y-4823140D01*
X4439600Y-4783140D02*
X4399600Y-4823140D01*
X4412300Y-4082100D02*
X4452300Y-4122100D01*
X4452300Y-4082100D02*
X4412300Y-4122100D01*
X4425000Y-5441000D02*
X4465000Y-5481000D01*
X4465000Y-5441000D02*
X4425000Y-5481000D01*
X4437700Y-3510600D02*
X4477700Y-3550600D01*
X4477700Y-3510600D02*
X4437700Y-3550600D01*
X4450400Y-4450400D02*
X4490400Y-4490400D01*
X4490400Y-4450400D02*
X4450400Y-4490400D01*
X4513900Y-4783140D02*
X4553900Y-4823140D01*
X4553900Y-4783140D02*
X4513900Y-4823140D01*
X4526600Y-6025200D02*
X4566600Y-6065200D01*
X4566600Y-6025200D02*
X4526600Y-6065200D01*
X4552000Y-2128840D02*
X4592000Y-2168840D01*
X4592000Y-2128840D02*
X4552000Y-2168840D01*
X4552000Y-3510600D02*
X4592000Y-3550600D01*
X4592000Y-3510600D02*
X4552000Y-3550600D01*
X4552000Y-5441000D02*
X4592000Y-5481000D01*
X4592000Y-5441000D02*
X4552000Y-5481000D01*
X4586400Y-5259500D02*
X4626400Y-5299500D01*
X4626400Y-5259500D02*
X4586400Y-5299500D01*
X4602800Y-2865440D02*
X4642800Y-2905440D01*
X4642800Y-2865440D02*
X4602800Y-2905440D01*
X4679000Y-2128840D02*
X4719000Y-2168840D01*
X4719000Y-2128840D02*
X4679000Y-2168840D01*
X4679000Y-4971100D02*
X4719000Y-5011100D01*
X4719000Y-4971100D02*
X4679000Y-5011100D01*
X4679000Y-5187000D02*
X4719000Y-5227000D01*
X4719000Y-5187000D02*
X4679000Y-5227000D01*
X4679000Y-5314000D02*
X4719000Y-5354000D01*
X4719000Y-5314000D02*
X4679000Y-5354000D01*
X4679000Y-5441000D02*
X4719000Y-5481000D01*
X4719000Y-5441000D02*
X4679000Y-5481000D01*
X4717100Y-3373900D02*
X4757100Y-3413900D01*
X4757100Y-3373900D02*
X4717100Y-3413900D01*
X4780600Y-4971100D02*
X4820600Y-5011100D01*
X4820600Y-4971100D02*
X4780600Y-5011100D01*
X4793300Y-3624900D02*
X4833300Y-3664900D01*
X4833300Y-3624900D02*
X4793300Y-3664900D01*
X4793300Y-5504500D02*
X4833300Y-5544500D01*
X4833300Y-5504500D02*
X4793300Y-5544500D01*
X4793300Y-5618800D02*
X4833300Y-5658800D01*
X4833300Y-5618800D02*
X4793300Y-5658800D01*
X4795840Y-3754440D02*
X4835840Y-3794440D01*
X4835840Y-3754440D02*
X4795840Y-3794440D01*
X4806000Y-2128840D02*
X4846000Y-2168840D01*
X4846000Y-2128840D02*
X4806000Y-2168840D01*
X4806000Y-5187000D02*
X4846000Y-5227000D01*
X4846000Y-5187000D02*
X4806000Y-5227000D01*
X4806000Y-5314000D02*
X4846000Y-5354000D01*
X4846000Y-5314000D02*
X4806000Y-5354000D01*
X4806000Y-6838000D02*
X4846000Y-6878000D01*
X4846000Y-6838000D02*
X4806000Y-6878000D01*
X4844100Y-4005900D02*
X4884100Y-4045900D01*
X4884100Y-4005900D02*
X4844100Y-4045900D01*
X4882200Y-4971100D02*
X4922200Y-5011100D01*
X4922200Y-4971100D02*
X4882200Y-5011100D01*
X4907600Y-5136200D02*
X4947600Y-5176200D01*
X4947600Y-5136200D02*
X4907600Y-5176200D01*
X4933000Y-6838000D02*
X4973000Y-6878000D01*
X4973000Y-6838000D02*
X4933000Y-6878000D01*
X4935540Y-2128840D02*
X4975540Y-2168840D01*
X4975540Y-2128840D02*
X4935540Y-2168840D01*
X4971100Y-2799400D02*
X5011100Y-2839400D01*
X5011100Y-2799400D02*
X4971100Y-2839400D01*
X4983800Y-3101660D02*
X5023800Y-3141660D01*
X5023800Y-3101660D02*
X4983800Y-3141660D01*
X5009200Y-5225100D02*
X5049200Y-5265100D01*
X5049200Y-5225100D02*
X5009200Y-5265100D01*
X5052380Y-3373440D02*
X5092380Y-3413440D01*
X5092380Y-3373440D02*
X5052380Y-3413440D01*
X5060000Y-2128840D02*
X5100000Y-2168840D01*
X5100000Y-2128840D02*
X5060000Y-2168840D01*
X5060000Y-5441000D02*
X5100000Y-5481000D01*
X5100000Y-5441000D02*
X5060000Y-5481000D01*
X5060000Y-5568000D02*
X5100000Y-5608000D01*
X5100000Y-5568000D02*
X5060000Y-5608000D01*
X5060000Y-6838000D02*
X5100000Y-6878000D01*
X5100000Y-6838000D02*
X5060000Y-6878000D01*
X5098100Y-3980500D02*
X5138100Y-4020500D01*
X5138100Y-3980500D02*
X5098100Y-4020500D01*
X5098100Y-4983800D02*
X5138100Y-5023800D01*
X5138100Y-4983800D02*
X5098100Y-5023800D01*
X5148900Y-2913700D02*
X5188900Y-2953700D01*
X5188900Y-2913700D02*
X5148900Y-2953700D01*
X5187000Y-6076000D02*
X5227000Y-6116000D01*
X5227000Y-6076000D02*
X5187000Y-6116000D01*
X5187000Y-6203000D02*
X5227000Y-6243000D01*
X5227000Y-6203000D02*
X5187000Y-6243000D01*
X5237800Y-5695000D02*
X5277800Y-5735000D01*
X5277800Y-5695000D02*
X5237800Y-5735000D01*
X5237800Y-5974400D02*
X5277800Y-6014400D01*
X5277800Y-5974400D02*
X5237800Y-6014400D01*
X5275900Y-3688400D02*
X5315900Y-3728400D01*
X5315900Y-3688400D02*
X5275900Y-3728400D01*
X5314000Y-6076000D02*
X5354000Y-6116000D01*
X5354000Y-6076000D02*
X5314000Y-6116000D01*
X5314000Y-6203000D02*
X5354000Y-6243000D01*
X5354000Y-6203000D02*
X5314000Y-6243000D01*
X5441000Y-2901000D02*
X5481000Y-2941000D01*
X5481000Y-2901000D02*
X5441000Y-2941000D01*
X5504500Y-4564700D02*
X5544500Y-4604700D01*
X5544500Y-4564700D02*
X5504500Y-4604700D01*
X5568000Y-2128840D02*
X5608000Y-2168840D01*
X5608000Y-2128840D02*
X5568000Y-2168840D01*
X5568000Y-2901000D02*
X5608000Y-2941000D01*
X5608000Y-2901000D02*
X5568000Y-2941000D01*
X5568000Y-3028000D02*
X5608000Y-3068000D01*
X5608000Y-3028000D02*
X5568000Y-3068000D01*
X5568000Y-3155000D02*
X5608000Y-3195000D01*
X5608000Y-3155000D02*
X5568000Y-3195000D01*
X5568000Y-6838000D02*
X5608000Y-6878000D01*
X5608000Y-6838000D02*
X5568000Y-6878000D01*
X5669600Y-4082100D02*
X5709600Y-4122100D01*
X5709600Y-4082100D02*
X5669600Y-4122100D01*
X5695000Y-2128840D02*
X5735000Y-2168840D01*
X5735000Y-2128840D02*
X5695000Y-2168840D01*
X5695000Y-2901000D02*
X5735000Y-2941000D01*
X5735000Y-2901000D02*
X5695000Y-2941000D01*
X5695000Y-3028000D02*
X5735000Y-3068000D01*
X5735000Y-3028000D02*
X5695000Y-3068000D01*
X5695000Y-3155000D02*
X5735000Y-3195000D01*
X5735000Y-3155000D02*
X5695000Y-3195000D01*
X5695000Y-6838000D02*
X5735000Y-6878000D01*
X5735000Y-6838000D02*
X5695000Y-6878000D01*
X5783900Y-3429320D02*
X5823900Y-3469320D01*
X5823900Y-3429320D02*
X5783900Y-3469320D01*
X5822000Y-2128840D02*
X5862000Y-2168840D01*
X5862000Y-2128840D02*
X5822000Y-2168840D01*
X5822000Y-2901000D02*
X5862000Y-2941000D01*
X5862000Y-2901000D02*
X5822000Y-2941000D01*
X5822000Y-3028000D02*
X5862000Y-3068000D01*
X5862000Y-3028000D02*
X5822000Y-3068000D01*
X5822000Y-4171000D02*
X5862000Y-4211000D01*
X5862000Y-4171000D02*
X5822000Y-4211000D01*
X5822000Y-4298000D02*
X5862000Y-4338000D01*
X5862000Y-4298000D02*
X5822000Y-4338000D01*
X5822000Y-6838000D02*
X5862000Y-6878000D01*
X5862000Y-6838000D02*
X5822000Y-6878000D01*
X5847400Y-4869500D02*
X5887400Y-4909500D01*
X5887400Y-4869500D02*
X5847400Y-4909500D01*
X5872800Y-4996500D02*
X5912800Y-5036500D01*
X5912800Y-4996500D02*
X5872800Y-5036500D01*
X5949000Y-2901000D02*
X5989000Y-2941000D01*
X5989000Y-2901000D02*
X5949000Y-2941000D01*
X5949000Y-3028000D02*
X5989000Y-3068000D01*
X5989000Y-3028000D02*
X5949000Y-3068000D01*
X5949000Y-4171000D02*
X5989000Y-4211000D01*
X5989000Y-4171000D02*
X5949000Y-4211000D01*
X5949000Y-4298000D02*
X5989000Y-4338000D01*
X5989000Y-4298000D02*
X5949000Y-4338000D01*
X5949000Y-6838000D02*
X5989000Y-6878000D01*
X5989000Y-6838000D02*
X5949000Y-6878000D01*
X6076000Y-4171000D02*
X6116000Y-4211000D01*
X6116000Y-4171000D02*
X6076000Y-4211000D01*
X6076000Y-5949000D02*
X6116000Y-5989000D01*
X6116000Y-5949000D02*
X6076000Y-5989000D01*
X6076000Y-6076000D02*
X6116000Y-6116000D01*
X6116000Y-6076000D02*
X6076000Y-6116000D01*
X6076000Y-6203000D02*
X6116000Y-6243000D01*
X6116000Y-6203000D02*
X6076000Y-6243000D01*
X6203000Y-4044000D02*
X6243000Y-4084000D01*
X6243000Y-4044000D02*
X6203000Y-4084000D01*
X6203000Y-5949000D02*
X6243000Y-5989000D01*
X6243000Y-5949000D02*
X6203000Y-5989000D01*
X6203000Y-6076000D02*
X6243000Y-6116000D01*
X6243000Y-6076000D02*
X6203000Y-6116000D01*
X6203000Y-6203000D02*
X6243000Y-6243000D01*
X6243000Y-6203000D02*
X6203000Y-6243000D01*
X6246180Y-5367340D02*
X6286180Y-5407340D01*
X6286180Y-5367340D02*
X6246180Y-5407340D01*
X6330000Y-4044000D02*
X6370000Y-4084000D01*
X6370000Y-4044000D02*
X6330000Y-4084000D01*
X6330000Y-6203000D02*
X6370000Y-6243000D01*
X6370000Y-6203000D02*
X6330000Y-6243000D01*
X6457000Y-4044000D02*
X6497000Y-4084000D01*
X6497000Y-4044000D02*
X6457000Y-4084000D01*
X6584000Y-4044000D02*
X6624000Y-4084000D01*
X6624000Y-4044000D02*
X6584000Y-4084000D01*
X6606400Y-3266300D02*
X6646400Y-3306300D01*
X6646400Y-3266300D02*
X6606400Y-3306300D01*
X6700600Y-5087700D02*
X6740600Y-5127700D01*
X6740600Y-5087700D02*
X6700600Y-5127700D01*
X6711000Y-4044000D02*
X6751000Y-4084000D01*
X6751000Y-4044000D02*
X6711000Y-4084000D01*
X6838000Y-3269300D02*
X6878000Y-3309300D01*
X6878000Y-3269300D02*
X6838000Y-3309300D01*
X6838000Y-3409000D02*
X6878000Y-3449000D01*
X6878000Y-3409000D02*
X6838000Y-3449000D01*
X6838000Y-3536000D02*
X6878000Y-3576000D01*
X6878000Y-3536000D02*
X6838000Y-3576000D01*
X6838000Y-4044000D02*
X6878000Y-4084000D01*
X6878000Y-4044000D02*
X6838000Y-4084000D01*
X6838000Y-5072700D02*
X6878000Y-5112700D01*
X6878000Y-5072700D02*
X6838000Y-5112700D01*
X6838000Y-5441000D02*
X6878000Y-5481000D01*
X6878000Y-5441000D02*
X6838000Y-5481000D01*
X6838000Y-5568000D02*
X6878000Y-5608000D01*
X6878000Y-5568000D02*
X6838000Y-5608000D01*
X6838000Y-5695000D02*
X6878000Y-5735000D01*
X6878000Y-5695000D02*
X6838000Y-5735000D01*
X6838000Y-5822000D02*
X6878000Y-5862000D01*
X6878000Y-5822000D02*
X6838000Y-5862000D01*
X2185000Y-2400000D02*
G75*
G02*
X2135000Y-2400000I-25000J0D01*
G01*
X2135000Y-2400000D02*
G75*
G02*
X2185000Y-2400000I25000J0D01*
G01*
X2185000Y-6600000D02*
G75*
G02*
X2135000Y-6600000I-25000J0D01*
G01*
X2135000Y-6600000D02*
G75*
G02*
X2185000Y-6600000I25000J0D01*
G01*
X2255294Y-2230294D02*
G75*
G02*
X2205294Y-2230294I-25000J0D01*
G01*
X2205294Y-2230294D02*
G75*
G02*
X2255294Y-2230294I25000J0D01*
G01*
X2255294Y-2569706D02*
G75*
G02*
X2205294Y-2569706I-25000J0D01*
G01*
X2205294Y-2569706D02*
G75*
G02*
X2255294Y-2569706I25000J0D01*
G01*
X2255294Y-6430294D02*
G75*
G02*
X2205294Y-6430294I-25000J0D01*
G01*
X2205294Y-6430294D02*
G75*
G02*
X2255294Y-6430294I25000J0D01*
G01*
X2255294Y-6769706D02*
G75*
G02*
X2205294Y-6769706I-25000J0D01*
G01*
X2205294Y-6769706D02*
G75*
G02*
X2255294Y-6769706I25000J0D01*
G01*
X2425000Y-2160000D02*
G75*
G02*
X2375000Y-2160000I-25000J0D01*
G01*
X2375000Y-2160000D02*
G75*
G02*
X2425000Y-2160000I25000J0D01*
G01*
X2425000Y-2640000D02*
G75*
G02*
X2375000Y-2640000I-25000J0D01*
G01*
X2375000Y-2640000D02*
G75*
G02*
X2425000Y-2640000I25000J0D01*
G01*
X2425000Y-6360000D02*
G75*
G02*
X2375000Y-6360000I-25000J0D01*
G01*
X2375000Y-6360000D02*
G75*
G02*
X2425000Y-6360000I25000J0D01*
G01*
X2425000Y-6840000D02*
G75*
G02*
X2375000Y-6840000I-25000J0D01*
G01*
X2375000Y-6840000D02*
G75*
G02*
X2425000Y-6840000I25000J0D01*
G01*
X2594706Y-2230294D02*
G75*
G02*
X2544706Y-2230294I-25000J0D01*
G01*
X2544706Y-2230294D02*
G75*
G02*
X2594706Y-2230294I25000J0D01*
G01*
X2594706Y-2569706D02*
G75*
G02*
X2544706Y-2569706I-25000J0D01*
G01*
X2544706Y-2569706D02*
G75*
G02*
X2594706Y-2569706I25000J0D01*
G01*
X2594706Y-6430294D02*
G75*
G02*
X2544706Y-6430294I-25000J0D01*
G01*
X2544706Y-6430294D02*
G75*
G02*
X2594706Y-6430294I25000J0D01*
G01*
X2594706Y-6769706D02*
G75*
G02*
X2544706Y-6769706I-25000J0D01*
G01*
X2544706Y-6769706D02*
G75*
G02*
X2594706Y-6769706I25000J0D01*
G01*
X2665000Y-2400000D02*
G75*
G02*
X2615000Y-2400000I-25000J0D01*
G01*
X2615000Y-2400000D02*
G75*
G02*
X2665000Y-2400000I25000J0D01*
G01*
X2665000Y-6600000D02*
G75*
G02*
X2615000Y-6600000I-25000J0D01*
G01*
X2615000Y-6600000D02*
G75*
G02*
X2665000Y-6600000I25000J0D01*
G01*
X3062300Y-2514600D02*
G75*
G02*
X3012300Y-2514600I-25000J0D01*
G01*
X3012300Y-2514600D02*
G75*
G02*
X3062300Y-2514600I25000J0D01*
G01*
X3187300Y-2514600D02*
G75*
G02*
X3137300Y-2514600I-25000J0D01*
G01*
X3137300Y-2514600D02*
G75*
G02*
X3187300Y-2514600I25000J0D01*
G01*
X4673200Y-6477000D02*
G75*
G02*
X4623200Y-6477000I-25000J0D01*
G01*
X4623200Y-6477000D02*
G75*
G02*
X4673200Y-6477000I25000J0D01*
G01*
X4679200Y-2514600D02*
G75*
G02*
X4629200Y-2514600I-25000J0D01*
G01*
X4629200Y-2514600D02*
G75*
G02*
X4679200Y-2514600I25000J0D01*
G01*
X4798200Y-6477000D02*
G75*
G02*
X4748200Y-6477000I-25000J0D01*
G01*
X4748200Y-6477000D02*
G75*
G02*
X4798200Y-6477000I25000J0D01*
G01*
X4804200Y-2514600D02*
G75*
G02*
X4754200Y-2514600I-25000J0D01*
G01*
X4754200Y-2514600D02*
G75*
G02*
X4804200Y-2514600I25000J0D01*
G01*
X4923200Y-6477000D02*
G75*
G02*
X4873200Y-6477000I-25000J0D01*
G01*
X4873200Y-6477000D02*
G75*
G02*
X4923200Y-6477000I25000J0D01*
G01*
X4929200Y-2514600D02*
G75*
G02*
X4879200Y-2514600I-25000J0D01*
G01*
X4879200Y-2514600D02*
G75*
G02*
X4929200Y-2514600I25000J0D01*
G01*
X5048200Y-6477000D02*
G75*
G02*
X4998200Y-6477000I-25000J0D01*
G01*
X4998200Y-6477000D02*
G75*
G02*
X5048200Y-6477000I25000J0D01*
G01*
X5054200Y-2514600D02*
G75*
G02*
X5004200Y-2514600I-25000J0D01*
G01*
X5004200Y-2514600D02*
G75*
G02*
X5054200Y-2514600I25000J0D01*
G01*
X5593600Y-2514600D02*
G75*
G02*
X5543600Y-2514600I-25000J0D01*
G01*
X5543600Y-2514600D02*
G75*
G02*
X5593600Y-2514600I25000J0D01*
G01*
X5600300Y-6477000D02*
G75*
G02*
X5550300Y-6477000I-25000J0D01*
G01*
X5550300Y-6477000D02*
G75*
G02*
X5600300Y-6477000I25000J0D01*
G01*
X5718600Y-2514600D02*
G75*
G02*
X5668600Y-2514600I-25000J0D01*
G01*
X5668600Y-2514600D02*
G75*
G02*
X5718600Y-2514600I25000J0D01*
G01*
X5725300Y-6477000D02*
G75*
G02*
X5675300Y-6477000I-25000J0D01*
G01*
X5675300Y-6477000D02*
G75*
G02*
X5725300Y-6477000I25000J0D01*
G01*
X5843600Y-2514600D02*
G75*
G02*
X5793600Y-2514600I-25000J0D01*
G01*
X5793600Y-2514600D02*
G75*
G02*
X5843600Y-2514600I25000J0D01*
G01*
X5850300Y-6477000D02*
G75*
G02*
X5800300Y-6477000I-25000J0D01*
G01*
X5800300Y-6477000D02*
G75*
G02*
X5850300Y-6477000I25000J0D01*
G01*
X5968600Y-2514600D02*
G75*
G02*
X5918600Y-2514600I-25000J0D01*
G01*
X5918600Y-2514600D02*
G75*
G02*
X5968600Y-2514600I25000J0D01*
G01*
X5975300Y-6477000D02*
G75*
G02*
X5925300Y-6477000I-25000J0D01*
G01*
X5925300Y-6477000D02*
G75*
G02*
X5975300Y-6477000I25000J0D01*
G01*
X6385000Y-2400000D02*
G75*
G02*
X6335000Y-2400000I-25000J0D01*
G01*
X6335000Y-2400000D02*
G75*
G02*
X6385000Y-2400000I25000J0D01*
G01*
X6385000Y-6600000D02*
G75*
G02*
X6335000Y-6600000I-25000J0D01*
G01*
X6335000Y-6600000D02*
G75*
G02*
X6385000Y-6600000I25000J0D01*
G01*
X6455294Y-2230294D02*
G75*
G02*
X6405294Y-2230294I-25000J0D01*
G01*
X6405294Y-2230294D02*
G75*
G02*
X6455294Y-2230294I25000J0D01*
G01*
X6455294Y-2569706D02*
G75*
G02*
X6405294Y-2569706I-25000J0D01*
G01*
X6405294Y-2569706D02*
G75*
G02*
X6455294Y-2569706I25000J0D01*
G01*
X6455294Y-6430294D02*
G75*
G02*
X6405294Y-6430294I-25000J0D01*
G01*
X6405294Y-6430294D02*
G75*
G02*
X6455294Y-6430294I25000J0D01*
G01*
X6455294Y-6769706D02*
G75*
G02*
X6405294Y-6769706I-25000J0D01*
G01*
X6405294Y-6769706D02*
G75*
G02*
X6455294Y-6769706I25000J0D01*
G01*
X6502000Y-5492400D02*
G75*
G02*
X6452000Y-5492400I-25000J0D01*
G01*
X6452000Y-5492400D02*
G75*
G02*
X6502000Y-5492400I25000J0D01*
G01*
X6502000Y-5617400D02*
G75*
G02*
X6452000Y-5617400I-25000J0D01*
G01*
X6452000Y-5617400D02*
G75*
G02*
X6502000Y-5617400I25000J0D01*
G01*
X6502000Y-5742400D02*
G75*
G02*
X6452000Y-5742400I-25000J0D01*
G01*
X6452000Y-5742400D02*
G75*
G02*
X6502000Y-5742400I25000J0D01*
G01*
X6502000Y-5867400D02*
G75*
G02*
X6452000Y-5867400I-25000J0D01*
G01*
X6452000Y-5867400D02*
G75*
G02*
X6502000Y-5867400I25000J0D01*
G01*
X6625000Y-2160000D02*
G75*
G02*
X6575000Y-2160000I-25000J0D01*
G01*
X6575000Y-2160000D02*
G75*
G02*
X6625000Y-2160000I25000J0D01*
G01*
X6625000Y-2640000D02*
G75*
G02*
X6575000Y-2640000I-25000J0D01*
G01*
X6575000Y-2640000D02*
G75*
G02*
X6625000Y-2640000I25000J0D01*
G01*
X6625000Y-6360000D02*
G75*
G02*
X6575000Y-6360000I-25000J0D01*
G01*
X6575000Y-6360000D02*
G75*
G02*
X6625000Y-6360000I25000J0D01*
G01*
X6625000Y-6840000D02*
G75*
G02*
X6575000Y-6840000I-25000J0D01*
G01*
X6575000Y-6840000D02*
G75*
G02*
X6625000Y-6840000I25000J0D01*
G01*
X6794706Y-2230294D02*
G75*
G02*
X6744706Y-2230294I-25000J0D01*
G01*
X6744706Y-2230294D02*
G75*
G02*
X6794706Y-2230294I25000J0D01*
G01*
X6794706Y-2569706D02*
G75*
G02*
X6744706Y-2569706I-25000J0D01*
G01*
X6744706Y-2569706D02*
G75*
G02*
X6794706Y-2569706I25000J0D01*
G01*
X6794706Y-6430294D02*
G75*
G02*
X6744706Y-6430294I-25000J0D01*
G01*
X6744706Y-6430294D02*
G75*
G02*
X6794706Y-6430294I25000J0D01*
G01*
X6794706Y-6769706D02*
G75*
G02*
X6744706Y-6769706I-25000J0D01*
G01*
X6744706Y-6769706D02*
G75*
G02*
X6794706Y-6769706I25000J0D01*
G01*
X6865000Y-2400000D02*
G75*
G02*
X6815000Y-2400000I-25000J0D01*
G01*
X6815000Y-2400000D02*
G75*
G02*
X6865000Y-2400000I25000J0D01*
G01*
X6865000Y-6600000D02*
G75*
G02*
X6815000Y-6600000I-25000J0D01*
G01*
X6815000Y-6600000D02*
G75*
G02*
X6865000Y-6600000I25000J0D01*
G01*
X3136900Y-5269750D02*
X3136900Y-5334750D01*
X3104400Y-5302250D02*
X3169400Y-5302250D01*
X3136900Y-5396750D02*
X3136900Y-5461750D01*
X3104400Y-5429250D02*
X3169400Y-5429250D01*
X2281356Y-3057356D02*
X2281356Y-2986644D01*
X2210644Y-2986644D01*
X2210644Y-3057356D01*
X2281356Y-3057356D01*
X2281356Y-3311356D02*
X2281356Y-3240644D01*
X2210644Y-3240644D01*
X2210644Y-3311356D01*
X2281356Y-3311356D01*
X2281356Y-3565356D02*
X2281356Y-3494644D01*
X2210644Y-3494644D01*
X2210644Y-3565356D01*
X2281356Y-3565356D01*
X2281356Y-3819356D02*
X2281356Y-3748644D01*
X2210644Y-3748644D01*
X2210644Y-3819356D01*
X2281356Y-3819356D01*
X2281356Y-4073356D02*
X2281356Y-4002644D01*
X2210644Y-4002644D01*
X2210644Y-4073356D01*
X2281356Y-4073356D01*
X2281356Y-4327356D02*
X2281356Y-4256644D01*
X2210644Y-4256644D01*
X2210644Y-4327356D01*
X2281356Y-4327356D01*
X2281356Y-4581356D02*
X2281356Y-4510644D01*
X2210644Y-4510644D01*
X2210644Y-4581356D01*
X2281356Y-4581356D01*
X2281356Y-4835356D02*
X2281356Y-4764644D01*
X2210644Y-4764644D01*
X2210644Y-4835356D01*
X2281356Y-4835356D01*
X2535356Y-3057356D02*
X2535356Y-2986644D01*
X2464644Y-2986644D01*
X2464644Y-3057356D01*
X2535356Y-3057356D01*
X2535356Y-3311356D02*
X2535356Y-3240644D01*
X2464644Y-3240644D01*
X2464644Y-3311356D01*
X2535356Y-3311356D01*
X2535356Y-3565356D02*
X2535356Y-3494644D01*
X2464644Y-3494644D01*
X2464644Y-3565356D01*
X2535356Y-3565356D01*
X2535356Y-3819356D02*
X2535356Y-3748644D01*
X2464644Y-3748644D01*
X2464644Y-3819356D01*
X2535356Y-3819356D01*
X2535356Y-4073356D02*
X2535356Y-4002644D01*
X2464644Y-4002644D01*
X2464644Y-4073356D01*
X2535356Y-4073356D01*
X2535356Y-4327356D02*
X2535356Y-4256644D01*
X2464644Y-4256644D01*
X2464644Y-4327356D01*
X2535356Y-4327356D01*
X2535356Y-4581356D02*
X2535356Y-4510644D01*
X2464644Y-4510644D01*
X2464644Y-4581356D01*
X2535356Y-4581356D01*
X2535356Y-4835356D02*
X2535356Y-4764644D01*
X2464644Y-4764644D01*
X2464644Y-4835356D01*
X2535356Y-4835356D01*
X2789478Y-3060496D02*
X2789478Y-2989784D01*
X2718766Y-2989784D01*
X2718766Y-3060496D01*
X2789478Y-3060496D01*
X2789478Y-3314496D02*
X2789478Y-3243784D01*
X2718766Y-3243784D01*
X2718766Y-3314496D01*
X2789478Y-3314496D01*
X2789478Y-3568496D02*
X2789478Y-3497784D01*
X2718766Y-3497784D01*
X2718766Y-3568496D01*
X2789478Y-3568496D01*
X2789478Y-3822496D02*
X2789478Y-3751784D01*
X2718766Y-3751784D01*
X2718766Y-3822496D01*
X2789478Y-3822496D01*
X2789478Y-4076496D02*
X2789478Y-4005784D01*
X2718766Y-4005784D01*
X2718766Y-4076496D01*
X2789478Y-4076496D01*
X2789478Y-4330496D02*
X2789478Y-4259784D01*
X2718766Y-4259784D01*
X2718766Y-4330496D01*
X2789478Y-4330496D01*
X2789478Y-4584496D02*
X2789478Y-4513784D01*
X2718766Y-4513784D01*
X2718766Y-4584496D01*
X2789478Y-4584496D01*
X2789478Y-4838496D02*
X2789478Y-4767784D01*
X2718766Y-4767784D01*
X2718766Y-4838496D01*
X2789478Y-4838496D01*
D12*
X2546350Y-5578150D02*
X2606350Y-5518150D01*
X2546350Y-5458150D01*
X2486350Y-5518150D01*
X2546350Y-5578150D01*
X2546350Y-5928150D02*
X2606350Y-5868150D01*
X2546350Y-5808150D01*
X2486350Y-5868150D01*
X2546350Y-5928150D01*
X6811700Y-3088800D02*
X6871700Y-3028800D01*
X6811700Y-2968800D01*
X6751700Y-3028800D01*
X6811700Y-3088800D01*
X6811700Y-3863800D02*
X6871700Y-3803800D01*
X6811700Y-3743800D01*
X6751700Y-3803800D01*
X6811700Y-3863800D01*
D13*
X6361700Y-2973800D02*
X6501700Y-3113800D01*
X6501700Y-2973800D02*
X6361700Y-3113800D01*
X6501700Y-3043800D02*
G75*
G02*
X6361700Y-3043800I-70000J0D01*
G01*
X6361700Y-3043800D02*
G75*
G02*
X6501700Y-3043800I70000J0D01*
G01*
X6361700Y-3718800D02*
X6501700Y-3858800D01*
X6501700Y-3718800D02*
X6361700Y-3858800D01*
X6501700Y-3788800D02*
G75*
G02*
X6361700Y-3788800I-70000J0D01*
G01*
X6361700Y-3788800D02*
G75*
G02*
X6501700Y-3788800I70000J0D01*
G01*
D14*
X2240000Y-2240000D02*
X2560000Y-2560000D01*
X2560000Y-2240000D02*
X2240000Y-2560000D01*
X2400000Y-2240000D02*
X2400000Y-2560000D01*
X2240000Y-2400000D02*
X2560000Y-2400000D01*
X2240000Y-6440000D02*
X2560000Y-6760000D01*
X2560000Y-6440000D02*
X2240000Y-6760000D01*
X2400000Y-6440000D02*
X2400000Y-6760000D01*
X2240000Y-6600000D02*
X2560000Y-6600000D01*
X6440000Y-2240000D02*
X6760000Y-2560000D01*
X6760000Y-2240000D02*
X6440000Y-2560000D01*
X6600000Y-2240000D02*
X6600000Y-2560000D01*
X6440000Y-2400000D02*
X6760000Y-2400000D01*
X6440000Y-6440000D02*
X6760000Y-6760000D01*
X6760000Y-6440000D02*
X6440000Y-6760000D01*
X6600000Y-6440000D02*
X6600000Y-6760000D01*
X6440000Y-6600000D02*
X6760000Y-6600000D01*
D11*
X2255777Y-7316484D02*
X2255777Y-7116484D01*
X2255777Y-7116484D02*
X2303396Y-7116484D01*
X2303396Y-7116484D02*
X2331967Y-7126008D01*
X2331967Y-7126008D02*
X2351015Y-7145055D01*
X2351015Y-7145055D02*
X2360539Y-7164103D01*
X2360539Y-7164103D02*
X2370063Y-7202198D01*
X2370063Y-7202198D02*
X2370063Y-7230769D01*
X2370063Y-7230769D02*
X2360539Y-7268865D01*
X2360539Y-7268865D02*
X2351015Y-7287912D01*
X2351015Y-7287912D02*
X2331967Y-7306960D01*
X2331967Y-7306960D02*
X2303396Y-7316484D01*
X2303396Y-7316484D02*
X2255777Y-7316484D01*
X2455777Y-7316484D02*
X2455777Y-7183150D01*
X2455777Y-7221246D02*
X2465301Y-7202198D01*
X2465301Y-7202198D02*
X2474824Y-7192674D01*
X2474824Y-7192674D02*
X2493872Y-7183150D01*
X2493872Y-7183150D02*
X2512920Y-7183150D01*
X2579586Y-7316484D02*
X2579586Y-7183150D01*
X2579586Y-7116484D02*
X2570063Y-7126008D01*
X2570063Y-7126008D02*
X2579586Y-7135531D01*
X2579586Y-7135531D02*
X2589110Y-7126008D01*
X2589110Y-7126008D02*
X2579586Y-7116484D01*
X2579586Y-7116484D02*
X2579586Y-7135531D01*
X2703396Y-7316484D02*
X2684348Y-7306960D01*
X2684348Y-7306960D02*
X2674824Y-7287912D01*
X2674824Y-7287912D02*
X2674824Y-7116484D01*
X2808158Y-7316484D02*
X2789110Y-7306960D01*
X2789110Y-7306960D02*
X2779586Y-7287912D01*
X2779586Y-7287912D02*
X2779586Y-7116484D01*
X3036729Y-7316484D02*
X3036729Y-7116484D01*
X3036729Y-7116484D02*
X3103396Y-7259341D01*
X3103396Y-7259341D02*
X3170062Y-7116484D01*
X3170062Y-7116484D02*
X3170062Y-7316484D01*
X3351015Y-7316484D02*
X3351015Y-7211722D01*
X3351015Y-7211722D02*
X3341491Y-7192674D01*
X3341491Y-7192674D02*
X3322443Y-7183150D01*
X3322443Y-7183150D02*
X3284348Y-7183150D01*
X3284348Y-7183150D02*
X3265301Y-7192674D01*
X3351015Y-7306960D02*
X3331967Y-7316484D01*
X3331967Y-7316484D02*
X3284348Y-7316484D01*
X3284348Y-7316484D02*
X3265301Y-7306960D01*
X3265301Y-7306960D02*
X3255777Y-7287912D01*
X3255777Y-7287912D02*
X3255777Y-7268865D01*
X3255777Y-7268865D02*
X3265301Y-7249817D01*
X3265301Y-7249817D02*
X3284348Y-7240293D01*
X3284348Y-7240293D02*
X3331967Y-7240293D01*
X3331967Y-7240293D02*
X3351015Y-7230769D01*
X3446253Y-7183150D02*
X3446253Y-7383150D01*
X3446253Y-7192674D02*
X3465301Y-7183150D01*
X3465301Y-7183150D02*
X3503396Y-7183150D01*
X3503396Y-7183150D02*
X3522443Y-7192674D01*
X3522443Y-7192674D02*
X3531967Y-7202198D01*
X3531967Y-7202198D02*
X3541491Y-7221246D01*
X3541491Y-7221246D02*
X3541491Y-7278388D01*
X3541491Y-7278388D02*
X3531967Y-7297436D01*
X3531967Y-7297436D02*
X3522443Y-7306960D01*
X3522443Y-7306960D02*
X3503396Y-7316484D01*
X3503396Y-7316484D02*
X3465301Y-7316484D01*
X3465301Y-7316484D02*
X3446253Y-7306960D01*
X3627205Y-7297436D02*
X3636729Y-7306960D01*
X3636729Y-7306960D02*
X3627205Y-7316484D01*
X3627205Y-7316484D02*
X3617682Y-7306960D01*
X3617682Y-7306960D02*
X3627205Y-7297436D01*
X3627205Y-7297436D02*
X3627205Y-7316484D01*
X3627205Y-7192674D02*
X3636729Y-7202198D01*
X3636729Y-7202198D02*
X3627205Y-7211722D01*
X3627205Y-7211722D02*
X3617682Y-7202198D01*
X3617682Y-7202198D02*
X3627205Y-7192674D01*
X3627205Y-7192674D02*
X3627205Y-7211722D01*
D10*
X1955000Y-7625000D02*
X1995000Y-7665000D01*
X1995000Y-7625000D02*
X1955000Y-7665000D01*
D11*
X2293872Y-7536484D02*
X2312920Y-7536484D01*
X2312920Y-7536484D02*
X2331967Y-7546008D01*
X2331967Y-7546008D02*
X2341491Y-7555531D01*
X2341491Y-7555531D02*
X2351015Y-7574579D01*
X2351015Y-7574579D02*
X2360539Y-7612674D01*
X2360539Y-7612674D02*
X2360539Y-7660293D01*
X2360539Y-7660293D02*
X2351015Y-7698388D01*
X2351015Y-7698388D02*
X2341491Y-7717436D01*
X2341491Y-7717436D02*
X2331967Y-7726960D01*
X2331967Y-7726960D02*
X2312920Y-7736484D01*
X2312920Y-7736484D02*
X2293872Y-7736484D01*
X2293872Y-7736484D02*
X2274824Y-7726960D01*
X2274824Y-7726960D02*
X2265301Y-7717436D01*
X2265301Y-7717436D02*
X2255777Y-7698388D01*
X2255777Y-7698388D02*
X2246253Y-7660293D01*
X2246253Y-7660293D02*
X2246253Y-7612674D01*
X2246253Y-7612674D02*
X2255777Y-7574579D01*
X2255777Y-7574579D02*
X2265301Y-7555531D01*
X2265301Y-7555531D02*
X2274824Y-7546008D01*
X2274824Y-7546008D02*
X2293872Y-7536484D01*
X2446253Y-7717436D02*
X2455777Y-7726960D01*
X2455777Y-7726960D02*
X2446253Y-7736484D01*
X2446253Y-7736484D02*
X2436729Y-7726960D01*
X2436729Y-7726960D02*
X2446253Y-7717436D01*
X2446253Y-7717436D02*
X2446253Y-7736484D01*
X2627205Y-7603150D02*
X2627205Y-7736484D01*
X2579586Y-7526960D02*
X2531967Y-7669817D01*
X2531967Y-7669817D02*
X2655777Y-7669817D01*
X2770063Y-7536484D02*
X2789110Y-7536484D01*
X2789110Y-7536484D02*
X2808158Y-7546008D01*
X2808158Y-7546008D02*
X2817682Y-7555531D01*
X2817682Y-7555531D02*
X2827205Y-7574579D01*
X2827205Y-7574579D02*
X2836729Y-7612674D01*
X2836729Y-7612674D02*
X2836729Y-7660293D01*
X2836729Y-7660293D02*
X2827205Y-7698388D01*
X2827205Y-7698388D02*
X2817682Y-7717436D01*
X2817682Y-7717436D02*
X2808158Y-7726960D01*
X2808158Y-7726960D02*
X2789110Y-7736484D01*
X2789110Y-7736484D02*
X2770063Y-7736484D01*
X2770063Y-7736484D02*
X2751015Y-7726960D01*
X2751015Y-7726960D02*
X2741491Y-7717436D01*
X2741491Y-7717436D02*
X2731967Y-7698388D01*
X2731967Y-7698388D02*
X2722444Y-7660293D01*
X2722444Y-7660293D02*
X2722444Y-7612674D01*
X2722444Y-7612674D02*
X2731967Y-7574579D01*
X2731967Y-7574579D02*
X2741491Y-7555531D01*
X2741491Y-7555531D02*
X2751015Y-7546008D01*
X2751015Y-7546008D02*
X2770063Y-7536484D01*
X2960539Y-7536484D02*
X2979586Y-7536484D01*
X2979586Y-7536484D02*
X2998634Y-7546008D01*
X2998634Y-7546008D02*
X3008158Y-7555531D01*
X3008158Y-7555531D02*
X3017682Y-7574579D01*
X3017682Y-7574579D02*
X3027205Y-7612674D01*
X3027205Y-7612674D02*
X3027205Y-7660293D01*
X3027205Y-7660293D02*
X3017682Y-7698388D01*
X3017682Y-7698388D02*
X3008158Y-7717436D01*
X3008158Y-7717436D02*
X2998634Y-7726960D01*
X2998634Y-7726960D02*
X2979586Y-7736484D01*
X2979586Y-7736484D02*
X2960539Y-7736484D01*
X2960539Y-7736484D02*
X2941491Y-7726960D01*
X2941491Y-7726960D02*
X2931967Y-7717436D01*
X2931967Y-7717436D02*
X2922443Y-7698388D01*
X2922443Y-7698388D02*
X2912920Y-7660293D01*
X2912920Y-7660293D02*
X2912920Y-7612674D01*
X2912920Y-7612674D02*
X2922443Y-7574579D01*
X2922443Y-7574579D02*
X2931967Y-7555531D01*
X2931967Y-7555531D02*
X2941491Y-7546008D01*
X2941491Y-7546008D02*
X2960539Y-7536484D01*
X3112920Y-7736484D02*
X3112920Y-7603150D01*
X3112920Y-7622198D02*
X3122443Y-7612674D01*
X3122443Y-7612674D02*
X3141491Y-7603150D01*
X3141491Y-7603150D02*
X3170063Y-7603150D01*
X3170063Y-7603150D02*
X3189110Y-7612674D01*
X3189110Y-7612674D02*
X3198634Y-7631722D01*
X3198634Y-7631722D02*
X3198634Y-7736484D01*
X3198634Y-7631722D02*
X3208158Y-7612674D01*
X3208158Y-7612674D02*
X3227205Y-7603150D01*
X3227205Y-7603150D02*
X3255777Y-7603150D01*
X3255777Y-7603150D02*
X3274824Y-7612674D01*
X3274824Y-7612674D02*
X3284348Y-7631722D01*
X3284348Y-7631722D02*
X3284348Y-7736484D01*
X3379586Y-7736484D02*
X3379586Y-7603150D01*
X3379586Y-7622198D02*
X3389110Y-7612674D01*
X3389110Y-7612674D02*
X3408158Y-7603150D01*
X3408158Y-7603150D02*
X3436729Y-7603150D01*
X3436729Y-7603150D02*
X3455777Y-7612674D01*
X3455777Y-7612674D02*
X3465301Y-7631722D01*
X3465301Y-7631722D02*
X3465301Y-7736484D01*
X3465301Y-7631722D02*
X3474824Y-7612674D01*
X3474824Y-7612674D02*
X3493872Y-7603150D01*
X3493872Y-7603150D02*
X3522443Y-7603150D01*
X3522443Y-7603150D02*
X3541491Y-7612674D01*
X3541491Y-7612674D02*
X3551015Y-7631722D01*
X3551015Y-7631722D02*
X3551015Y-7736484D01*
X3941491Y-7526960D02*
X3770063Y-7784103D01*
X4198634Y-7536484D02*
X4217682Y-7536484D01*
X4217682Y-7536484D02*
X4236729Y-7546008D01*
X4236729Y-7546008D02*
X4246253Y-7555531D01*
X4246253Y-7555531D02*
X4255777Y-7574579D01*
X4255777Y-7574579D02*
X4265301Y-7612674D01*
X4265301Y-7612674D02*
X4265301Y-7660293D01*
X4265301Y-7660293D02*
X4255777Y-7698388D01*
X4255777Y-7698388D02*
X4246253Y-7717436D01*
X4246253Y-7717436D02*
X4236729Y-7726960D01*
X4236729Y-7726960D02*
X4217682Y-7736484D01*
X4217682Y-7736484D02*
X4198634Y-7736484D01*
X4198634Y-7736484D02*
X4179586Y-7726960D01*
X4179586Y-7726960D02*
X4170063Y-7717436D01*
X4170063Y-7717436D02*
X4160539Y-7698388D01*
X4160539Y-7698388D02*
X4151015Y-7660293D01*
X4151015Y-7660293D02*
X4151015Y-7612674D01*
X4151015Y-7612674D02*
X4160539Y-7574579D01*
X4160539Y-7574579D02*
X4170063Y-7555531D01*
X4170063Y-7555531D02*
X4179586Y-7546008D01*
X4179586Y-7546008D02*
X4198634Y-7536484D01*
X4351015Y-7717436D02*
X4360539Y-7726960D01*
X4360539Y-7726960D02*
X4351015Y-7736484D01*
X4351015Y-7736484D02*
X4341491Y-7726960D01*
X4341491Y-7726960D02*
X4351015Y-7717436D01*
X4351015Y-7717436D02*
X4351015Y-7736484D01*
X4484348Y-7536484D02*
X4503396Y-7536484D01*
X4503396Y-7536484D02*
X4522444Y-7546008D01*
X4522444Y-7546008D02*
X4531968Y-7555531D01*
X4531968Y-7555531D02*
X4541491Y-7574579D01*
X4541491Y-7574579D02*
X4551015Y-7612674D01*
X4551015Y-7612674D02*
X4551015Y-7660293D01*
X4551015Y-7660293D02*
X4541491Y-7698388D01*
X4541491Y-7698388D02*
X4531968Y-7717436D01*
X4531968Y-7717436D02*
X4522444Y-7726960D01*
X4522444Y-7726960D02*
X4503396Y-7736484D01*
X4503396Y-7736484D02*
X4484348Y-7736484D01*
X4484348Y-7736484D02*
X4465301Y-7726960D01*
X4465301Y-7726960D02*
X4455777Y-7717436D01*
X4455777Y-7717436D02*
X4446253Y-7698388D01*
X4446253Y-7698388D02*
X4436729Y-7660293D01*
X4436729Y-7660293D02*
X4436729Y-7612674D01*
X4436729Y-7612674D02*
X4446253Y-7574579D01*
X4446253Y-7574579D02*
X4455777Y-7555531D01*
X4455777Y-7555531D02*
X4465301Y-7546008D01*
X4465301Y-7546008D02*
X4484348Y-7536484D01*
X4741491Y-7736484D02*
X4627206Y-7736484D01*
X4684348Y-7736484D02*
X4684348Y-7536484D01*
X4684348Y-7536484D02*
X4665301Y-7565055D01*
X4665301Y-7565055D02*
X4646253Y-7584103D01*
X4646253Y-7584103D02*
X4627206Y-7593627D01*
X4922444Y-7536484D02*
X4827206Y-7536484D01*
X4827206Y-7536484D02*
X4817682Y-7631722D01*
X4817682Y-7631722D02*
X4827206Y-7622198D01*
X4827206Y-7622198D02*
X4846253Y-7612674D01*
X4846253Y-7612674D02*
X4893872Y-7612674D01*
X4893872Y-7612674D02*
X4912920Y-7622198D01*
X4912920Y-7622198D02*
X4922444Y-7631722D01*
X4922444Y-7631722D02*
X4931968Y-7650769D01*
X4931968Y-7650769D02*
X4931968Y-7698388D01*
X4931968Y-7698388D02*
X4922444Y-7717436D01*
X4922444Y-7717436D02*
X4912920Y-7726960D01*
X4912920Y-7726960D02*
X4893872Y-7736484D01*
X4893872Y-7736484D02*
X4846253Y-7736484D01*
X4846253Y-7736484D02*
X4827206Y-7726960D01*
X4827206Y-7726960D02*
X4817682Y-7717436D01*
X4998634Y-7536484D02*
X5131968Y-7536484D01*
X5131968Y-7536484D02*
X5046253Y-7736484D01*
X5198634Y-7536484D02*
X5198634Y-7574579D01*
X5274825Y-7536484D02*
X5274825Y-7574579D01*
X5570063Y-7812674D02*
X5560539Y-7803150D01*
X5560539Y-7803150D02*
X5541491Y-7774579D01*
X5541491Y-7774579D02*
X5531968Y-7755531D01*
X5531968Y-7755531D02*
X5522444Y-7726960D01*
X5522444Y-7726960D02*
X5512920Y-7679341D01*
X5512920Y-7679341D02*
X5512920Y-7641246D01*
X5512920Y-7641246D02*
X5522444Y-7593627D01*
X5522444Y-7593627D02*
X5531968Y-7565055D01*
X5531968Y-7565055D02*
X5541491Y-7546008D01*
X5541491Y-7546008D02*
X5560539Y-7517436D01*
X5560539Y-7517436D02*
X5570063Y-7507912D01*
X5751015Y-7736484D02*
X5636729Y-7736484D01*
X5693872Y-7736484D02*
X5693872Y-7536484D01*
X5693872Y-7536484D02*
X5674825Y-7565055D01*
X5674825Y-7565055D02*
X5655777Y-7584103D01*
X5655777Y-7584103D02*
X5636729Y-7593627D01*
X5817682Y-7536484D02*
X5951015Y-7536484D01*
X5951015Y-7536484D02*
X5865301Y-7736484D01*
X6017682Y-7555531D02*
X6027206Y-7546008D01*
X6027206Y-7546008D02*
X6046253Y-7536484D01*
X6046253Y-7536484D02*
X6093872Y-7536484D01*
X6093872Y-7536484D02*
X6112920Y-7546008D01*
X6112920Y-7546008D02*
X6122444Y-7555531D01*
X6122444Y-7555531D02*
X6131968Y-7574579D01*
X6131968Y-7574579D02*
X6131968Y-7593627D01*
X6131968Y-7593627D02*
X6122444Y-7622198D01*
X6122444Y-7622198D02*
X6008158Y-7736484D01*
X6008158Y-7736484D02*
X6131968Y-7736484D01*
X6370063Y-7736484D02*
X6370063Y-7536484D01*
X6455777Y-7736484D02*
X6455777Y-7631722D01*
X6455777Y-7631722D02*
X6446253Y-7612674D01*
X6446253Y-7612674D02*
X6427206Y-7603150D01*
X6427206Y-7603150D02*
X6398634Y-7603150D01*
X6398634Y-7603150D02*
X6379587Y-7612674D01*
X6379587Y-7612674D02*
X6370063Y-7622198D01*
X6579587Y-7736484D02*
X6560539Y-7726960D01*
X6560539Y-7726960D02*
X6551015Y-7717436D01*
X6551015Y-7717436D02*
X6541491Y-7698388D01*
X6541491Y-7698388D02*
X6541491Y-7641246D01*
X6541491Y-7641246D02*
X6551015Y-7622198D01*
X6551015Y-7622198D02*
X6560539Y-7612674D01*
X6560539Y-7612674D02*
X6579587Y-7603150D01*
X6579587Y-7603150D02*
X6608158Y-7603150D01*
X6608158Y-7603150D02*
X6627206Y-7612674D01*
X6627206Y-7612674D02*
X6636730Y-7622198D01*
X6636730Y-7622198D02*
X6646253Y-7641246D01*
X6646253Y-7641246D02*
X6646253Y-7698388D01*
X6646253Y-7698388D02*
X6636730Y-7717436D01*
X6636730Y-7717436D02*
X6627206Y-7726960D01*
X6627206Y-7726960D02*
X6608158Y-7736484D01*
X6608158Y-7736484D02*
X6579587Y-7736484D01*
X6760539Y-7736484D02*
X6741491Y-7726960D01*
X6741491Y-7726960D02*
X6731968Y-7707912D01*
X6731968Y-7707912D02*
X6731968Y-7536484D01*
X6912920Y-7726960D02*
X6893872Y-7736484D01*
X6893872Y-7736484D02*
X6855777Y-7736484D01*
X6855777Y-7736484D02*
X6836730Y-7726960D01*
X6836730Y-7726960D02*
X6827206Y-7707912D01*
X6827206Y-7707912D02*
X6827206Y-7631722D01*
X6827206Y-7631722D02*
X6836730Y-7612674D01*
X6836730Y-7612674D02*
X6855777Y-7603150D01*
X6855777Y-7603150D02*
X6893872Y-7603150D01*
X6893872Y-7603150D02*
X6912920Y-7612674D01*
X6912920Y-7612674D02*
X6922444Y-7631722D01*
X6922444Y-7631722D02*
X6922444Y-7650769D01*
X6922444Y-7650769D02*
X6827206Y-7669817D01*
X6998634Y-7726960D02*
X7017682Y-7736484D01*
X7017682Y-7736484D02*
X7055777Y-7736484D01*
X7055777Y-7736484D02*
X7074825Y-7726960D01*
X7074825Y-7726960D02*
X7084349Y-7707912D01*
X7084349Y-7707912D02*
X7084349Y-7698388D01*
X7084349Y-7698388D02*
X7074825Y-7679341D01*
X7074825Y-7679341D02*
X7055777Y-7669817D01*
X7055777Y-7669817D02*
X7027206Y-7669817D01*
X7027206Y-7669817D02*
X7008158Y-7660293D01*
X7008158Y-7660293D02*
X6998634Y-7641246D01*
X6998634Y-7641246D02*
X6998634Y-7631722D01*
X6998634Y-7631722D02*
X7008158Y-7612674D01*
X7008158Y-7612674D02*
X7027206Y-7603150D01*
X7027206Y-7603150D02*
X7055777Y-7603150D01*
X7055777Y-7603150D02*
X7074825Y-7612674D01*
X7151015Y-7812674D02*
X7160539Y-7803150D01*
X7160539Y-7803150D02*
X7179587Y-7774579D01*
X7179587Y-7774579D02*
X7189111Y-7755531D01*
X7189111Y-7755531D02*
X7198634Y-7726960D01*
X7198634Y-7726960D02*
X7208158Y-7679341D01*
X7208158Y-7679341D02*
X7208158Y-7641246D01*
X7208158Y-7641246D02*
X7198634Y-7593627D01*
X7198634Y-7593627D02*
X7189111Y-7565055D01*
X7189111Y-7565055D02*
X7179587Y-7546008D01*
X7179587Y-7546008D02*
X7160539Y-7517436D01*
X7160539Y-7517436D02*
X7151015Y-7507912D01*
D10*
X1995000Y-7909000D02*
G75*
G02*
X1945000Y-7909000I-25000J0D01*
G01*
X1945000Y-7909000D02*
G75*
G02*
X1995000Y-7909000I25000J0D01*
G01*
D11*
X2293872Y-7800484D02*
X2312920Y-7800484D01*
X2312920Y-7800484D02*
X2331967Y-7810008D01*
X2331967Y-7810008D02*
X2341491Y-7819531D01*
X2341491Y-7819531D02*
X2351015Y-7838579D01*
X2351015Y-7838579D02*
X2360539Y-7876674D01*
X2360539Y-7876674D02*
X2360539Y-7924293D01*
X2360539Y-7924293D02*
X2351015Y-7962388D01*
X2351015Y-7962388D02*
X2341491Y-7981436D01*
X2341491Y-7981436D02*
X2331967Y-7990960D01*
X2331967Y-7990960D02*
X2312920Y-8000484D01*
X2312920Y-8000484D02*
X2293872Y-8000484D01*
X2293872Y-8000484D02*
X2274824Y-7990960D01*
X2274824Y-7990960D02*
X2265301Y-7981436D01*
X2265301Y-7981436D02*
X2255777Y-7962388D01*
X2255777Y-7962388D02*
X2246253Y-7924293D01*
X2246253Y-7924293D02*
X2246253Y-7876674D01*
X2246253Y-7876674D02*
X2255777Y-7838579D01*
X2255777Y-7838579D02*
X2265301Y-7819531D01*
X2265301Y-7819531D02*
X2274824Y-7810008D01*
X2274824Y-7810008D02*
X2293872Y-7800484D01*
X2446253Y-7981436D02*
X2455777Y-7990960D01*
X2455777Y-7990960D02*
X2446253Y-8000484D01*
X2446253Y-8000484D02*
X2436729Y-7990960D01*
X2436729Y-7990960D02*
X2446253Y-7981436D01*
X2446253Y-7981436D02*
X2446253Y-8000484D01*
X2636729Y-7800484D02*
X2541491Y-7800484D01*
X2541491Y-7800484D02*
X2531967Y-7895722D01*
X2531967Y-7895722D02*
X2541491Y-7886198D01*
X2541491Y-7886198D02*
X2560539Y-7876674D01*
X2560539Y-7876674D02*
X2608158Y-7876674D01*
X2608158Y-7876674D02*
X2627205Y-7886198D01*
X2627205Y-7886198D02*
X2636729Y-7895722D01*
X2636729Y-7895722D02*
X2646253Y-7914769D01*
X2646253Y-7914769D02*
X2646253Y-7962388D01*
X2646253Y-7962388D02*
X2636729Y-7981436D01*
X2636729Y-7981436D02*
X2627205Y-7990960D01*
X2627205Y-7990960D02*
X2608158Y-8000484D01*
X2608158Y-8000484D02*
X2560539Y-8000484D01*
X2560539Y-8000484D02*
X2541491Y-7990960D01*
X2541491Y-7990960D02*
X2531967Y-7981436D01*
X2770063Y-7800484D02*
X2789110Y-7800484D01*
X2789110Y-7800484D02*
X2808158Y-7810008D01*
X2808158Y-7810008D02*
X2817682Y-7819531D01*
X2817682Y-7819531D02*
X2827205Y-7838579D01*
X2827205Y-7838579D02*
X2836729Y-7876674D01*
X2836729Y-7876674D02*
X2836729Y-7924293D01*
X2836729Y-7924293D02*
X2827205Y-7962388D01*
X2827205Y-7962388D02*
X2817682Y-7981436D01*
X2817682Y-7981436D02*
X2808158Y-7990960D01*
X2808158Y-7990960D02*
X2789110Y-8000484D01*
X2789110Y-8000484D02*
X2770063Y-8000484D01*
X2770063Y-8000484D02*
X2751015Y-7990960D01*
X2751015Y-7990960D02*
X2741491Y-7981436D01*
X2741491Y-7981436D02*
X2731967Y-7962388D01*
X2731967Y-7962388D02*
X2722444Y-7924293D01*
X2722444Y-7924293D02*
X2722444Y-7876674D01*
X2722444Y-7876674D02*
X2731967Y-7838579D01*
X2731967Y-7838579D02*
X2741491Y-7819531D01*
X2741491Y-7819531D02*
X2751015Y-7810008D01*
X2751015Y-7810008D02*
X2770063Y-7800484D01*
X2960539Y-7800484D02*
X2979586Y-7800484D01*
X2979586Y-7800484D02*
X2998634Y-7810008D01*
X2998634Y-7810008D02*
X3008158Y-7819531D01*
X3008158Y-7819531D02*
X3017682Y-7838579D01*
X3017682Y-7838579D02*
X3027205Y-7876674D01*
X3027205Y-7876674D02*
X3027205Y-7924293D01*
X3027205Y-7924293D02*
X3017682Y-7962388D01*
X3017682Y-7962388D02*
X3008158Y-7981436D01*
X3008158Y-7981436D02*
X2998634Y-7990960D01*
X2998634Y-7990960D02*
X2979586Y-8000484D01*
X2979586Y-8000484D02*
X2960539Y-8000484D01*
X2960539Y-8000484D02*
X2941491Y-7990960D01*
X2941491Y-7990960D02*
X2931967Y-7981436D01*
X2931967Y-7981436D02*
X2922443Y-7962388D01*
X2922443Y-7962388D02*
X2912920Y-7924293D01*
X2912920Y-7924293D02*
X2912920Y-7876674D01*
X2912920Y-7876674D02*
X2922443Y-7838579D01*
X2922443Y-7838579D02*
X2931967Y-7819531D01*
X2931967Y-7819531D02*
X2941491Y-7810008D01*
X2941491Y-7810008D02*
X2960539Y-7800484D01*
X3112920Y-8000484D02*
X3112920Y-7867150D01*
X3112920Y-7886198D02*
X3122443Y-7876674D01*
X3122443Y-7876674D02*
X3141491Y-7867150D01*
X3141491Y-7867150D02*
X3170063Y-7867150D01*
X3170063Y-7867150D02*
X3189110Y-7876674D01*
X3189110Y-7876674D02*
X3198634Y-7895722D01*
X3198634Y-7895722D02*
X3198634Y-8000484D01*
X3198634Y-7895722D02*
X3208158Y-7876674D01*
X3208158Y-7876674D02*
X3227205Y-7867150D01*
X3227205Y-7867150D02*
X3255777Y-7867150D01*
X3255777Y-7867150D02*
X3274824Y-7876674D01*
X3274824Y-7876674D02*
X3284348Y-7895722D01*
X3284348Y-7895722D02*
X3284348Y-8000484D01*
X3379586Y-8000484D02*
X3379586Y-7867150D01*
X3379586Y-7886198D02*
X3389110Y-7876674D01*
X3389110Y-7876674D02*
X3408158Y-7867150D01*
X3408158Y-7867150D02*
X3436729Y-7867150D01*
X3436729Y-7867150D02*
X3455777Y-7876674D01*
X3455777Y-7876674D02*
X3465301Y-7895722D01*
X3465301Y-7895722D02*
X3465301Y-8000484D01*
X3465301Y-7895722D02*
X3474824Y-7876674D01*
X3474824Y-7876674D02*
X3493872Y-7867150D01*
X3493872Y-7867150D02*
X3522443Y-7867150D01*
X3522443Y-7867150D02*
X3541491Y-7876674D01*
X3541491Y-7876674D02*
X3551015Y-7895722D01*
X3551015Y-7895722D02*
X3551015Y-8000484D01*
X3941491Y-7790960D02*
X3770063Y-8048103D01*
X4198634Y-7800484D02*
X4217682Y-7800484D01*
X4217682Y-7800484D02*
X4236729Y-7810008D01*
X4236729Y-7810008D02*
X4246253Y-7819531D01*
X4246253Y-7819531D02*
X4255777Y-7838579D01*
X4255777Y-7838579D02*
X4265301Y-7876674D01*
X4265301Y-7876674D02*
X4265301Y-7924293D01*
X4265301Y-7924293D02*
X4255777Y-7962388D01*
X4255777Y-7962388D02*
X4246253Y-7981436D01*
X4246253Y-7981436D02*
X4236729Y-7990960D01*
X4236729Y-7990960D02*
X4217682Y-8000484D01*
X4217682Y-8000484D02*
X4198634Y-8000484D01*
X4198634Y-8000484D02*
X4179586Y-7990960D01*
X4179586Y-7990960D02*
X4170063Y-7981436D01*
X4170063Y-7981436D02*
X4160539Y-7962388D01*
X4160539Y-7962388D02*
X4151015Y-7924293D01*
X4151015Y-7924293D02*
X4151015Y-7876674D01*
X4151015Y-7876674D02*
X4160539Y-7838579D01*
X4160539Y-7838579D02*
X4170063Y-7819531D01*
X4170063Y-7819531D02*
X4179586Y-7810008D01*
X4179586Y-7810008D02*
X4198634Y-7800484D01*
X4351015Y-7981436D02*
X4360539Y-7990960D01*
X4360539Y-7990960D02*
X4351015Y-8000484D01*
X4351015Y-8000484D02*
X4341491Y-7990960D01*
X4341491Y-7990960D02*
X4351015Y-7981436D01*
X4351015Y-7981436D02*
X4351015Y-8000484D01*
X4484348Y-7800484D02*
X4503396Y-7800484D01*
X4503396Y-7800484D02*
X4522444Y-7810008D01*
X4522444Y-7810008D02*
X4531968Y-7819531D01*
X4531968Y-7819531D02*
X4541491Y-7838579D01*
X4541491Y-7838579D02*
X4551015Y-7876674D01*
X4551015Y-7876674D02*
X4551015Y-7924293D01*
X4551015Y-7924293D02*
X4541491Y-7962388D01*
X4541491Y-7962388D02*
X4531968Y-7981436D01*
X4531968Y-7981436D02*
X4522444Y-7990960D01*
X4522444Y-7990960D02*
X4503396Y-8000484D01*
X4503396Y-8000484D02*
X4484348Y-8000484D01*
X4484348Y-8000484D02*
X4465301Y-7990960D01*
X4465301Y-7990960D02*
X4455777Y-7981436D01*
X4455777Y-7981436D02*
X4446253Y-7962388D01*
X4446253Y-7962388D02*
X4436729Y-7924293D01*
X4436729Y-7924293D02*
X4436729Y-7876674D01*
X4436729Y-7876674D02*
X4446253Y-7838579D01*
X4446253Y-7838579D02*
X4455777Y-7819531D01*
X4455777Y-7819531D02*
X4465301Y-7810008D01*
X4465301Y-7810008D02*
X4484348Y-7800484D01*
X4741491Y-8000484D02*
X4627206Y-8000484D01*
X4684348Y-8000484D02*
X4684348Y-7800484D01*
X4684348Y-7800484D02*
X4665301Y-7829055D01*
X4665301Y-7829055D02*
X4646253Y-7848103D01*
X4646253Y-7848103D02*
X4627206Y-7857627D01*
X4836729Y-8000484D02*
X4874825Y-8000484D01*
X4874825Y-8000484D02*
X4893872Y-7990960D01*
X4893872Y-7990960D02*
X4903396Y-7981436D01*
X4903396Y-7981436D02*
X4922444Y-7952865D01*
X4922444Y-7952865D02*
X4931968Y-7914769D01*
X4931968Y-7914769D02*
X4931968Y-7838579D01*
X4931968Y-7838579D02*
X4922444Y-7819531D01*
X4922444Y-7819531D02*
X4912920Y-7810008D01*
X4912920Y-7810008D02*
X4893872Y-7800484D01*
X4893872Y-7800484D02*
X4855777Y-7800484D01*
X4855777Y-7800484D02*
X4836729Y-7810008D01*
X4836729Y-7810008D02*
X4827206Y-7819531D01*
X4827206Y-7819531D02*
X4817682Y-7838579D01*
X4817682Y-7838579D02*
X4817682Y-7886198D01*
X4817682Y-7886198D02*
X4827206Y-7905246D01*
X4827206Y-7905246D02*
X4836729Y-7914769D01*
X4836729Y-7914769D02*
X4855777Y-7924293D01*
X4855777Y-7924293D02*
X4893872Y-7924293D01*
X4893872Y-7924293D02*
X4912920Y-7914769D01*
X4912920Y-7914769D02*
X4922444Y-7905246D01*
X4922444Y-7905246D02*
X4931968Y-7886198D01*
X4998634Y-7800484D02*
X5131968Y-7800484D01*
X5131968Y-7800484D02*
X5046253Y-8000484D01*
X5198634Y-7800484D02*
X5198634Y-7838579D01*
X5274825Y-7800484D02*
X5274825Y-7838579D01*
X5570063Y-8076674D02*
X5560539Y-8067150D01*
X5560539Y-8067150D02*
X5541491Y-8038579D01*
X5541491Y-8038579D02*
X5531968Y-8019531D01*
X5531968Y-8019531D02*
X5522444Y-7990960D01*
X5522444Y-7990960D02*
X5512920Y-7943341D01*
X5512920Y-7943341D02*
X5512920Y-7905246D01*
X5512920Y-7905246D02*
X5522444Y-7857627D01*
X5522444Y-7857627D02*
X5531968Y-7829055D01*
X5531968Y-7829055D02*
X5541491Y-7810008D01*
X5541491Y-7810008D02*
X5560539Y-7781436D01*
X5560539Y-7781436D02*
X5570063Y-7771912D01*
X5741491Y-7800484D02*
X5646253Y-7800484D01*
X5646253Y-7800484D02*
X5636729Y-7895722D01*
X5636729Y-7895722D02*
X5646253Y-7886198D01*
X5646253Y-7886198D02*
X5665301Y-7876674D01*
X5665301Y-7876674D02*
X5712920Y-7876674D01*
X5712920Y-7876674D02*
X5731968Y-7886198D01*
X5731968Y-7886198D02*
X5741491Y-7895722D01*
X5741491Y-7895722D02*
X5751015Y-7914769D01*
X5751015Y-7914769D02*
X5751015Y-7962388D01*
X5751015Y-7962388D02*
X5741491Y-7981436D01*
X5741491Y-7981436D02*
X5731968Y-7990960D01*
X5731968Y-7990960D02*
X5712920Y-8000484D01*
X5712920Y-8000484D02*
X5665301Y-8000484D01*
X5665301Y-8000484D02*
X5646253Y-7990960D01*
X5646253Y-7990960D02*
X5636729Y-7981436D01*
X5922444Y-7867150D02*
X5922444Y-8000484D01*
X5874825Y-7790960D02*
X5827206Y-7933817D01*
X5827206Y-7933817D02*
X5951015Y-7933817D01*
X6179587Y-8000484D02*
X6179587Y-7800484D01*
X6265301Y-8000484D02*
X6265301Y-7895722D01*
X6265301Y-7895722D02*
X6255777Y-7876674D01*
X6255777Y-7876674D02*
X6236730Y-7867150D01*
X6236730Y-7867150D02*
X6208158Y-7867150D01*
X6208158Y-7867150D02*
X6189110Y-7876674D01*
X6189110Y-7876674D02*
X6179587Y-7886198D01*
X6389110Y-8000484D02*
X6370063Y-7990960D01*
X6370063Y-7990960D02*
X6360539Y-7981436D01*
X6360539Y-7981436D02*
X6351015Y-7962388D01*
X6351015Y-7962388D02*
X6351015Y-7905246D01*
X6351015Y-7905246D02*
X6360539Y-7886198D01*
X6360539Y-7886198D02*
X6370063Y-7876674D01*
X6370063Y-7876674D02*
X6389110Y-7867150D01*
X6389110Y-7867150D02*
X6417682Y-7867150D01*
X6417682Y-7867150D02*
X6436730Y-7876674D01*
X6436730Y-7876674D02*
X6446253Y-7886198D01*
X6446253Y-7886198D02*
X6455777Y-7905246D01*
X6455777Y-7905246D02*
X6455777Y-7962388D01*
X6455777Y-7962388D02*
X6446253Y-7981436D01*
X6446253Y-7981436D02*
X6436730Y-7990960D01*
X6436730Y-7990960D02*
X6417682Y-8000484D01*
X6417682Y-8000484D02*
X6389110Y-8000484D01*
X6570063Y-8000484D02*
X6551015Y-7990960D01*
X6551015Y-7990960D02*
X6541491Y-7971912D01*
X6541491Y-7971912D02*
X6541491Y-7800484D01*
X6722444Y-7990960D02*
X6703396Y-8000484D01*
X6703396Y-8000484D02*
X6665301Y-8000484D01*
X6665301Y-8000484D02*
X6646253Y-7990960D01*
X6646253Y-7990960D02*
X6636730Y-7971912D01*
X6636730Y-7971912D02*
X6636730Y-7895722D01*
X6636730Y-7895722D02*
X6646253Y-7876674D01*
X6646253Y-7876674D02*
X6665301Y-7867150D01*
X6665301Y-7867150D02*
X6703396Y-7867150D01*
X6703396Y-7867150D02*
X6722444Y-7876674D01*
X6722444Y-7876674D02*
X6731968Y-7895722D01*
X6731968Y-7895722D02*
X6731968Y-7914769D01*
X6731968Y-7914769D02*
X6636730Y-7933817D01*
X6808158Y-7990960D02*
X6827206Y-8000484D01*
X6827206Y-8000484D02*
X6865301Y-8000484D01*
X6865301Y-8000484D02*
X6884349Y-7990960D01*
X6884349Y-7990960D02*
X6893872Y-7971912D01*
X6893872Y-7971912D02*
X6893872Y-7962388D01*
X6893872Y-7962388D02*
X6884349Y-7943341D01*
X6884349Y-7943341D02*
X6865301Y-7933817D01*
X6865301Y-7933817D02*
X6836730Y-7933817D01*
X6836730Y-7933817D02*
X6817682Y-7924293D01*
X6817682Y-7924293D02*
X6808158Y-7905246D01*
X6808158Y-7905246D02*
X6808158Y-7895722D01*
X6808158Y-7895722D02*
X6817682Y-7876674D01*
X6817682Y-7876674D02*
X6836730Y-7867150D01*
X6836730Y-7867150D02*
X6865301Y-7867150D01*
X6865301Y-7867150D02*
X6884349Y-7876674D01*
X6960539Y-8076674D02*
X6970063Y-8067150D01*
X6970063Y-8067150D02*
X6989111Y-8038579D01*
X6989111Y-8038579D02*
X6998634Y-8019531D01*
X6998634Y-8019531D02*
X7008158Y-7990960D01*
X7008158Y-7990960D02*
X7017682Y-7943341D01*
X7017682Y-7943341D02*
X7017682Y-7905246D01*
X7017682Y-7905246D02*
X7008158Y-7857627D01*
X7008158Y-7857627D02*
X6998634Y-7829055D01*
X6998634Y-7829055D02*
X6989111Y-7810008D01*
X6989111Y-7810008D02*
X6970063Y-7781436D01*
X6970063Y-7781436D02*
X6960539Y-7771912D01*
D10*
X1962500Y-8140500D02*
X1962500Y-8205500D01*
X1930000Y-8173000D02*
X1995000Y-8173000D01*
D11*
X2293872Y-8064484D02*
X2312920Y-8064484D01*
X2312920Y-8064484D02*
X2331967Y-8074008D01*
X2331967Y-8074008D02*
X2341491Y-8083531D01*
X2341491Y-8083531D02*
X2351015Y-8102579D01*
X2351015Y-8102579D02*
X2360539Y-8140674D01*
X2360539Y-8140674D02*
X2360539Y-8188293D01*
X2360539Y-8188293D02*
X2351015Y-8226388D01*
X2351015Y-8226388D02*
X2341491Y-8245436D01*
X2341491Y-8245436D02*
X2331967Y-8254960D01*
X2331967Y-8254960D02*
X2312920Y-8264484D01*
X2312920Y-8264484D02*
X2293872Y-8264484D01*
X2293872Y-8264484D02*
X2274824Y-8254960D01*
X2274824Y-8254960D02*
X2265301Y-8245436D01*
X2265301Y-8245436D02*
X2255777Y-8226388D01*
X2255777Y-8226388D02*
X2246253Y-8188293D01*
X2246253Y-8188293D02*
X2246253Y-8140674D01*
X2246253Y-8140674D02*
X2255777Y-8102579D01*
X2255777Y-8102579D02*
X2265301Y-8083531D01*
X2265301Y-8083531D02*
X2274824Y-8074008D01*
X2274824Y-8074008D02*
X2293872Y-8064484D01*
X2446253Y-8245436D02*
X2455777Y-8254960D01*
X2455777Y-8254960D02*
X2446253Y-8264484D01*
X2446253Y-8264484D02*
X2436729Y-8254960D01*
X2436729Y-8254960D02*
X2446253Y-8245436D01*
X2446253Y-8245436D02*
X2446253Y-8264484D01*
X2627205Y-8064484D02*
X2589110Y-8064484D01*
X2589110Y-8064484D02*
X2570063Y-8074008D01*
X2570063Y-8074008D02*
X2560539Y-8083531D01*
X2560539Y-8083531D02*
X2541491Y-8112103D01*
X2541491Y-8112103D02*
X2531967Y-8150198D01*
X2531967Y-8150198D02*
X2531967Y-8226388D01*
X2531967Y-8226388D02*
X2541491Y-8245436D01*
X2541491Y-8245436D02*
X2551015Y-8254960D01*
X2551015Y-8254960D02*
X2570063Y-8264484D01*
X2570063Y-8264484D02*
X2608158Y-8264484D01*
X2608158Y-8264484D02*
X2627205Y-8254960D01*
X2627205Y-8254960D02*
X2636729Y-8245436D01*
X2636729Y-8245436D02*
X2646253Y-8226388D01*
X2646253Y-8226388D02*
X2646253Y-8178769D01*
X2646253Y-8178769D02*
X2636729Y-8159722D01*
X2636729Y-8159722D02*
X2627205Y-8150198D01*
X2627205Y-8150198D02*
X2608158Y-8140674D01*
X2608158Y-8140674D02*
X2570063Y-8140674D01*
X2570063Y-8140674D02*
X2551015Y-8150198D01*
X2551015Y-8150198D02*
X2541491Y-8159722D01*
X2541491Y-8159722D02*
X2531967Y-8178769D01*
X2827205Y-8064484D02*
X2731967Y-8064484D01*
X2731967Y-8064484D02*
X2722444Y-8159722D01*
X2722444Y-8159722D02*
X2731967Y-8150198D01*
X2731967Y-8150198D02*
X2751015Y-8140674D01*
X2751015Y-8140674D02*
X2798634Y-8140674D01*
X2798634Y-8140674D02*
X2817682Y-8150198D01*
X2817682Y-8150198D02*
X2827205Y-8159722D01*
X2827205Y-8159722D02*
X2836729Y-8178769D01*
X2836729Y-8178769D02*
X2836729Y-8226388D01*
X2836729Y-8226388D02*
X2827205Y-8245436D01*
X2827205Y-8245436D02*
X2817682Y-8254960D01*
X2817682Y-8254960D02*
X2798634Y-8264484D01*
X2798634Y-8264484D02*
X2751015Y-8264484D01*
X2751015Y-8264484D02*
X2731967Y-8254960D01*
X2731967Y-8254960D02*
X2722444Y-8245436D01*
X2960539Y-8064484D02*
X2979586Y-8064484D01*
X2979586Y-8064484D02*
X2998634Y-8074008D01*
X2998634Y-8074008D02*
X3008158Y-8083531D01*
X3008158Y-8083531D02*
X3017682Y-8102579D01*
X3017682Y-8102579D02*
X3027205Y-8140674D01*
X3027205Y-8140674D02*
X3027205Y-8188293D01*
X3027205Y-8188293D02*
X3017682Y-8226388D01*
X3017682Y-8226388D02*
X3008158Y-8245436D01*
X3008158Y-8245436D02*
X2998634Y-8254960D01*
X2998634Y-8254960D02*
X2979586Y-8264484D01*
X2979586Y-8264484D02*
X2960539Y-8264484D01*
X2960539Y-8264484D02*
X2941491Y-8254960D01*
X2941491Y-8254960D02*
X2931967Y-8245436D01*
X2931967Y-8245436D02*
X2922443Y-8226388D01*
X2922443Y-8226388D02*
X2912920Y-8188293D01*
X2912920Y-8188293D02*
X2912920Y-8140674D01*
X2912920Y-8140674D02*
X2922443Y-8102579D01*
X2922443Y-8102579D02*
X2931967Y-8083531D01*
X2931967Y-8083531D02*
X2941491Y-8074008D01*
X2941491Y-8074008D02*
X2960539Y-8064484D01*
X3112920Y-8264484D02*
X3112920Y-8131150D01*
X3112920Y-8150198D02*
X3122443Y-8140674D01*
X3122443Y-8140674D02*
X3141491Y-8131150D01*
X3141491Y-8131150D02*
X3170063Y-8131150D01*
X3170063Y-8131150D02*
X3189110Y-8140674D01*
X3189110Y-8140674D02*
X3198634Y-8159722D01*
X3198634Y-8159722D02*
X3198634Y-8264484D01*
X3198634Y-8159722D02*
X3208158Y-8140674D01*
X3208158Y-8140674D02*
X3227205Y-8131150D01*
X3227205Y-8131150D02*
X3255777Y-8131150D01*
X3255777Y-8131150D02*
X3274824Y-8140674D01*
X3274824Y-8140674D02*
X3284348Y-8159722D01*
X3284348Y-8159722D02*
X3284348Y-8264484D01*
X3379586Y-8264484D02*
X3379586Y-8131150D01*
X3379586Y-8150198D02*
X3389110Y-8140674D01*
X3389110Y-8140674D02*
X3408158Y-8131150D01*
X3408158Y-8131150D02*
X3436729Y-8131150D01*
X3436729Y-8131150D02*
X3455777Y-8140674D01*
X3455777Y-8140674D02*
X3465301Y-8159722D01*
X3465301Y-8159722D02*
X3465301Y-8264484D01*
X3465301Y-8159722D02*
X3474824Y-8140674D01*
X3474824Y-8140674D02*
X3493872Y-8131150D01*
X3493872Y-8131150D02*
X3522443Y-8131150D01*
X3522443Y-8131150D02*
X3541491Y-8140674D01*
X3541491Y-8140674D02*
X3551015Y-8159722D01*
X3551015Y-8159722D02*
X3551015Y-8264484D01*
X3941491Y-8054960D02*
X3770063Y-8312103D01*
X4198634Y-8064484D02*
X4217682Y-8064484D01*
X4217682Y-8064484D02*
X4236729Y-8074008D01*
X4236729Y-8074008D02*
X4246253Y-8083531D01*
X4246253Y-8083531D02*
X4255777Y-8102579D01*
X4255777Y-8102579D02*
X4265301Y-8140674D01*
X4265301Y-8140674D02*
X4265301Y-8188293D01*
X4265301Y-8188293D02*
X4255777Y-8226388D01*
X4255777Y-8226388D02*
X4246253Y-8245436D01*
X4246253Y-8245436D02*
X4236729Y-8254960D01*
X4236729Y-8254960D02*
X4217682Y-8264484D01*
X4217682Y-8264484D02*
X4198634Y-8264484D01*
X4198634Y-8264484D02*
X4179586Y-8254960D01*
X4179586Y-8254960D02*
X4170063Y-8245436D01*
X4170063Y-8245436D02*
X4160539Y-8226388D01*
X4160539Y-8226388D02*
X4151015Y-8188293D01*
X4151015Y-8188293D02*
X4151015Y-8140674D01*
X4151015Y-8140674D02*
X4160539Y-8102579D01*
X4160539Y-8102579D02*
X4170063Y-8083531D01*
X4170063Y-8083531D02*
X4179586Y-8074008D01*
X4179586Y-8074008D02*
X4198634Y-8064484D01*
X4351015Y-8245436D02*
X4360539Y-8254960D01*
X4360539Y-8254960D02*
X4351015Y-8264484D01*
X4351015Y-8264484D02*
X4341491Y-8254960D01*
X4341491Y-8254960D02*
X4351015Y-8245436D01*
X4351015Y-8245436D02*
X4351015Y-8264484D01*
X4484348Y-8064484D02*
X4503396Y-8064484D01*
X4503396Y-8064484D02*
X4522444Y-8074008D01*
X4522444Y-8074008D02*
X4531968Y-8083531D01*
X4531968Y-8083531D02*
X4541491Y-8102579D01*
X4541491Y-8102579D02*
X4551015Y-8140674D01*
X4551015Y-8140674D02*
X4551015Y-8188293D01*
X4551015Y-8188293D02*
X4541491Y-8226388D01*
X4541491Y-8226388D02*
X4531968Y-8245436D01*
X4531968Y-8245436D02*
X4522444Y-8254960D01*
X4522444Y-8254960D02*
X4503396Y-8264484D01*
X4503396Y-8264484D02*
X4484348Y-8264484D01*
X4484348Y-8264484D02*
X4465301Y-8254960D01*
X4465301Y-8254960D02*
X4455777Y-8245436D01*
X4455777Y-8245436D02*
X4446253Y-8226388D01*
X4446253Y-8226388D02*
X4436729Y-8188293D01*
X4436729Y-8188293D02*
X4436729Y-8140674D01*
X4436729Y-8140674D02*
X4446253Y-8102579D01*
X4446253Y-8102579D02*
X4455777Y-8083531D01*
X4455777Y-8083531D02*
X4465301Y-8074008D01*
X4465301Y-8074008D02*
X4484348Y-8064484D01*
X4627206Y-8083531D02*
X4636729Y-8074008D01*
X4636729Y-8074008D02*
X4655777Y-8064484D01*
X4655777Y-8064484D02*
X4703396Y-8064484D01*
X4703396Y-8064484D02*
X4722444Y-8074008D01*
X4722444Y-8074008D02*
X4731968Y-8083531D01*
X4731968Y-8083531D02*
X4741491Y-8102579D01*
X4741491Y-8102579D02*
X4741491Y-8121627D01*
X4741491Y-8121627D02*
X4731968Y-8150198D01*
X4731968Y-8150198D02*
X4617682Y-8264484D01*
X4617682Y-8264484D02*
X4741491Y-8264484D01*
X4922444Y-8064484D02*
X4827206Y-8064484D01*
X4827206Y-8064484D02*
X4817682Y-8159722D01*
X4817682Y-8159722D02*
X4827206Y-8150198D01*
X4827206Y-8150198D02*
X4846253Y-8140674D01*
X4846253Y-8140674D02*
X4893872Y-8140674D01*
X4893872Y-8140674D02*
X4912920Y-8150198D01*
X4912920Y-8150198D02*
X4922444Y-8159722D01*
X4922444Y-8159722D02*
X4931968Y-8178769D01*
X4931968Y-8178769D02*
X4931968Y-8226388D01*
X4931968Y-8226388D02*
X4922444Y-8245436D01*
X4922444Y-8245436D02*
X4912920Y-8254960D01*
X4912920Y-8254960D02*
X4893872Y-8264484D01*
X4893872Y-8264484D02*
X4846253Y-8264484D01*
X4846253Y-8264484D02*
X4827206Y-8254960D01*
X4827206Y-8254960D02*
X4817682Y-8245436D01*
X5103396Y-8064484D02*
X5065301Y-8064484D01*
X5065301Y-8064484D02*
X5046253Y-8074008D01*
X5046253Y-8074008D02*
X5036729Y-8083531D01*
X5036729Y-8083531D02*
X5017682Y-8112103D01*
X5017682Y-8112103D02*
X5008158Y-8150198D01*
X5008158Y-8150198D02*
X5008158Y-8226388D01*
X5008158Y-8226388D02*
X5017682Y-8245436D01*
X5017682Y-8245436D02*
X5027206Y-8254960D01*
X5027206Y-8254960D02*
X5046253Y-8264484D01*
X5046253Y-8264484D02*
X5084349Y-8264484D01*
X5084349Y-8264484D02*
X5103396Y-8254960D01*
X5103396Y-8254960D02*
X5112920Y-8245436D01*
X5112920Y-8245436D02*
X5122444Y-8226388D01*
X5122444Y-8226388D02*
X5122444Y-8178769D01*
X5122444Y-8178769D02*
X5112920Y-8159722D01*
X5112920Y-8159722D02*
X5103396Y-8150198D01*
X5103396Y-8150198D02*
X5084349Y-8140674D01*
X5084349Y-8140674D02*
X5046253Y-8140674D01*
X5046253Y-8140674D02*
X5027206Y-8150198D01*
X5027206Y-8150198D02*
X5017682Y-8159722D01*
X5017682Y-8159722D02*
X5008158Y-8178769D01*
X5198634Y-8064484D02*
X5198634Y-8102579D01*
X5274825Y-8064484D02*
X5274825Y-8102579D01*
X5570063Y-8340674D02*
X5560539Y-8331150D01*
X5560539Y-8331150D02*
X5541491Y-8302579D01*
X5541491Y-8302579D02*
X5531968Y-8283531D01*
X5531968Y-8283531D02*
X5522444Y-8254960D01*
X5522444Y-8254960D02*
X5512920Y-8207341D01*
X5512920Y-8207341D02*
X5512920Y-8169246D01*
X5512920Y-8169246D02*
X5522444Y-8121627D01*
X5522444Y-8121627D02*
X5531968Y-8093055D01*
X5531968Y-8093055D02*
X5541491Y-8074008D01*
X5541491Y-8074008D02*
X5560539Y-8045436D01*
X5560539Y-8045436D02*
X5570063Y-8035912D01*
X5636729Y-8083531D02*
X5646253Y-8074008D01*
X5646253Y-8074008D02*
X5665301Y-8064484D01*
X5665301Y-8064484D02*
X5712920Y-8064484D01*
X5712920Y-8064484D02*
X5731968Y-8074008D01*
X5731968Y-8074008D02*
X5741491Y-8083531D01*
X5741491Y-8083531D02*
X5751015Y-8102579D01*
X5751015Y-8102579D02*
X5751015Y-8121627D01*
X5751015Y-8121627D02*
X5741491Y-8150198D01*
X5741491Y-8150198D02*
X5627206Y-8264484D01*
X5627206Y-8264484D02*
X5751015Y-8264484D01*
X5989110Y-8264484D02*
X5989110Y-8064484D01*
X6074825Y-8264484D02*
X6074825Y-8159722D01*
X6074825Y-8159722D02*
X6065301Y-8140674D01*
X6065301Y-8140674D02*
X6046253Y-8131150D01*
X6046253Y-8131150D02*
X6017682Y-8131150D01*
X6017682Y-8131150D02*
X5998634Y-8140674D01*
X5998634Y-8140674D02*
X5989110Y-8150198D01*
X6198634Y-8264484D02*
X6179587Y-8254960D01*
X6179587Y-8254960D02*
X6170063Y-8245436D01*
X6170063Y-8245436D02*
X6160539Y-8226388D01*
X6160539Y-8226388D02*
X6160539Y-8169246D01*
X6160539Y-8169246D02*
X6170063Y-8150198D01*
X6170063Y-8150198D02*
X6179587Y-8140674D01*
X6179587Y-8140674D02*
X6198634Y-8131150D01*
X6198634Y-8131150D02*
X6227206Y-8131150D01*
X6227206Y-8131150D02*
X6246253Y-8140674D01*
X6246253Y-8140674D02*
X6255777Y-8150198D01*
X6255777Y-8150198D02*
X6265301Y-8169246D01*
X6265301Y-8169246D02*
X6265301Y-8226388D01*
X6265301Y-8226388D02*
X6255777Y-8245436D01*
X6255777Y-8245436D02*
X6246253Y-8254960D01*
X6246253Y-8254960D02*
X6227206Y-8264484D01*
X6227206Y-8264484D02*
X6198634Y-8264484D01*
X6379587Y-8264484D02*
X6360539Y-8254960D01*
X6360539Y-8254960D02*
X6351015Y-8235912D01*
X6351015Y-8235912D02*
X6351015Y-8064484D01*
X6531968Y-8254960D02*
X6512920Y-8264484D01*
X6512920Y-8264484D02*
X6474825Y-8264484D01*
X6474825Y-8264484D02*
X6455777Y-8254960D01*
X6455777Y-8254960D02*
X6446253Y-8235912D01*
X6446253Y-8235912D02*
X6446253Y-8159722D01*
X6446253Y-8159722D02*
X6455777Y-8140674D01*
X6455777Y-8140674D02*
X6474825Y-8131150D01*
X6474825Y-8131150D02*
X6512920Y-8131150D01*
X6512920Y-8131150D02*
X6531968Y-8140674D01*
X6531968Y-8140674D02*
X6541491Y-8159722D01*
X6541491Y-8159722D02*
X6541491Y-8178769D01*
X6541491Y-8178769D02*
X6446253Y-8197817D01*
X6617682Y-8254960D02*
X6636730Y-8264484D01*
X6636730Y-8264484D02*
X6674825Y-8264484D01*
X6674825Y-8264484D02*
X6693872Y-8254960D01*
X6693872Y-8254960D02*
X6703396Y-8235912D01*
X6703396Y-8235912D02*
X6703396Y-8226388D01*
X6703396Y-8226388D02*
X6693872Y-8207341D01*
X6693872Y-8207341D02*
X6674825Y-8197817D01*
X6674825Y-8197817D02*
X6646253Y-8197817D01*
X6646253Y-8197817D02*
X6627206Y-8188293D01*
X6627206Y-8188293D02*
X6617682Y-8169246D01*
X6617682Y-8169246D02*
X6617682Y-8159722D01*
X6617682Y-8159722D02*
X6627206Y-8140674D01*
X6627206Y-8140674D02*
X6646253Y-8131150D01*
X6646253Y-8131150D02*
X6674825Y-8131150D01*
X6674825Y-8131150D02*
X6693872Y-8140674D01*
X6770063Y-8340674D02*
X6779587Y-8331150D01*
X6779587Y-8331150D02*
X6798634Y-8302579D01*
X6798634Y-8302579D02*
X6808158Y-8283531D01*
X6808158Y-8283531D02*
X6817682Y-8254960D01*
X6817682Y-8254960D02*
X6827206Y-8207341D01*
X6827206Y-8207341D02*
X6827206Y-8169246D01*
X6827206Y-8169246D02*
X6817682Y-8121627D01*
X6817682Y-8121627D02*
X6808158Y-8093055D01*
X6808158Y-8093055D02*
X6798634Y-8074008D01*
X6798634Y-8074008D02*
X6779587Y-8045436D01*
X6779587Y-8045436D02*
X6770063Y-8035912D01*
D10*
X1980356Y-8472356D02*
X1980356Y-8401644D01*
X1909644Y-8401644D01*
X1909644Y-8472356D01*
X1980356Y-8472356D01*
D11*
X2360539Y-8528484D02*
X2246253Y-8528484D01*
X2303396Y-8528484D02*
X2303396Y-8328484D01*
X2303396Y-8328484D02*
X2284348Y-8357055D01*
X2284348Y-8357055D02*
X2265301Y-8376103D01*
X2265301Y-8376103D02*
X2246253Y-8385627D01*
X2446253Y-8509436D02*
X2455777Y-8518960D01*
X2455777Y-8518960D02*
X2446253Y-8528484D01*
X2446253Y-8528484D02*
X2436729Y-8518960D01*
X2436729Y-8518960D02*
X2446253Y-8509436D01*
X2446253Y-8509436D02*
X2446253Y-8528484D01*
X2579586Y-8328484D02*
X2598634Y-8328484D01*
X2598634Y-8328484D02*
X2617682Y-8338008D01*
X2617682Y-8338008D02*
X2627205Y-8347531D01*
X2627205Y-8347531D02*
X2636729Y-8366579D01*
X2636729Y-8366579D02*
X2646253Y-8404674D01*
X2646253Y-8404674D02*
X2646253Y-8452293D01*
X2646253Y-8452293D02*
X2636729Y-8490389D01*
X2636729Y-8490389D02*
X2627205Y-8509436D01*
X2627205Y-8509436D02*
X2617682Y-8518960D01*
X2617682Y-8518960D02*
X2598634Y-8528484D01*
X2598634Y-8528484D02*
X2579586Y-8528484D01*
X2579586Y-8528484D02*
X2560539Y-8518960D01*
X2560539Y-8518960D02*
X2551015Y-8509436D01*
X2551015Y-8509436D02*
X2541491Y-8490389D01*
X2541491Y-8490389D02*
X2531967Y-8452293D01*
X2531967Y-8452293D02*
X2531967Y-8404674D01*
X2531967Y-8404674D02*
X2541491Y-8366579D01*
X2541491Y-8366579D02*
X2551015Y-8347531D01*
X2551015Y-8347531D02*
X2560539Y-8338008D01*
X2560539Y-8338008D02*
X2579586Y-8328484D01*
X2770063Y-8328484D02*
X2789110Y-8328484D01*
X2789110Y-8328484D02*
X2808158Y-8338008D01*
X2808158Y-8338008D02*
X2817682Y-8347531D01*
X2817682Y-8347531D02*
X2827205Y-8366579D01*
X2827205Y-8366579D02*
X2836729Y-8404674D01*
X2836729Y-8404674D02*
X2836729Y-8452293D01*
X2836729Y-8452293D02*
X2827205Y-8490389D01*
X2827205Y-8490389D02*
X2817682Y-8509436D01*
X2817682Y-8509436D02*
X2808158Y-8518960D01*
X2808158Y-8518960D02*
X2789110Y-8528484D01*
X2789110Y-8528484D02*
X2770063Y-8528484D01*
X2770063Y-8528484D02*
X2751015Y-8518960D01*
X2751015Y-8518960D02*
X2741491Y-8509436D01*
X2741491Y-8509436D02*
X2731967Y-8490389D01*
X2731967Y-8490389D02*
X2722444Y-8452293D01*
X2722444Y-8452293D02*
X2722444Y-8404674D01*
X2722444Y-8404674D02*
X2731967Y-8366579D01*
X2731967Y-8366579D02*
X2741491Y-8347531D01*
X2741491Y-8347531D02*
X2751015Y-8338008D01*
X2751015Y-8338008D02*
X2770063Y-8328484D01*
X2960539Y-8328484D02*
X2979586Y-8328484D01*
X2979586Y-8328484D02*
X2998634Y-8338008D01*
X2998634Y-8338008D02*
X3008158Y-8347531D01*
X3008158Y-8347531D02*
X3017682Y-8366579D01*
X3017682Y-8366579D02*
X3027205Y-8404674D01*
X3027205Y-8404674D02*
X3027205Y-8452293D01*
X3027205Y-8452293D02*
X3017682Y-8490389D01*
X3017682Y-8490389D02*
X3008158Y-8509436D01*
X3008158Y-8509436D02*
X2998634Y-8518960D01*
X2998634Y-8518960D02*
X2979586Y-8528484D01*
X2979586Y-8528484D02*
X2960539Y-8528484D01*
X2960539Y-8528484D02*
X2941491Y-8518960D01*
X2941491Y-8518960D02*
X2931967Y-8509436D01*
X2931967Y-8509436D02*
X2922443Y-8490389D01*
X2922443Y-8490389D02*
X2912920Y-8452293D01*
X2912920Y-8452293D02*
X2912920Y-8404674D01*
X2912920Y-8404674D02*
X2922443Y-8366579D01*
X2922443Y-8366579D02*
X2931967Y-8347531D01*
X2931967Y-8347531D02*
X2941491Y-8338008D01*
X2941491Y-8338008D02*
X2960539Y-8328484D01*
X3112920Y-8528484D02*
X3112920Y-8395150D01*
X3112920Y-8414198D02*
X3122443Y-8404674D01*
X3122443Y-8404674D02*
X3141491Y-8395150D01*
X3141491Y-8395150D02*
X3170063Y-8395150D01*
X3170063Y-8395150D02*
X3189110Y-8404674D01*
X3189110Y-8404674D02*
X3198634Y-8423722D01*
X3198634Y-8423722D02*
X3198634Y-8528484D01*
X3198634Y-8423722D02*
X3208158Y-8404674D01*
X3208158Y-8404674D02*
X3227205Y-8395150D01*
X3227205Y-8395150D02*
X3255777Y-8395150D01*
X3255777Y-8395150D02*
X3274824Y-8404674D01*
X3274824Y-8404674D02*
X3284348Y-8423722D01*
X3284348Y-8423722D02*
X3284348Y-8528484D01*
X3379586Y-8528484D02*
X3379586Y-8395150D01*
X3379586Y-8414198D02*
X3389110Y-8404674D01*
X3389110Y-8404674D02*
X3408158Y-8395150D01*
X3408158Y-8395150D02*
X3436729Y-8395150D01*
X3436729Y-8395150D02*
X3455777Y-8404674D01*
X3455777Y-8404674D02*
X3465301Y-8423722D01*
X3465301Y-8423722D02*
X3465301Y-8528484D01*
X3465301Y-8423722D02*
X3474824Y-8404674D01*
X3474824Y-8404674D02*
X3493872Y-8395150D01*
X3493872Y-8395150D02*
X3522443Y-8395150D01*
X3522443Y-8395150D02*
X3541491Y-8404674D01*
X3541491Y-8404674D02*
X3551015Y-8423722D01*
X3551015Y-8423722D02*
X3551015Y-8528484D01*
X3941491Y-8318960D02*
X3770063Y-8576103D01*
X4198634Y-8328484D02*
X4217682Y-8328484D01*
X4217682Y-8328484D02*
X4236729Y-8338008D01*
X4236729Y-8338008D02*
X4246253Y-8347531D01*
X4246253Y-8347531D02*
X4255777Y-8366579D01*
X4255777Y-8366579D02*
X4265301Y-8404674D01*
X4265301Y-8404674D02*
X4265301Y-8452293D01*
X4265301Y-8452293D02*
X4255777Y-8490389D01*
X4255777Y-8490389D02*
X4246253Y-8509436D01*
X4246253Y-8509436D02*
X4236729Y-8518960D01*
X4236729Y-8518960D02*
X4217682Y-8528484D01*
X4217682Y-8528484D02*
X4198634Y-8528484D01*
X4198634Y-8528484D02*
X4179586Y-8518960D01*
X4179586Y-8518960D02*
X4170063Y-8509436D01*
X4170063Y-8509436D02*
X4160539Y-8490389D01*
X4160539Y-8490389D02*
X4151015Y-8452293D01*
X4151015Y-8452293D02*
X4151015Y-8404674D01*
X4151015Y-8404674D02*
X4160539Y-8366579D01*
X4160539Y-8366579D02*
X4170063Y-8347531D01*
X4170063Y-8347531D02*
X4179586Y-8338008D01*
X4179586Y-8338008D02*
X4198634Y-8328484D01*
X4351015Y-8509436D02*
X4360539Y-8518960D01*
X4360539Y-8518960D02*
X4351015Y-8528484D01*
X4351015Y-8528484D02*
X4341491Y-8518960D01*
X4341491Y-8518960D02*
X4351015Y-8509436D01*
X4351015Y-8509436D02*
X4351015Y-8528484D01*
X4484348Y-8328484D02*
X4503396Y-8328484D01*
X4503396Y-8328484D02*
X4522444Y-8338008D01*
X4522444Y-8338008D02*
X4531968Y-8347531D01*
X4531968Y-8347531D02*
X4541491Y-8366579D01*
X4541491Y-8366579D02*
X4551015Y-8404674D01*
X4551015Y-8404674D02*
X4551015Y-8452293D01*
X4551015Y-8452293D02*
X4541491Y-8490389D01*
X4541491Y-8490389D02*
X4531968Y-8509436D01*
X4531968Y-8509436D02*
X4522444Y-8518960D01*
X4522444Y-8518960D02*
X4503396Y-8528484D01*
X4503396Y-8528484D02*
X4484348Y-8528484D01*
X4484348Y-8528484D02*
X4465301Y-8518960D01*
X4465301Y-8518960D02*
X4455777Y-8509436D01*
X4455777Y-8509436D02*
X4446253Y-8490389D01*
X4446253Y-8490389D02*
X4436729Y-8452293D01*
X4436729Y-8452293D02*
X4436729Y-8404674D01*
X4436729Y-8404674D02*
X4446253Y-8366579D01*
X4446253Y-8366579D02*
X4455777Y-8347531D01*
X4455777Y-8347531D02*
X4465301Y-8338008D01*
X4465301Y-8338008D02*
X4484348Y-8328484D01*
X4617682Y-8328484D02*
X4741491Y-8328484D01*
X4741491Y-8328484D02*
X4674825Y-8404674D01*
X4674825Y-8404674D02*
X4703396Y-8404674D01*
X4703396Y-8404674D02*
X4722444Y-8414198D01*
X4722444Y-8414198D02*
X4731968Y-8423722D01*
X4731968Y-8423722D02*
X4741491Y-8442770D01*
X4741491Y-8442770D02*
X4741491Y-8490389D01*
X4741491Y-8490389D02*
X4731968Y-8509436D01*
X4731968Y-8509436D02*
X4722444Y-8518960D01*
X4722444Y-8518960D02*
X4703396Y-8528484D01*
X4703396Y-8528484D02*
X4646253Y-8528484D01*
X4646253Y-8528484D02*
X4627206Y-8518960D01*
X4627206Y-8518960D02*
X4617682Y-8509436D01*
X4836729Y-8528484D02*
X4874825Y-8528484D01*
X4874825Y-8528484D02*
X4893872Y-8518960D01*
X4893872Y-8518960D02*
X4903396Y-8509436D01*
X4903396Y-8509436D02*
X4922444Y-8480865D01*
X4922444Y-8480865D02*
X4931968Y-8442770D01*
X4931968Y-8442770D02*
X4931968Y-8366579D01*
X4931968Y-8366579D02*
X4922444Y-8347531D01*
X4922444Y-8347531D02*
X4912920Y-8338008D01*
X4912920Y-8338008D02*
X4893872Y-8328484D01*
X4893872Y-8328484D02*
X4855777Y-8328484D01*
X4855777Y-8328484D02*
X4836729Y-8338008D01*
X4836729Y-8338008D02*
X4827206Y-8347531D01*
X4827206Y-8347531D02*
X4817682Y-8366579D01*
X4817682Y-8366579D02*
X4817682Y-8414198D01*
X4817682Y-8414198D02*
X4827206Y-8433246D01*
X4827206Y-8433246D02*
X4836729Y-8442770D01*
X4836729Y-8442770D02*
X4855777Y-8452293D01*
X4855777Y-8452293D02*
X4893872Y-8452293D01*
X4893872Y-8452293D02*
X4912920Y-8442770D01*
X4912920Y-8442770D02*
X4922444Y-8433246D01*
X4922444Y-8433246D02*
X4931968Y-8414198D01*
X5103396Y-8395150D02*
X5103396Y-8528484D01*
X5055777Y-8318960D02*
X5008158Y-8461817D01*
X5008158Y-8461817D02*
X5131968Y-8461817D01*
X5198634Y-8328484D02*
X5198634Y-8366579D01*
X5274825Y-8328484D02*
X5274825Y-8366579D01*
X5570063Y-8604674D02*
X5560539Y-8595150D01*
X5560539Y-8595150D02*
X5541491Y-8566579D01*
X5541491Y-8566579D02*
X5531968Y-8547531D01*
X5531968Y-8547531D02*
X5522444Y-8518960D01*
X5522444Y-8518960D02*
X5512920Y-8471341D01*
X5512920Y-8471341D02*
X5512920Y-8433246D01*
X5512920Y-8433246D02*
X5522444Y-8385627D01*
X5522444Y-8385627D02*
X5531968Y-8357055D01*
X5531968Y-8357055D02*
X5541491Y-8338008D01*
X5541491Y-8338008D02*
X5560539Y-8309436D01*
X5560539Y-8309436D02*
X5570063Y-8299912D01*
X5636729Y-8347531D02*
X5646253Y-8338008D01*
X5646253Y-8338008D02*
X5665301Y-8328484D01*
X5665301Y-8328484D02*
X5712920Y-8328484D01*
X5712920Y-8328484D02*
X5731968Y-8338008D01*
X5731968Y-8338008D02*
X5741491Y-8347531D01*
X5741491Y-8347531D02*
X5751015Y-8366579D01*
X5751015Y-8366579D02*
X5751015Y-8385627D01*
X5751015Y-8385627D02*
X5741491Y-8414198D01*
X5741491Y-8414198D02*
X5627206Y-8528484D01*
X5627206Y-8528484D02*
X5751015Y-8528484D01*
X5922444Y-8395150D02*
X5922444Y-8528484D01*
X5874825Y-8318960D02*
X5827206Y-8461817D01*
X5827206Y-8461817D02*
X5951015Y-8461817D01*
X6179587Y-8528484D02*
X6179587Y-8328484D01*
X6265301Y-8528484D02*
X6265301Y-8423722D01*
X6265301Y-8423722D02*
X6255777Y-8404674D01*
X6255777Y-8404674D02*
X6236730Y-8395150D01*
X6236730Y-8395150D02*
X6208158Y-8395150D01*
X6208158Y-8395150D02*
X6189110Y-8404674D01*
X6189110Y-8404674D02*
X6179587Y-8414198D01*
X6389110Y-8528484D02*
X6370063Y-8518960D01*
X6370063Y-8518960D02*
X6360539Y-8509436D01*
X6360539Y-8509436D02*
X6351015Y-8490389D01*
X6351015Y-8490389D02*
X6351015Y-8433246D01*
X6351015Y-8433246D02*
X6360539Y-8414198D01*
X6360539Y-8414198D02*
X6370063Y-8404674D01*
X6370063Y-8404674D02*
X6389110Y-8395150D01*
X6389110Y-8395150D02*
X6417682Y-8395150D01*
X6417682Y-8395150D02*
X6436730Y-8404674D01*
X6436730Y-8404674D02*
X6446253Y-8414198D01*
X6446253Y-8414198D02*
X6455777Y-8433246D01*
X6455777Y-8433246D02*
X6455777Y-8490389D01*
X6455777Y-8490389D02*
X6446253Y-8509436D01*
X6446253Y-8509436D02*
X6436730Y-8518960D01*
X6436730Y-8518960D02*
X6417682Y-8528484D01*
X6417682Y-8528484D02*
X6389110Y-8528484D01*
X6570063Y-8528484D02*
X6551015Y-8518960D01*
X6551015Y-8518960D02*
X6541491Y-8499912D01*
X6541491Y-8499912D02*
X6541491Y-8328484D01*
X6722444Y-8518960D02*
X6703396Y-8528484D01*
X6703396Y-8528484D02*
X6665301Y-8528484D01*
X6665301Y-8528484D02*
X6646253Y-8518960D01*
X6646253Y-8518960D02*
X6636730Y-8499912D01*
X6636730Y-8499912D02*
X6636730Y-8423722D01*
X6636730Y-8423722D02*
X6646253Y-8404674D01*
X6646253Y-8404674D02*
X6665301Y-8395150D01*
X6665301Y-8395150D02*
X6703396Y-8395150D01*
X6703396Y-8395150D02*
X6722444Y-8404674D01*
X6722444Y-8404674D02*
X6731968Y-8423722D01*
X6731968Y-8423722D02*
X6731968Y-8442770D01*
X6731968Y-8442770D02*
X6636730Y-8461817D01*
X6808158Y-8518960D02*
X6827206Y-8528484D01*
X6827206Y-8528484D02*
X6865301Y-8528484D01*
X6865301Y-8528484D02*
X6884349Y-8518960D01*
X6884349Y-8518960D02*
X6893872Y-8499912D01*
X6893872Y-8499912D02*
X6893872Y-8490389D01*
X6893872Y-8490389D02*
X6884349Y-8471341D01*
X6884349Y-8471341D02*
X6865301Y-8461817D01*
X6865301Y-8461817D02*
X6836730Y-8461817D01*
X6836730Y-8461817D02*
X6817682Y-8452293D01*
X6817682Y-8452293D02*
X6808158Y-8433246D01*
X6808158Y-8433246D02*
X6808158Y-8423722D01*
X6808158Y-8423722D02*
X6817682Y-8404674D01*
X6817682Y-8404674D02*
X6836730Y-8395150D01*
X6836730Y-8395150D02*
X6865301Y-8395150D01*
X6865301Y-8395150D02*
X6884349Y-8404674D01*
X6960539Y-8604674D02*
X6970063Y-8595150D01*
X6970063Y-8595150D02*
X6989111Y-8566579D01*
X6989111Y-8566579D02*
X6998634Y-8547531D01*
X6998634Y-8547531D02*
X7008158Y-8518960D01*
X7008158Y-8518960D02*
X7017682Y-8471341D01*
X7017682Y-8471341D02*
X7017682Y-8433246D01*
X7017682Y-8433246D02*
X7008158Y-8385627D01*
X7008158Y-8385627D02*
X6998634Y-8357055D01*
X6998634Y-8357055D02*
X6989111Y-8338008D01*
X6989111Y-8338008D02*
X6970063Y-8309436D01*
X6970063Y-8309436D02*
X6960539Y-8299912D01*
D12*
X1935000Y-8761000D02*
X1995000Y-8701000D01*
X1935000Y-8641000D01*
X1875000Y-8701000D01*
X1935000Y-8761000D01*
D11*
X2360539Y-8792484D02*
X2246253Y-8792484D01*
X2303396Y-8792484D02*
X2303396Y-8592484D01*
X2303396Y-8592484D02*
X2284348Y-8621055D01*
X2284348Y-8621055D02*
X2265301Y-8640103D01*
X2265301Y-8640103D02*
X2246253Y-8649627D01*
X2446253Y-8773436D02*
X2455777Y-8782960D01*
X2455777Y-8782960D02*
X2446253Y-8792484D01*
X2446253Y-8792484D02*
X2436729Y-8782960D01*
X2436729Y-8782960D02*
X2446253Y-8773436D01*
X2446253Y-8773436D02*
X2446253Y-8792484D01*
X2531967Y-8611531D02*
X2541491Y-8602008D01*
X2541491Y-8602008D02*
X2560539Y-8592484D01*
X2560539Y-8592484D02*
X2608158Y-8592484D01*
X2608158Y-8592484D02*
X2627205Y-8602008D01*
X2627205Y-8602008D02*
X2636729Y-8611531D01*
X2636729Y-8611531D02*
X2646253Y-8630579D01*
X2646253Y-8630579D02*
X2646253Y-8649627D01*
X2646253Y-8649627D02*
X2636729Y-8678198D01*
X2636729Y-8678198D02*
X2522444Y-8792484D01*
X2522444Y-8792484D02*
X2646253Y-8792484D01*
X2770063Y-8592484D02*
X2789110Y-8592484D01*
X2789110Y-8592484D02*
X2808158Y-8602008D01*
X2808158Y-8602008D02*
X2817682Y-8611531D01*
X2817682Y-8611531D02*
X2827205Y-8630579D01*
X2827205Y-8630579D02*
X2836729Y-8668674D01*
X2836729Y-8668674D02*
X2836729Y-8716293D01*
X2836729Y-8716293D02*
X2827205Y-8754389D01*
X2827205Y-8754389D02*
X2817682Y-8773436D01*
X2817682Y-8773436D02*
X2808158Y-8782960D01*
X2808158Y-8782960D02*
X2789110Y-8792484D01*
X2789110Y-8792484D02*
X2770063Y-8792484D01*
X2770063Y-8792484D02*
X2751015Y-8782960D01*
X2751015Y-8782960D02*
X2741491Y-8773436D01*
X2741491Y-8773436D02*
X2731967Y-8754389D01*
X2731967Y-8754389D02*
X2722444Y-8716293D01*
X2722444Y-8716293D02*
X2722444Y-8668674D01*
X2722444Y-8668674D02*
X2731967Y-8630579D01*
X2731967Y-8630579D02*
X2741491Y-8611531D01*
X2741491Y-8611531D02*
X2751015Y-8602008D01*
X2751015Y-8602008D02*
X2770063Y-8592484D01*
X2960539Y-8592484D02*
X2979586Y-8592484D01*
X2979586Y-8592484D02*
X2998634Y-8602008D01*
X2998634Y-8602008D02*
X3008158Y-8611531D01*
X3008158Y-8611531D02*
X3017682Y-8630579D01*
X3017682Y-8630579D02*
X3027205Y-8668674D01*
X3027205Y-8668674D02*
X3027205Y-8716293D01*
X3027205Y-8716293D02*
X3017682Y-8754389D01*
X3017682Y-8754389D02*
X3008158Y-8773436D01*
X3008158Y-8773436D02*
X2998634Y-8782960D01*
X2998634Y-8782960D02*
X2979586Y-8792484D01*
X2979586Y-8792484D02*
X2960539Y-8792484D01*
X2960539Y-8792484D02*
X2941491Y-8782960D01*
X2941491Y-8782960D02*
X2931967Y-8773436D01*
X2931967Y-8773436D02*
X2922443Y-8754389D01*
X2922443Y-8754389D02*
X2912920Y-8716293D01*
X2912920Y-8716293D02*
X2912920Y-8668674D01*
X2912920Y-8668674D02*
X2922443Y-8630579D01*
X2922443Y-8630579D02*
X2931967Y-8611531D01*
X2931967Y-8611531D02*
X2941491Y-8602008D01*
X2941491Y-8602008D02*
X2960539Y-8592484D01*
X3112920Y-8792484D02*
X3112920Y-8659150D01*
X3112920Y-8678198D02*
X3122443Y-8668674D01*
X3122443Y-8668674D02*
X3141491Y-8659150D01*
X3141491Y-8659150D02*
X3170063Y-8659150D01*
X3170063Y-8659150D02*
X3189110Y-8668674D01*
X3189110Y-8668674D02*
X3198634Y-8687722D01*
X3198634Y-8687722D02*
X3198634Y-8792484D01*
X3198634Y-8687722D02*
X3208158Y-8668674D01*
X3208158Y-8668674D02*
X3227205Y-8659150D01*
X3227205Y-8659150D02*
X3255777Y-8659150D01*
X3255777Y-8659150D02*
X3274824Y-8668674D01*
X3274824Y-8668674D02*
X3284348Y-8687722D01*
X3284348Y-8687722D02*
X3284348Y-8792484D01*
X3379586Y-8792484D02*
X3379586Y-8659150D01*
X3379586Y-8678198D02*
X3389110Y-8668674D01*
X3389110Y-8668674D02*
X3408158Y-8659150D01*
X3408158Y-8659150D02*
X3436729Y-8659150D01*
X3436729Y-8659150D02*
X3455777Y-8668674D01*
X3455777Y-8668674D02*
X3465301Y-8687722D01*
X3465301Y-8687722D02*
X3465301Y-8792484D01*
X3465301Y-8687722D02*
X3474824Y-8668674D01*
X3474824Y-8668674D02*
X3493872Y-8659150D01*
X3493872Y-8659150D02*
X3522443Y-8659150D01*
X3522443Y-8659150D02*
X3541491Y-8668674D01*
X3541491Y-8668674D02*
X3551015Y-8687722D01*
X3551015Y-8687722D02*
X3551015Y-8792484D01*
X3941491Y-8582960D02*
X3770063Y-8840103D01*
X4198634Y-8592484D02*
X4217682Y-8592484D01*
X4217682Y-8592484D02*
X4236729Y-8602008D01*
X4236729Y-8602008D02*
X4246253Y-8611531D01*
X4246253Y-8611531D02*
X4255777Y-8630579D01*
X4255777Y-8630579D02*
X4265301Y-8668674D01*
X4265301Y-8668674D02*
X4265301Y-8716293D01*
X4265301Y-8716293D02*
X4255777Y-8754389D01*
X4255777Y-8754389D02*
X4246253Y-8773436D01*
X4246253Y-8773436D02*
X4236729Y-8782960D01*
X4236729Y-8782960D02*
X4217682Y-8792484D01*
X4217682Y-8792484D02*
X4198634Y-8792484D01*
X4198634Y-8792484D02*
X4179586Y-8782960D01*
X4179586Y-8782960D02*
X4170063Y-8773436D01*
X4170063Y-8773436D02*
X4160539Y-8754389D01*
X4160539Y-8754389D02*
X4151015Y-8716293D01*
X4151015Y-8716293D02*
X4151015Y-8668674D01*
X4151015Y-8668674D02*
X4160539Y-8630579D01*
X4160539Y-8630579D02*
X4170063Y-8611531D01*
X4170063Y-8611531D02*
X4179586Y-8602008D01*
X4179586Y-8602008D02*
X4198634Y-8592484D01*
X4351015Y-8773436D02*
X4360539Y-8782960D01*
X4360539Y-8782960D02*
X4351015Y-8792484D01*
X4351015Y-8792484D02*
X4341491Y-8782960D01*
X4341491Y-8782960D02*
X4351015Y-8773436D01*
X4351015Y-8773436D02*
X4351015Y-8792484D01*
X4484348Y-8592484D02*
X4503396Y-8592484D01*
X4503396Y-8592484D02*
X4522444Y-8602008D01*
X4522444Y-8602008D02*
X4531968Y-8611531D01*
X4531968Y-8611531D02*
X4541491Y-8630579D01*
X4541491Y-8630579D02*
X4551015Y-8668674D01*
X4551015Y-8668674D02*
X4551015Y-8716293D01*
X4551015Y-8716293D02*
X4541491Y-8754389D01*
X4541491Y-8754389D02*
X4531968Y-8773436D01*
X4531968Y-8773436D02*
X4522444Y-8782960D01*
X4522444Y-8782960D02*
X4503396Y-8792484D01*
X4503396Y-8792484D02*
X4484348Y-8792484D01*
X4484348Y-8792484D02*
X4465301Y-8782960D01*
X4465301Y-8782960D02*
X4455777Y-8773436D01*
X4455777Y-8773436D02*
X4446253Y-8754389D01*
X4446253Y-8754389D02*
X4436729Y-8716293D01*
X4436729Y-8716293D02*
X4436729Y-8668674D01*
X4436729Y-8668674D02*
X4446253Y-8630579D01*
X4446253Y-8630579D02*
X4455777Y-8611531D01*
X4455777Y-8611531D02*
X4465301Y-8602008D01*
X4465301Y-8602008D02*
X4484348Y-8592484D01*
X4722444Y-8659150D02*
X4722444Y-8792484D01*
X4674825Y-8582960D02*
X4627206Y-8725817D01*
X4627206Y-8725817D02*
X4751015Y-8725817D01*
X4808158Y-8592484D02*
X4941491Y-8592484D01*
X4941491Y-8592484D02*
X4855777Y-8792484D01*
X5008158Y-8611531D02*
X5017682Y-8602008D01*
X5017682Y-8602008D02*
X5036729Y-8592484D01*
X5036729Y-8592484D02*
X5084349Y-8592484D01*
X5084349Y-8592484D02*
X5103396Y-8602008D01*
X5103396Y-8602008D02*
X5112920Y-8611531D01*
X5112920Y-8611531D02*
X5122444Y-8630579D01*
X5122444Y-8630579D02*
X5122444Y-8649627D01*
X5122444Y-8649627D02*
X5112920Y-8678198D01*
X5112920Y-8678198D02*
X4998634Y-8792484D01*
X4998634Y-8792484D02*
X5122444Y-8792484D01*
X5198634Y-8592484D02*
X5198634Y-8630579D01*
X5274825Y-8592484D02*
X5274825Y-8630579D01*
X5570063Y-8868674D02*
X5560539Y-8859150D01*
X5560539Y-8859150D02*
X5541491Y-8830579D01*
X5541491Y-8830579D02*
X5531968Y-8811531D01*
X5531968Y-8811531D02*
X5522444Y-8782960D01*
X5522444Y-8782960D02*
X5512920Y-8735341D01*
X5512920Y-8735341D02*
X5512920Y-8697246D01*
X5512920Y-8697246D02*
X5522444Y-8649627D01*
X5522444Y-8649627D02*
X5531968Y-8621055D01*
X5531968Y-8621055D02*
X5541491Y-8602008D01*
X5541491Y-8602008D02*
X5560539Y-8573436D01*
X5560539Y-8573436D02*
X5570063Y-8563912D01*
X5731968Y-8659150D02*
X5731968Y-8792484D01*
X5684348Y-8582960D02*
X5636729Y-8725817D01*
X5636729Y-8725817D02*
X5760539Y-8725817D01*
X5989110Y-8792484D02*
X5989110Y-8592484D01*
X6074825Y-8792484D02*
X6074825Y-8687722D01*
X6074825Y-8687722D02*
X6065301Y-8668674D01*
X6065301Y-8668674D02*
X6046253Y-8659150D01*
X6046253Y-8659150D02*
X6017682Y-8659150D01*
X6017682Y-8659150D02*
X5998634Y-8668674D01*
X5998634Y-8668674D02*
X5989110Y-8678198D01*
X6198634Y-8792484D02*
X6179587Y-8782960D01*
X6179587Y-8782960D02*
X6170063Y-8773436D01*
X6170063Y-8773436D02*
X6160539Y-8754389D01*
X6160539Y-8754389D02*
X6160539Y-8697246D01*
X6160539Y-8697246D02*
X6170063Y-8678198D01*
X6170063Y-8678198D02*
X6179587Y-8668674D01*
X6179587Y-8668674D02*
X6198634Y-8659150D01*
X6198634Y-8659150D02*
X6227206Y-8659150D01*
X6227206Y-8659150D02*
X6246253Y-8668674D01*
X6246253Y-8668674D02*
X6255777Y-8678198D01*
X6255777Y-8678198D02*
X6265301Y-8697246D01*
X6265301Y-8697246D02*
X6265301Y-8754389D01*
X6265301Y-8754389D02*
X6255777Y-8773436D01*
X6255777Y-8773436D02*
X6246253Y-8782960D01*
X6246253Y-8782960D02*
X6227206Y-8792484D01*
X6227206Y-8792484D02*
X6198634Y-8792484D01*
X6379587Y-8792484D02*
X6360539Y-8782960D01*
X6360539Y-8782960D02*
X6351015Y-8763912D01*
X6351015Y-8763912D02*
X6351015Y-8592484D01*
X6531968Y-8782960D02*
X6512920Y-8792484D01*
X6512920Y-8792484D02*
X6474825Y-8792484D01*
X6474825Y-8792484D02*
X6455777Y-8782960D01*
X6455777Y-8782960D02*
X6446253Y-8763912D01*
X6446253Y-8763912D02*
X6446253Y-8687722D01*
X6446253Y-8687722D02*
X6455777Y-8668674D01*
X6455777Y-8668674D02*
X6474825Y-8659150D01*
X6474825Y-8659150D02*
X6512920Y-8659150D01*
X6512920Y-8659150D02*
X6531968Y-8668674D01*
X6531968Y-8668674D02*
X6541491Y-8687722D01*
X6541491Y-8687722D02*
X6541491Y-8706770D01*
X6541491Y-8706770D02*
X6446253Y-8725817D01*
X6617682Y-8782960D02*
X6636730Y-8792484D01*
X6636730Y-8792484D02*
X6674825Y-8792484D01*
X6674825Y-8792484D02*
X6693872Y-8782960D01*
X6693872Y-8782960D02*
X6703396Y-8763912D01*
X6703396Y-8763912D02*
X6703396Y-8754389D01*
X6703396Y-8754389D02*
X6693872Y-8735341D01*
X6693872Y-8735341D02*
X6674825Y-8725817D01*
X6674825Y-8725817D02*
X6646253Y-8725817D01*
X6646253Y-8725817D02*
X6627206Y-8716293D01*
X6627206Y-8716293D02*
X6617682Y-8697246D01*
X6617682Y-8697246D02*
X6617682Y-8687722D01*
X6617682Y-8687722D02*
X6627206Y-8668674D01*
X6627206Y-8668674D02*
X6646253Y-8659150D01*
X6646253Y-8659150D02*
X6674825Y-8659150D01*
X6674825Y-8659150D02*
X6693872Y-8668674D01*
X6770063Y-8868674D02*
X6779587Y-8859150D01*
X6779587Y-8859150D02*
X6798634Y-8830579D01*
X6798634Y-8830579D02*
X6808158Y-8811531D01*
X6808158Y-8811531D02*
X6817682Y-8782960D01*
X6817682Y-8782960D02*
X6827206Y-8735341D01*
X6827206Y-8735341D02*
X6827206Y-8697246D01*
X6827206Y-8697246D02*
X6817682Y-8649627D01*
X6817682Y-8649627D02*
X6808158Y-8621055D01*
X6808158Y-8621055D02*
X6798634Y-8602008D01*
X6798634Y-8602008D02*
X6779587Y-8573436D01*
X6779587Y-8573436D02*
X6770063Y-8563912D01*
D13*
X1855000Y-8895000D02*
X1995000Y-9035000D01*
X1995000Y-8895000D02*
X1855000Y-9035000D01*
X1995000Y-8965000D02*
G75*
G02*
X1855000Y-8965000I-70000J0D01*
G01*
X1855000Y-8965000D02*
G75*
G02*
X1995000Y-8965000I70000J0D01*
G01*
D11*
X2360539Y-9056484D02*
X2246253Y-9056484D01*
X2303396Y-9056484D02*
X2303396Y-8856484D01*
X2303396Y-8856484D02*
X2284348Y-8885055D01*
X2284348Y-8885055D02*
X2265301Y-8904103D01*
X2265301Y-8904103D02*
X2246253Y-8913627D01*
X2446253Y-9037436D02*
X2455777Y-9046960D01*
X2455777Y-9046960D02*
X2446253Y-9056484D01*
X2446253Y-9056484D02*
X2436729Y-9046960D01*
X2436729Y-9046960D02*
X2446253Y-9037436D01*
X2446253Y-9037436D02*
X2446253Y-9056484D01*
X2627205Y-8923150D02*
X2627205Y-9056484D01*
X2579586Y-8846960D02*
X2531967Y-8989817D01*
X2531967Y-8989817D02*
X2655777Y-8989817D01*
X2770063Y-8856484D02*
X2789110Y-8856484D01*
X2789110Y-8856484D02*
X2808158Y-8866008D01*
X2808158Y-8866008D02*
X2817682Y-8875531D01*
X2817682Y-8875531D02*
X2827205Y-8894579D01*
X2827205Y-8894579D02*
X2836729Y-8932674D01*
X2836729Y-8932674D02*
X2836729Y-8980293D01*
X2836729Y-8980293D02*
X2827205Y-9018389D01*
X2827205Y-9018389D02*
X2817682Y-9037436D01*
X2817682Y-9037436D02*
X2808158Y-9046960D01*
X2808158Y-9046960D02*
X2789110Y-9056484D01*
X2789110Y-9056484D02*
X2770063Y-9056484D01*
X2770063Y-9056484D02*
X2751015Y-9046960D01*
X2751015Y-9046960D02*
X2741491Y-9037436D01*
X2741491Y-9037436D02*
X2731967Y-9018389D01*
X2731967Y-9018389D02*
X2722444Y-8980293D01*
X2722444Y-8980293D02*
X2722444Y-8932674D01*
X2722444Y-8932674D02*
X2731967Y-8894579D01*
X2731967Y-8894579D02*
X2741491Y-8875531D01*
X2741491Y-8875531D02*
X2751015Y-8866008D01*
X2751015Y-8866008D02*
X2770063Y-8856484D01*
X2960539Y-8856484D02*
X2979586Y-8856484D01*
X2979586Y-8856484D02*
X2998634Y-8866008D01*
X2998634Y-8866008D02*
X3008158Y-8875531D01*
X3008158Y-8875531D02*
X3017682Y-8894579D01*
X3017682Y-8894579D02*
X3027205Y-8932674D01*
X3027205Y-8932674D02*
X3027205Y-8980293D01*
X3027205Y-8980293D02*
X3017682Y-9018389D01*
X3017682Y-9018389D02*
X3008158Y-9037436D01*
X3008158Y-9037436D02*
X2998634Y-9046960D01*
X2998634Y-9046960D02*
X2979586Y-9056484D01*
X2979586Y-9056484D02*
X2960539Y-9056484D01*
X2960539Y-9056484D02*
X2941491Y-9046960D01*
X2941491Y-9046960D02*
X2931967Y-9037436D01*
X2931967Y-9037436D02*
X2922443Y-9018389D01*
X2922443Y-9018389D02*
X2912920Y-8980293D01*
X2912920Y-8980293D02*
X2912920Y-8932674D01*
X2912920Y-8932674D02*
X2922443Y-8894579D01*
X2922443Y-8894579D02*
X2931967Y-8875531D01*
X2931967Y-8875531D02*
X2941491Y-8866008D01*
X2941491Y-8866008D02*
X2960539Y-8856484D01*
X3112920Y-9056484D02*
X3112920Y-8923150D01*
X3112920Y-8942198D02*
X3122443Y-8932674D01*
X3122443Y-8932674D02*
X3141491Y-8923150D01*
X3141491Y-8923150D02*
X3170063Y-8923150D01*
X3170063Y-8923150D02*
X3189110Y-8932674D01*
X3189110Y-8932674D02*
X3198634Y-8951722D01*
X3198634Y-8951722D02*
X3198634Y-9056484D01*
X3198634Y-8951722D02*
X3208158Y-8932674D01*
X3208158Y-8932674D02*
X3227205Y-8923150D01*
X3227205Y-8923150D02*
X3255777Y-8923150D01*
X3255777Y-8923150D02*
X3274824Y-8932674D01*
X3274824Y-8932674D02*
X3284348Y-8951722D01*
X3284348Y-8951722D02*
X3284348Y-9056484D01*
X3379586Y-9056484D02*
X3379586Y-8923150D01*
X3379586Y-8942198D02*
X3389110Y-8932674D01*
X3389110Y-8932674D02*
X3408158Y-8923150D01*
X3408158Y-8923150D02*
X3436729Y-8923150D01*
X3436729Y-8923150D02*
X3455777Y-8932674D01*
X3455777Y-8932674D02*
X3465301Y-8951722D01*
X3465301Y-8951722D02*
X3465301Y-9056484D01*
X3465301Y-8951722D02*
X3474824Y-8932674D01*
X3474824Y-8932674D02*
X3493872Y-8923150D01*
X3493872Y-8923150D02*
X3522443Y-8923150D01*
X3522443Y-8923150D02*
X3541491Y-8932674D01*
X3541491Y-8932674D02*
X3551015Y-8951722D01*
X3551015Y-8951722D02*
X3551015Y-9056484D01*
X3941491Y-8846960D02*
X3770063Y-9104103D01*
X4198634Y-8856484D02*
X4217682Y-8856484D01*
X4217682Y-8856484D02*
X4236729Y-8866008D01*
X4236729Y-8866008D02*
X4246253Y-8875531D01*
X4246253Y-8875531D02*
X4255777Y-8894579D01*
X4255777Y-8894579D02*
X4265301Y-8932674D01*
X4265301Y-8932674D02*
X4265301Y-8980293D01*
X4265301Y-8980293D02*
X4255777Y-9018389D01*
X4255777Y-9018389D02*
X4246253Y-9037436D01*
X4246253Y-9037436D02*
X4236729Y-9046960D01*
X4236729Y-9046960D02*
X4217682Y-9056484D01*
X4217682Y-9056484D02*
X4198634Y-9056484D01*
X4198634Y-9056484D02*
X4179586Y-9046960D01*
X4179586Y-9046960D02*
X4170063Y-9037436D01*
X4170063Y-9037436D02*
X4160539Y-9018389D01*
X4160539Y-9018389D02*
X4151015Y-8980293D01*
X4151015Y-8980293D02*
X4151015Y-8932674D01*
X4151015Y-8932674D02*
X4160539Y-8894579D01*
X4160539Y-8894579D02*
X4170063Y-8875531D01*
X4170063Y-8875531D02*
X4179586Y-8866008D01*
X4179586Y-8866008D02*
X4198634Y-8856484D01*
X4351015Y-9037436D02*
X4360539Y-9046960D01*
X4360539Y-9046960D02*
X4351015Y-9056484D01*
X4351015Y-9056484D02*
X4341491Y-9046960D01*
X4341491Y-9046960D02*
X4351015Y-9037436D01*
X4351015Y-9037436D02*
X4351015Y-9056484D01*
X4484348Y-8856484D02*
X4503396Y-8856484D01*
X4503396Y-8856484D02*
X4522444Y-8866008D01*
X4522444Y-8866008D02*
X4531968Y-8875531D01*
X4531968Y-8875531D02*
X4541491Y-8894579D01*
X4541491Y-8894579D02*
X4551015Y-8932674D01*
X4551015Y-8932674D02*
X4551015Y-8980293D01*
X4551015Y-8980293D02*
X4541491Y-9018389D01*
X4541491Y-9018389D02*
X4531968Y-9037436D01*
X4531968Y-9037436D02*
X4522444Y-9046960D01*
X4522444Y-9046960D02*
X4503396Y-9056484D01*
X4503396Y-9056484D02*
X4484348Y-9056484D01*
X4484348Y-9056484D02*
X4465301Y-9046960D01*
X4465301Y-9046960D02*
X4455777Y-9037436D01*
X4455777Y-9037436D02*
X4446253Y-9018389D01*
X4446253Y-9018389D02*
X4436729Y-8980293D01*
X4436729Y-8980293D02*
X4436729Y-8932674D01*
X4436729Y-8932674D02*
X4446253Y-8894579D01*
X4446253Y-8894579D02*
X4455777Y-8875531D01*
X4455777Y-8875531D02*
X4465301Y-8866008D01*
X4465301Y-8866008D02*
X4484348Y-8856484D01*
X4731968Y-8856484D02*
X4636729Y-8856484D01*
X4636729Y-8856484D02*
X4627206Y-8951722D01*
X4627206Y-8951722D02*
X4636729Y-8942198D01*
X4636729Y-8942198D02*
X4655777Y-8932674D01*
X4655777Y-8932674D02*
X4703396Y-8932674D01*
X4703396Y-8932674D02*
X4722444Y-8942198D01*
X4722444Y-8942198D02*
X4731968Y-8951722D01*
X4731968Y-8951722D02*
X4741491Y-8970770D01*
X4741491Y-8970770D02*
X4741491Y-9018389D01*
X4741491Y-9018389D02*
X4731968Y-9037436D01*
X4731968Y-9037436D02*
X4722444Y-9046960D01*
X4722444Y-9046960D02*
X4703396Y-9056484D01*
X4703396Y-9056484D02*
X4655777Y-9056484D01*
X4655777Y-9056484D02*
X4636729Y-9046960D01*
X4636729Y-9046960D02*
X4627206Y-9037436D01*
X4922444Y-8856484D02*
X4827206Y-8856484D01*
X4827206Y-8856484D02*
X4817682Y-8951722D01*
X4817682Y-8951722D02*
X4827206Y-8942198D01*
X4827206Y-8942198D02*
X4846253Y-8932674D01*
X4846253Y-8932674D02*
X4893872Y-8932674D01*
X4893872Y-8932674D02*
X4912920Y-8942198D01*
X4912920Y-8942198D02*
X4922444Y-8951722D01*
X4922444Y-8951722D02*
X4931968Y-8970770D01*
X4931968Y-8970770D02*
X4931968Y-9018389D01*
X4931968Y-9018389D02*
X4922444Y-9037436D01*
X4922444Y-9037436D02*
X4912920Y-9046960D01*
X4912920Y-9046960D02*
X4893872Y-9056484D01*
X4893872Y-9056484D02*
X4846253Y-9056484D01*
X4846253Y-9056484D02*
X4827206Y-9046960D01*
X4827206Y-9046960D02*
X4817682Y-9037436D01*
X5122444Y-9056484D02*
X5008158Y-9056484D01*
X5065301Y-9056484D02*
X5065301Y-8856484D01*
X5065301Y-8856484D02*
X5046253Y-8885055D01*
X5046253Y-8885055D02*
X5027206Y-8904103D01*
X5027206Y-8904103D02*
X5008158Y-8913627D01*
X5198634Y-8856484D02*
X5198634Y-8894579D01*
X5274825Y-8856484D02*
X5274825Y-8894579D01*
X5570063Y-9132674D02*
X5560539Y-9123150D01*
X5560539Y-9123150D02*
X5541491Y-9094579D01*
X5541491Y-9094579D02*
X5531968Y-9075531D01*
X5531968Y-9075531D02*
X5522444Y-9046960D01*
X5522444Y-9046960D02*
X5512920Y-8999341D01*
X5512920Y-8999341D02*
X5512920Y-8961246D01*
X5512920Y-8961246D02*
X5522444Y-8913627D01*
X5522444Y-8913627D02*
X5531968Y-8885055D01*
X5531968Y-8885055D02*
X5541491Y-8866008D01*
X5541491Y-8866008D02*
X5560539Y-8837436D01*
X5560539Y-8837436D02*
X5570063Y-8827912D01*
X5636729Y-8875531D02*
X5646253Y-8866008D01*
X5646253Y-8866008D02*
X5665301Y-8856484D01*
X5665301Y-8856484D02*
X5712920Y-8856484D01*
X5712920Y-8856484D02*
X5731968Y-8866008D01*
X5731968Y-8866008D02*
X5741491Y-8875531D01*
X5741491Y-8875531D02*
X5751015Y-8894579D01*
X5751015Y-8894579D02*
X5751015Y-8913627D01*
X5751015Y-8913627D02*
X5741491Y-8942198D01*
X5741491Y-8942198D02*
X5627206Y-9056484D01*
X5627206Y-9056484D02*
X5751015Y-9056484D01*
X5989110Y-9056484D02*
X5989110Y-8856484D01*
X6074825Y-9056484D02*
X6074825Y-8951722D01*
X6074825Y-8951722D02*
X6065301Y-8932674D01*
X6065301Y-8932674D02*
X6046253Y-8923150D01*
X6046253Y-8923150D02*
X6017682Y-8923150D01*
X6017682Y-8923150D02*
X5998634Y-8932674D01*
X5998634Y-8932674D02*
X5989110Y-8942198D01*
X6198634Y-9056484D02*
X6179587Y-9046960D01*
X6179587Y-9046960D02*
X6170063Y-9037436D01*
X6170063Y-9037436D02*
X6160539Y-9018389D01*
X6160539Y-9018389D02*
X6160539Y-8961246D01*
X6160539Y-8961246D02*
X6170063Y-8942198D01*
X6170063Y-8942198D02*
X6179587Y-8932674D01*
X6179587Y-8932674D02*
X6198634Y-8923150D01*
X6198634Y-8923150D02*
X6227206Y-8923150D01*
X6227206Y-8923150D02*
X6246253Y-8932674D01*
X6246253Y-8932674D02*
X6255777Y-8942198D01*
X6255777Y-8942198D02*
X6265301Y-8961246D01*
X6265301Y-8961246D02*
X6265301Y-9018389D01*
X6265301Y-9018389D02*
X6255777Y-9037436D01*
X6255777Y-9037436D02*
X6246253Y-9046960D01*
X6246253Y-9046960D02*
X6227206Y-9056484D01*
X6227206Y-9056484D02*
X6198634Y-9056484D01*
X6379587Y-9056484D02*
X6360539Y-9046960D01*
X6360539Y-9046960D02*
X6351015Y-9027912D01*
X6351015Y-9027912D02*
X6351015Y-8856484D01*
X6531968Y-9046960D02*
X6512920Y-9056484D01*
X6512920Y-9056484D02*
X6474825Y-9056484D01*
X6474825Y-9056484D02*
X6455777Y-9046960D01*
X6455777Y-9046960D02*
X6446253Y-9027912D01*
X6446253Y-9027912D02*
X6446253Y-8951722D01*
X6446253Y-8951722D02*
X6455777Y-8932674D01*
X6455777Y-8932674D02*
X6474825Y-8923150D01*
X6474825Y-8923150D02*
X6512920Y-8923150D01*
X6512920Y-8923150D02*
X6531968Y-8932674D01*
X6531968Y-8932674D02*
X6541491Y-8951722D01*
X6541491Y-8951722D02*
X6541491Y-8970770D01*
X6541491Y-8970770D02*
X6446253Y-8989817D01*
X6617682Y-9046960D02*
X6636730Y-9056484D01*
X6636730Y-9056484D02*
X6674825Y-9056484D01*
X6674825Y-9056484D02*
X6693872Y-9046960D01*
X6693872Y-9046960D02*
X6703396Y-9027912D01*
X6703396Y-9027912D02*
X6703396Y-9018389D01*
X6703396Y-9018389D02*
X6693872Y-8999341D01*
X6693872Y-8999341D02*
X6674825Y-8989817D01*
X6674825Y-8989817D02*
X6646253Y-8989817D01*
X6646253Y-8989817D02*
X6627206Y-8980293D01*
X6627206Y-8980293D02*
X6617682Y-8961246D01*
X6617682Y-8961246D02*
X6617682Y-8951722D01*
X6617682Y-8951722D02*
X6627206Y-8932674D01*
X6627206Y-8932674D02*
X6646253Y-8923150D01*
X6646253Y-8923150D02*
X6674825Y-8923150D01*
X6674825Y-8923150D02*
X6693872Y-8932674D01*
X6770063Y-9132674D02*
X6779587Y-9123150D01*
X6779587Y-9123150D02*
X6798634Y-9094579D01*
X6798634Y-9094579D02*
X6808158Y-9075531D01*
X6808158Y-9075531D02*
X6817682Y-9046960D01*
X6817682Y-9046960D02*
X6827206Y-8999341D01*
X6827206Y-8999341D02*
X6827206Y-8961246D01*
X6827206Y-8961246D02*
X6817682Y-8913627D01*
X6817682Y-8913627D02*
X6808158Y-8885055D01*
X6808158Y-8885055D02*
X6798634Y-8866008D01*
X6798634Y-8866008D02*
X6779587Y-8837436D01*
X6779587Y-8837436D02*
X6770063Y-8827912D01*
X1795000Y-9129000D02*
X1995000Y-9329000D01*
X1995000Y-9129000D02*
X1795000Y-9329000D01*
X1895000Y-9129000D02*
X1895000Y-9329000D01*
X1795000Y-9229000D02*
X1995000Y-9229000D01*
X2236729Y-9120484D02*
X2360539Y-9120484D01*
X2360539Y-9120484D02*
X2293872Y-9196674D01*
X2293872Y-9196674D02*
X2322444Y-9196674D01*
X2322444Y-9196674D02*
X2341491Y-9206198D01*
X2341491Y-9206198D02*
X2351015Y-9215722D01*
X2351015Y-9215722D02*
X2360539Y-9234770D01*
X2360539Y-9234770D02*
X2360539Y-9282389D01*
X2360539Y-9282389D02*
X2351015Y-9301436D01*
X2351015Y-9301436D02*
X2341491Y-9310960D01*
X2341491Y-9310960D02*
X2322444Y-9320484D01*
X2322444Y-9320484D02*
X2265301Y-9320484D01*
X2265301Y-9320484D02*
X2246253Y-9310960D01*
X2246253Y-9310960D02*
X2236729Y-9301436D01*
X2446253Y-9301436D02*
X2455777Y-9310960D01*
X2455777Y-9310960D02*
X2446253Y-9320484D01*
X2446253Y-9320484D02*
X2436729Y-9310960D01*
X2436729Y-9310960D02*
X2446253Y-9301436D01*
X2446253Y-9301436D02*
X2446253Y-9320484D01*
X2531967Y-9139531D02*
X2541491Y-9130008D01*
X2541491Y-9130008D02*
X2560539Y-9120484D01*
X2560539Y-9120484D02*
X2608158Y-9120484D01*
X2608158Y-9120484D02*
X2627205Y-9130008D01*
X2627205Y-9130008D02*
X2636729Y-9139531D01*
X2636729Y-9139531D02*
X2646253Y-9158579D01*
X2646253Y-9158579D02*
X2646253Y-9177627D01*
X2646253Y-9177627D02*
X2636729Y-9206198D01*
X2636729Y-9206198D02*
X2522444Y-9320484D01*
X2522444Y-9320484D02*
X2646253Y-9320484D01*
X2770063Y-9120484D02*
X2789110Y-9120484D01*
X2789110Y-9120484D02*
X2808158Y-9130008D01*
X2808158Y-9130008D02*
X2817682Y-9139531D01*
X2817682Y-9139531D02*
X2827205Y-9158579D01*
X2827205Y-9158579D02*
X2836729Y-9196674D01*
X2836729Y-9196674D02*
X2836729Y-9244293D01*
X2836729Y-9244293D02*
X2827205Y-9282389D01*
X2827205Y-9282389D02*
X2817682Y-9301436D01*
X2817682Y-9301436D02*
X2808158Y-9310960D01*
X2808158Y-9310960D02*
X2789110Y-9320484D01*
X2789110Y-9320484D02*
X2770063Y-9320484D01*
X2770063Y-9320484D02*
X2751015Y-9310960D01*
X2751015Y-9310960D02*
X2741491Y-9301436D01*
X2741491Y-9301436D02*
X2731967Y-9282389D01*
X2731967Y-9282389D02*
X2722444Y-9244293D01*
X2722444Y-9244293D02*
X2722444Y-9196674D01*
X2722444Y-9196674D02*
X2731967Y-9158579D01*
X2731967Y-9158579D02*
X2741491Y-9139531D01*
X2741491Y-9139531D02*
X2751015Y-9130008D01*
X2751015Y-9130008D02*
X2770063Y-9120484D01*
X2960539Y-9120484D02*
X2979586Y-9120484D01*
X2979586Y-9120484D02*
X2998634Y-9130008D01*
X2998634Y-9130008D02*
X3008158Y-9139531D01*
X3008158Y-9139531D02*
X3017682Y-9158579D01*
X3017682Y-9158579D02*
X3027205Y-9196674D01*
X3027205Y-9196674D02*
X3027205Y-9244293D01*
X3027205Y-9244293D02*
X3017682Y-9282389D01*
X3017682Y-9282389D02*
X3008158Y-9301436D01*
X3008158Y-9301436D02*
X2998634Y-9310960D01*
X2998634Y-9310960D02*
X2979586Y-9320484D01*
X2979586Y-9320484D02*
X2960539Y-9320484D01*
X2960539Y-9320484D02*
X2941491Y-9310960D01*
X2941491Y-9310960D02*
X2931967Y-9301436D01*
X2931967Y-9301436D02*
X2922443Y-9282389D01*
X2922443Y-9282389D02*
X2912920Y-9244293D01*
X2912920Y-9244293D02*
X2912920Y-9196674D01*
X2912920Y-9196674D02*
X2922443Y-9158579D01*
X2922443Y-9158579D02*
X2931967Y-9139531D01*
X2931967Y-9139531D02*
X2941491Y-9130008D01*
X2941491Y-9130008D02*
X2960539Y-9120484D01*
X3112920Y-9320484D02*
X3112920Y-9187150D01*
X3112920Y-9206198D02*
X3122443Y-9196674D01*
X3122443Y-9196674D02*
X3141491Y-9187150D01*
X3141491Y-9187150D02*
X3170063Y-9187150D01*
X3170063Y-9187150D02*
X3189110Y-9196674D01*
X3189110Y-9196674D02*
X3198634Y-9215722D01*
X3198634Y-9215722D02*
X3198634Y-9320484D01*
X3198634Y-9215722D02*
X3208158Y-9196674D01*
X3208158Y-9196674D02*
X3227205Y-9187150D01*
X3227205Y-9187150D02*
X3255777Y-9187150D01*
X3255777Y-9187150D02*
X3274824Y-9196674D01*
X3274824Y-9196674D02*
X3284348Y-9215722D01*
X3284348Y-9215722D02*
X3284348Y-9320484D01*
X3379586Y-9320484D02*
X3379586Y-9187150D01*
X3379586Y-9206198D02*
X3389110Y-9196674D01*
X3389110Y-9196674D02*
X3408158Y-9187150D01*
X3408158Y-9187150D02*
X3436729Y-9187150D01*
X3436729Y-9187150D02*
X3455777Y-9196674D01*
X3455777Y-9196674D02*
X3465301Y-9215722D01*
X3465301Y-9215722D02*
X3465301Y-9320484D01*
X3465301Y-9215722D02*
X3474824Y-9196674D01*
X3474824Y-9196674D02*
X3493872Y-9187150D01*
X3493872Y-9187150D02*
X3522443Y-9187150D01*
X3522443Y-9187150D02*
X3541491Y-9196674D01*
X3541491Y-9196674D02*
X3551015Y-9215722D01*
X3551015Y-9215722D02*
X3551015Y-9320484D01*
X3941491Y-9110960D02*
X3770063Y-9368103D01*
X4198634Y-9120484D02*
X4217682Y-9120484D01*
X4217682Y-9120484D02*
X4236729Y-9130008D01*
X4236729Y-9130008D02*
X4246253Y-9139531D01*
X4246253Y-9139531D02*
X4255777Y-9158579D01*
X4255777Y-9158579D02*
X4265301Y-9196674D01*
X4265301Y-9196674D02*
X4265301Y-9244293D01*
X4265301Y-9244293D02*
X4255777Y-9282389D01*
X4255777Y-9282389D02*
X4246253Y-9301436D01*
X4246253Y-9301436D02*
X4236729Y-9310960D01*
X4236729Y-9310960D02*
X4217682Y-9320484D01*
X4217682Y-9320484D02*
X4198634Y-9320484D01*
X4198634Y-9320484D02*
X4179586Y-9310960D01*
X4179586Y-9310960D02*
X4170063Y-9301436D01*
X4170063Y-9301436D02*
X4160539Y-9282389D01*
X4160539Y-9282389D02*
X4151015Y-9244293D01*
X4151015Y-9244293D02*
X4151015Y-9196674D01*
X4151015Y-9196674D02*
X4160539Y-9158579D01*
X4160539Y-9158579D02*
X4170063Y-9139531D01*
X4170063Y-9139531D02*
X4179586Y-9130008D01*
X4179586Y-9130008D02*
X4198634Y-9120484D01*
X4351015Y-9301436D02*
X4360539Y-9310960D01*
X4360539Y-9310960D02*
X4351015Y-9320484D01*
X4351015Y-9320484D02*
X4341491Y-9310960D01*
X4341491Y-9310960D02*
X4351015Y-9301436D01*
X4351015Y-9301436D02*
X4351015Y-9320484D01*
X4551015Y-9320484D02*
X4436729Y-9320484D01*
X4493872Y-9320484D02*
X4493872Y-9120484D01*
X4493872Y-9120484D02*
X4474825Y-9149055D01*
X4474825Y-9149055D02*
X4455777Y-9168103D01*
X4455777Y-9168103D02*
X4436729Y-9177627D01*
X4627206Y-9139531D02*
X4636729Y-9130008D01*
X4636729Y-9130008D02*
X4655777Y-9120484D01*
X4655777Y-9120484D02*
X4703396Y-9120484D01*
X4703396Y-9120484D02*
X4722444Y-9130008D01*
X4722444Y-9130008D02*
X4731968Y-9139531D01*
X4731968Y-9139531D02*
X4741491Y-9158579D01*
X4741491Y-9158579D02*
X4741491Y-9177627D01*
X4741491Y-9177627D02*
X4731968Y-9206198D01*
X4731968Y-9206198D02*
X4617682Y-9320484D01*
X4617682Y-9320484D02*
X4741491Y-9320484D01*
X4912920Y-9120484D02*
X4874825Y-9120484D01*
X4874825Y-9120484D02*
X4855777Y-9130008D01*
X4855777Y-9130008D02*
X4846253Y-9139531D01*
X4846253Y-9139531D02*
X4827206Y-9168103D01*
X4827206Y-9168103D02*
X4817682Y-9206198D01*
X4817682Y-9206198D02*
X4817682Y-9282389D01*
X4817682Y-9282389D02*
X4827206Y-9301436D01*
X4827206Y-9301436D02*
X4836729Y-9310960D01*
X4836729Y-9310960D02*
X4855777Y-9320484D01*
X4855777Y-9320484D02*
X4893872Y-9320484D01*
X4893872Y-9320484D02*
X4912920Y-9310960D01*
X4912920Y-9310960D02*
X4922444Y-9301436D01*
X4922444Y-9301436D02*
X4931968Y-9282389D01*
X4931968Y-9282389D02*
X4931968Y-9234770D01*
X4931968Y-9234770D02*
X4922444Y-9215722D01*
X4922444Y-9215722D02*
X4912920Y-9206198D01*
X4912920Y-9206198D02*
X4893872Y-9196674D01*
X4893872Y-9196674D02*
X4855777Y-9196674D01*
X4855777Y-9196674D02*
X4836729Y-9206198D01*
X4836729Y-9206198D02*
X4827206Y-9215722D01*
X4827206Y-9215722D02*
X4817682Y-9234770D01*
X5055777Y-9120484D02*
X5074825Y-9120484D01*
X5074825Y-9120484D02*
X5093872Y-9130008D01*
X5093872Y-9130008D02*
X5103396Y-9139531D01*
X5103396Y-9139531D02*
X5112920Y-9158579D01*
X5112920Y-9158579D02*
X5122444Y-9196674D01*
X5122444Y-9196674D02*
X5122444Y-9244293D01*
X5122444Y-9244293D02*
X5112920Y-9282389D01*
X5112920Y-9282389D02*
X5103396Y-9301436D01*
X5103396Y-9301436D02*
X5093872Y-9310960D01*
X5093872Y-9310960D02*
X5074825Y-9320484D01*
X5074825Y-9320484D02*
X5055777Y-9320484D01*
X5055777Y-9320484D02*
X5036729Y-9310960D01*
X5036729Y-9310960D02*
X5027206Y-9301436D01*
X5027206Y-9301436D02*
X5017682Y-9282389D01*
X5017682Y-9282389D02*
X5008158Y-9244293D01*
X5008158Y-9244293D02*
X5008158Y-9196674D01*
X5008158Y-9196674D02*
X5017682Y-9158579D01*
X5017682Y-9158579D02*
X5027206Y-9139531D01*
X5027206Y-9139531D02*
X5036729Y-9130008D01*
X5036729Y-9130008D02*
X5055777Y-9120484D01*
X5198634Y-9120484D02*
X5198634Y-9158579D01*
X5274825Y-9120484D02*
X5274825Y-9158579D01*
X5570063Y-9396674D02*
X5560539Y-9387150D01*
X5560539Y-9387150D02*
X5541491Y-9358579D01*
X5541491Y-9358579D02*
X5531968Y-9339531D01*
X5531968Y-9339531D02*
X5522444Y-9310960D01*
X5522444Y-9310960D02*
X5512920Y-9263341D01*
X5512920Y-9263341D02*
X5512920Y-9225246D01*
X5512920Y-9225246D02*
X5522444Y-9177627D01*
X5522444Y-9177627D02*
X5531968Y-9149055D01*
X5531968Y-9149055D02*
X5541491Y-9130008D01*
X5541491Y-9130008D02*
X5560539Y-9101436D01*
X5560539Y-9101436D02*
X5570063Y-9091912D01*
X5731968Y-9187150D02*
X5731968Y-9320484D01*
X5684348Y-9110960D02*
X5636729Y-9253817D01*
X5636729Y-9253817D02*
X5760539Y-9253817D01*
X5989110Y-9320484D02*
X5989110Y-9120484D01*
X6074825Y-9320484D02*
X6074825Y-9215722D01*
X6074825Y-9215722D02*
X6065301Y-9196674D01*
X6065301Y-9196674D02*
X6046253Y-9187150D01*
X6046253Y-9187150D02*
X6017682Y-9187150D01*
X6017682Y-9187150D02*
X5998634Y-9196674D01*
X5998634Y-9196674D02*
X5989110Y-9206198D01*
X6198634Y-9320484D02*
X6179587Y-9310960D01*
X6179587Y-9310960D02*
X6170063Y-9301436D01*
X6170063Y-9301436D02*
X6160539Y-9282389D01*
X6160539Y-9282389D02*
X6160539Y-9225246D01*
X6160539Y-9225246D02*
X6170063Y-9206198D01*
X6170063Y-9206198D02*
X6179587Y-9196674D01*
X6179587Y-9196674D02*
X6198634Y-9187150D01*
X6198634Y-9187150D02*
X6227206Y-9187150D01*
X6227206Y-9187150D02*
X6246253Y-9196674D01*
X6246253Y-9196674D02*
X6255777Y-9206198D01*
X6255777Y-9206198D02*
X6265301Y-9225246D01*
X6265301Y-9225246D02*
X6265301Y-9282389D01*
X6265301Y-9282389D02*
X6255777Y-9301436D01*
X6255777Y-9301436D02*
X6246253Y-9310960D01*
X6246253Y-9310960D02*
X6227206Y-9320484D01*
X6227206Y-9320484D02*
X6198634Y-9320484D01*
X6379587Y-9320484D02*
X6360539Y-9310960D01*
X6360539Y-9310960D02*
X6351015Y-9291912D01*
X6351015Y-9291912D02*
X6351015Y-9120484D01*
X6531968Y-9310960D02*
X6512920Y-9320484D01*
X6512920Y-9320484D02*
X6474825Y-9320484D01*
X6474825Y-9320484D02*
X6455777Y-9310960D01*
X6455777Y-9310960D02*
X6446253Y-9291912D01*
X6446253Y-9291912D02*
X6446253Y-9215722D01*
X6446253Y-9215722D02*
X6455777Y-9196674D01*
X6455777Y-9196674D02*
X6474825Y-9187150D01*
X6474825Y-9187150D02*
X6512920Y-9187150D01*
X6512920Y-9187150D02*
X6531968Y-9196674D01*
X6531968Y-9196674D02*
X6541491Y-9215722D01*
X6541491Y-9215722D02*
X6541491Y-9234770D01*
X6541491Y-9234770D02*
X6446253Y-9253817D01*
X6617682Y-9310960D02*
X6636730Y-9320484D01*
X6636730Y-9320484D02*
X6674825Y-9320484D01*
X6674825Y-9320484D02*
X6693872Y-9310960D01*
X6693872Y-9310960D02*
X6703396Y-9291912D01*
X6703396Y-9291912D02*
X6703396Y-9282389D01*
X6703396Y-9282389D02*
X6693872Y-9263341D01*
X6693872Y-9263341D02*
X6674825Y-9253817D01*
X6674825Y-9253817D02*
X6646253Y-9253817D01*
X6646253Y-9253817D02*
X6627206Y-9244293D01*
X6627206Y-9244293D02*
X6617682Y-9225246D01*
X6617682Y-9225246D02*
X6617682Y-9215722D01*
X6617682Y-9215722D02*
X6627206Y-9196674D01*
X6627206Y-9196674D02*
X6646253Y-9187150D01*
X6646253Y-9187150D02*
X6674825Y-9187150D01*
X6674825Y-9187150D02*
X6693872Y-9196674D01*
X6770063Y-9396674D02*
X6779587Y-9387150D01*
X6779587Y-9387150D02*
X6798634Y-9358579D01*
X6798634Y-9358579D02*
X6808158Y-9339531D01*
X6808158Y-9339531D02*
X6817682Y-9310960D01*
X6817682Y-9310960D02*
X6827206Y-9263341D01*
X6827206Y-9263341D02*
X6827206Y-9225246D01*
X6827206Y-9225246D02*
X6817682Y-9177627D01*
X6817682Y-9177627D02*
X6808158Y-9149055D01*
X6808158Y-9149055D02*
X6798634Y-9130008D01*
X6798634Y-9130008D02*
X6779587Y-9101436D01*
X6779587Y-9101436D02*
X6770063Y-9091912D01*
M02*
